<?xml version="1.0" encoding="UTF-8" standalone="no"?>
<!DOCTYPE svg PUBLIC "-//W3C//DTD SVG 1.1//EN"
"http://www.w3.org/Graphics/SVG/1.1/DTD/svg11.dtd">
<svg viewBox="0 0 909 1286" version="1.1" xmlns="http://www.w3.org/2000/svg" xmlns:xlink="http://www.w3.org/1999/xlink">
<defs>
<style type="text/css"><![CDATA[
.g0_107{
fill: #FFFFFF;
}
.g1_107{
}
.g2_107{
fill: #009900;
fill-opacity: 0.4;
}
]]></style>
</defs>
<path fill-rule="evenodd" d="M53.9,69.5H856.2V97.9H53.9V69.5l1.5,26.8H854.5V71H55.4V96.3L53.9,69.5Z" class="g0_107" />
<g fill="#000000" >
<use xlink:href="#f0_13" transform="matrix(10,0,0,10,610,87.6)" />
<use xlink:href="#f0_1f" transform="matrix(10,0,0,10,620.8,87.6)" />
<use xlink:href="#f0_h" transform="matrix(10,0,0,10,633.1,87.6)" />
<use xlink:href="#f0_1f" transform="matrix(10,0,0,10,638.2,87.6)" />
<use xlink:href="#f0_1i" transform="matrix(10,0,0,10,650.3,87.6)" />
<use xlink:href="#f0_14" transform="matrix(10,0,0,10,662,87.6)" />
<use xlink:href="#f0_19" transform="matrix(10,0,0,10,673.8,87.6)" />
<use xlink:href="#f0_1e" transform="matrix(10,0,0,10,680,87.6)" />
<use xlink:href="#f0_11" transform="matrix(10,0,0,10,690.8,87.6)" />
<use xlink:href="#f0_1k" transform="matrix(10,0,0,10,701.6,87.6)" />
<use xlink:href="#f0_19" transform="matrix(10,0,0,10,712.3,87.6)" />
<use xlink:href="#f0_1f" transform="matrix(10,0,0,10,718.3,87.6)" />
<use xlink:href="#f0_1e" transform="matrix(10,0,0,10,730.1,87.6)" />
<use xlink:href="#f0_13" transform="matrix(10,0,0,10,745.1,87.6)" />
<use xlink:href="#f0_1f" transform="matrix(10,0,0,10,756.1,87.6)" />
<use xlink:href="#f0_1d" transform="matrix(10,0,0,10,768.2,87.6)" />
<use xlink:href="#f0_1g" transform="matrix(10,0,0,10,782.1,87.6)" />
<use xlink:href="#f0_1f" transform="matrix(10,0,0,10,792.4,87.6)" />
<use xlink:href="#f0_1l" transform="matrix(10,0,0,10,804.3,87.6)" />
<use xlink:href="#f0_1e" transform="matrix(10,0,0,10,815.1,87.6)" />
<use xlink:href="#f0_14" transform="matrix(10,0,0,10,826.5,87.6)" />
<use xlink:href="#f0_1j" transform="matrix(10,0,0,10,838.2,87.6)" />
</g>
<path fill-rule="evenodd" d="M55.2,94.6H854.7v3.1H55.2V94.6Z" class="g1_107" />
<path fill-rule="evenodd" d="M55.2,69.7H854.7v3.1H55.2V69.7Z" class="g1_107" />
<path fill-rule="evenodd" d="M58.1,1199.4H854.8v2.3H58.1v-2.3Z" class="g1_107" />
<path fill-rule="evenodd" d="M453.8,1198.4V109.8h1.6V1198.4h-1.6Z" class="g1_107" />
<g fill="#000000" >
<use xlink:href="#f1_c" transform="matrix(10,0,0,10,57,210.3)" />
<use xlink:href="#f1_p" transform="matrix(10,0,0,10,61.4,210.3)" />
<use xlink:href="#f1_d" transform="matrix(10,0,0,10,68,210.3)" />
</g>
<image preserveAspectRatio="none" x="93" y="129" width="165" height="121" xlink:href="img/1.png" />
<g fill="#000000" >
<use xlink:href="#f1_c" transform="matrix(10,0,0,10,265.1,210.3)" />
<use xlink:href="#f1_q" transform="matrix(10,0,0,10,270.2,210.3)" />
<use xlink:href="#f1_d" transform="matrix(10,0,0,10,277.7,210.3)" />
</g>
<image preserveAspectRatio="none" x="303" y="130" width="141" height="120" xlink:href="img/2.png" />
<g fill="#000000" >
<use xlink:href="#f1_c" transform="matrix(10,0,0,10,57,380.6)" />
<use xlink:href="#f1_r" transform="matrix(10,0,0,10,61.4,380.6)" />
<use xlink:href="#f1_d" transform="matrix(10,0,0,10,68,380.6)" />
</g>
<image preserveAspectRatio="none" x="93" y="287" width="124" height="140" xlink:href="img/3.png" />
<g fill="#000000" >
<use xlink:href="#f1_c" transform="matrix(10,0,0,10,257.9,380.6)" />
<use xlink:href="#f1_s" transform="matrix(10,0,0,10,263.1,380.6)" />
<use xlink:href="#f1_d" transform="matrix(10,0,0,10,270.6,380.6)" />
</g>
<image preserveAspectRatio="none" x="294" y="327" width="150" height="129" xlink:href="img/4.png" />
<g fill="#000000" >
<use xlink:href="#f1_c" transform="matrix(10,0,0,10,57,537.2)" />
<use xlink:href="#f1_t" transform="matrix(10,0,0,10,61.4,537.2)" />
<use xlink:href="#f1_d" transform="matrix(10,0,0,10,68,537.2)" />
</g>
<image preserveAspectRatio="none" x="93" y="471" width="148" height="150" xlink:href="img/5.png" />
<g fill="#000000" >
<use xlink:href="#f1_c" transform="matrix(10,0,0,10,260.9,537.2)" />
<use xlink:href="#f1_l" transform="matrix(10,0,0,10,266,537.2)" />
<use xlink:href="#f1_k" transform="matrix(10,0,0,10,273.5,537.2)" />
<use xlink:href="#f1_d" transform="matrix(10,0,0,10,280.9,537.2)" />
</g>
<image preserveAspectRatio="none" x="307" y="462" width="138" height="112" xlink:href="img/6.png" />
<g fill="#000000" >
<use xlink:href="#f2_c" transform="matrix(10,0,0,10,57,651.2)" />
<use xlink:href="#f2_1z" transform="matrix(10,0,0,10,61.6,651.2)" />
<use xlink:href="#f2_d" transform="matrix(10,0,0,10,68,651.2)" />
<use xlink:href="#f2_1k" transform="matrix(10,0,0,10,91.3,651.2)" />
<use xlink:href="#f2_2e" transform="matrix(10,0,0,10,100.1,651.2)" />
<use xlink:href="#f2_25" transform="matrix(10,0,0,10,106.3,651.2)" />
<use xlink:href="#f2_20" transform="matrix(10,0,0,10,110,651.2)" />
<use xlink:href="#f2_21" transform="matrix(10,0,0,10,118.1,651.2)" />
<use xlink:href="#f2_2a" transform="matrix(10,0,0,10,124.3,651.2)" />
<use xlink:href="#f2_2g" transform="matrix(10,0,0,10,132.4,651.2)" />
<use xlink:href="#f2_1x" transform="matrix(10,0,0,10,137.1,651.2)" />
<use xlink:href="#f2_2g" transform="matrix(10,0,0,10,144.3,651.2)" />
<use xlink:href="#f2_21" transform="matrix(10,0,0,10,149.2,651.2)" />
<use xlink:href="#f2_1c" transform="matrix(10,0,0,10,158.2,651.2)" />
<use xlink:href="#f2_25" transform="matrix(10,0,0,10,167.6,651.2)" />
<use xlink:href="#f2_23" transform="matrix(10,0,0,10,171.6,651.2)" />
<use xlink:href="#f2_1x" transform="matrix(10,0,0,10,178.9,651.2)" />
<use xlink:href="#f2_2a" transform="matrix(10,0,0,10,186.1,651.2)" />
<use xlink:href="#f2_20" transform="matrix(10,0,0,10,194.2,651.2)" />
<use xlink:href="#f1_1k" transform="matrix(10,0,0,10,91.3,675.8)" />
<use xlink:href="#f1_24" transform="matrix(10,0,0,10,101,675.8)" />
<use xlink:href="#f1_21" transform="matrix(10,0,0,10,108.4,675.8)" />
<use xlink:href="#f1_28" transform="matrix(10,0,0,10,119.2,675.8)" />
<use xlink:href="#f1_25" transform="matrix(10,0,0,10,123.4,675.8)" />
<use xlink:href="#f1_23" transform="matrix(10,0,0,10,127.6,675.8)" />
<use xlink:href="#f1_1x" transform="matrix(10,0,0,10,134.9,675.8)" />
<use xlink:href="#f1_2a" transform="matrix(10,0,0,10,141.9,675.8)" />
<use xlink:href="#f1_20" transform="matrix(10,0,0,10,149.2,675.8)" />
<use xlink:href="#f1_2f" transform="matrix(10,0,0,10,157.1,675.8)" />
<use xlink:href="#f1_24" transform="matrix(10,0,0,10,166.8,675.8)" />
<use xlink:href="#f1_1x" transform="matrix(10,0,0,10,174.4,675.8)" />
<use xlink:href="#f1_2i" transform="matrix(10,0,0,10,181.1,675.8)" />
<use xlink:href="#f1_25" transform="matrix(10,0,0,10,188.7,675.8)" />
<use xlink:href="#f1_2a" transform="matrix(10,0,0,10,192.9,675.8)" />
<use xlink:href="#f1_23" transform="matrix(10,0,0,10,200.2,675.8)" />
<use xlink:href="#f1_2g" transform="matrix(10,0,0,10,211.8,675.8)" />
<use xlink:href="#f1_24" transform="matrix(10,0,0,10,216,675.8)" />
<use xlink:href="#f1_2e" transform="matrix(10,0,0,10,223.3,675.8)" />
<use xlink:href="#f1_21" transform="matrix(10,0,0,10,228.4,675.8)" />
<use xlink:href="#f1_21" transform="matrix(10,0,0,10,235.4,675.8)" />
<use xlink:href="#f1_20" transform="matrix(10,0,0,10,245.9,675.8)" />
<use xlink:href="#f1_2b" transform="matrix(10,0,0,10,253.8,675.8)" />
<use xlink:href="#f1_2a" transform="matrix(10,0,0,10,261.3,675.8)" />
<use xlink:href="#f1_2b" transform="matrix(10,0,0,10,269,675.8)" />
<use xlink:href="#f1_2e" transform="matrix(10,0,0,10,276.5,675.8)" />
<use xlink:href="#f1_1x" transform="matrix(10,0,0,10,285.5,675.8)" />
<use xlink:href="#f1_2g" transform="matrix(10,0,0,10,292.4,675.8)" />
<use xlink:href="#f1_2b" transform="matrix(10,0,0,10,296.7,675.8)" />
<use xlink:href="#f1_29" transform="matrix(10,0,0,10,304.2,675.8)" />
<use xlink:href="#f1_2f" transform="matrix(10,0,0,10,315.7,675.8)" />
<use xlink:href="#f1_1x" transform="matrix(10,0,0,10,325.4,675.8)" />
<use xlink:href="#f1_2e" transform="matrix(10,0,0,10,332.4,675.8)" />
<use xlink:href="#f1_21" transform="matrix(10,0,0,10,337.5,675.8)" />
<use xlink:href="#f1_1z" transform="matrix(10,0,0,10,348,675.8)" />
<use xlink:href="#f1_1x" transform="matrix(10,0,0,10,355,675.8)" />
<use xlink:href="#f1_28" transform="matrix(10,0,0,10,361.8,675.8)" />
<use xlink:href="#f1_28" transform="matrix(10,0,0,10,366,675.8)" />
<use xlink:href="#f1_21" transform="matrix(10,0,0,10,370.2,675.8)" />
<use xlink:href="#f1_20" transform="matrix(10,0,0,10,377,675.8)" />
<use xlink:href="#f1_2g" transform="matrix(10,0,0,10,388.5,675.8)" />
<use xlink:href="#f1_2e" transform="matrix(10,0,0,10,392.7,675.8)" />
<use xlink:href="#f1_25" transform="matrix(10,0,0,10,397.7,675.8)" />
<use xlink:href="#f1_20" transform="matrix(10,0,0,10,401.9,675.8)" />
<use xlink:href="#f1_21" transform="matrix(10,0,0,10,409.7,675.8)" />
<use xlink:href="#f1_2a" transform="matrix(10,0,0,10,416.5,675.8)" />
<use xlink:href="#f1_2g" transform="matrix(10,0,0,10,423.9,675.8)" />
<use xlink:href="#f1_1x" transform="matrix(10,0,0,10,428.1,675.8)" />
<use xlink:href="#f1_2g" transform="matrix(10,0,0,10,435.1,675.8)" />
<use xlink:href="#f1_21" transform="matrix(10,0,0,10,439.3,675.8)" />
<use xlink:href="#f1_28" transform="matrix(10,0,0,10,91.7,694.8)" />
<use xlink:href="#f1_25" transform="matrix(10,0,0,10,95.9,694.8)" />
<use xlink:href="#f1_23" transform="matrix(10,0,0,10,100.3,694.8)" />
<use xlink:href="#f1_1x" transform="matrix(10,0,0,10,107.6,694.8)" />
<use xlink:href="#f1_2a" transform="matrix(10,0,0,10,114.6,694.8)" />
<use xlink:href="#f1_20" transform="matrix(10,0,0,10,122.1,694.8)" />
<use xlink:href="#f1_2f" transform="matrix(10,0,0,10,130,694.8)" />
<use xlink:href="#f1_i" transform="matrix(10,0,0,10,136,694.8)" />
<use xlink:href="#f2_15" transform="matrix(10,0,0,10,64.5,724.9)" />
<use xlink:href="#f2_2k" transform="matrix(10,0,0,10,74.2,724.9)" />
<use xlink:href="#f2_1x" transform="matrix(10,0,0,10,81.4,724.9)" />
<use xlink:href="#f2_29" transform="matrix(10,0,0,10,89.1,724.9)" />
<use xlink:href="#f2_2c" transform="matrix(10,0,0,10,101,724.9)" />
<use xlink:href="#f2_28" transform="matrix(10,0,0,10,109.1,724.9)" />
<use xlink:href="#f2_21" transform="matrix(10,0,0,10,112.7,724.9)" />
<use xlink:href="#f2_u" transform="matrix(10,0,0,10,121.7,724.9)" />
<use xlink:href="#f1_c" transform="matrix(10,0,0,10,62.5,836.2)" />
<use xlink:href="#f1_l" transform="matrix(10,0,0,10,67.3,836.2)" />
<use xlink:href="#f1_d" transform="matrix(10,0,0,10,75,836.2)" />
</g>
<image preserveAspectRatio="none" x="93" y="763" width="102" height="109" xlink:href="img/7.png" />
<g fill="#000000" >
<use xlink:href="#f1_c" transform="matrix(10,0,0,10,245.3,836.2)" />
<use xlink:href="#f1_m" transform="matrix(10,0,0,10,250.4,836.2)" />
<use xlink:href="#f1_d" transform="matrix(10,0,0,10,258.3,836.2)" />
</g>
<image preserveAspectRatio="none" x="283" y="768" width="162" height="102" xlink:href="img/8.png" />
<g fill="#000000" >
<use xlink:href="#f2_c" transform="matrix(10,0,0,10,57,906.9)" />
<use xlink:href="#f2_20" transform="matrix(10,0,0,10,60.9,906.9)" />
<use xlink:href="#f2_d" transform="matrix(10,0,0,10,68,906.9)" />
<use xlink:href="#f2_1k" transform="matrix(10,0,0,10,91.3,906.9)" />
<use xlink:href="#f2_21" transform="matrix(10,0,0,10,99.7,906.9)" />
<use xlink:href="#f2_2g" transform="matrix(10,0,0,10,106.1,906.9)" />
<use xlink:href="#f2_2e" transform="matrix(10,0,0,10,110.9,906.9)" />
<use xlink:href="#f2_1x" transform="matrix(10,0,0,10,117.2,906.9)" />
<use xlink:href="#f2_20" transform="matrix(10,0,0,10,124.5,906.9)" />
<use xlink:href="#f2_21" transform="matrix(10,0,0,10,132.5,906.9)" />
<use xlink:href="#f2_2a" transform="matrix(10,0,0,10,139.2,906.9)" />
<use xlink:href="#f2_2g" transform="matrix(10,0,0,10,147.2,906.9)" />
<use xlink:href="#f2_1x" transform="matrix(10,0,0,10,151.8,906.9)" />
<use xlink:href="#f2_2g" transform="matrix(10,0,0,10,159.1,906.9)" />
<use xlink:href="#f2_21" transform="matrix(10,0,0,10,163.7,906.9)" />
<use xlink:href="#f2_28" transform="matrix(10,0,0,10,172.7,906.9)" />
<use xlink:href="#f2_25" transform="matrix(10,0,0,10,176.7,906.9)" />
<use xlink:href="#f2_23" transform="matrix(10,0,0,10,180.6,906.9)" />
<use xlink:href="#f2_1x" transform="matrix(10,0,0,10,187.7,906.9)" />
<use xlink:href="#f2_2a" transform="matrix(10,0,0,10,195.1,906.9)" />
<use xlink:href="#f2_20" transform="matrix(10,0,0,10,203.1,906.9)" />
<use xlink:href="#f1_1k" transform="matrix(10,0,0,10,91.3,932.4)" />
<use xlink:href="#f1_24" transform="matrix(10,0,0,10,101,932.4)" />
<use xlink:href="#f1_21" transform="matrix(10,0,0,10,108.4,932.4)" />
<use xlink:href="#f1_2f" transform="matrix(10,0,0,10,115.3,932.4)" />
<use xlink:href="#f1_21" transform="matrix(10,0,0,10,121,932.4)" />
<use xlink:href="#f1_28" transform="matrix(10,0,0,10,132.7,932.4)" />
<use xlink:href="#f1_25" transform="matrix(10,0,0,10,137,932.4)" />
<use xlink:href="#f1_23" transform="matrix(10,0,0,10,141.2,932.4)" />
<use xlink:href="#f1_1x" transform="matrix(10,0,0,10,148.9,932.4)" />
<use xlink:href="#f1_2a" transform="matrix(10,0,0,10,155.7,932.4)" />
<use xlink:href="#f1_20" transform="matrix(10,0,0,10,163,932.4)" />
<use xlink:href="#f1_2c" transform="matrix(10,0,0,10,175.7,932.4)" />
<use xlink:href="#f1_2b" transform="matrix(10,0,0,10,183.5,932.4)" />
<use xlink:href="#f1_2f" transform="matrix(10,0,0,10,191,932.4)" />
<use xlink:href="#f1_2f" transform="matrix(10,0,0,10,196.9,932.4)" />
<use xlink:href="#f1_21" transform="matrix(10,0,0,10,203,932.4)" />
<use xlink:href="#f1_2f" transform="matrix(10,0,0,10,209.7,932.4)" />
<use xlink:href="#f1_2f" transform="matrix(10,0,0,10,215.4,932.4)" />
<use xlink:href="#f1_22" transform="matrix(10,0,0,10,226.1,932.4)" />
<use xlink:href="#f1_2b" transform="matrix(10,0,0,10,231.2,932.4)" />
<use xlink:href="#f1_2h" transform="matrix(10,0,0,10,238.7,932.4)" />
<use xlink:href="#f1_2e" transform="matrix(10,0,0,10,246.4,932.4)" />
<use xlink:href="#f1_20" transform="matrix(10,0,0,10,256.5,932.4)" />
<use xlink:href="#f1_2b" transform="matrix(10,0,0,10,264,932.4)" />
<use xlink:href="#f1_2a" transform="matrix(10,0,0,10,271.9,932.4)" />
<use xlink:href="#f1_2b" transform="matrix(10,0,0,10,279.2,932.4)" />
<use xlink:href="#f1_2e" transform="matrix(10,0,0,10,287.1,932.4)" />
<use xlink:href="#f1_1x" transform="matrix(10,0,0,10,297,932.4)" />
<use xlink:href="#f1_2g" transform="matrix(10,0,0,10,304,932.4)" />
<use xlink:href="#f1_2b" transform="matrix(10,0,0,10,308,932.4)" />
<use xlink:href="#f1_29" transform="matrix(10,0,0,10,315.9,932.4)" />
<use xlink:href="#f1_2f" transform="matrix(10,0,0,10,327.4,932.4)" />
<use xlink:href="#f2_15" transform="matrix(10,0,0,10,64.5,963.6)" />
<use xlink:href="#f2_2k" transform="matrix(10,0,0,10,74.2,963.6)" />
<use xlink:href="#f2_1x" transform="matrix(10,0,0,10,81.4,963.6)" />
<use xlink:href="#f2_29" transform="matrix(10,0,0,10,89.1,963.6)" />
<use xlink:href="#f2_2c" transform="matrix(10,0,0,10,101,963.6)" />
<use xlink:href="#f2_28" transform="matrix(10,0,0,10,109.1,963.6)" />
<use xlink:href="#f2_21" transform="matrix(10,0,0,10,112.7,963.6)" />
<use xlink:href="#f2_u" transform="matrix(10,0,0,10,121.7,963.6)" />
<use xlink:href="#f1_c" transform="matrix(10,0,0,10,62.5,1061.5)" />
<use xlink:href="#f1_l" transform="matrix(10,0,0,10,67.3,1061.5)" />
<use xlink:href="#f1_d" transform="matrix(10,0,0,10,75,1061.5)" />
</g>
<image preserveAspectRatio="none" x="93" y="993" width="147" height="124" xlink:href="img/9.png" />
<g fill="#000000" >
<use xlink:href="#f1_c" transform="matrix(10,0,0,10,253.2,1061.5)" />
<use xlink:href="#f1_m" transform="matrix(10,0,0,10,258.5,1061.5)" />
<use xlink:href="#f1_d" transform="matrix(10,0,0,10,266,1061.5)" />
</g>
<image preserveAspectRatio="none" x="294" y="1016" width="150" height="133" xlink:href="img/10.png" />
<g fill="#000000" >
<use xlink:href="#f2_c" transform="matrix(10,0,0,10,467.7,125.8)" />
<use xlink:href="#f2_21" transform="matrix(10,0,0,10,472.1,125.8)" />
<use xlink:href="#f2_d" transform="matrix(10,0,0,10,478.5,125.8)" />
<use xlink:href="#f2_1g" transform="matrix(10,0,0,10,502,125.8)" />
<use xlink:href="#f2_21" transform="matrix(10,0,0,10,511.1,125.8)" />
<use xlink:href="#f2_2a" transform="matrix(10,0,0,10,517.7,125.8)" />
<use xlink:href="#f2_2g" transform="matrix(10,0,0,10,525.8,125.8)" />
<use xlink:href="#f2_1x" transform="matrix(10,0,0,10,530.4,125.8)" />
<use xlink:href="#f2_20" transform="matrix(10,0,0,10,538.1,125.8)" />
<use xlink:href="#f2_21" transform="matrix(10,0,0,10,546.2,125.8)" />
<use xlink:href="#f2_2a" transform="matrix(10,0,0,10,552.6,125.8)" />
<use xlink:href="#f2_2g" transform="matrix(10,0,0,10,560.6,125.8)" />
<use xlink:href="#f2_1x" transform="matrix(10,0,0,10,565.4,125.8)" />
<use xlink:href="#f2_2g" transform="matrix(10,0,0,10,572.9,125.8)" />
<use xlink:href="#f2_21" transform="matrix(10,0,0,10,577.7,125.8)" />
<use xlink:href="#f2_28" transform="matrix(10,0,0,10,586.7,125.8)" />
<use xlink:href="#f2_25" transform="matrix(10,0,0,10,590.5,125.8)" />
<use xlink:href="#f2_23" transform="matrix(10,0,0,10,594.7,125.8)" />
<use xlink:href="#f2_1x" transform="matrix(10,0,0,10,601.9,125.8)" />
<use xlink:href="#f2_2a" transform="matrix(10,0,0,10,609.2,125.8)" />
<use xlink:href="#f2_20" transform="matrix(10,0,0,10,617.7,125.8)" />
<use xlink:href="#f2_2f" transform="matrix(10,0,0,10,625.7,125.8)" />
<use xlink:href="#f1_1k" transform="matrix(10,0,0,10,502,163)" />
<use xlink:href="#f1_24" transform="matrix(10,0,0,10,511.7,163)" />
<use xlink:href="#f1_21" transform="matrix(10,0,0,10,519,163)" />
<use xlink:href="#f1_2l" transform="matrix(10,0,0,10,526,163)" />
<use xlink:href="#f1_24" transform="matrix(10,0,0,10,537.5,163)" />
<use xlink:href="#f1_1x" transform="matrix(10,0,0,10,545.1,163)" />
<use xlink:href="#f1_2i" transform="matrix(10,0,0,10,551.7,163)" />
<use xlink:href="#f1_21" transform="matrix(10,0,0,10,559.4,163)" />
<use xlink:href="#f1_22" transform="matrix(10,0,0,10,570.2,163)" />
<use xlink:href="#f1_25" transform="matrix(10,0,0,10,575.3,163)" />
<use xlink:href="#f1_2i" transform="matrix(10,0,0,10,579.3,163)" />
<use xlink:href="#f1_21" transform="matrix(10,0,0,10,587,163)" />
<use xlink:href="#f1_20" transform="matrix(10,0,0,10,598,163)" />
<use xlink:href="#f1_2b" transform="matrix(10,0,0,10,605.6,163)" />
<use xlink:href="#f1_2a" transform="matrix(10,0,0,10,613.4,163)" />
<use xlink:href="#f1_2b" transform="matrix(10,0,0,10,620.8,163)" />
<use xlink:href="#f1_2e" transform="matrix(10,0,0,10,628.7,163)" />
<use xlink:href="#f1_1x" transform="matrix(10,0,0,10,637.8,163)" />
<use xlink:href="#f1_2g" transform="matrix(10,0,0,10,644.8,163)" />
<use xlink:href="#f1_2b" transform="matrix(10,0,0,10,649,163)" />
<use xlink:href="#f1_29" transform="matrix(10,0,0,10,656.5,163)" />
<use xlink:href="#f1_2f" transform="matrix(10,0,0,10,668.1,163)" />
<use xlink:href="#f2_15" transform="matrix(10,0,0,10,475,195.6)" />
<use xlink:href="#f2_2k" transform="matrix(10,0,0,10,484.7,195.6)" />
<use xlink:href="#f2_1x" transform="matrix(10,0,0,10,491.9,195.6)" />
<use xlink:href="#f2_29" transform="matrix(10,0,0,10,499.6,195.6)" />
<use xlink:href="#f2_2c" transform="matrix(10,0,0,10,511.5,195.6)" />
<use xlink:href="#f2_28" transform="matrix(10,0,0,10,519.6,195.6)" />
<use xlink:href="#f2_21" transform="matrix(10,0,0,10,523.2,195.6)" />
<use xlink:href="#f2_u" transform="matrix(10,0,0,10,532.2,195.6)" />
</g>
<image preserveAspectRatio="none" x="503" y="226" width="195" height="201" xlink:href="img/11.png" />
<g fill="#000000" >
<use xlink:href="#f2_c" transform="matrix(10,0,0,10,467.7,470.6)" />
<use xlink:href="#f2_22" transform="matrix(10,0,0,10,471.9,470.6)" />
<use xlink:href="#f2_d" transform="matrix(10,0,0,10,476.3,470.6)" />
<use xlink:href="#f2_18" transform="matrix(10,0,0,10,502,470.6)" />
<use xlink:href="#f2_21" transform="matrix(10,0,0,10,513.3,470.6)" />
<use xlink:href="#f2_2k" transform="matrix(10,0,0,10,519.8,470.6)" />
<use xlink:href="#f2_1x" transform="matrix(10,0,0,10,526.7,470.6)" />
<use xlink:href="#f2_20" transform="matrix(10,0,0,10,534.1,470.6)" />
<use xlink:href="#f2_21" transform="matrix(10,0,0,10,541.9,470.6)" />
<use xlink:href="#f2_2a" transform="matrix(10,0,0,10,548.4,470.6)" />
<use xlink:href="#f2_2g" transform="matrix(10,0,0,10,556.2,470.6)" />
<use xlink:href="#f2_1x" transform="matrix(10,0,0,10,561,470.6)" />
<use xlink:href="#f2_2g" transform="matrix(10,0,0,10,568.2,470.6)" />
<use xlink:href="#f2_21" transform="matrix(10,0,0,10,573.1,470.6)" />
<use xlink:href="#f2_1c" transform="matrix(10,0,0,10,581.9,470.6)" />
<use xlink:href="#f2_25" transform="matrix(10,0,0,10,591.3,470.6)" />
<use xlink:href="#f2_23" transform="matrix(10,0,0,10,595.3,470.6)" />
<use xlink:href="#f2_1x" transform="matrix(10,0,0,10,602.4,470.6)" />
<use xlink:href="#f2_2a" transform="matrix(10,0,0,10,609.8,470.6)" />
<use xlink:href="#f2_20" transform="matrix(10,0,0,10,617.7,470.6)" />
<use xlink:href="#f2_2f" transform="matrix(10,0,0,10,625.7,470.6)" />
<use xlink:href="#f1_1k" transform="matrix(10,0,0,10,502,497.7)" />
<use xlink:href="#f1_24" transform="matrix(10,0,0,10,511.7,497.7)" />
<use xlink:href="#f1_21" transform="matrix(10,0,0,10,519,497.7)" />
<use xlink:href="#f1_2l" transform="matrix(10,0,0,10,526,497.7)" />
<use xlink:href="#f1_24" transform="matrix(10,0,0,10,537,497.7)" />
<use xlink:href="#f1_1x" transform="matrix(10,0,0,10,544.7,497.7)" />
<use xlink:href="#f1_2i" transform="matrix(10,0,0,10,551.5,497.7)" />
<use xlink:href="#f1_21" transform="matrix(10,0,0,10,558.8,497.7)" />
<use xlink:href="#f1_2f" transform="matrix(10,0,0,10,569.6,497.7)" />
<use xlink:href="#f1_25" transform="matrix(10,0,0,10,575.5,497.7)" />
<use xlink:href="#f1_2k" transform="matrix(10,0,0,10,579.5,497.7)" />
<use xlink:href="#f1_20" transform="matrix(10,0,0,10,590.9,497.7)" />
<use xlink:href="#f1_2b" transform="matrix(10,0,0,10,598.8,497.7)" />
<use xlink:href="#f1_2a" transform="matrix(10,0,0,10,606.3,497.7)" />
<use xlink:href="#f1_2b" transform="matrix(10,0,0,10,614,497.7)" />
<use xlink:href="#f1_2e" transform="matrix(10,0,0,10,621.5,497.7)" />
<use xlink:href="#f1_1x" transform="matrix(10,0,0,10,630.5,497.7)" />
<use xlink:href="#f1_2g" transform="matrix(10,0,0,10,637.5,497.7)" />
<use xlink:href="#f1_2b" transform="matrix(10,0,0,10,641.7,497.7)" />
<use xlink:href="#f1_29" transform="matrix(10,0,0,10,649.2,497.7)" />
<use xlink:href="#f1_2f" transform="matrix(10,0,0,10,660.8,497.7)" />
<use xlink:href="#f1_i" transform="matrix(10,0,0,10,666.8,497.7)" />
<use xlink:href="#f2_15" transform="matrix(10,0,0,10,475,541.6)" />
<use xlink:href="#f2_2k" transform="matrix(10,0,0,10,484.7,541.6)" />
<use xlink:href="#f2_1x" transform="matrix(10,0,0,10,491.9,541.6)" />
<use xlink:href="#f2_29" transform="matrix(10,0,0,10,499.6,541.6)" />
<use xlink:href="#f2_2c" transform="matrix(10,0,0,10,511.5,541.6)" />
<use xlink:href="#f2_28" transform="matrix(10,0,0,10,519.6,541.6)" />
<use xlink:href="#f2_21" transform="matrix(10,0,0,10,523.2,541.6)" />
<use xlink:href="#f2_u" transform="matrix(10,0,0,10,532.2,541.6)" />
</g>
<image preserveAspectRatio="none" x="503" y="556" width="176" height="243" xlink:href="img/12.png" />
<g fill="#000000" >
<use xlink:href="#f2_l" transform="matrix(10,0,0,10,502,836.9)" />
<use xlink:href="#f2_o" transform="matrix(10,0,0,10,509.9,836.9)" />
<use xlink:href="#f2_i" transform="matrix(10,0,0,10,517.4,836.9)" />
<use xlink:href="#f2_m" transform="matrix(10,0,0,10,521,836.9)" />
<use xlink:href="#f2_i" transform="matrix(10,0,0,10,528.9,836.9)" />
<use xlink:href="#f2_m" transform="matrix(10,0,0,10,532.6,836.9)" />
<use xlink:href="#f2_13" transform="matrix(10,0,0,10,543.2,836.9)" />
<use xlink:href="#f2_24" transform="matrix(10,0,0,10,554,836.9)" />
<use xlink:href="#f2_21" transform="matrix(10,0,0,10,562.6,836.9)" />
<use xlink:href="#f2_28" transform="matrix(10,0,0,10,569.4,836.9)" />
<use xlink:href="#f2_1x" transform="matrix(10,0,0,10,573.5,836.9)" />
<use xlink:href="#f2_2g" transform="matrix(10,0,0,10,581.4,836.9)" />
<use xlink:href="#f2_25" transform="matrix(10,0,0,10,586.1,836.9)" />
<use xlink:href="#f2_2a" transform="matrix(10,0,0,10,590.3,836.9)" />
<use xlink:href="#f2_23" transform="matrix(10,0,0,10,598.8,836.9)" />
<use xlink:href="#f2_28" transform="matrix(10,0,0,10,609.4,836.9)" />
<use xlink:href="#f2_25" transform="matrix(10,0,0,10,613.3,836.9)" />
<use xlink:href="#f2_23" transform="matrix(10,0,0,10,617.5,836.9)" />
<use xlink:href="#f2_1x" transform="matrix(10,0,0,10,625.4,836.9)" />
<use xlink:href="#f2_2a" transform="matrix(10,0,0,10,632.9,836.9)" />
<use xlink:href="#f2_20" transform="matrix(10,0,0,10,641.3,836.9)" />
<use xlink:href="#f2_2f" transform="matrix(10,0,0,10,649.6,836.9)" />
<use xlink:href="#f2_u" transform="matrix(10,0,0,10,658.3,836.9)" />
<use xlink:href="#f1_11" transform="matrix(10,0,0,10,502,864)" />
<use xlink:href="#f1_1y" transform="matrix(10,0,0,10,516.3,864)" />
<use xlink:href="#f1_25" transform="matrix(10,0,0,10,523.8,864)" />
<use xlink:href="#f1_20" transform="matrix(10,0,0,10,528,864)" />
<use xlink:href="#f1_21" transform="matrix(10,0,0,10,535.9,864)" />
<use xlink:href="#f1_2a" transform="matrix(10,0,0,10,542.5,864)" />
<use xlink:href="#f1_2g" transform="matrix(10,0,0,10,550,864)" />
<use xlink:href="#f1_1x" transform="matrix(10,0,0,10,554.2,864)" />
<use xlink:href="#f1_2g" transform="matrix(10,0,0,10,561.2,864)" />
<use xlink:href="#f1_21" transform="matrix(10,0,0,10,565.4,864)" />
<use xlink:href="#f1_2b" transform="matrix(10,0,0,10,575.5,864)" />
<use xlink:href="#f1_2e" transform="matrix(10,0,0,10,583,864)" />
<use xlink:href="#f1_1x" transform="matrix(10,0,0,10,591.6,864)" />
<use xlink:href="#f1_2c" transform="matrix(10,0,0,10,601.7,864)" />
<use xlink:href="#f1_2b" transform="matrix(10,0,0,10,609.6,864)" />
<use xlink:href="#f1_28" transform="matrix(10,0,0,10,617.1,864)" />
<use xlink:href="#f1_2l" transform="matrix(10,0,0,10,621.3,864)" />
<use xlink:href="#f1_20" transform="matrix(10,0,0,10,628.8,864)" />
<use xlink:href="#f1_21" transform="matrix(10,0,0,10,636.4,864)" />
<use xlink:href="#f1_2a" transform="matrix(10,0,0,10,643.3,864)" />
<use xlink:href="#f1_2g" transform="matrix(10,0,0,10,650.7,864)" />
<use xlink:href="#f1_1x" transform="matrix(10,0,0,10,654.9,864)" />
<use xlink:href="#f1_2g" transform="matrix(10,0,0,10,661.9,864)" />
<use xlink:href="#f1_21" transform="matrix(10,0,0,10,665.9,864)" />
<use xlink:href="#f1_28" transform="matrix(10,0,0,10,676.2,864)" />
<use xlink:href="#f1_25" transform="matrix(10,0,0,10,680.2,864)" />
<use xlink:href="#f1_23" transform="matrix(10,0,0,10,684.4,864)" />
<use xlink:href="#f1_1x" transform="matrix(10,0,0,10,692.1,864)" />
<use xlink:href="#f1_2a" transform="matrix(10,0,0,10,698.9,864)" />
<use xlink:href="#f1_20" transform="matrix(10,0,0,10,706.2,864)" />
<use xlink:href="#f1_25" transform="matrix(10,0,0,10,717.4,864)" />
<use xlink:href="#f1_2f" transform="matrix(10,0,0,10,721.5,864)" />
<use xlink:href="#f1_27" transform="matrix(10,0,0,10,730.8,864)" />
<use xlink:href="#f1_2a" transform="matrix(10,0,0,10,738.3,864)" />
<use xlink:href="#f1_2b" transform="matrix(10,0,0,10,745.7,864)" />
<use xlink:href="#f1_2j" transform="matrix(10,0,0,10,753.5,864)" />
<use xlink:href="#f1_2a" transform="matrix(10,0,0,10,764.2,864)" />
<use xlink:href="#f1_1x" transform="matrix(10,0,0,10,775,864)" />
<use xlink:href="#f1_2f" transform="matrix(10,0,0,10,782,864)" />
<use xlink:href="#f1_1x" transform="matrix(10,0,0,10,791.1,864)" />
<use xlink:href="#f1_1z" transform="matrix(10,0,0,10,801,864)" />
<use xlink:href="#f1_24" transform="matrix(10,0,0,10,807.9,864)" />
<use xlink:href="#f1_21" transform="matrix(10,0,0,10,815.3,864)" />
<use xlink:href="#f1_28" transform="matrix(10,0,0,10,822.3,864)" />
<use xlink:href="#f1_1x" transform="matrix(10,0,0,10,826.3,864)" />
<use xlink:href="#f1_2g" transform="matrix(10,0,0,10,833.1,864)" />
<use xlink:href="#f1_25" transform="matrix(10,0,0,10,837.5,864)" />
<use xlink:href="#f1_2a" transform="matrix(10,0,0,10,841.7,864)" />
<use xlink:href="#f1_23" transform="matrix(10,0,0,10,849,864)" />
<use xlink:href="#f1_28" transform="matrix(10,0,0,10,502,884.9)" />
<use xlink:href="#f1_25" transform="matrix(10,0,0,10,506.4,884.9)" />
<use xlink:href="#f1_23" transform="matrix(10,0,0,10,510.6,884.9)" />
<use xlink:href="#f1_1x" transform="matrix(10,0,0,10,517.9,884.9)" />
<use xlink:href="#f1_2a" transform="matrix(10,0,0,10,524.9,884.9)" />
<use xlink:href="#f1_20" transform="matrix(10,0,0,10,532.2,884.9)" />
<use xlink:href="#f1_25" transform="matrix(10,0,0,10,545.4,884.9)" />
<use xlink:href="#f1_22" transform="matrix(10,0,0,10,549.5,884.9)" />
<use xlink:href="#f1_2b" transform="matrix(10,0,0,10,559.5,884.9)" />
<use xlink:href="#f1_2a" transform="matrix(10,0,0,10,567.2,884.9)" />
<use xlink:href="#f1_1z" transform="matrix(10,0,0,10,580.1,884.9)" />
<use xlink:href="#f1_2b" transform="matrix(10,0,0,10,587,884.9)" />
<use xlink:href="#f1_h" transform="matrix(10,0,0,10,594.7,884.9)" />
<use xlink:href="#f1_2b" transform="matrix(10,0,0,10,599.5,884.9)" />
<use xlink:href="#f1_2e" transform="matrix(10,0,0,10,607.4,884.9)" />
<use xlink:href="#f1_20" transform="matrix(10,0,0,10,612.3,884.9)" />
<use xlink:href="#f1_25" transform="matrix(10,0,0,10,620.2,884.9)" />
<use xlink:href="#f1_2a" transform="matrix(10,0,0,10,624.3,884.9)" />
<use xlink:href="#f1_1x" transform="matrix(10,0,0,10,632,884.9)" />
<use xlink:href="#f1_2g" transform="matrix(10,0,0,10,638.6,884.9)" />
<use xlink:href="#f1_25" transform="matrix(10,0,0,10,643,884.9)" />
<use xlink:href="#f1_2b" transform="matrix(10,0,0,10,647.2,884.9)" />
<use xlink:href="#f1_2a" transform="matrix(10,0,0,10,654.7,884.9)" />
<use xlink:href="#f1_25" transform="matrix(10,0,0,10,667.5,884.9)" />
<use xlink:href="#f1_2g" transform="matrix(10,0,0,10,671.6,884.9)" />
<use xlink:href="#f1_2e" transform="matrix(10,0,0,10,681.1,884.9)" />
<use xlink:href="#f1_21" transform="matrix(10,0,0,10,686.4,884.9)" />
<use xlink:href="#f1_2f" transform="matrix(10,0,0,10,693,884.9)" />
<use xlink:href="#f1_2h" transform="matrix(10,0,0,10,699.1,884.9)" />
<use xlink:href="#f1_28" transform="matrix(10,0,0,10,706.4,884.9)" />
<use xlink:href="#f1_2g" transform="matrix(10,0,0,10,710.6,884.9)" />
<use xlink:href="#f1_2f" transform="matrix(10,0,0,10,715,884.9)" />
<use xlink:href="#f1_25" transform="matrix(10,0,0,10,726.2,884.9)" />
<use xlink:href="#f1_2a" transform="matrix(10,0,0,10,730.2,884.9)" />
<use xlink:href="#f1_2g" transform="matrix(10,0,0,10,742.9,884.9)" />
<use xlink:href="#f1_24" transform="matrix(10,0,0,10,747.1,884.9)" />
<use xlink:href="#f1_21" transform="matrix(10,0,0,10,754.8,884.9)" />
<use xlink:href="#f1_22" transform="matrix(10,0,0,10,766.9,884.9)" />
<use xlink:href="#f1_2b" transform="matrix(10,0,0,10,771.7,884.9)" />
<use xlink:href="#f1_2e" transform="matrix(10,0,0,10,779.6,884.9)" />
<use xlink:href="#f1_29" transform="matrix(10,0,0,10,784.7,884.9)" />
<use xlink:href="#f1_1x" transform="matrix(10,0,0,10,796.3,884.9)" />
<use xlink:href="#f1_2g" transform="matrix(10,0,0,10,803,884.9)" />
<use xlink:href="#f1_25" transform="matrix(10,0,0,10,807.2,884.9)" />
<use xlink:href="#f1_2b" transform="matrix(10,0,0,10,811.3,884.9)" />
<use xlink:href="#f1_2a" transform="matrix(10,0,0,10,819,884.9)" />
<use xlink:href="#f1_2b" transform="matrix(10,0,0,10,831.6,884.9)" />
<use xlink:href="#f1_22" transform="matrix(10,0,0,10,839.5,884.9)" />
<use xlink:href="#f1_1x" transform="matrix(10,0,0,10,849.6,884.9)" />
<use xlink:href="#f1_1z" transform="matrix(10,0,0,10,502,905.3)" />
<use xlink:href="#f1_2l" transform="matrix(10,0,0,10,508.9,905.3)" />
<use xlink:href="#f1_1z" transform="matrix(10,0,0,10,516.3,905.3)" />
<use xlink:href="#f1_28" transform="matrix(10,0,0,10,523.1,905.3)" />
<use xlink:href="#f1_25" transform="matrix(10,0,0,10,527.3,905.3)" />
<use xlink:href="#f1_1z" transform="matrix(10,0,0,10,531.5,905.3)" />
<use xlink:href="#f1_2e" transform="matrix(10,0,0,10,542.7,905.3)" />
<use xlink:href="#f1_25" transform="matrix(10,0,0,10,548,905.3)" />
<use xlink:href="#f1_2a" transform="matrix(10,0,0,10,552.2,905.3)" />
<use xlink:href="#f1_23" transform="matrix(10,0,0,10,559.5,905.3)" />
<use xlink:href="#f1_2f" transform="matrix(10,0,0,10,571.8,905.3)" />
<use xlink:href="#f1_2g" transform="matrix(10,0,0,10,577.5,905.3)" />
<use xlink:href="#f1_2e" transform="matrix(10,0,0,10,581.7,905.3)" />
<use xlink:href="#f1_2h" transform="matrix(10,0,0,10,587,905.3)" />
<use xlink:href="#f1_1z" transform="matrix(10,0,0,10,594.4,905.3)" />
<use xlink:href="#f1_2g" transform="matrix(10,0,0,10,601.4,905.3)" />
<use xlink:href="#f1_2h" transform="matrix(10,0,0,10,605.6,905.3)" />
<use xlink:href="#f1_2e" transform="matrix(10,0,0,10,612.9,905.3)" />
<use xlink:href="#f1_21" transform="matrix(10,0,0,10,618.2,905.3)" />
<use xlink:href="#f1_i" transform="matrix(10,0,0,10,625,905.3)" />
<use xlink:href="#f1_1k" transform="matrix(10,0,0,10,633.4,905.3)" />
<use xlink:href="#f1_24" transform="matrix(10,0,0,10,643,905.3)" />
<use xlink:href="#f1_21" transform="matrix(10,0,0,10,650.5,905.3)" />
<use xlink:href="#f1_1z" transform="matrix(10,0,0,10,661.9,905.3)" />
<use xlink:href="#f1_2b" transform="matrix(10,0,0,10,668.6,905.3)" />
<use xlink:href="#f1_29" transform="matrix(10,0,0,10,676.2,905.3)" />
<use xlink:href="#f1_2c" transform="matrix(10,0,0,10,687.7,905.3)" />
<use xlink:href="#f1_28" transform="matrix(10,0,0,10,695.6,905.3)" />
<use xlink:href="#f1_21" transform="matrix(10,0,0,10,699.8,905.3)" />
<use xlink:href="#f1_2k" transform="matrix(10,0,0,10,706.4,905.3)" />
<use xlink:href="#f1_2g" transform="matrix(10,0,0,10,718.7,905.3)" />
<use xlink:href="#f1_24" transform="matrix(10,0,0,10,722.7,905.3)" />
<use xlink:href="#f1_2h" transform="matrix(10,0,0,10,730.4,905.3)" />
<use xlink:href="#f1_2f" transform="matrix(10,0,0,10,737.8,905.3)" />
<use xlink:href="#f1_22" transform="matrix(10,0,0,10,748.4,905.3)" />
<use xlink:href="#f1_2b" transform="matrix(10,0,0,10,753.2,905.3)" />
<use xlink:href="#f1_2e" transform="matrix(10,0,0,10,761.1,905.3)" />
<use xlink:href="#f1_29" transform="matrix(10,0,0,10,766.2,905.3)" />
<use xlink:href="#f1_21" transform="matrix(10,0,0,10,777.7,905.3)" />
<use xlink:href="#f1_20" transform="matrix(10,0,0,10,784.5,905.3)" />
<use xlink:href="#f1_1x" transform="matrix(10,0,0,10,796.8,905.3)" />
<use xlink:href="#f1_2e" transform="matrix(10,0,0,10,803.6,905.3)" />
<use xlink:href="#f1_21" transform="matrix(10,0,0,10,808.5,905.3)" />
<use xlink:href="#f1_1z" transform="matrix(10,0,0,10,820.1,905.3)" />
<use xlink:href="#f1_1x" transform="matrix(10,0,0,10,826.7,905.3)" />
<use xlink:href="#f1_28" transform="matrix(10,0,0,10,833.6,905.3)" />
<use xlink:href="#f1_28" transform="matrix(10,0,0,10,837.7,905.3)" />
<use xlink:href="#f1_21" transform="matrix(10,0,0,10,841.9,905.3)" />
<use xlink:href="#f1_20" transform="matrix(10,0,0,10,848.8,905.3)" />
<use xlink:href="#f1_1z" transform="matrix(10,0,0,10,502,926.2)" />
<use xlink:href="#f1_24" transform="matrix(10,0,0,10,509.1,926.2)" />
<use xlink:href="#f1_21" transform="matrix(10,0,0,10,516.5,926.2)" />
<use xlink:href="#f1_28" transform="matrix(10,0,0,10,523.6,926.2)" />
<use xlink:href="#f1_1x" transform="matrix(10,0,0,10,528,926.2)" />
<use xlink:href="#f1_2g" transform="matrix(10,0,0,10,535,926.2)" />
<use xlink:href="#f1_21" transform="matrix(10,0,0,10,539,926.2)" />
<use xlink:href="#f1_2f" transform="matrix(10,0,0,10,546,926.2)" />
<use xlink:href="#f1_i" transform="matrix(10,0,0,10,552.2,926.2)" />
</g>
<image preserveAspectRatio="none" x="529" y="958" width="267" height="93" xlink:href="img/13.png" />
<g fill="#000000" >
<use xlink:href="#f1_1k" transform="matrix(10,0,0,10,502,1089.9)" />
<use xlink:href="#f1_24" transform="matrix(10,0,0,10,511.7,1089.9)" />
<use xlink:href="#f1_21" transform="matrix(10,0,0,10,519,1089.9)" />
<use xlink:href="#f1_1z" transform="matrix(10,0,0,10,530.9,1089.9)" />
<use xlink:href="#f1_24" transform="matrix(10,0,0,10,537.9,1089.9)" />
<use xlink:href="#f1_21" transform="matrix(10,0,0,10,545.2,1089.9)" />
<use xlink:href="#f1_28" transform="matrix(10,0,0,10,552.2,1089.9)" />
<use xlink:href="#f1_1x" transform="matrix(10,0,0,10,556.4,1089.9)" />
<use xlink:href="#f1_2g" transform="matrix(10,0,0,10,563,1089.9)" />
<use xlink:href="#f1_21" transform="matrix(10,0,0,10,567.4,1089.9)" />
<use xlink:href="#f1_2f" transform="matrix(10,0,0,10,574.2,1089.9)" />
<use xlink:href="#f1_1z" transform="matrix(10,0,0,10,585,1089.9)" />
<use xlink:href="#f1_2b" transform="matrix(10,0,0,10,591.8,1089.9)" />
<use xlink:href="#f1_2a" transform="matrix(10,0,0,10,599.3,1089.9)" />
<use xlink:href="#f1_2g" transform="matrix(10,0,0,10,607,1089.9)" />
<use xlink:href="#f1_1x" transform="matrix(10,0,0,10,611.3,1089.9)" />
<use xlink:href="#f1_25" transform="matrix(10,0,0,10,618,1089.9)" />
<use xlink:href="#f1_2a" transform="matrix(10,0,0,10,622.3,1089.9)" />
<use xlink:href="#f1_25" transform="matrix(10,0,0,10,629.6,1089.9)" />
<use xlink:href="#f1_2a" transform="matrix(10,0,0,10,633.8,1089.9)" />
<use xlink:href="#f1_23" transform="matrix(10,0,0,10,641.5,1089.9)" />
<use xlink:href="#f1_p" transform="matrix(10,0,0,10,654.2,1089.9)" />
<use xlink:href="#f1_2b" transform="matrix(10,0,0,10,666.8,1089.9)" />
<use xlink:href="#f1_2e" transform="matrix(10,0,0,10,674.3,1089.9)" />
<use xlink:href="#f1_q" transform="matrix(10,0,0,10,684.8,1089.9)" />
<use xlink:href="#f1_29" transform="matrix(10,0,0,10,697.2,1089.9)" />
<use xlink:href="#f1_21" transform="matrix(10,0,0,10,709,1089.9)" />
<use xlink:href="#f1_29" transform="matrix(10,0,0,10,715.8,1089.9)" />
<use xlink:href="#f1_1y" transform="matrix(10,0,0,10,727.1,1089.9)" />
<use xlink:href="#f1_21" transform="matrix(10,0,0,10,735,1089.9)" />
<use xlink:href="#f1_2e" transform="matrix(10,0,0,10,741.8,1089.9)" />
<use xlink:href="#f1_21" transform="matrix(10,0,0,10,746.8,1089.9)" />
<use xlink:href="#f1_20" transform="matrix(10,0,0,10,753.7,1089.9)" />
<use xlink:href="#f1_2e" transform="matrix(10,0,0,10,766.6,1089.9)" />
<use xlink:href="#f1_25" transform="matrix(10,0,0,10,771.7,1089.9)" />
<use xlink:href="#f1_2a" transform="matrix(10,0,0,10,775.7,1089.9)" />
<use xlink:href="#f1_23" transform="matrix(10,0,0,10,783.4,1089.9)" />
<use xlink:href="#f1_2f" transform="matrix(10,0,0,10,790.8,1089.9)" />
<use xlink:href="#f1_1x" transform="matrix(10,0,0,10,801.6,1089.9)" />
<use xlink:href="#f1_2e" transform="matrix(10,0,0,10,808.5,1089.9)" />
<use xlink:href="#f1_21" transform="matrix(10,0,0,10,813.7,1089.9)" />
<use xlink:href="#f1_29" transform="matrix(10,0,0,10,825.6,1089.9)" />
<use xlink:href="#f1_2b" transform="matrix(10,0,0,10,836.9,1089.9)" />
<use xlink:href="#f1_2e" transform="matrix(10,0,0,10,844.6,1089.9)" />
<use xlink:href="#f1_21" transform="matrix(10,0,0,10,849.9,1089.9)" />
<use xlink:href="#f1_2f" transform="matrix(10,0,0,10,502,1110.3)" />
<use xlink:href="#f1_2g" transform="matrix(10,0,0,10,508,1110.3)" />
<use xlink:href="#f1_1x" transform="matrix(10,0,0,10,512.1,1110.3)" />
<use xlink:href="#f1_1y" transform="matrix(10,0,0,10,518.8,1110.3)" />
<use xlink:href="#f1_28" transform="matrix(10,0,0,10,526.5,1110.3)" />
<use xlink:href="#f1_21" transform="matrix(10,0,0,10,530.8,1110.3)" />
<use xlink:href="#f1_i" transform="matrix(10,0,0,10,537.4,1110.3)" />
<use xlink:href="#f1_1c" transform="matrix(10,0,0,10,544.3,1110.3)" />
<use xlink:href="#f1_25" transform="matrix(10,0,0,10,553.3,1110.3)" />
<use xlink:href="#f1_23" transform="matrix(10,0,0,10,557.3,1110.3)" />
<use xlink:href="#f1_1x" transform="matrix(10,0,0,10,565,1110.3)" />
<use xlink:href="#f1_2a" transform="matrix(10,0,0,10,571.8,1110.3)" />
<use xlink:href="#f1_20" transform="matrix(10,0,0,10,579.2,1110.3)" />
<use xlink:href="#f1_2f" transform="matrix(10,0,0,10,587,1110.3)" />
<use xlink:href="#f1_2j" transform="matrix(10,0,0,10,595.3,1110.3)" />
<use xlink:href="#f1_25" transform="matrix(10,0,0,10,605.9,1110.3)" />
<use xlink:href="#f1_2g" transform="matrix(10,0,0,10,610.1,1110.3)" />
<use xlink:href="#f1_24" transform="matrix(10,0,0,10,614.4,1110.3)" />
<use xlink:href="#f1_28" transform="matrix(10,0,0,10,624.8,1110.3)" />
<use xlink:href="#f1_1x" transform="matrix(10,0,0,10,628.9,1110.3)" />
<use xlink:href="#f1_2e" transform="matrix(10,0,0,10,635.8,1110.3)" />
<use xlink:href="#f1_23" transform="matrix(10,0,0,10,641,1110.3)" />
<use xlink:href="#f1_21" transform="matrix(10,0,0,10,648.5,1110.3)" />
<use xlink:href="#f1_2e" transform="matrix(10,0,0,10,655.3,1110.3)" />
<use xlink:href="#f1_23" transform="matrix(10,0,0,10,663,1110.3)" />
<use xlink:href="#f1_2e" transform="matrix(10,0,0,10,670.7,1110.3)" />
<use xlink:href="#f1_2b" transform="matrix(10,0,0,10,675.8,1110.3)" />
<use xlink:href="#f1_2h" transform="matrix(10,0,0,10,683.3,1110.3)" />
<use xlink:href="#f1_2c" transform="matrix(10,0,0,10,690.6,1110.3)" />
<use xlink:href="#f1_2f" transform="matrix(10,0,0,10,698.5,1110.3)" />
<use xlink:href="#f1_22" transform="matrix(10,0,0,10,707.3,1110.3)" />
<use xlink:href="#f1_2b" transform="matrix(10,0,0,10,712.1,1110.3)" />
<use xlink:href="#f1_2e" transform="matrix(10,0,0,10,720,1110.3)" />
<use xlink:href="#f1_29" transform="matrix(10,0,0,10,724.7,1110.3)" />
<use xlink:href="#f1_29" transform="matrix(10,0,0,10,739,1110.3)" />
<use xlink:href="#f1_2b" transform="matrix(10,0,0,10,750.6,1110.3)" />
<use xlink:href="#f1_2e" transform="matrix(10,0,0,10,758.5,1110.3)" />
<use xlink:href="#f1_21" transform="matrix(10,0,0,10,763.6,1110.3)" />
<use xlink:href="#f1_2h" transform="matrix(10,0,0,10,773,1110.3)" />
<use xlink:href="#f1_2a" transform="matrix(10,0,0,10,780.7,1110.3)" />
<use xlink:href="#f1_2f" transform="matrix(10,0,0,10,788,1110.3)" />
<use xlink:href="#f1_2g" transform="matrix(10,0,0,10,794,1110.3)" />
<use xlink:href="#f1_1x" transform="matrix(10,0,0,10,798.1,1110.3)" />
<use xlink:href="#f1_1y" transform="matrix(10,0,0,10,804.9,1110.3)" />
<use xlink:href="#f1_28" transform="matrix(10,0,0,10,812.5,1110.3)" />
<use xlink:href="#f1_21" transform="matrix(10,0,0,10,816.8,1110.3)" />
<use xlink:href="#f1_2e" transform="matrix(10,0,0,10,826.3,1110.3)" />
<use xlink:href="#f1_25" transform="matrix(10,0,0,10,831.4,1110.3)" />
<use xlink:href="#f1_2a" transform="matrix(10,0,0,10,835.6,1110.3)" />
<use xlink:href="#f1_23" transform="matrix(10,0,0,10,843.2,1110.3)" />
<use xlink:href="#f1_2f" transform="matrix(10,0,0,10,850.5,1110.3)" />
<use xlink:href="#f1_2g" transform="matrix(10,0,0,10,502,1131.2)" />
<use xlink:href="#f1_24" transform="matrix(10,0,0,10,506.4,1131.2)" />
<use xlink:href="#f1_1x" transform="matrix(10,0,0,10,513.7,1131.2)" />
<use xlink:href="#f1_2a" transform="matrix(10,0,0,10,520.7,1131.2)" />
<use xlink:href="#f1_2j" transform="matrix(10,0,0,10,532,1131.2)" />
<use xlink:href="#f1_25" transform="matrix(10,0,0,10,542.5,1131.2)" />
<use xlink:href="#f1_2g" transform="matrix(10,0,0,10,546.7,1131.2)" />
<use xlink:href="#f1_24" transform="matrix(10,0,0,10,550.9,1131.2)" />
<use xlink:href="#f1_2f" transform="matrix(10,0,0,10,562.5,1131.2)" />
<use xlink:href="#f1_29" transform="matrix(10,0,0,10,568.5,1131.2)" />
<use xlink:href="#f1_1x" transform="matrix(10,0,0,10,580.1,1131.2)" />
<use xlink:href="#f1_28" transform="matrix(10,0,0,10,586.9,1131.2)" />
<use xlink:href="#f1_28" transform="matrix(10,0,0,10,591.1,1131.2)" />
<use xlink:href="#f1_21" transform="matrix(10,0,0,10,595.3,1131.2)" />
<use xlink:href="#f1_2e" transform="matrix(10,0,0,10,602.1,1131.2)" />
<use xlink:href="#f1_23" transform="matrix(10,0,0,10,610.9,1131.2)" />
<use xlink:href="#f1_2e" transform="matrix(10,0,0,10,618.4,1131.2)" />
<use xlink:href="#f1_2b" transform="matrix(10,0,0,10,623.5,1131.2)" />
<use xlink:href="#f1_2h" transform="matrix(10,0,0,10,631.4,1131.2)" />
<use xlink:href="#f1_2c" transform="matrix(10,0,0,10,638.8,1131.2)" />
<use xlink:href="#f1_2f" transform="matrix(10,0,0,10,646.6,1131.2)" />
<use xlink:href="#f1_20" transform="matrix(10,0,0,10,656.5,1131.2)" />
<use xlink:href="#f1_2h" transform="matrix(10,0,0,10,664,1131.2)" />
<use xlink:href="#f1_21" transform="matrix(10,0,0,10,671.7,1131.2)" />
<use xlink:href="#f1_2g" transform="matrix(10,0,0,10,682.2,1131.2)" />
<use xlink:href="#f1_2b" transform="matrix(10,0,0,10,686.4,1131.2)" />
<use xlink:href="#f1_2f" transform="matrix(10,0,0,10,698.2,1131.2)" />
<use xlink:href="#f1_2g" transform="matrix(10,0,0,10,704.2,1131.2)" />
<use xlink:href="#f1_21" transform="matrix(10,0,0,10,708.4,1131.2)" />
<use xlink:href="#f1_2e" transform="matrix(10,0,0,10,715.2,1131.2)" />
<use xlink:href="#f1_25" transform="matrix(10,0,0,10,720.3,1131.2)" />
<use xlink:href="#f1_1z" transform="matrix(10,0,0,10,724.6,1131.2)" />
<use xlink:href="#f1_24" transform="matrix(10,0,0,10,735,1131.2)" />
<use xlink:href="#f1_25" transform="matrix(10,0,0,10,742.7,1131.2)" />
<use xlink:href="#f1_2a" transform="matrix(10,0,0,10,746.7,1131.2)" />
<use xlink:href="#f1_20" transform="matrix(10,0,0,10,754.4,1131.2)" />
<use xlink:href="#f1_21" transform="matrix(10,0,0,10,762,1131.2)" />
<use xlink:href="#f1_2e" transform="matrix(10,0,0,10,768.7,1131.2)" />
<use xlink:href="#f1_1x" transform="matrix(10,0,0,10,774.1,1131.2)" />
<use xlink:href="#f1_2a" transform="matrix(10,0,0,10,780.9,1131.2)" />
<use xlink:href="#f1_1z" transform="matrix(10,0,0,10,788.2,1131.2)" />
<use xlink:href="#f1_21" transform="matrix(10,0,0,10,795.2,1131.2)" />
<use xlink:href="#f1_i" transform="matrix(10,0,0,10,801.9,1131.2)" />
</g>
<path fill-rule="evenodd" d="M57.2,704.2H456.7V882.9H57.2V704.2l1.5,177.1H455.2V705.7H58.7V881.3L57.2,704.2Z" class="g1_107" />
<path fill-rule="evenodd" d="M57.2,944H456.7v216.7H57.2V944l1.5,215.2H455.2V945.5H58.7v213.7L57.2,944Z" class="g1_107" />
<path fill-rule="evenodd" d="M467.7,176.4h389V442.7h-389V176.4l1.6,264.9H855.1V177.8H469.3V441.3L467.7,176.4Z" class="g1_107" />
<path fill-rule="evenodd" d="M467.7,519h389V808.9h-389V519l1.6,288.2H855.1V520.5H469.3V807.2L467.7,519Z" class="g1_107" />
<path d="M55.1,93.3H854V71H55.1V93.3Z" class="g2_107" />
<defs>
<path d="M579,-17c0,0,-147,0,-266,70c0,0,-119,70,-189,197c0,0,-71,127,-71,277c0,0,0,149,69,271c0,0,69,123,187,191c0,0,119,69,265,69c0,0,149,0,260,-62l25,44H965L1067,667L928,627c0,0,-69,133,-130,189c0,0,-85,77,-185,77c0,0,-72,0,-135,-41c0,0,-63,-40,-100,-118c0,0,-37,-78,-37,-183c0,0,0,-161,85,-276c0,0,85,-116,222,-116c0,0,87,0,168,50c0,0,100,62,173,167l116,-86C1105,290,992,136,899,76c0,0,-144,-93,-320,-93Z" 
id="f0_13"
transform="scale(0.001,-0.001)" />

<path d="M611,148c0,0,117,0,187,88c0,0,83,105,83,281c0,0,0,124,-35,208c0,0,-36,84,-96,126c0,0,-61,42,-132,42c0,0,-118,0,-189,-89c0,0,-88,-112,-88,-289c0,0,0,-176,82,-279c0,0,71,-88,188,-88ZM608,-17c0,0,-231,0,-378,126C230,109,53,262,53,518c0,0,0,237,155,389c0,0,156,151,407,151c0,0,248,0,401,-151c0,0,153,-150,153,-386c0,0,0,-159,-70,-282c0,0,-70,-123,-193,-190c0,0,-124,-66,-298,-66Z" 
id="f0_1f"
transform="scale(0.001,-0.001)" />

<path d="M73,290V468H478V290Z" 
id="f0_h"
transform="scale(0.001,-0.001)" />

<path d="M593,600c0,0,92,0,137,17c0,0,45,17,68,48c0,0,22,31,22,76c0,0,0,41,-21,71c0,0,-21,29,-60,43c0,0,-40,14,-128,14H439V600ZM55,0V144h46c0,0,37,0,52,8c0,0,16,7,23,23c0,0,4,9,4,56V816c0,0,0,35,-6,49c0,0,-5,15,-18,19c0,0,-18,8,-41,8H55v148H697c0,0,62,0,135,-11c0,0,74,-11,133,-49c0,0,60,-38,92,-96c0,0,33,-59,33,-132c0,0,0,-118,-84,-192c0,0,-85,-73,-201,-96L1019,215l9,-11c0,0,21,-25,38,-38c0,0,17,-12,34,-17c0,0,18,-5,48,-5h45V0H859L526,448H439V241c0,0,0,-54,6,-69c0,0,6,-14,19,-21c0,0,13,-7,52,-7h48V0Z" 
id="f0_1i"
transform="scale(0.001,-0.001)" />

<path d="M514,166c0,0,122,0,191,38c0,0,69,38,111,121c0,0,43,83,43,199c0,0,0,113,-40,197c0,0,-40,84,-99,119c0,0,-59,34,-168,34H437V226c0,0,0,-33,4,-40c0,0,6,-12,17,-16c0,0,12,-4,56,-4ZM55,0V144H91c0,0,46,0,60,7c0,0,15,8,24,26c0,0,6,14,6,61V807c0,0,0,48,-6,62c0,0,-7,13,-21,21c0,0,-15,7,-62,7H56v143H601c0,0,186,0,296,-59c0,0,110,-58,175,-174c0,0,65,-116,65,-278c0,0,0,-112,-33,-201c0,0,-33,-89,-99,-160c0,0,-66,-71,-141,-107C864,61,807,34,703,17C703,17,599,0,536,0Z" 
id="f0_14"
transform="scale(0.001,-0.001)" />

<path d="M52,0V144H93c0,0,44,0,58,6c0,0,13,6,20,20c0,0,6,14,6,55V803c0,0,0,49,-6,64c0,0,-7,15,-22,24c0,0,-10,6,-51,6H52v143H559V897H513c0,0,-40,0,-53,-7c0,0,-13,-8,-20,-23c0,0,-6,-15,-6,-58V233c0,0,0,-47,5,-61c0,0,6,-13,18,-19c0,0,16,-9,47,-9h55V0Z" 
id="f0_19"
transform="scale(0.001,-0.001)" />

<path d="M59,0V144h44c0,0,37,0,51,6c0,0,14,6,22,22c0,0,8,16,8,47V816c0,0,0,34,-8,50c0,0,-7,16,-20,24c0,0,-12,7,-42,7H59v143H480L786,433V805c0,0,0,48,-5,60c0,0,-8,17,-20,25c0,0,-13,7,-49,7H661v143h428V897h-47c0,0,-36,0,-51,-9c0,0,-15,-8,-21,-22c0,0,-6,-14,-6,-61V0H750L364,767V230c0,0,0,-46,5,-59c0,0,6,-12,20,-20c0,0,15,-7,50,-7h50V0Z" 
id="f0_1e"
transform="scale(0.001,-0.001)" />

<path d="M610,480L509,765L404,480ZM2,0V144c0,0,39,0,56,6c0,0,18,7,30,21c0,0,11,13,25,49l322,820H669L981,237c0,0,25,-64,45,-79c0,0,19,-14,68,-14c2,0,3,0,5,0V0H606V144h30c0,0,41,0,58,11c0,0,16,11,16,27c0,0,0,13,-14,55l-32,94H349L310,226c0,0,-12,-33,-12,-44c0,0,0,-11,8,-21c0,0,9,-10,28,-14c0,0,13,-3,71,-3V0Z" 
id="f0_11"
transform="scale(0.001,-0.001)" />

<path d="M280,0V144h30c0,0,51,0,66,6c0,0,14,6,21,22c0,0,8,17,8,67V851c0,0,0,26,-6,33c0,0,-6,7,-26,7c0,0,-38,0,-86,-29c0,0,-48,-29,-85,-82c0,0,-15,-21,-63,-118L2,711l128,365h99l10,-36H826l13,36h99L1067,711L928,662c0,0,-46,91,-66,119c0,0,-40,55,-92,86c0,0,-38,24,-77,24c0,0,-18,0,-24,-9c0,0,-7,-8,-7,-39V244c0,0,0,-53,4,-66c0,0,3,-13,12,-21c0,0,9,-8,25,-11c0,0,16,-2,84,-2V0Z" 
id="f0_1k"
transform="scale(0.001,-0.001)" />

<path d="M59,0V144h42c0,0,39,0,54,7c0,0,15,7,22,22c0,0,7,15,7,57V813c0,0,0,40,-5,52c0,0,-7,17,-21,24c0,0,-13,8,-42,8H59v143H530L711,408l185,632h481V897h-52c0,0,-41,0,-57,-18c0,0,-16,-17,-16,-66V222c0,0,0,-39,4,-48c0,0,7,-15,19,-21c0,0,16,-9,43,-9h59V0H876V144h39c0,0,42,0,57,6c0,0,15,7,22,21c0,0,7,14,7,51V862L748,0H604L359,835V202c0,0,0,-22,8,-34c0,0,8,-12,22,-18c0,0,15,-6,47,-6h50V0Z" 
id="f0_1d"
transform="scale(0.001,-0.001)" />

<path d="M532,575c0,0,81,0,119,17c0,0,38,16,61,51c0,0,23,35,23,83c0,0,0,71,-55,113c0,0,-41,31,-121,31H443V575ZM61,0V144H96c0,0,46,0,61,6c0,0,15,7,22,22c0,0,7,14,7,60V804c0,0,0,48,-6,63c0,0,-6,15,-19,23c0,0,-13,7,-50,7H61v143H611c0,0,104,0,173,-21c0,0,69,-21,119,-64c0,0,49,-44,76,-103c0,0,27,-59,27,-126c0,0,0,-133,-102,-223c0,0,-103,-90,-284,-90H443V218c0,0,0,-37,5,-47c0,0,7,-14,21,-21c0,0,13,-6,46,-6h53V0Z" 
id="f0_1g"
transform="scale(0.001,-0.001)" />

<path d="M561,-17c0,0,-97,0,-173,29c0,0,-76,29,-133,84c0,0,-57,55,-80,116c0,0,-22,61,-22,181V794c0,0,0,56,-6,72c0,0,-6,16,-20,23c0,0,-13,8,-52,8H27v143H536V897H486c0,0,-35,0,-49,-9c0,0,-15,-8,-22,-23c0,0,-6,-15,-6,-62V424c0,0,0,-106,21,-158c0,0,21,-52,64,-79c0,0,43,-28,105,-28c0,0,61,0,109,30c0,0,48,30,68,76c0,0,21,46,21,152V834c0,0,0,26,-7,37c0,0,-9,15,-24,21c0,0,-10,5,-53,5H673v143h429V897h-34c0,0,-49,0,-61,-6c0,0,-18,-9,-26,-26c0,0,-6,-12,-6,-62V393c0,0,0,-114,-33,-191C942,202,896,98,797,40c0,0,-100,-57,-236,-57Z" 
id="f0_1l"
transform="scale(0.001,-0.001)" />

<path d="M567,-17c0,0,-83,0,-152,21c0,0,-70,21,-145,71L237,0H126L52,404l140,33c0,0,49,-123,153,-205c0,0,104,-82,228,-82c0,0,56,0,93,14c0,0,37,14,56,39c0,0,18,25,18,52c0,0,0,45,-43,77c0,0,-44,32,-154,63L369,446c0,0,-40,11,-107,42c0,0,-68,31,-104,64c0,0,-36,34,-60,86c0,0,-24,53,-24,111c0,0,0,83,46,153c0,0,46,69,138,113c0,0,92,43,204,43c0,0,135,0,244,-70l29,52H842L932,692L792,652c0,0,-69,125,-157,183c0,0,-88,58,-187,58c0,0,-64,0,-101,-26c0,0,-37,-27,-37,-59c0,0,0,-36,34,-67c0,0,32,-32,121,-56L665,626c0,0,166,-47,237,-126c0,0,70,-80,70,-186c0,0,0,-135,-107,-229C865,85,745,-17,567,-17Z" 
id="f0_1j"
transform="scale(0.001,-0.001)" />

<path d="M474,-326c0,0,-112,57,-188,133c0,0,-107,108,-165,254c0,0,-58,147,-58,305c0,0,0,231,114,421c0,0,114,191,297,273v-31c0,0,-92,-51,-151,-139c0,0,-59,-88,-88,-223c0,0,-30,-135,-30,-281c0,0,0,-160,25,-290c0,0,20,-102,47,-164c0,0,28,-62,75,-120c0,0,47,-57,122,-109v-29Z" 
id="f1_c"
transform="scale(0.001,-0.001)" />

<path d="M247,-17c0,0,-91,0,-132,30c0,0,-42,31,-42,68c0,0,0,21,17,37c0,0,18,16,44,17c0,0,19,0,34,-6c0,0,14,-7,49,-31c0,0,56,-39,113,-39c0,0,88,0,154,66c0,0,66,66,66,161c0,0,0,92,-59,171c0,0,-59,80,-163,123c0,0,-81,34,-221,39l194,393H663L605,885H301L234,750c0,0,198,-29,313,-147c0,0,100,-102,100,-239c0,0,0,-80,-33,-148c0,0,-32,-68,-81,-116c0,0,-50,-47,-110,-77c0,0,-86,-40,-176,-40Z" 
id="f1_p"
transform="scale(0.001,-0.001)" />

<path d="M35,-326v29c0,0,92,51,151,139c0,0,60,87,89,221c0,0,28,136,28,282c0,0,0,159,-24,290c0,0,-19,103,-47,165c0,0,-28,62,-75,119c0,0,-46,57,-122,110v31c0,0,113,-56,188,-132c0,0,107,-109,165,-255c0,0,58,-147,58,-306c0,0,0,-231,-114,-420c0,0,-113,-191,-297,-273Z" 
id="f1_d"
transform="scale(0.001,-0.001)" />

<path d="M405,24c0,0,65,0,116,62c0,0,51,61,51,174c0,0,0,128,-50,221c0,0,-51,93,-144,93c0,0,-29,0,-61,-12c0,0,-33,-12,-96,-51c0,0,-14,-101,-14,-163c0,0,0,-72,27,-155c0,0,26,-84,79,-134c0,0,38,-35,92,-35ZM384,-17c0,0,-104,0,-177,68C207,51,66,185,66,397c0,0,0,136,54,258c0,0,54,122,156,217c0,0,101,95,193,128c0,0,93,33,172,33h44v-28c0,0,-99,-10,-161,-39c0,0,-62,-29,-123,-90c0,0,-61,-60,-101,-135c0,0,-39,-74,-66,-176c0,0,107,73,215,73c0,0,104,0,180,-83c0,0,76,-84,76,-215c0,0,0,-126,-77,-231c0,0,-92,-126,-244,-126Z" 
id="f1_q"
transform="scale(0.001,-0.001)" />

<path d="M275,-20L578,891H299c0,0,-84,0,-120,-20c0,0,-63,-35,-101,-106l-21,8l97,239H696V983L359,-20Z" 
id="f1_r"
transform="scale(0.001,-0.001)" />

<path d="M394,23c0,0,80,0,129,45c0,0,48,45,48,110c0,0,0,54,-28,97c0,0,-53,79,-214,206c0,0,-62,-52,-92,-114c0,0,-30,-61,-30,-133c0,0,0,-96,53,-154c0,0,52,-57,134,-57Zm17,566c0,0,90,81,114,128c0,0,24,46,24,105c0,0,0,79,-44,123c0,0,-44,45,-121,45c0,0,-76,0,-124,-45c0,0,-48,-44,-48,-103c0,0,0,-38,20,-77c0,0,20,-39,56,-74L411,589ZM382,-17c0,0,-144,0,-225,90c0,0,-64,72,-64,158c0,0,0,67,45,133c0,0,45,66,156,146c0,0,-121,98,-156,158c0,0,-34,59,-34,124c0,0,0,98,76,169c0,0,76,72,202,72c0,0,123,0,198,-67c0,0,74,-66,74,-151c0,0,0,-57,-40,-116c0,0,-40,-59,-168,-139c0,0,132,-101,174,-159c0,0,57,-76,57,-161c0,0,0,-106,-82,-182c0,0,-81,-75,-213,-75Z" 
id="f1_s"
transform="scale(0.001,-0.001)" />

<path d="M379,437c0,0,34,0,81,16c0,0,47,17,83,47c0,0,14,97,14,155c0,0,0,72,-25,156c0,0,-25,83,-70,128c0,0,-45,45,-103,45c0,0,-66,0,-116,-60c0,0,-50,-59,-50,-177c0,0,0,-157,66,-246c0,0,49,-64,120,-64ZM80,-20V7c0,0,97,1,181,45c0,0,83,44,161,153c0,0,78,109,109,240c0,0,-117,-75,-212,-75c0,0,-107,0,-183,82c0,0,-76,82,-76,219c0,0,0,132,76,236c0,0,92,126,240,126c0,0,124,0,213,-103c0,0,109,-128,109,-315c0,0,0,-169,-82,-314C616,301,533,155,385,59c0,0,-120,-79,-262,-79Z" 
id="f1_t"
transform="scale(0.001,-0.001)" />

<path d="M197,0V27c0,0,71,2,92,13c0,0,21,10,29,29c0,0,9,18,9,109V725c0,0,0,110,-8,141c0,0,-5,24,-19,35c0,0,-14,11,-33,11c0,0,-28,0,-77,-23l-11,23l246,121h25V178c0,0,0,-85,7,-106c0,0,7,-21,29,-32c0,0,23,-11,91,-13V0Z" 
id="f1_l"
transform="scale(0.001,-0.001)" />

<path d="M379,29c0,0,41,0,84,37c0,0,43,36,65,121c0,0,34,128,34,362c0,0,0,173,-35,288c0,0,-27,86,-69,122c0,0,-31,25,-74,25c0,0,-51,0,-90,-46c0,0,-54,-62,-73,-195c0,0,-20,-132,-20,-261c0,0,0,-209,52,-341c0,0,42,-112,126,-112Zm-2,-46c0,0,-145,0,-241,170c0,0,-81,144,-81,347c0,0,0,173,52,298c0,0,52,125,139,186c0,0,67,49,139,49c0,0,116,0,208,-119c0,0,116,-147,116,-398c0,0,0,-176,-51,-299C658,217,608,94,529,38c0,0,-79,-55,-152,-55Z" 
id="f1_k"
transform="scale(0.001,-0.001)" />

<path d="M491,-305c0,0,-180,60,-305,247C186,-58,61,127,61,368c0,0,0,239,124,423c0,0,125,184,306,243v-34c0,0,-78,-50,-115,-99c0,0,-50,-67,-79,-172c0,0,-36,-131,-36,-365c0,0,0,-221,33,-343c0,0,32,-122,88,-197c0,0,39,-52,109,-92v-37Z" 
id="f2_c"
transform="scale(0.001,-0.001)" />

<path d="M365,-20c0,0,-139,0,-223,105c0,0,-83,105,-83,253c0,0,0,142,76,250c0,0,92,131,253,131c0,0,108,0,172,-55c0,0,63,-54,63,-121c0,0,0,-43,-25,-68c0,0,-26,-25,-68,-25c0,0,-44,0,-73,29c0,0,-28,29,-35,104c0,0,-5,47,-22,65c0,0,-17,19,-40,19c0,0,-36,0,-61,-38c0,0,-39,-58,-39,-176c0,0,0,-99,31,-188c0,0,32,-90,86,-134c0,0,41,-32,97,-32c0,0,36,0,69,17c0,0,33,17,78,65l23,-18C644,163,595,70,521,25c0,0,-73,-45,-156,-45Z" 
id="f2_1z"
transform="scale(0.001,-0.001)" />

<path d="M19,-305v34c0,0,77,52,114,100c0,0,50,67,79,171c0,0,36,131,36,365c0,0,0,221,-33,343c0,0,-32,122,-88,198c0,0,-39,52,-108,91v37c0,0,179,-60,304,-246c0,0,125,-186,125,-428c0,0,0,-238,-125,-421c0,0,-125,-184,-304,-244Z" 
id="f2_d"
transform="scale(0.001,-0.001)" />

<path d="M244,0V27h34c0,0,44,0,71,16c0,0,19,11,30,36c0,0,8,18,8,94V953H314c0,0,-103,0,-149,-43c0,0,-66,-60,-83,-172H55v274H965V738H938c0,0,-24,95,-53,136c0,0,-29,41,-80,66c0,0,-28,13,-99,13H631V173c0,0,0,-78,8,-97c0,0,9,-20,34,-34c0,0,25,-15,68,-15h33V0Z" 
id="f2_1k"
transform="scale(0.001,-0.001)" />

<path d="M57,0V26c0,0,45,4,61,25c0,0,16,22,16,113V550c0,0,0,59,-6,76c0,0,-7,21,-22,30c0,0,-14,10,-49,14v27H342l1,-158c0,0,69,109,121,144c0,0,52,36,100,36c0,0,42,0,66,-26c0,0,25,-26,25,-73c0,0,0,-50,-24,-77c0,0,-25,-28,-59,-28c0,0,-39,0,-68,25c0,0,-28,26,-33,29c0,0,-8,4,-17,4c0,0,-22,0,-41,-16c0,0,-31,-26,-46,-73c0,0,-24,-72,-24,-159V122c0,0,0,-42,5,-54c0,0,9,-21,27,-30c0,0,17,-9,59,-12V0Z" 
id="f2_2e"
transform="scale(0.001,-0.001)" />

<path d="M32,0V26c0,0,46,2,69,27c0,0,14,18,14,92V551c0,0,0,75,-17,95c0,0,-17,21,-66,24v27H325V145c0,0,0,-74,17,-95c0,0,17,-21,68,-24V0ZM220,804c0,0,-48,0,-82,33c0,0,-33,34,-33,82c0,0,0,48,33,82c0,0,34,33,82,33c0,0,48,0,82,-33c0,0,33,-34,33,-82c0,0,0,-48,-34,-82c0,0,-34,-33,-81,-33Z" 
id="f2_25"
transform="scale(0.001,-0.001)" />

<path d="M397,69c0,0,65,0,123,103V539c0,0,-55,105,-134,105c0,0,-28,0,-46,-15c0,0,-27,-23,-45,-81c0,0,-17,-58,-17,-178c0,0,0,-132,19,-195c0,0,19,-63,53,-91c0,0,17,-15,47,-15ZM332,-20c0,0,-133,0,-211,119c0,0,-62,97,-62,238c0,0,0,112,38,202c0,0,39,89,107,134c0,0,67,46,145,46c0,0,50,0,88,-20c0,0,39,-19,83,-67V842c0,0,0,80,-7,96c0,0,-8,22,-26,32c0,0,-18,11,-68,11v31H729V209c0,0,0,-81,5,-96c0,0,6,-25,22,-36c0,0,17,-12,58,-15V37L520,-20V90C520,90,467,26,426,3c0,0,-42,-23,-94,-23Z" 
id="f2_20"
transform="scale(0.001,-0.001)" />

<path d="M458,424c0,0,0,120,-13,165c0,0,-13,44,-40,67c0,0,-16,14,-42,14c0,0,-39,0,-63,-38c0,0,-44,-66,-44,-182V424ZM358,-20c0,0,-155,0,-235,119c0,0,-64,96,-64,239c0,0,0,174,94,277c0,0,94,104,221,104c0,0,106,0,184,-87c0,0,78,-87,84,-257H259c0,0,7,-139,74,-220c0,0,51,-62,124,-62c0,0,45,0,81,25c0,0,37,25,79,90l25,-16C642,192,585,76,517,28c0,0,-69,-48,-159,-48Z" 
id="f2_21"
transform="scale(0.001,-0.001)" />

<path d="M52,0V26c0,0,44,5,62,29c0,0,13,16,13,97V546c0,0,0,79,-14,98c0,0,-15,20,-61,26v27H336V607c0,0,54,59,104,85c0,0,49,27,106,27c0,0,68,0,113,-38c0,0,44,-38,59,-94c0,0,12,-42,12,-163V152c0,0,0,-81,15,-101c0,0,14,-19,61,-25V0H452V26c0,0,40,6,57,33c0,0,12,19,12,93V462c0,0,0,86,-7,109c0,0,-6,22,-22,35c0,0,-16,12,-36,12c0,0,-64,0,-120,-92V152c0,0,0,-79,15,-100c0,0,15,-20,55,-26V0Z" 
id="f2_2a"
transform="scale(0.001,-0.001)" />

<path d="M298,-9c0,0,-67,0,-113,36c0,0,-46,37,-58,83c0,0,-8,25,-8,137V624H28v26c0,0,94,66,161,139c0,0,66,73,115,163h25V697H494V624H329V193c0,0,0,-60,5,-78c0,0,6,-17,20,-28c0,0,14,-11,26,-11c0,0,48,0,92,75l22,-17C494,134,434,-9,298,-9Z" 
id="f2_2g"
transform="scale(0.001,-0.001)" />

<path d="M350,115c0,0,37,0,86,42V391c0,0,-90,-53,-134,-113c0,0,-29,-41,-29,-82c0,0,0,-34,24,-60c0,0,19,-21,53,-21ZM207,-9c0,0,-59,0,-99,38c0,0,-40,40,-40,99c0,0,0,80,69,143c0,0,69,64,299,170v70c0,0,0,79,-8,100c0,0,-9,20,-33,36c0,0,-23,15,-53,15c0,0,-49,0,-80,-22c0,0,-19,-13,-19,-31c0,0,0,-16,21,-39c0,0,28,-32,28,-62c0,0,0,-36,-27,-62c0,0,-27,-26,-71,-26c0,0,-47,0,-79,29c0,0,-32,28,-32,66c0,0,0,54,43,103c0,0,42,48,118,75c0,0,76,26,158,26c0,0,99,0,157,-42c0,0,58,-43,75,-92c0,0,11,-31,11,-144V170c0,0,0,-47,3,-60c0,0,4,-12,11,-18c0,0,8,-6,18,-6c0,0,19,0,39,28L738,96c0,0,-37,-56,-77,-81c0,0,-40,-24,-90,-24c0,0,-60,0,-94,27c0,0,-33,28,-41,85C436,103,309,-9,207,-9Z" 
id="f2_1x"
transform="scale(0.001,-0.001)" />

<path d="M28,0V27H62c0,0,44,0,71,16c0,0,19,11,30,36c0,0,8,18,8,94V839c0,0,0,78,-8,97c0,0,-8,20,-33,34c0,0,-25,15,-68,15H28v27H568V985H524c0,0,-44,0,-71,-16c0,0,-19,-11,-30,-36c0,0,-8,-18,-8,-94V194c0,0,0,-78,9,-99c0,0,8,-21,35,-32c0,0,18,-6,90,-6h84c0,0,81,0,135,28c0,0,53,28,93,90c0,0,39,61,74,180h30L927,0Z" 
id="f2_1c"
transform="scale(0.001,-0.001)" />

<path d="M393,-277c0,0,104,0,164,28c0,0,59,27,59,77c0,0,0,19,-11,32c0,0,-20,22,-61,30c0,0,-41,8,-218,8c0,0,-76,0,-101,-12c0,0,-42,-23,-42,-63c0,0,0,-38,44,-69c0,0,44,-31,166,-31ZM366,253c0,0,45,0,75,41c0,0,30,41,30,160c0,0,0,134,-33,183c0,0,-24,36,-68,36c0,0,-43,0,-73,-44c0,0,-30,-44,-30,-181c0,0,0,-112,29,-153c0,0,30,-42,70,-42Zm8,-581c0,0,-94,0,-171,18c0,0,-78,18,-112,51c0,0,-33,32,-33,68c0,0,0,34,25,61c0,0,26,28,96,46c0,0,-97,48,-97,132c0,0,0,51,40,100c0,0,39,48,125,84c0,0,-100,36,-145,96c0,0,-44,60,-44,138c0,0,0,103,83,178c0,0,84,75,215,75c0,0,70,0,144,-30H734V607H601c0,0,37,-36,51,-66c0,0,18,-40,18,-85c0,0,0,-74,-42,-129c0,0,-41,-55,-112,-86c0,0,-72,-31,-127,-31c0,0,-5,0,-90,4c0,0,-33,0,-56,-22c0,0,-23,-22,-23,-52c0,0,0,-27,21,-44c0,0,20,-17,66,-17l130,1c0,0,157,0,216,-34c0,0,84,-47,84,-146c0,0,0,-64,-39,-115c0,0,-38,-52,-102,-77c0,0,-96,-36,-222,-36Z" 
id="f2_23"
transform="scale(0.001,-0.001)" />

<path d="M253,0V27h36c0,0,64,0,91,39c0,0,16,24,16,109V948H274c0,0,-71,0,-100,-10c0,0,-39,-14,-67,-54c0,0,-27,-41,-33,-109H46l12,237H883L894,775H865c0,0,-8,62,-22,89c0,0,-23,43,-61,64c0,0,-39,20,-101,20H539V175c0,0,0,-93,20,-116c0,0,28,-32,87,-32h36V0Z" 
id="f1_1k"
transform="scale(0.001,-0.001)" />

<path d="M20,0V26c0,0,45,0,71,15c0,0,15,7,24,28c0,0,9,21,9,85V773c0,0,0,117,-5,144c0,0,-6,27,-17,37c0,0,-12,9,-31,9c0,0,-16,0,-51,-12L10,978l204,83h34V561c0,0,83,91,131,116c0,0,49,26,97,26c0,0,58,0,100,-32c0,0,42,-32,62,-101c0,0,14,-47,14,-174V154c0,0,0,-65,11,-89c0,0,7,-18,25,-28c0,0,18,-11,66,-11V0H418V26h15c0,0,48,0,67,15c0,0,18,15,26,43c0,0,2,12,2,70V396c0,0,0,112,-12,147c0,0,-11,35,-36,53c0,0,-26,17,-61,17c0,0,-37,0,-76,-19c0,0,-40,-20,-95,-79V154c0,0,0,-70,8,-87c0,0,8,-17,29,-29c0,0,22,-12,74,-12V0Z" 
id="f1_24"
transform="scale(0.001,-0.001)" />

<path d="M479,469c0,0,-4,66,-16,93c0,0,-18,42,-55,65c0,0,-37,24,-78,24c0,0,-62,0,-111,-48c0,0,-48,-48,-57,-134ZM355,-20c0,0,-123,0,-211,95c0,0,-87,96,-87,258c0,0,0,175,90,273c0,0,89,98,225,98c0,0,115,0,189,-76c0,0,74,-75,74,-202H162c0,0,0,-152,74,-239c0,0,75,-86,175,-86c0,0,67,0,117,36c0,0,50,37,83,127l24,-15c0,0,-16,-102,-91,-186c0,0,-76,-83,-189,-83Z" 
id="f1_21"
transform="scale(0.001,-0.001)" />

<path d="M58,0V26c0,0,47,0,64,10c0,0,18,10,28,32c0,0,9,23,9,86V775c0,0,0,116,-5,142c0,0,-5,27,-17,37c0,0,-11,9,-29,9c0,0,-20,0,-49,-12L46,978l204,83h34V154c0,0,0,-64,9,-85c0,0,9,-21,29,-32c0,0,19,-11,72,-11V0Z" 
id="f1_28"
transform="scale(0.001,-0.001)" />

<path d="M55,0V26c0,0,50,0,67,10c0,0,17,10,27,32c0,0,10,23,10,86V418c0,0,0,111,-6,144c0,0,-6,24,-17,33c0,0,-11,10,-30,10c0,0,-21,0,-51,-11L45,620l206,83h33V154c0,0,0,-64,9,-85c0,0,9,-22,27,-32c0,0,19,-11,67,-11V0ZM222,909c0,0,-32,0,-54,23c0,0,-22,22,-22,53c0,0,0,32,22,54c0,0,22,22,54,22c0,0,31,0,53,-22c0,0,22,-22,22,-54c0,0,0,-31,-22,-53c0,0,-22,-23,-53,-23Z" 
id="f1_25"
transform="scale(0.001,-0.001)" />

<path d="M411,-239c0,0,134,0,198,48c0,0,64,47,64,100c0,0,0,39,-38,55c0,0,-39,16,-154,19c0,0,-167,5,-258,17c0,0,-35,-37,-53,-70c0,0,-17,-32,-17,-60c0,0,0,-36,43,-62c0,0,74,-47,215,-47ZM380,257c0,0,56,0,93,43c0,0,36,42,36,133c0,0,0,118,-51,185c0,0,-38,49,-98,49c0,0,-55,0,-92,-44c0,0,-37,-44,-37,-135c0,0,0,-117,50,-182c0,0,39,-49,99,-49ZM345,-328c0,0,-144,0,-243,64c0,0,-56,38,-56,78c0,0,0,18,8,36c0,0,13,27,52,76c0,0,5,7,76,80c0,0,-39,23,-55,41c0,0,-16,19,-16,42c0,0,0,26,22,61c0,0,21,35,98,100c0,0,-63,30,-97,85c0,0,-33,55,-33,121c0,0,0,101,76,174c0,0,77,73,196,73c0,0,98,0,170,-48H688c0,0,32,0,37,-2c0,0,6,-2,8,-6c0,0,4,-7,4,-24c0,0,0,-20,-4,-27c0,0,-2,-4,-7,-6c0,0,-6,-2,-38,-2H599c0,0,41,-54,41,-137c0,0,0,-96,-73,-163c0,0,-73,-68,-196,-68c0,0,-51,0,-104,15c0,0,-33,-28,-44,-49c0,0,-12,-22,-12,-37c0,0,0,-12,13,-24c0,0,12,-12,48,-17c0,0,21,-4,104,-6c0,0,154,-4,199,-11c0,0,70,-10,111,-51c0,0,42,-41,42,-102c0,0,0,-84,-79,-158c0,0,-117,-108,-304,-108Z" 
id="f1_23"
transform="scale(0.001,-0.001)" />

<path d="M286,72c0,0,57,0,149,75V407c0,0,-113,-45,-145,-64c0,0,-59,-32,-85,-68c0,0,-25,-36,-25,-78c0,0,0,-54,32,-89c0,0,32,-36,74,-36ZM217,-13c0,0,-71,0,-116,48c0,0,-46,48,-46,127c0,0,0,50,22,87c0,0,31,50,106,95c0,0,76,45,252,109v26c0,0,0,102,-32,140c0,0,-32,38,-94,38c0,0,-47,0,-74,-25c0,0,-28,-25,-28,-58l1,-43c0,0,0,-34,-17,-53c0,0,-18,-18,-47,-18c0,0,-28,0,-45,19c0,0,-18,19,-18,53c0,0,0,64,66,117c0,0,65,54,184,54c0,0,91,0,149,-31c0,0,44,-23,65,-72c0,0,13,-32,13,-131V238c0,0,0,-98,4,-120c0,0,4,-22,12,-29c0,0,9,-8,20,-8c0,0,12,0,21,5c0,0,16,10,61,55V99C676,99,592,-12,516,-12c0,0,-37,0,-58,24c0,0,-22,26,-23,86C435,98,330,17,303,5c0,0,-40,-18,-86,-18Z" 
id="f1_1x"
transform="scale(0.001,-0.001)" />

<path d="M21,0V26H35c0,0,53,0,71,27c0,0,18,27,18,101V408c0,0,0,123,-5,150c0,0,-6,27,-17,37c0,0,-12,10,-31,10c0,0,-21,0,-50,-11L10,620l206,83h32V558c0,0,120,145,229,145c0,0,56,0,96,-28c0,0,40,-28,64,-92c0,0,16,-45,16,-137V154c0,0,0,-65,11,-88c0,0,8,-19,26,-29c0,0,18,-11,68,-11V0H419V26h14c0,0,47,0,66,15c0,0,20,15,27,43c0,0,3,11,3,70V434c0,0,0,93,-24,135c0,0,-24,42,-81,42c0,0,-88,0,-176,-97V154c0,0,0,-69,9,-86c0,0,10,-21,28,-31c0,0,19,-11,75,-11V0Z" 
id="f1_2a"
transform="scale(0.001,-0.001)" />

<path d="M399,62c0,0,68,0,131,68V481c0,0,-5,51,-27,93c0,0,-22,42,-59,63c0,0,-37,21,-72,21c0,0,-65,0,-117,-59c0,0,-67,-77,-67,-226c0,0,0,-151,65,-231c0,0,66,-80,146,-80ZM330,-20c0,0,-112,0,-196,93c0,0,-83,94,-83,240c0,0,0,147,92,269c0,0,93,122,238,122c0,0,90,0,149,-58V773c0,0,0,117,-6,144c0,0,-5,27,-17,37c0,0,-12,9,-30,9c0,0,-20,0,-52,-12l-9,27l204,83h33V270c0,0,0,-120,6,-146c0,0,5,-27,18,-37c0,0,12,-11,28,-11c0,0,21,0,54,13l9,-26L564,-20H530V78C530,78,480,25,432,2c0,0,-47,-22,-102,-22Z" 
id="f1_20"
transform="scale(0.001,-0.001)" />

<path d="M312,-20c0,0,-62,0,-143,22c0,0,-25,8,-40,8c0,0,-18,0,-27,-19H77V234h25c0,0,21,-105,80,-158c0,0,59,-53,132,-53c0,0,51,0,84,31c0,0,32,30,32,72c0,0,0,52,-36,87c0,0,-36,35,-144,88c0,0,-109,54,-142,97c0,0,-34,43,-34,107c0,0,0,85,58,141c0,0,58,57,150,57c0,0,40,0,97,-17c0,0,38,-11,51,-11c0,0,12,0,19,5c0,0,7,5,15,23h25V470H464c0,0,-28,110,-72,149c0,0,-45,40,-113,40c0,0,-53,0,-85,-28c0,0,-32,-27,-32,-61c0,0,0,-41,24,-71c0,0,23,-31,94,-65L389,381c0,0,152,-74,152,-194c0,0,0,-94,-71,-151c0,0,-70,-56,-158,-56Z" 
id="f1_2f"
transform="scale(0.001,-0.001)" />

<path d="M376,-20L133,556c0,0,-17,41,-31,58c0,0,-15,18,-39,30c0,0,-12,7,-50,13v26H335V657H314c0,0,-29,0,-44,-14c0,0,-16,-14,-15,-38c0,0,-1,-26,15,-62L429,165L588,557c0,0,17,42,17,64c0,0,0,10,-6,17c0,0,-8,11,-21,15c0,0,-13,4,-52,4v26H750V657c0,0,-39,-3,-54,-16c0,0,-26,-23,-47,-76L409,-20Z" 
id="f1_2i"
transform="scale(0.001,-0.001)" />

<path d="M255,-10c0,0,-35,0,-68,18c0,0,-32,19,-48,55c0,0,-16,35,-16,109V632H15v24c0,0,41,16,84,56c0,0,43,39,77,92c0,0,17,29,48,104h23V683H407V632H247V188c0,0,0,-66,19,-90c0,0,19,-23,49,-23c0,0,24,0,47,16c0,0,23,15,36,45h29c0,0,-26,-73,-74,-110c0,0,-47,-36,-98,-36Z" 
id="f1_2g"
transform="scale(0.001,-0.001)" />

<path d="M17,0V26c0,0,52,0,77,17c0,0,19,12,26,38c0,0,4,13,4,73V419c0,0,0,119,-5,142c0,0,-4,23,-17,33c0,0,-13,11,-33,11c0,0,-23,0,-52,-11l-7,26l207,83h31V549c0,0,86,154,176,154c0,0,41,0,68,-25c0,0,27,-25,27,-58c0,0,0,-29,-20,-49c0,0,-19,-20,-46,-20c0,0,-26,0,-58,25c0,0,-33,26,-48,26c0,0,-14,0,-29,-15c0,0,-34,-30,-70,-101V159c0,0,0,-56,15,-85c0,0,9,-20,34,-34c0,0,24,-14,71,-14V0Z" 
id="f1_2e"
transform="scale(0.001,-0.001)" />

<path d="M406,32c0,0,72,0,119,60c0,0,47,59,47,205c0,0,0,181,-78,286c0,0,-53,71,-135,71c0,0,-40,0,-79,-23c0,0,-40,-24,-65,-83c0,0,-24,-58,-24,-151c0,0,0,-149,59,-257c0,0,59,-108,156,-108ZM374,-20c0,0,-154,0,-245,122c0,0,-77,104,-77,233c0,0,0,94,46,187c0,0,47,92,123,137c0,0,76,44,161,44c0,0,155,0,249,-118c0,0,80,-100,80,-231c0,0,0,-91,-44,-185C667,169,623,75,546,27c0,0,-77,-47,-172,-47Z" 
id="f1_2b"
transform="scale(0.001,-0.001)" />

<path d="M23,0V26c0,0,47,0,66,10c0,0,19,11,28,33c0,0,10,22,10,85V416c0,0,0,112,-7,145c0,0,-5,25,-16,34c0,0,-11,10,-31,10c0,0,-21,0,-50,-11L12,620l207,83h32V557c0,0,75,75,88,86c0,0,34,29,72,44c0,0,39,16,77,16c0,0,64,0,110,-37c0,0,47,-38,62,-109c0,0,77,90,130,118c0,0,53,28,109,28c0,0,54,0,96,-28c0,0,42,-28,67,-91c0,0,16,-43,16,-136V154c0,0,0,-64,10,-88c0,0,8,-16,28,-28c0,0,20,-12,65,-12V0H844V26h14c0,0,44,0,69,18c0,0,17,12,24,38c0,0,3,13,3,72V448c0,0,0,83,-20,117c0,0,-29,48,-93,48c0,0,-39,0,-79,-20c0,0,-40,-19,-97,-73l-1,-8l2,-32V154c0,0,0,-70,8,-87c0,0,7,-17,29,-29c0,0,21,-12,73,-12V0H431V26c0,0,57,0,78,14c0,0,21,13,29,40c0,0,4,13,4,74V448c0,0,0,83,-25,120c0,0,-33,48,-91,48c0,0,-40,0,-80,-22c0,0,-61,-33,-95,-74V154c0,0,0,-67,10,-87c0,0,9,-20,27,-30c0,0,18,-11,74,-11V0Z" 
id="f1_29"
transform="scale(0.001,-0.001)" />

<path d="M342,-20c0,0,-116,0,-203,97c0,0,-86,98,-86,264c0,0,0,161,96,261c0,0,95,101,230,101c0,0,100,0,165,-53c0,0,65,-54,65,-111c0,0,0,-29,-18,-46c0,0,-18,-18,-51,-18c0,0,-44,0,-66,29c0,0,-13,15,-17,59c0,0,-4,45,-30,68c0,0,-26,22,-73,22c0,0,-74,0,-120,-55c0,0,-60,-73,-60,-193c0,0,0,-122,60,-216c0,0,60,-93,162,-93c0,0,73,0,131,49c0,0,41,35,80,126l22,-10C629,261,601,125,521,52c0,0,-81,-72,-179,-72Z" 
id="f1_1z"
transform="scale(0.001,-0.001)" />

<path d="M191,-20c0,0,-34,0,-58,24c0,0,-24,24,-24,58c0,0,0,35,24,59c0,0,24,24,58,24c0,0,35,0,59,-24c0,0,24,-25,24,-59c0,0,0,-34,-24,-58c0,0,-25,-24,-59,-24Z" 
id="f1_i"
transform="scale(0.001,-0.001)" />

<path d="M29,0V27H63c0,0,44,0,71,16c0,0,19,11,30,36c0,0,8,18,8,94V839c0,0,0,69,-4,84c0,0,-7,27,-27,41c0,0,-29,21,-78,21H29v27H877V713H850c0,0,-22,109,-61,157c0,0,-39,48,-111,70c0,0,-42,13,-158,13H416V542h20c0,0,97,0,140,60c0,0,44,60,56,178h27V251H632c0,0,-9,87,-38,142c0,0,-29,55,-67,74c0,0,-39,19,-111,19V201c0,0,0,-84,7,-103c0,0,7,-18,26,-30c0,0,20,-12,63,-12h60c0,0,142,0,228,65c0,0,86,66,123,201h28L905,0Z" 
id="f2_15"
transform="scale(0.001,-0.001)" />

<path d="M34,0V26c0,0,51,0,93,28c0,0,42,28,123,147l58,85L188,509c0,0,-59,109,-88,133c0,0,-29,25,-65,28v27H419V669L362,656c0,0,-6,-6,-6,-18c0,0,0,-11,4,-23c0,0,2,-5,20,-40L435,473l27,41c0,0,60,82,60,115c0,0,0,15,-13,26c0,0,-13,11,-47,15v27H710V670c0,0,-46,-2,-85,-28c0,0,-40,-27,-89,-103L460,427L584,198c0,0,62,-121,99,-153c0,0,20,-17,55,-19V0H349V26c0,0,46,4,57,12c0,0,11,9,11,23c0,0,0,21,-24,66L332,240L281,165c0,0,-35,-52,-39,-62c0,0,-6,-14,-6,-25c0,0,0,-17,7,-29c0,0,7,-11,19,-17c0,0,13,-6,45,-6V0Z" 
id="f2_2k"
transform="scale(0.001,-0.001)" />

<path d="M56,0V26c0,0,44,5,63,29c0,0,13,16,13,97V546c0,0,0,79,-15,98c0,0,-14,20,-61,26v27H341V606c0,0,57,63,106,88c0,0,49,25,108,25c0,0,67,0,112,-32c0,0,46,-31,71,-95c0,0,59,67,114,97c0,0,55,30,115,30c0,0,72,0,115,-34c0,0,43,-33,60,-84c0,0,16,-51,16,-163V152c0,0,0,-81,15,-100c0,0,14,-20,61,-26V0H873V26c0,0,42,4,63,33c0,0,13,20,13,93V452c0,0,0,93,-7,119c0,0,-8,25,-24,38c0,0,-16,12,-37,12c0,0,-32,0,-65,-24c0,0,-33,-23,-66,-70V152c0,0,0,-76,12,-95c0,0,17,-28,66,-31V0H466V26c0,0,29,2,46,15c0,0,17,13,23,31c0,0,5,18,5,80V452c0,0,0,95,-7,119c0,0,-8,24,-25,37c0,0,-18,14,-38,14c0,0,-30,0,-54,-16c0,0,-35,-23,-75,-79V152c0,0,0,-74,14,-98c0,0,15,-23,61,-28V0Z" 
id="f2_29"
transform="scale(0.001,-0.001)" />

<path d="M459,56c0,0,40,0,66,42c0,0,39,63,39,239c0,0,0,180,-42,247c0,0,-29,44,-76,44c0,0,-76,0,-124,-109V147c0,0,64,-91,137,-91ZM29,-326v28c0,0,46,1,69,26c0,0,14,17,14,89V551c0,0,0,75,-17,95c0,0,-17,21,-66,24v27H322V605c0,0,36,54,74,78c0,0,55,36,119,36c0,0,77,0,140,-49c0,0,63,-48,95,-134c0,0,33,-85,33,-184c0,0,0,-106,-34,-193c0,0,-34,-88,-98,-134c0,0,-65,-45,-144,-45c0,0,-57,0,-107,25c0,0,-37,19,-78,66V-188c0,0,0,-53,8,-73c0,0,9,-19,27,-28c0,0,18,-9,70,-9v-28Z" 
id="f2_2c"
transform="scale(0.001,-0.001)" />

<path d="M32,0V26c0,0,46,2,69,27c0,0,14,18,14,92V867c0,0,0,74,-17,94c0,0,-17,21,-66,24v27H325V145c0,0,0,-74,17,-95c0,0,17,-21,68,-24V0Z" 
id="f2_28"
transform="scale(0.001,-0.001)" />

<path d="M254,-18c0,0,-51,0,-88,36c0,0,-36,36,-36,87c0,0,0,52,36,88c0,0,37,37,88,37c0,0,53,0,89,-37c0,0,36,-36,36,-88c0,0,0,-51,-36,-87c0,0,-37,-36,-89,-36Zm2,488c0,0,-52,0,-88,36c0,0,-36,37,-36,88c0,0,0,51,36,88c0,0,36,36,88,36c0,0,51,0,87,-36c0,0,36,-37,36,-88c0,0,0,-51,-36,-88c0,0,-36,-36,-87,-36Z" 
id="f2_u"
transform="scale(0.001,-0.001)" />

<path d="M33,0V27c0,0,264,241,371,393c0,0,108,152,108,278c0,0,0,96,-59,158c0,0,-59,62,-141,62c0,0,-75,0,-134,-43c0,0,-59,-44,-88,-128H63c0,0,18,138,95,212c0,0,77,74,193,74c0,0,123,0,205,-80c0,0,83,-79,83,-186c0,0,0,-77,-36,-154c0,0,-55,-121,-179,-256C424,357,238,154,191,112H455c0,0,81,0,114,6c0,0,32,6,58,25c0,0,27,18,46,52h27L630,0Z" 
id="f1_m"
transform="scale(0.001,-0.001)" />

<path d="M398,24c0,0,74,0,120,58c0,0,61,76,61,214c0,0,0,156,-69,240c0,0,-47,59,-113,59c0,0,-36,0,-71,-18c0,0,-27,-14,-88,-81V242c0,0,0,-83,6,-109c0,0,11,-43,51,-76c0,0,41,-33,103,-33ZM-4,-326v27H15c5,0,42,0,69,16c0,0,14,8,22,26c0,0,7,19,7,94V481c0,0,0,67,-6,85c0,0,-5,18,-18,27c0,0,-13,9,-36,9c0,0,-18,0,-45,-10L0,615l209,85h29V540c0,0,53,91,106,127c0,0,53,36,112,36c0,0,103,0,172,-80c0,0,84,-99,84,-257c0,0,0,-176,-102,-292c0,0,-83,-94,-210,-94c0,0,-55,0,-95,16c0,0,-30,10,-67,44V-167c0,0,0,-71,8,-90c0,0,9,-20,30,-31c0,0,21,-11,77,-11v-27Z" 
id="f1_2c"
transform="scale(0.001,-0.001)" />

<path d="M63,0V26H93c0,0,30,0,54,15c0,0,25,15,34,41c0,0,10,25,10,99V630H58v53H191v45c0,0,0,102,33,173c0,0,32,71,100,114c0,0,68,44,152,44c0,0,79,0,145,-51c0,0,43,-33,43,-75c0,0,0,-22,-19,-42c0,0,-20,-20,-42,-20c0,0,-17,0,-36,12c0,0,-19,13,-47,53c0,0,-28,41,-51,55c0,0,-23,14,-51,14c0,0,-35,0,-58,-18c0,0,-24,-18,-35,-57c0,0,-10,-38,-10,-197V683H491V630H315V181c0,0,0,-96,21,-122c0,0,27,-33,73,-33h62V0Z" 
id="f1_22"
transform="scale(0.001,-0.001)" />

<path d="M292,-20c0,0,-57,0,-100,33c0,0,-42,33,-58,85c0,0,-17,52,-17,148V551c0,0,0,49,-10,68c0,0,-11,18,-31,29c0,0,-19,9,-68,9c-2,0,-4,0,-6,0v26H242V226c0,0,0,-95,33,-125c0,0,33,-30,80,-30c0,0,32,0,73,21c0,0,40,20,96,76V555c0,0,0,59,-21,80c0,0,-22,21,-89,22v26H647V269c0,0,0,-119,6,-145c0,0,6,-27,18,-37c0,0,12,-11,29,-11c0,0,23,0,52,13L763,63L558,-20H524V124C524,124,436,29,390,4c0,0,-47,-24,-98,-24Z" 
id="f1_2h"
transform="scale(0.001,-0.001)" />

<path d="M450,515c0,0,91,0,141,54c0,0,49,54,49,167c0,0,0,113,-49,165c0,0,-50,52,-148,52H413V516c0,0,24,-1,37,-1ZM39,0V27c0,0,70,0,95,13c0,0,25,14,35,35c0,0,10,21,10,103V834c0,0,0,82,-10,104c0,0,-10,21,-36,34c0,0,-25,13,-94,13v27H480c0,0,218,0,313,-78c0,0,94,-77,94,-194c0,0,0,-99,-61,-169c0,0,-61,-70,-169,-95c0,0,-72,-18,-244,-18V178c0,0,0,-82,10,-104c0,0,10,-21,35,-34c0,0,26,-13,94,-13V0Z" 
id="f2_1g"
transform="scale(0.001,-0.001)" />

<path d="M312,-20c0,0,-50,0,-134,30c0,0,-22,9,-30,9c0,0,-25,0,-41,-37H82L70,232H97c0,0,33,-99,91,-148c0,0,59,-49,111,-49c0,0,35,0,58,22c0,0,22,22,22,54c0,0,0,35,-22,61c0,0,-22,27,-100,80c0,0,-114,79,-147,120c0,0,-49,62,-49,136c0,0,0,80,55,145c0,0,56,66,161,66c0,0,56,0,109,-28c0,0,20,-11,33,-11c0,0,13,0,21,5c0,0,9,6,27,32h26L504,479H477c0,0,-45,106,-94,145c0,0,-48,39,-96,39c0,0,-31,0,-52,-21c0,0,-22,-20,-22,-47c0,0,0,-20,15,-39c0,0,24,-30,133,-105c0,0,110,-74,144,-126c0,0,35,-52,35,-116c0,0,0,-58,-29,-114C511,95,482,39,429,9c0,0,-53,-29,-117,-29Z" 
id="f2_2f"
transform="scale(0.001,-0.001)" />

<path d="M145,-328c0,0,-44,0,-73,25c0,0,-28,25,-28,58c0,0,0,31,21,50c0,0,20,19,56,19c0,0,25,0,67,-16c0,0,30,-11,38,-11c0,0,22,0,49,23c0,0,26,23,53,89L376,28L131,542c0,0,-11,24,-36,58c0,0,-19,27,-30,36c0,0,-18,12,-56,21v26H328V657H312c0,0,-33,0,-50,-15c0,0,-17,-14,-17,-36c0,0,0,-30,25,-81L437,179L589,557c0,0,12,31,12,62c0,0,0,13,-5,20c0,0,-6,8,-19,13c0,0,-12,5,-44,5v26H754V657c0,0,-27,-3,-42,-12c0,0,-15,-9,-33,-34c0,0,-7,-10,-25,-58L376,-128c0,0,-40,-99,-105,-150c0,0,-66,-50,-126,-50Z" 
id="f1_2l"
transform="scale(0.001,-0.001)" />

<path d="M49,0V26c0,0,47,1,67,11c0,0,20,10,28,28c0,0,7,18,7,75l-1,484H49v73H150v87c0,0,0,107,79,179c0,0,78,71,212,71c0,0,92,0,136,-34c0,0,45,-34,45,-76c0,0,0,-34,-28,-58c0,0,-28,-25,-73,-25c0,0,-39,0,-62,20c0,0,-22,20,-22,45c0,0,0,6,4,27c0,0,3,13,3,24c0,0,0,16,-9,23c0,0,-12,11,-29,11c0,0,-21,0,-36,-17c0,0,-15,-18,-15,-58l1,-130V697H460V624H356l1,-484c0,0,0,-70,15,-88c0,0,22,-26,81,-26c2,0,5,0,7,0V0Z" 
id="f2_22"
transform="scale(0.001,-0.001)" />

<path d="M32,0V27H66c0,0,44,0,71,16c0,0,19,11,30,36c0,0,8,18,8,94V839c0,0,0,78,-8,97c0,0,-8,20,-33,34c0,0,-25,15,-68,15H32v27H561V985H528c0,0,-44,0,-71,-16c0,0,-19,-11,-30,-36c0,0,-9,-18,-9,-94V552H775V839c0,0,0,78,-8,97c0,0,-9,20,-34,34c0,0,-25,15,-68,15H632v27h529V985h-33c0,0,-45,0,-71,-16c0,0,-19,-11,-31,-36c0,0,-8,-18,-8,-94V173c0,0,0,-78,8,-97c0,0,9,-20,34,-34c0,0,26,-15,68,-15h33V0H632V27h33c0,0,45,0,71,16c0,0,19,11,31,36c0,0,8,18,8,94V487H418V173c0,0,0,-78,9,-97c0,0,9,-20,33,-34c0,0,25,-15,68,-15h33V0Z" 
id="f2_18"
transform="scale(0.001,-0.001)" />

<path d="M25,0V26c0,0,27,4,47,19c0,0,29,22,96,111L311,346L182,535c0,0,-55,81,-86,102c0,0,-30,20,-75,20v26H341V657c0,0,-30,0,-42,-10c0,0,-13,-11,-13,-28c0,0,0,-19,27,-56c0,0,8,-12,25,-37l48,-78l56,77c0,0,55,74,55,94c0,0,0,16,0,27c0,0,0,11,0,11v26H674V657c0,0,-37,-2,-64,-20c0,0,-37,-26,-100,-111L416,402L587,156c0,0,63,-91,89,-109c0,0,27,-18,70,-21V0H423V26c0,0,34,0,53,15c0,0,14,11,14,28c0,0,0,17,-48,87L341,302L232,157c0,0,-50,-69,-50,-82c0,0,0,-18,17,-32c0,0,17,-15,50,-17V0Z" 
id="f1_2k"
transform="scale(0.001,-0.001)" />

<path d="M114,0V27h27c0,0,65,0,93,15c0,0,27,15,37,41c0,0,10,27,10,122V729c0,0,0,71,-7,89c0,0,-7,17,-25,30c0,0,-18,12,-42,12c0,0,-38,0,-93,-24l-13,26l372,171h25V205c0,0,0,-93,8,-119c0,0,8,-26,34,-42c0,0,27,-17,84,-17h23V0Z" 
id="f2_l"
transform="scale(0.001,-0.001)" />

<path d="M404,381V781L110,381ZM404,0V227H38V381l480,652h91V381h93V227H609V0Z" 
id="f2_o"
transform="scale(0.001,-0.001)" />

<path d="M191,-18c0,0,-51,0,-87,36c0,0,-37,36,-37,87c0,0,0,52,37,88c0,0,36,37,87,37c0,0,52,0,89,-37c0,0,36,-36,36,-88c0,0,0,-51,-37,-87c0,0,-36,-36,-88,-36Z" 
id="f2_i"
transform="scale(0.001,-0.001)" />

<path d="M37,0V16c0,0,275,327,333,439c0,0,59,113,59,220c0,0,0,79,-49,131c0,0,-49,52,-119,52c0,0,-115,0,-178,-115l-28,9c0,0,40,143,123,212c0,0,82,69,189,69c0,0,77,0,141,-36c0,0,63,-36,99,-98c0,0,36,-63,36,-117c0,0,0,-99,-56,-202c0,0,-75,-138,-329,-384H477c0,0,81,0,105,6c0,0,24,7,40,23c0,0,15,16,41,67h27L633,0Z" 
id="f2_m"
transform="scale(0.001,-0.001)" />

<path d="M610,-21c0,0,-162,0,-287,63c0,0,-126,65,-194,187c0,0,-68,121,-68,258c0,0,0,145,75,275c0,0,76,129,205,201c0,0,128,71,273,71c0,0,107,0,225,-46c0,0,69,-27,88,-27c0,0,24,0,41,18c0,0,18,17,23,55h29V683H991c0,0,-33,138,-122,211c0,0,-90,73,-203,73c0,0,-95,0,-174,-54c0,0,-79,-55,-116,-143c0,0,-47,-112,-47,-250c0,0,0,-135,34,-247c0,0,35,-111,108,-168c0,0,73,-57,189,-57c0,0,96,0,175,42c0,0,80,41,168,144V146c0,0,-85,-89,-178,-129c0,0,-92,-38,-215,-38Z" 
id="f2_13"
transform="scale(0.001,-0.001)" />

<path d="M52,0V26c0,0,44,5,62,29c0,0,13,16,13,97V860c0,0,0,80,-14,99c0,0,-15,20,-61,26v27H336V608c0,0,58,61,106,86c0,0,47,25,99,25c0,0,65,0,112,-38c0,0,47,-37,62,-87c0,0,15,-51,15,-170V152c0,0,0,-81,15,-100c0,0,15,-20,61,-26V0H452V26c0,0,37,6,56,30c0,0,13,20,13,96V463c0,0,0,86,-7,108c0,0,-6,22,-22,35c0,0,-16,12,-36,12c0,0,-30,0,-59,-21c0,0,-28,-20,-61,-72V152c0,0,0,-75,12,-94c0,0,14,-26,58,-32V0Z" 
id="f2_24"
transform="scale(0.001,-0.001)" />

<path d="M678,393L506,802L330,393ZM11,0V27c0,0,63,12,82,30c0,0,38,35,84,145l356,832h27L912,193c0,0,43,-101,77,-132c0,0,35,-30,97,-34V0H687V27c0,0,60,3,82,21c0,0,21,17,21,41c0,0,0,33,-30,104L700,338H307L239,179c0,0,-26,-59,-26,-88c0,0,0,-23,22,-41c0,0,22,-17,95,-23V0Z" 
id="f1_11"
transform="scale(0.001,-0.001)" />

<path d="M397,34c0,0,67,0,126,75c0,0,58,74,58,216c0,0,0,131,-58,201c0,0,-59,70,-133,70c0,0,-39,0,-79,-20c0,0,-29,-14,-75,-59V109c0,0,37,-37,78,-56c0,0,40,-19,83,-19ZM358,-20c0,0,-59,0,-121,21c0,0,-61,22,-126,65V773c0,0,0,117,-5,144c0,0,-6,27,-18,37c0,0,-12,9,-29,9c0,0,-21,0,-53,-12l-9,27l205,83h34V564c0,0,98,139,213,139c0,0,105,0,183,-90c0,0,78,-90,78,-245c0,0,0,-182,-121,-293c0,0,-103,-95,-231,-95Z" 
id="f1_1y"
transform="scale(0.001,-0.001)" />

<path d="M13,0V26c0,0,52,0,78,13c0,0,16,8,24,25c0,0,11,25,11,86V773c0,0,0,118,-5,145c0,0,-5,26,-17,36c0,0,-12,10,-32,10c0,0,-15,0,-47,-13L13,978l203,83h34V381L424,540c0,0,55,50,64,64c0,0,6,9,6,18c0,0,0,15,-12,26c0,0,-13,11,-41,12v23H738V660c0,0,-61,-2,-102,-19c0,0,-40,-17,-89,-62L372,418L547,196c0,0,73,-92,98,-117c0,0,36,-35,63,-45c0,0,18,-8,65,-8V0H441V26c0,0,28,1,38,9c0,0,10,8,10,22c0,0,0,17,-29,56L250,381V154c0,0,0,-67,10,-88c0,0,9,-21,26,-30c0,0,17,-9,75,-10V0Z" 
id="f1_27"
transform="scale(0.001,-0.001)" />

<path d="M336,-20L117,554c0,0,-21,55,-42,74c0,0,-21,19,-66,29v26H296V657c0,0,-40,-3,-52,-14c0,0,-13,-12,-13,-33c0,0,0,-23,13,-56L390,162L537,481L498,581c0,0,-18,46,-47,63c0,0,-17,11,-61,13v26H716V657c0,0,-54,-2,-77,-20c0,0,-15,-12,-15,-39c0,0,0,-15,6,-30L785,177L929,554c0,0,15,40,15,65c0,0,0,14,-15,25c0,0,-14,12,-57,13v26h216V657c0,0,-65,-10,-95,-89L764,-20H733L563,415L363,-20Z" 
id="f1_2j"
transform="scale(0.001,-0.001)" />

<path d="M62,286V399H448V286Z" 
id="f1_h"
transform="scale(0.001,-0.001)" />

<path d="M31,0V27H69c0,0,64,0,91,42c0,0,16,24,16,110V833c0,0,0,95,-21,119c0,0,-29,33,-86,33H31v27H488V985c0,0,-1,0,-2,0c-12,0,-81,-1,-111,-15c0,0,-32,-16,-44,-40c0,0,-12,-24,-12,-115V180c0,0,0,-62,12,-85c0,0,9,-16,27,-23c0,0,19,-7,117,-7h74c0,0,116,0,163,17c0,0,48,17,86,61c0,0,39,43,78,138l25,-6L814,0Z" 
id="f1_1c"
transform="scale(0.001,-0.001)" />


</defs>
</svg>