<?xml version="1.0" encoding="UTF-8" standalone="no"?>
<!DOCTYPE svg PUBLIC "-//W3C//DTD SVG 1.1//EN"
"http://www.w3.org/Graphics/SVG/1.1/DTD/svg11.dtd">
<svg viewBox="0 0 909 1286" version="1.1" xmlns="http://www.w3.org/2000/svg" xmlns:xlink="http://www.w3.org/1999/xlink">
<defs>
<style type="text/css"><![CDATA[
.g0_12{
fill: #FFFFFF;
}
.g1_12{
}
.g2_12{
fill: #009900;
fill-opacity: 0.4;
}
]]></style>
</defs>
<image preserveAspectRatio="none" x="250" y="138" width="474" height="486" xlink:href="img/1.png" />
<g fill="#000000" >
<use xlink:href="#f0_1n" transform="matrix(10,0,0,10,99.4,650.3)" />
<use xlink:href="#f0_24" transform="matrix(10,0,0,10,113.9,650.3)" />
<use xlink:href="#f0_21" transform="matrix(10,0,0,10,121.6,650.3)" />
<use xlink:href="#f0_2a" transform="matrix(10,0,0,10,128.3,650.3)" />
<use xlink:href="#f0_2g" transform="matrix(10,0,0,10,139.2,650.3)" />
<use xlink:href="#f0_24" transform="matrix(10,0,0,10,143.6,650.3)" />
<use xlink:href="#f0_21" transform="matrix(10,0,0,10,150.9,650.3)" />
<use xlink:href="#f0_29" transform="matrix(10,0,0,10,161.3,650.3)" />
<use xlink:href="#f0_2b" transform="matrix(10,0,0,10,173.1,650.3)" />
<use xlink:href="#f0_28" transform="matrix(10,0,0,10,180.8,650.3)" />
<use xlink:href="#f0_2g" transform="matrix(10,0,0,10,184.8,650.3)" />
<use xlink:href="#f0_21" transform="matrix(10,0,0,10,189,650.3)" />
<use xlink:href="#f0_2a" transform="matrix(10,0,0,10,196,650.3)" />
<use xlink:href="#f0_2c" transform="matrix(10,0,0,10,206.8,650.3)" />
<use xlink:href="#f0_25" transform="matrix(10,0,0,10,214.7,650.3)" />
<use xlink:href="#f0_23" transform="matrix(10,0,0,10,218.7,650.3)" />
<use xlink:href="#f0_25" transform="matrix(10,0,0,10,229.9,650.3)" />
<use xlink:href="#f0_2e" transform="matrix(10,0,0,10,234,650.3)" />
<use xlink:href="#f0_2b" transform="matrix(10,0,0,10,239.1,650.3)" />
<use xlink:href="#f0_2a" transform="matrix(10,0,0,10,247,650.3)" />
<use xlink:href="#f0_25" transform="matrix(10,0,0,10,258,650.3)" />
<use xlink:href="#f0_2f" transform="matrix(10,0,0,10,262.2,650.3)" />
<use xlink:href="#f0_1z" transform="matrix(10,0,0,10,271.4,650.3)" />
<use xlink:href="#f0_2b" transform="matrix(10,0,0,10,278.3,650.3)" />
<use xlink:href="#f0_2b" transform="matrix(10,0,0,10,286,650.3)" />
<use xlink:href="#f0_28" transform="matrix(10,0,0,10,293.5,650.3)" />
<use xlink:href="#f0_21" transform="matrix(10,0,0,10,297.8,650.3)" />
<use xlink:href="#f0_20" transform="matrix(10,0,0,10,304.7,650.3)" />
<use xlink:href="#f0_1x" transform="matrix(10,0,0,10,315.7,650.3)" />
<use xlink:href="#f0_2g" transform="matrix(10,0,0,10,322.7,650.3)" />
<use xlink:href="#f0_2b" transform="matrix(10,0,0,10,330.2,650.3)" />
<use xlink:href="#f0_2a" transform="matrix(10,0,0,10,338.1,650.3)" />
<use xlink:href="#f0_1z" transform="matrix(10,0,0,10,345.4,650.3)" />
<use xlink:href="#f0_21" transform="matrix(10,0,0,10,352.4,650.3)" />
<use xlink:href="#f0_g" transform="matrix(10,0,0,10,359,650.3)" />
<use xlink:href="#f0_2g" transform="matrix(10,0,0,10,366.3,650.3)" />
<use xlink:href="#f0_24" transform="matrix(10,0,0,10,370.6,650.3)" />
<use xlink:href="#f0_21" transform="matrix(10,0,0,10,378.3,650.3)" />
<use xlink:href="#f0_25" transform="matrix(10,0,0,10,388.5,650.3)" />
<use xlink:href="#f0_2e" transform="matrix(10,0,0,10,392.6,650.3)" />
<use xlink:href="#f0_2b" transform="matrix(10,0,0,10,397.7,650.3)" />
<use xlink:href="#f0_2a" transform="matrix(10,0,0,10,405.5,650.3)" />
<use xlink:href="#f0_25" transform="matrix(10,0,0,10,416.5,650.3)" />
<use xlink:href="#f0_2f" transform="matrix(10,0,0,10,420.8,650.3)" />
<use xlink:href="#f0_1z" transform="matrix(10,0,0,10,429.9,650.3)" />
<use xlink:href="#f0_1x" transform="matrix(10,0,0,10,436.9,650.3)" />
<use xlink:href="#f0_28" transform="matrix(10,0,0,10,443.7,650.3)" />
<use xlink:href="#f0_28" transform="matrix(10,0,0,10,447.7,650.3)" />
<use xlink:href="#f0_21" transform="matrix(10,0,0,10,451.9,650.3)" />
<use xlink:href="#f0_20" transform="matrix(10,0,0,10,458.9,650.3)" />
<use xlink:href="#f0_2j" transform="matrix(10,0,0,10,470.1,650.3)" />
<use xlink:href="#f0_24" transform="matrix(10,0,0,10,480.7,650.3)" />
<use xlink:href="#f0_25" transform="matrix(10,0,0,10,488.4,650.3)" />
<use xlink:href="#f0_2g" transform="matrix(10,0,0,10,492.4,650.3)" />
<use xlink:href="#f0_21" transform="matrix(10,0,0,10,496.7,650.3)" />
<use xlink:href="#f0_1z" transform="matrix(10,0,0,10,507.1,650.3)" />
<use xlink:href="#f0_1x" transform="matrix(10,0,0,10,513.9,650.3)" />
<use xlink:href="#f0_2f" transform="matrix(10,0,0,10,520.7,650.3)" />
<use xlink:href="#f0_2g" transform="matrix(10,0,0,10,526.4,650.3)" />
<use xlink:href="#f0_25" transform="matrix(10,0,0,10,534.3,650.3)" />
<use xlink:href="#f0_2e" transform="matrix(10,0,0,10,538.5,650.3)" />
<use xlink:href="#f0_2b" transform="matrix(10,0,0,10,543.6,650.3)" />
<use xlink:href="#f0_2a" transform="matrix(10,0,0,10,551.1,650.3)" />
<use xlink:href="#f0_g" transform="matrix(10,0,0,10,558.8,650.3)" />
<use xlink:href="#f0_2j" transform="matrix(10,0,0,10,566.2,650.3)" />
<use xlink:href="#f0_24" transform="matrix(10,0,0,10,576.8,650.3)" />
<use xlink:href="#f0_25" transform="matrix(10,0,0,10,584.1,650.3)" />
<use xlink:href="#f0_1z" transform="matrix(10,0,0,10,588.5,650.3)" />
<use xlink:href="#f0_24" transform="matrix(10,0,0,10,595.3,650.3)" />
<use xlink:href="#f0_1z" transform="matrix(10,0,0,10,606.3,650.3)" />
<use xlink:href="#f0_2b" transform="matrix(10,0,0,10,612.9,650.3)" />
<use xlink:href="#f0_2a" transform="matrix(10,0,0,10,620.8,650.3)" />
<use xlink:href="#f0_2g" transform="matrix(10,0,0,10,628.1,650.3)" />
<use xlink:href="#f0_1x" transform="matrix(10,0,0,10,632.5,650.3)" />
<use xlink:href="#f0_25" transform="matrix(10,0,0,10,639.3,650.3)" />
<use xlink:href="#f0_2a" transform="matrix(10,0,0,10,643.4,650.3)" />
<use xlink:href="#f0_2f" transform="matrix(10,0,0,10,651.1,650.3)" />
<use xlink:href="#f0_1z" transform="matrix(10,0,0,10,660.2,650.3)" />
<use xlink:href="#f0_1x" transform="matrix(10,0,0,10,667.2,650.3)" />
<use xlink:href="#f0_2e" transform="matrix(10,0,0,10,674,650.3)" />
<use xlink:href="#f0_1y" transform="matrix(10,0,0,10,679.1,650.3)" />
<use xlink:href="#f0_2b" transform="matrix(10,0,0,10,686.6,650.3)" />
<use xlink:href="#f0_2a" transform="matrix(10,0,0,10,694.5,650.3)" />
<use xlink:href="#f0_25" transform="matrix(10,0,0,10,705.3,650.3)" />
<use xlink:href="#f0_2a" transform="matrix(10,0,0,10,709.7,650.3)" />
<use xlink:href="#f0_2g" transform="matrix(10,0,0,10,720.5,650.3)" />
<use xlink:href="#f0_24" transform="matrix(10,0,0,10,724.7,650.3)" />
<use xlink:href="#f0_21" transform="matrix(10,0,0,10,732.4,650.3)" />
<use xlink:href="#f0_22" transform="matrix(10,0,0,10,742.7,650.3)" />
<use xlink:href="#f0_2b" transform="matrix(10,0,0,10,747.5,650.3)" />
<use xlink:href="#f0_2e" transform="matrix(10,0,0,10,755.3,650.3)" />
<use xlink:href="#f0_29" transform="matrix(10,0,0,10,760.5,650.3)" />
<use xlink:href="#f0_2b" transform="matrix(10,0,0,10,775.3,650.3)" />
<use xlink:href="#f0_22" transform="matrix(10,0,0,10,783.2,650.3)" />
<use xlink:href="#f0_1z" transform="matrix(10,0,0,10,791.5,650.3)" />
<use xlink:href="#f0_21" transform="matrix(10,0,0,10,798.4,650.3)" />
<use xlink:href="#f0_29" transform="matrix(10,0,0,10,805.2,650.3)" />
<use xlink:href="#f0_21" transform="matrix(10,0,0,10,816.8,650.3)" />
<use xlink:href="#f0_2a" transform="matrix(10,0,0,10,823.6,650.3)" />
<use xlink:href="#f0_2g" transform="matrix(10,0,0,10,830.9,650.3)" />
<use xlink:href="#f0_25" transform="matrix(10,0,0,10,835.1,650.3)" />
<use xlink:href="#f0_2g" transform="matrix(10,0,0,10,839.3,650.3)" />
<use xlink:href="#f0_21" transform="matrix(10,0,0,10,843.5,650.3)" />
<use xlink:href="#f0_g" transform="matrix(10,0,0,10,850.5,650.3)" />
<use xlink:href="#f0_16" transform="matrix(10,0,0,10,99.4,677.8)" />
<use xlink:href="#f0_21" transform="matrix(10,0,0,10,107.8,677.8)" />
<use xlink:href="#f0_n" transform="matrix(5.8,0,0,5.8,114.8,682.9)" />
<use xlink:href="#f0_13" transform="matrix(10,0,0,10,119.2,677.8)" />
<use xlink:href="#f0_1x" transform="matrix(10,0,0,10,132.2,677.8)" />
<use xlink:href="#f0_2a" transform="matrix(10,0,0,10,139,677.8)" />
<use xlink:href="#f0_20" transform="matrix(10,0,0,10,146.3,677.8)" />
<use xlink:href="#f0_2j" transform="matrix(10,0,0,10,156.9,677.8)" />
<use xlink:href="#f0_24" transform="matrix(10,0,0,10,167.7,677.8)" />
<use xlink:href="#f0_21" transform="matrix(10,0,0,10,175.1,677.8)" />
<use xlink:href="#f0_2a" transform="matrix(10,0,0,10,182.1,677.8)" />
<use xlink:href="#f0_2g" transform="matrix(10,0,0,10,192.5,677.8)" />
<use xlink:href="#f0_24" transform="matrix(10,0,0,10,196.5,677.8)" />
<use xlink:href="#f0_21" transform="matrix(10,0,0,10,204.2,677.8)" />
<use xlink:href="#f0_29" transform="matrix(10,0,0,10,213.8,677.8)" />
<use xlink:href="#f0_2b" transform="matrix(10,0,0,10,225.5,677.8)" />
<use xlink:href="#f0_28" transform="matrix(10,0,0,10,233.2,677.8)" />
<use xlink:href="#f0_2g" transform="matrix(10,0,0,10,237.2,677.8)" />
<use xlink:href="#f0_21" transform="matrix(10,0,0,10,241.5,677.8)" />
<use xlink:href="#f0_2a" transform="matrix(10,0,0,10,248.4,677.8)" />
<use xlink:href="#f0_2c" transform="matrix(10,0,0,10,258.7,677.8)" />
<use xlink:href="#f0_25" transform="matrix(10,0,0,10,266.4,677.8)" />
<use xlink:href="#f0_23" transform="matrix(10,0,0,10,270.6,677.8)" />
<use xlink:href="#f0_25" transform="matrix(10,0,0,10,280.9,677.8)" />
<use xlink:href="#f0_2e" transform="matrix(10,0,0,10,285.1,677.8)" />
<use xlink:href="#f0_2b" transform="matrix(10,0,0,10,290.2,677.8)" />
<use xlink:href="#f0_2a" transform="matrix(10,0,0,10,298.1,677.8)" />
<use xlink:href="#f0_25" transform="matrix(10,0,0,10,308.4,677.8)" />
<use xlink:href="#f0_2f" transform="matrix(10,0,0,10,312.6,677.8)" />
<use xlink:href="#f0_1z" transform="matrix(10,0,0,10,321.4,677.8)" />
<use xlink:href="#f0_2b" transform="matrix(10,0,0,10,328.4,677.8)" />
<use xlink:href="#f0_2b" transform="matrix(10,0,0,10,335.9,677.8)" />
<use xlink:href="#f0_28" transform="matrix(10,0,0,10,343.6,677.8)" />
<use xlink:href="#f0_21" transform="matrix(10,0,0,10,348,677.8)" />
<use xlink:href="#f0_20" transform="matrix(10,0,0,10,354.8,677.8)" />
<use xlink:href="#f0_2f" transform="matrix(10,0,0,10,365.2,677.8)" />
<use xlink:href="#f0_28" transform="matrix(10,0,0,10,371.1,677.8)" />
<use xlink:href="#f0_2b" transform="matrix(10,0,0,10,375.5,677.8)" />
<use xlink:href="#f0_2j" transform="matrix(10,0,0,10,383.2,677.8)" />
<use xlink:href="#f0_28" transform="matrix(10,0,0,10,393.6,677.8)" />
<use xlink:href="#f0_2l" transform="matrix(10,0,0,10,397.9,677.8)" />
<use xlink:href="#f0_1x" transform="matrix(10,0,0,10,408.3,677.8)" />
<use xlink:href="#f0_2a" transform="matrix(10,0,0,10,414.9,677.8)" />
<use xlink:href="#f0_20" transform="matrix(10,0,0,10,422.4,677.8)" />
<use xlink:href="#f0_2f" transform="matrix(10,0,0,10,433,677.8)" />
<use xlink:href="#f0_28" transform="matrix(10,0,0,10,439.1,677.8)" />
<use xlink:href="#f0_2b" transform="matrix(10,0,0,10,443.3,677.8)" />
<use xlink:href="#f0_2j" transform="matrix(10,0,0,10,450.8,677.8)" />
<use xlink:href="#f0_28" transform="matrix(10,0,0,10,461.4,677.8)" />
<use xlink:href="#f0_2l" transform="matrix(10,0,0,10,465.7,677.8)" />
<use xlink:href="#f0_g" transform="matrix(10,0,0,10,472.1,677.8)" />
<use xlink:href="#f0_2g" transform="matrix(10,0,0,10,478.9,677.8)" />
<use xlink:href="#f0_24" transform="matrix(10,0,0,10,483.3,677.8)" />
<use xlink:href="#f0_21" transform="matrix(10,0,0,10,490.6,677.8)" />
<use xlink:href="#f0_25" transform="matrix(10,0,0,10,500.3,677.8)" />
<use xlink:href="#f0_2e" transform="matrix(10,0,0,10,504.5,677.8)" />
<use xlink:href="#f0_2b" transform="matrix(10,0,0,10,509.9,677.8)" />
<use xlink:href="#f0_2a" transform="matrix(10,0,0,10,517.4,677.8)" />
<use xlink:href="#f0_25" transform="matrix(10,0,0,10,527.8,677.8)" />
<use xlink:href="#f0_2f" transform="matrix(10,0,0,10,532,677.8)" />
<use xlink:href="#f0_1z" transform="matrix(10,0,0,10,541,677.8)" />
<use xlink:href="#f0_1x" transform="matrix(10,0,0,10,547.8,677.8)" />
<use xlink:href="#f0_28" transform="matrix(10,0,0,10,554.6,677.8)" />
<use xlink:href="#f0_28" transform="matrix(10,0,0,10,558.6,677.8)" />
<use xlink:href="#f0_21" transform="matrix(10,0,0,10,562.9,677.8)" />
<use xlink:href="#f0_20" transform="matrix(10,0,0,10,569.8,677.8)" />
<use xlink:href="#f0_1x" transform="matrix(10,0,0,10,580.5,677.8)" />
<use xlink:href="#f0_2f" transform="matrix(10,0,0,10,587.1,677.8)" />
<use xlink:href="#f0_23" transform="matrix(10,0,0,10,596,677.8)" />
<use xlink:href="#f0_2e" transform="matrix(10,0,0,10,603.4,677.8)" />
<use xlink:href="#f0_21" transform="matrix(10,0,0,10,608.5,677.8)" />
<use xlink:href="#f0_2l" transform="matrix(10,0,0,10,615.5,677.8)" />
<use xlink:href="#f0_1z" transform="matrix(10,0,0,10,625.6,677.8)" />
<use xlink:href="#f0_1x" transform="matrix(10,0,0,10,632.3,677.8)" />
<use xlink:href="#f0_2f" transform="matrix(10,0,0,10,639.1,677.8)" />
<use xlink:href="#f0_2g" transform="matrix(10,0,0,10,644.8,677.8)" />
<use xlink:href="#f0_25" transform="matrix(10,0,0,10,652,677.8)" />
<use xlink:href="#f0_2e" transform="matrix(10,0,0,10,656.2,677.8)" />
<use xlink:href="#f0_2b" transform="matrix(10,0,0,10,661.3,677.8)" />
<use xlink:href="#f0_2a" transform="matrix(10,0,0,10,669.2,677.8)" />
<use xlink:href="#f0_g" transform="matrix(10,0,0,10,676.5,677.8)" />
<use xlink:href="#f0_2j" transform="matrix(10,0,0,10,683.5,677.8)" />
<use xlink:href="#f0_24" transform="matrix(10,0,0,10,694.1,677.8)" />
<use xlink:href="#f0_25" transform="matrix(10,0,0,10,701.6,677.8)" />
<use xlink:href="#f0_1z" transform="matrix(10,0,0,10,705.9,677.8)" />
<use xlink:href="#f0_24" transform="matrix(10,0,0,10,712.4,677.8)" />
<use xlink:href="#f0_1z" transform="matrix(10,0,0,10,723.1,677.8)" />
<use xlink:href="#f0_2b" transform="matrix(10,0,0,10,729.9,677.8)" />
<use xlink:href="#f0_2a" transform="matrix(10,0,0,10,737.6,677.8)" />
<use xlink:href="#f0_2g" transform="matrix(10,0,0,10,745.1,677.8)" />
<use xlink:href="#f0_1x" transform="matrix(10,0,0,10,749.3,677.8)" />
<use xlink:href="#f0_25" transform="matrix(10,0,0,10,755.9,677.8)" />
<use xlink:href="#f0_2a" transform="matrix(10,0,0,10,760.3,677.8)" />
<use xlink:href="#f0_2f" transform="matrix(10,0,0,10,767.6,677.8)" />
<use xlink:href="#f0_1z" transform="matrix(10,0,0,10,776.4,677.8)" />
<use xlink:href="#f0_1x" transform="matrix(10,0,0,10,783.4,677.8)" />
<use xlink:href="#f0_2e" transform="matrix(10,0,0,10,790,677.8)" />
<use xlink:href="#f0_1y" transform="matrix(10,0,0,10,795.3,677.8)" />
<use xlink:href="#f0_2b" transform="matrix(10,0,0,10,802.8,677.8)" />
<use xlink:href="#f0_2a" transform="matrix(10,0,0,10,810.7,677.8)" />
<use xlink:href="#f0_25" transform="matrix(10,0,0,10,821.2,677.8)" />
<use xlink:href="#f0_2a" transform="matrix(10,0,0,10,825.2,677.8)" />
<use xlink:href="#f0_2g" transform="matrix(10,0,0,10,835.6,677.8)" />
<use xlink:href="#f0_24" transform="matrix(10,0,0,10,840.1,677.8)" />
<use xlink:href="#f0_21" transform="matrix(10,0,0,10,847.4,677.8)" />
<use xlink:href="#f0_22" transform="matrix(10,0,0,10,99.4,705.3)" />
<use xlink:href="#f0_2b" transform="matrix(10,0,0,10,104.5,705.3)" />
<use xlink:href="#f0_2e" transform="matrix(10,0,0,10,112,705.3)" />
<use xlink:href="#f0_29" transform="matrix(10,0,0,10,117,705.3)" />
<use xlink:href="#f0_2b" transform="matrix(10,0,0,10,131.5,705.3)" />
<use xlink:href="#f0_22" transform="matrix(10,0,0,10,139.2,705.3)" />
<use xlink:href="#f0_23" transform="matrix(10,0,0,10,146.9,705.3)" />
<use xlink:href="#f0_2e" transform="matrix(10,0,0,10,154.6,705.3)" />
<use xlink:href="#f0_1x" transform="matrix(10,0,0,10,159.3,705.3)" />
<use xlink:href="#f0_2c" transform="matrix(10,0,0,10,166.3,705.3)" />
<use xlink:href="#f0_24" transform="matrix(10,0,0,10,174,705.3)" />
<use xlink:href="#f0_25" transform="matrix(10,0,0,10,181.5,705.3)" />
<use xlink:href="#f0_2g" transform="matrix(10,0,0,10,185.4,705.3)" />
<use xlink:href="#f0_21" transform="matrix(10,0,0,10,189.6,705.3)" />
<use xlink:href="#f0_i" transform="matrix(10,0,0,10,196.5,705.3)" />
<use xlink:href="#f1_l" transform="matrix(10,0,0,10,54.8,737.4)" />
<use xlink:href="#f1_i" transform="matrix(10,0,0,10,62.5,737.4)" />
<use xlink:href="#f1_13" transform="matrix(10,0,0,10,99.6,737.4)" />
<use xlink:href="#f1_2b" transform="matrix(10,0,0,10,110.2,737.4)" />
<use xlink:href="#f1_2f" transform="matrix(10,0,0,10,117.7,737.4)" />
<use xlink:href="#f1_2g" transform="matrix(10,0,0,10,123.6,737.4)" />
<use xlink:href="#f1_19" transform="matrix(10,0,0,10,131.1,737.4)" />
<use xlink:href="#f1_2e" transform="matrix(10,0,0,10,136.9,737.4)" />
<use xlink:href="#f1_2b" transform="matrix(10,0,0,10,143.4,737.4)" />
<use xlink:href="#f1_2a" transform="matrix(10,0,0,10,151.1,737.4)" />
<use xlink:href="#f1_2b" transform="matrix(10,0,0,10,162.1,737.4)" />
<use xlink:href="#f1_2e" transform="matrix(10,0,0,10,169.4,737.4)" />
<use xlink:href="#f1_1g" transform="matrix(10,0,0,10,178.6,737.4)" />
<use xlink:href="#f1_25" transform="matrix(10,0,0,10,187.7,737.4)" />
<use xlink:href="#f1_23" transform="matrix(10,0,0,10,191.9,737.4)" />
<use xlink:href="#f1_19" transform="matrix(10,0,0,10,202,737.4)" />
<use xlink:href="#f1_2e" transform="matrix(10,0,0,10,207.9,737.4)" />
<use xlink:href="#f1_2b" transform="matrix(10,0,0,10,214.5,737.4)" />
<use xlink:href="#f1_2a" transform="matrix(10,0,0,10,221.8,737.4)" />
<use xlink:href="#f1_u" transform="matrix(10,0,0,10,233,737.4)" />
<use xlink:href="#f0_1k" transform="matrix(10,0,0,10,99.4,769.1)" />
<use xlink:href="#f0_24" transform="matrix(10,0,0,10,109.1,769.1)" />
<use xlink:href="#f0_25" transform="matrix(10,0,0,10,116.4,769.1)" />
<use xlink:href="#f0_2f" transform="matrix(10,0,0,10,120.8,769.1)" />
<use xlink:href="#f0_25" transform="matrix(10,0,0,10,130.7,769.1)" />
<use xlink:href="#f0_2f" transform="matrix(10,0,0,10,134.9,769.1)" />
<use xlink:href="#f0_2g" transform="matrix(10,0,0,10,144.8,769.1)" />
<use xlink:href="#f0_24" transform="matrix(10,0,0,10,149.1,769.1)" />
<use xlink:href="#f0_21" transform="matrix(10,0,0,10,156.8,769.1)" />
<use xlink:href="#f0_28" transform="matrix(10,0,0,10,167.8,769.1)" />
<use xlink:href="#f0_21" transform="matrix(10,0,0,10,171.8,769.1)" />
<use xlink:href="#f0_1x" transform="matrix(10,0,0,10,178.8,769.1)" />
<use xlink:href="#f0_2f" transform="matrix(10,0,0,10,185.4,769.1)" />
<use xlink:href="#f0_2g" transform="matrix(10,0,0,10,191.4,769.1)" />
<use xlink:href="#f0_2c" transform="matrix(10,0,0,10,199.7,769.1)" />
<use xlink:href="#f0_2h" transform="matrix(10,0,0,10,207.5,769.1)" />
<use xlink:href="#f0_2e" transform="matrix(10,0,0,10,214.9,769.1)" />
<use xlink:href="#f0_21" transform="matrix(10,0,0,10,220.2,769.1)" />
<use xlink:href="#f0_22" transform="matrix(10,0,0,10,231,769.1)" />
<use xlink:href="#f0_2b" transform="matrix(10,0,0,10,235.8,769.1)" />
<use xlink:href="#f0_2e" transform="matrix(10,0,0,10,243.7,769.1)" />
<use xlink:href="#f0_29" transform="matrix(10,0,0,10,248.6,769.1)" />
<use xlink:href="#f0_2b" transform="matrix(10,0,0,10,264.6,769.1)" />
<use xlink:href="#f0_22" transform="matrix(10,0,0,10,272.1,769.1)" />
<use xlink:href="#f0_1z" transform="matrix(10,0,0,10,281.3,769.1)" />
<use xlink:href="#f0_2b" transform="matrix(10,0,0,10,288.2,769.1)" />
<use xlink:href="#f0_29" transform="matrix(10,0,0,10,295.7,769.1)" />
<use xlink:href="#f0_29" transform="matrix(10,0,0,10,307.3,769.1)" />
<use xlink:href="#f0_21" transform="matrix(10,0,0,10,318.8,769.1)" />
<use xlink:href="#f0_2e" transform="matrix(10,0,0,10,325.8,769.1)" />
<use xlink:href="#f0_1z" transform="matrix(10,0,0,10,330.9,769.1)" />
<use xlink:href="#f0_25" transform="matrix(10,0,0,10,337.7,769.1)" />
<use xlink:href="#f0_1x" transform="matrix(10,0,0,10,341.8,769.1)" />
<use xlink:href="#f0_28" transform="matrix(10,0,0,10,348.6,769.1)" />
<use xlink:href="#f0_25" transform="matrix(10,0,0,10,357,769.1)" />
<use xlink:href="#f0_2e" transform="matrix(10,0,0,10,361,769.1)" />
<use xlink:href="#f0_2b" transform="matrix(10,0,0,10,366.3,769.1)" />
<use xlink:href="#f0_2a" transform="matrix(10,0,0,10,374,769.1)" />
<use xlink:href="#f0_1x" transform="matrix(10,0,0,10,385.8,769.1)" />
<use xlink:href="#f0_2a" transform="matrix(10,0,0,10,392.6,769.1)" />
<use xlink:href="#f0_20" transform="matrix(10,0,0,10,399.9,769.1)" />
<use xlink:href="#f0_1z" transform="matrix(10,0,0,10,411.9,769.1)" />
<use xlink:href="#f0_2b" transform="matrix(10,0,0,10,418.7,769.1)" />
<use xlink:href="#f0_2a" transform="matrix(10,0,0,10,426.3,769.1)" />
<use xlink:href="#f0_2g" transform="matrix(10,0,0,10,434,769.1)" />
<use xlink:href="#f0_1x" transform="matrix(10,0,0,10,438,769.1)" />
<use xlink:href="#f0_25" transform="matrix(10,0,0,10,444.8,769.1)" />
<use xlink:href="#f0_2a" transform="matrix(10,0,0,10,449.2,769.1)" />
<use xlink:href="#f0_2f" transform="matrix(10,0,0,10,456.5,769.1)" />
<use xlink:href="#f0_2g" transform="matrix(10,0,0,10,466.4,769.1)" />
<use xlink:href="#f0_24" transform="matrix(10,0,0,10,470.6,769.1)" />
<use xlink:href="#f0_21" transform="matrix(10,0,0,10,478.3,769.1)" />
<use xlink:href="#f0_24" transform="matrix(10,0,0,10,489.3,769.1)" />
<use xlink:href="#f0_25" transform="matrix(10,0,0,10,496.7,769.1)" />
<use xlink:href="#f0_23" transform="matrix(10,0,0,10,500.9,769.1)" />
<use xlink:href="#f0_24" transform="matrix(10,0,0,10,508.4,769.1)" />
<use xlink:href="#f0_21" transform="matrix(10,0,0,10,516.1,769.1)" />
<use xlink:href="#f0_2f" transform="matrix(10,0,0,10,522.9,769.1)" />
<use xlink:href="#f0_2g" transform="matrix(10,0,0,10,528.7,769.1)" />
<use xlink:href="#f0_2c" transform="matrix(10,0,0,10,537,769.1)" />
<use xlink:href="#f0_21" transform="matrix(10,0,0,10,544.9,769.1)" />
<use xlink:href="#f0_2e" transform="matrix(10,0,0,10,551.7,769.1)" />
<use xlink:href="#f0_1z" transform="matrix(10,0,0,10,556.8,769.1)" />
<use xlink:href="#f0_21" transform="matrix(10,0,0,10,563.6,769.1)" />
<use xlink:href="#f0_2a" transform="matrix(10,0,0,10,570.4,769.1)" />
<use xlink:href="#f0_2g" transform="matrix(10,0,0,10,577.7,769.1)" />
<use xlink:href="#f0_1x" transform="matrix(10,0,0,10,581.9,769.1)" />
<use xlink:href="#f0_23" transform="matrix(10,0,0,10,588.9,769.1)" />
<use xlink:href="#f0_21" transform="matrix(10,0,0,10,596.2,769.1)" />
<use xlink:href="#f0_2b" transform="matrix(10,0,0,10,607.4,769.1)" />
<use xlink:href="#f0_22" transform="matrix(10,0,0,10,614.9,769.1)" />
<use xlink:href="#f0_1z" transform="matrix(10,0,0,10,624.1,769.1)" />
<use xlink:href="#f0_1x" transform="matrix(10,0,0,10,630.9,769.1)" />
<use xlink:href="#f0_2e" transform="matrix(10,0,0,10,637.7,769.1)" />
<use xlink:href="#f0_1y" transform="matrix(10,0,0,10,642.6,769.1)" />
<use xlink:href="#f0_2b" transform="matrix(10,0,0,10,650.5,769.1)" />
<use xlink:href="#f0_2a" transform="matrix(10,0,0,10,658,769.1)" />
<use xlink:href="#f0_2i" transform="matrix(10,0,0,10,669.8,769.1)" />
<use xlink:href="#f0_25" transform="matrix(10,0,0,10,677.5,769.1)" />
<use xlink:href="#f0_2m" transform="matrix(10,0,0,10,681.7,769.1)" />
<use xlink:href="#f0_i" transform="matrix(10,0,0,10,688.5,769.1)" />
<use xlink:href="#f0_g" transform="matrix(10,0,0,10,692.1,769.1)" />
<use xlink:href="#f0_m" transform="matrix(10,0,0,10,700.2,769.1)" />
<use xlink:href="#f0_i" transform="matrix(10,0,0,10,708.1,769.1)" />
<use xlink:href="#f0_p" transform="matrix(10,0,0,10,711.7,769.1)" />
<use xlink:href="#f0_2g" transform="matrix(10,0,0,10,723.4,769.1)" />
<use xlink:href="#f0_2b" transform="matrix(10,0,0,10,727.7,769.1)" />
<use xlink:href="#f0_o" transform="matrix(10,0,0,10,739.8,769.1)" />
<use xlink:href="#f0_i" transform="matrix(10,0,0,10,747.3,769.1)" />
<use xlink:href="#f0_p" transform="matrix(10,0,0,10,751.1,769.1)" />
<use xlink:href="#f0_9" transform="matrix(10,0,0,10,759,769.1)" />
<use xlink:href="#f0_1x" transform="matrix(10,0,0,10,775.9,769.1)" />
<use xlink:href="#f0_2a" transform="matrix(10,0,0,10,782.7,769.1)" />
<use xlink:href="#f0_20" transform="matrix(10,0,0,10,790,769.1)" />
<use xlink:href="#f0_2g" transform="matrix(10,0,0,10,801.7,769.1)" />
<use xlink:href="#f0_2e" transform="matrix(10,0,0,10,805.9,769.1)" />
<use xlink:href="#f0_1x" transform="matrix(10,0,0,10,811.3,769.1)" />
<use xlink:href="#f0_1z" transform="matrix(10,0,0,10,817.9,769.1)" />
<use xlink:href="#f0_21" transform="matrix(10,0,0,10,824.8,769.1)" />
<use xlink:href="#f0_2f" transform="matrix(10,0,0,10,831.6,769.1)" />
<use xlink:href="#f0_2b" transform="matrix(10,0,0,10,841.5,769.1)" />
<use xlink:href="#f0_22" transform="matrix(10,0,0,10,849.4,769.1)" />
<use xlink:href="#f0_25" transform="matrix(10,0,0,10,99.4,796.6)" />
<use xlink:href="#f0_29" transform="matrix(10,0,0,10,103.8,796.6)" />
<use xlink:href="#f0_2c" transform="matrix(10,0,0,10,115.3,796.6)" />
<use xlink:href="#f0_2h" transform="matrix(10,0,0,10,122.7,796.6)" />
<use xlink:href="#f0_2e" transform="matrix(10,0,0,10,130.4,796.6)" />
<use xlink:href="#f0_25" transform="matrix(10,0,0,10,135.3,796.6)" />
<use xlink:href="#f0_2g" transform="matrix(10,0,0,10,139.7,796.6)" />
<use xlink:href="#f0_25" transform="matrix(10,0,0,10,143.6,796.6)" />
<use xlink:href="#f0_21" transform="matrix(10,0,0,10,147.8,796.6)" />
<use xlink:href="#f0_2f" transform="matrix(10,0,0,10,154.7,796.6)" />
<use xlink:href="#f0_28" transform="matrix(10,0,0,10,163.4,796.6)" />
<use xlink:href="#f0_25" transform="matrix(10,0,0,10,167.4,796.6)" />
<use xlink:href="#f0_27" transform="matrix(10,0,0,10,171.6,796.6)" />
<use xlink:href="#f0_21" transform="matrix(10,0,0,10,179.3,796.6)" />
<use xlink:href="#f0_1j" transform="matrix(10,0,0,10,188.5,796.6)" />
<use xlink:href="#f0_g" transform="matrix(10,0,0,10,197.1,796.6)" />
<use xlink:href="#f0_1g" transform="matrix(10,0,0,10,203.5,796.6)" />
<use xlink:href="#f0_g" transform="matrix(10,0,0,10,210.5,796.6)" />
<use xlink:href="#f0_1d" transform="matrix(10,0,0,10,217.4,796.6)" />
<use xlink:href="#f0_2a" transform="matrix(10,0,0,10,230.8,796.6)" />
<use xlink:href="#f0_1x" transform="matrix(10,0,0,10,241.1,796.6)" />
<use xlink:href="#f0_2a" transform="matrix(10,0,0,10,248.1,796.6)" />
<use xlink:href="#f0_20" transform="matrix(10,0,0,10,255.2,796.6)" />
<use xlink:href="#f0_1j" transform="matrix(10,0,0,10,265.8,796.6)" />
<use xlink:href="#f0_25" transform="matrix(10,0,0,10,274.1,796.6)" />
<use xlink:href="#f0_i" transform="matrix(10,0,0,10,278.3,796.6)" />
<use xlink:href="#f0_1k" transform="matrix(10,0,0,10,284.7,796.6)" />
<use xlink:href="#f0_24" transform="matrix(10,0,0,10,294.5,796.6)" />
<use xlink:href="#f0_21" transform="matrix(10,0,0,10,301.8,796.6)" />
<use xlink:href="#f0_1x" transform="matrix(10,0,0,10,311.3,796.6)" />
<use xlink:href="#f0_2i" transform="matrix(10,0,0,10,318.3,796.6)" />
<use xlink:href="#f0_21" transform="matrix(10,0,0,10,325.4,796.6)" />
<use xlink:href="#f0_2e" transform="matrix(10,0,0,10,332.4,796.6)" />
<use xlink:href="#f0_1x" transform="matrix(10,0,0,10,337.4,796.6)" />
<use xlink:href="#f0_23" transform="matrix(10,0,0,10,344.3,796.6)" />
<use xlink:href="#f0_21" transform="matrix(10,0,0,10,351.7,796.6)" />
<use xlink:href="#f0_1z" transform="matrix(10,0,0,10,361.4,796.6)" />
<use xlink:href="#f0_2b" transform="matrix(10,0,0,10,368.2,796.6)" />
<use xlink:href="#f0_29" transform="matrix(10,0,0,10,375.5,796.6)" />
<use xlink:href="#f0_2c" transform="matrix(10,0,0,10,387.1,796.6)" />
<use xlink:href="#f0_2b" transform="matrix(10,0,0,10,394.9,796.6)" />
<use xlink:href="#f0_2f" transform="matrix(10,0,0,10,402.5,796.6)" />
<use xlink:href="#f0_25" transform="matrix(10,0,0,10,408.3,796.6)" />
<use xlink:href="#f0_2g" transform="matrix(10,0,0,10,412.5,796.6)" />
<use xlink:href="#f0_25" transform="matrix(10,0,0,10,416.5,796.6)" />
<use xlink:href="#f0_2b" transform="matrix(10,0,0,10,420.8,796.6)" />
<use xlink:href="#f0_2a" transform="matrix(10,0,0,10,428.5,796.6)" />
<use xlink:href="#f0_2b" transform="matrix(10,0,0,10,438.5,796.6)" />
<use xlink:href="#f0_22" transform="matrix(10,0,0,10,446.4,796.6)" />
<use xlink:href="#f0_1z" transform="matrix(10,0,0,10,453.9,796.6)" />
<use xlink:href="#f0_1x" transform="matrix(10,0,0,10,460.7,796.6)" />
<use xlink:href="#f0_2f" transform="matrix(10,0,0,10,467.7,796.6)" />
<use xlink:href="#f0_2g" transform="matrix(10,0,0,10,473.4,796.6)" />
<use xlink:href="#f0_25" transform="matrix(10,0,0,10,480.3,796.6)" />
<use xlink:href="#f0_2e" transform="matrix(10,0,0,10,484.6,796.6)" />
<use xlink:href="#f0_2b" transform="matrix(10,0,0,10,489.7,796.6)" />
<use xlink:href="#f0_2a" transform="matrix(10,0,0,10,497.4,796.6)" />
<use xlink:href="#f0_25" transform="matrix(10,0,0,10,507.8,796.6)" />
<use xlink:href="#f0_2f" transform="matrix(10,0,0,10,511.7,796.6)" />
<use xlink:href="#f0_u" transform="matrix(10,0,0,10,520.5,796.6)" />
<use xlink:href="#f0_16" transform="matrix(10,0,0,10,527.5,796.6)" />
<use xlink:href="#f0_21" transform="matrix(10,0,0,10,535.7,796.6)" />
<use xlink:href="#f0_x" transform="matrix(10,0,0,10,545.4,796.6)" />
<use xlink:href="#f0_t" transform="matrix(10,0,0,10,557,796.6)" />
<use xlink:href="#f0_n" transform="matrix(10,0,0,10,564.5,796.6)" />
<use xlink:href="#f0_4y" transform="matrix(10,0,0,10,575,796.6)" />
<use xlink:href="#f0_t" transform="matrix(10,0,0,10,585.6,796.6)" />
<use xlink:href="#f0_p" transform="matrix(10,0,0,10,593.1,796.6)" />
<use xlink:href="#f0_9" transform="matrix(10,0,0,10,600.8,796.6)" />
<use xlink:href="#f0_g" transform="matrix(10,0,0,10,613.5,796.6)" />
<use xlink:href="#f0_13" transform="matrix(10,0,0,10,620.1,796.6)" />
<use xlink:href="#f0_x" transform="matrix(10,0,0,10,632.9,796.6)" />
<use xlink:href="#f0_m" transform="matrix(10,0,0,10,644.3,796.6)" />
<use xlink:href="#f0_i" transform="matrix(10,0,0,10,652,796.6)" />
<use xlink:href="#f0_p" transform="matrix(10,0,0,10,655.8,796.6)" />
<use xlink:href="#f0_4y" transform="matrix(10,0,0,10,666.4,796.6)" />
<use xlink:href="#f0_o" transform="matrix(10,0,0,10,676.7,796.6)" />
<use xlink:href="#f0_i" transform="matrix(10,0,0,10,684.6,796.6)" />
<use xlink:href="#f0_p" transform="matrix(10,0,0,10,688.2,796.6)" />
<use xlink:href="#f0_9" transform="matrix(10,0,0,10,695.9,796.6)" />
<use xlink:href="#f0_g" transform="matrix(10,0,0,10,708.6,796.6)" />
<use xlink:href="#f0_1j" transform="matrix(10,0,0,10,715.2,796.6)" />
<use xlink:href="#f0_25" transform="matrix(10,0,0,10,723.4,796.6)" />
<use xlink:href="#f0_x" transform="matrix(10,0,0,10,730.4,796.6)" />
<use xlink:href="#f0_k" transform="matrix(10,0,0,10,742,796.6)" />
<use xlink:href="#f0_i" transform="matrix(10,0,0,10,749.7,796.6)" />
<use xlink:href="#f0_q" transform="matrix(10,0,0,10,753.5,796.6)" />
<use xlink:href="#f0_4y" transform="matrix(10,0,0,10,764,796.6)" />
<use xlink:href="#f0_m" transform="matrix(10,0,0,10,774.4,796.6)" />
<use xlink:href="#f0_i" transform="matrix(10,0,0,10,782.1,796.6)" />
<use xlink:href="#f0_s" transform="matrix(10,0,0,10,785.8,796.6)" />
<use xlink:href="#f0_9" transform="matrix(10,0,0,10,793.7,796.6)" />
<use xlink:href="#f0_g" transform="matrix(10,0,0,10,806.3,796.6)" />
<use xlink:href="#f0_1g" transform="matrix(10,0,0,10,812.7,796.6)" />
<use xlink:href="#f0_x" transform="matrix(10,0,0,10,823.5,796.6)" />
<use xlink:href="#f0_k" transform="matrix(10,0,0,10,835.1,796.6)" />
<use xlink:href="#f0_i" transform="matrix(10,0,0,10,842.6,796.6)" />
<use xlink:href="#f0_o" transform="matrix(10,0,0,10,846.6,796.6)" />
<use xlink:href="#f0_4y" transform="matrix(10,0,0,10,99.4,824.1)" />
<use xlink:href="#f0_l" transform="matrix(10,0,0,10,109.6,824.1)" />
<use xlink:href="#f0_i" transform="matrix(10,0,0,10,117.3,824.1)" />
<use xlink:href="#f0_k" transform="matrix(10,0,0,10,121,824.1)" />
<use xlink:href="#f0_9" transform="matrix(10,0,0,10,128.7,824.1)" />
<use xlink:href="#f0_g" transform="matrix(10,0,0,10,141,824.1)" />
<use xlink:href="#f0_1j" transform="matrix(10,0,0,10,147.6,824.1)" />
<use xlink:href="#f0_x" transform="matrix(10,0,0,10,158.6,824.1)" />
<use xlink:href="#f0_k" transform="matrix(10,0,0,10,169.9,824.1)" />
<use xlink:href="#f0_i" transform="matrix(10,0,0,10,177.3,824.1)" />
<use xlink:href="#f0_l" transform="matrix(10,0,0,10,180.9,824.1)" />
<use xlink:href="#f0_4y" transform="matrix(10,0,0,10,191.6,824.1)" />
<use xlink:href="#f0_k" transform="matrix(10,0,0,10,201.5,824.1)" />
<use xlink:href="#f0_i" transform="matrix(10,0,0,10,209,824.1)" />
<use xlink:href="#f0_n" transform="matrix(10,0,0,10,213,824.1)" />
<use xlink:href="#f0_9" transform="matrix(10,0,0,10,220.4,824.1)" />
<use xlink:href="#f0_g" transform="matrix(10,0,0,10,232.8,824.1)" />
<use xlink:href="#f0_1d" transform="matrix(10,0,0,10,239.4,824.1)" />
<use xlink:href="#f0_2a" transform="matrix(10,0,0,10,252.8,824.1)" />
<use xlink:href="#f0_x" transform="matrix(10,0,0,10,263.1,824.1)" />
<use xlink:href="#f0_k" transform="matrix(10,0,0,10,274.3,824.1)" />
<use xlink:href="#f0_i" transform="matrix(10,0,0,10,282,824.1)" />
<use xlink:href="#f0_n" transform="matrix(10,0,0,10,285.6,824.1)" />
<use xlink:href="#f0_4y" transform="matrix(10,0,0,10,295.7,824.1)" />
<use xlink:href="#f0_l" transform="matrix(10,0,0,10,306.2,824.1)" />
<use xlink:href="#f0_i" transform="matrix(10,0,0,10,313.5,824.1)" />
<use xlink:href="#f0_m" transform="matrix(10,0,0,10,317.3,824.1)" />
<use xlink:href="#f0_9" transform="matrix(10,0,0,10,325,824.1)" />
<use xlink:href="#f0_i" transform="matrix(10,0,0,10,337.5,824.1)" />
<use xlink:href="#f1_m" transform="matrix(10,0,0,10,54.8,856.2)" />
<use xlink:href="#f1_i" transform="matrix(10,0,0,10,62.5,856.2)" />
<use xlink:href="#f1_1n" transform="matrix(10,0,0,10,99.6,856.2)" />
<use xlink:href="#f1_2e" transform="matrix(10,0,0,10,114.4,856.2)" />
<use xlink:href="#f1_2b" transform="matrix(10,0,0,10,121,856.2)" />
<use xlink:href="#f1_2h" transform="matrix(10,0,0,10,128.2,856.2)" />
<use xlink:href="#f1_23" transform="matrix(10,0,0,10,136.2,856.2)" />
<use xlink:href="#f1_24" transform="matrix(10,0,0,10,143.9,856.2)" />
<use xlink:href="#f1_2g" transform="matrix(10,0,0,10,152,856.2)" />
<use xlink:href="#f1_19" transform="matrix(10,0,0,10,159.3,856.2)" />
<use xlink:href="#f1_2e" transform="matrix(10,0,0,10,164.8,856.2)" />
<use xlink:href="#f1_2b" transform="matrix(10,0,0,10,171.2,856.2)" />
<use xlink:href="#f1_2a" transform="matrix(10,0,0,10,178.6,856.2)" />
<use xlink:href="#f1_u" transform="matrix(10,0,0,10,189.6,856.2)" />
<use xlink:href="#f0_19" transform="matrix(10,0,0,10,99.4,887.9)" />
<use xlink:href="#f0_2g" transform="matrix(10,0,0,10,104.7,887.9)" />
<use xlink:href="#f0_25" transform="matrix(10,0,0,10,111.8,887.9)" />
<use xlink:href="#f0_2f" transform="matrix(10,0,0,10,115.9,887.9)" />
<use xlink:href="#f0_2g" transform="matrix(10,0,0,10,124.7,887.9)" />
<use xlink:href="#f0_24" transform="matrix(10,0,0,10,128.9,887.9)" />
<use xlink:href="#f0_21" transform="matrix(10,0,0,10,136.2,887.9)" />
<use xlink:href="#f0_2c" transform="matrix(10,0,0,10,145.9,887.9)" />
<use xlink:href="#f0_2h" transform="matrix(10,0,0,10,153.5,887.9)" />
<use xlink:href="#f0_2e" transform="matrix(10,0,0,10,161.2,887.9)" />
<use xlink:href="#f0_21" transform="matrix(10,0,0,10,166.3,887.9)" />
<use xlink:href="#f0_2f" transform="matrix(10,0,0,10,173.1,887.9)" />
<use xlink:href="#f0_2g" transform="matrix(10,0,0,10,178.8,887.9)" />
<use xlink:href="#f0_22" transform="matrix(10,0,0,10,186.1,887.9)" />
<use xlink:href="#f0_2b" transform="matrix(10,0,0,10,190.9,887.9)" />
<use xlink:href="#f0_2e" transform="matrix(10,0,0,10,198.7,887.9)" />
<use xlink:href="#f0_29" transform="matrix(10,0,0,10,203.7,887.9)" />
<use xlink:href="#f0_2b" transform="matrix(10,0,0,10,218,887.9)" />
<use xlink:href="#f0_22" transform="matrix(10,0,0,10,225.9,887.9)" />
<use xlink:href="#f0_1z" transform="matrix(10,0,0,10,233.8,887.9)" />
<use xlink:href="#f0_2b" transform="matrix(10,0,0,10,240.5,887.9)" />
<use xlink:href="#f0_29" transform="matrix(10,0,0,10,248.1,887.9)" />
<use xlink:href="#f0_29" transform="matrix(10,0,0,10,259.6,887.9)" />
<use xlink:href="#f0_21" transform="matrix(10,0,0,10,271.2,887.9)" />
<use xlink:href="#f0_2e" transform="matrix(10,0,0,10,278.1,887.9)" />
<use xlink:href="#f0_1z" transform="matrix(10,0,0,10,283.1,887.9)" />
<use xlink:href="#f0_25" transform="matrix(10,0,0,10,290.1,887.9)" />
<use xlink:href="#f0_1x" transform="matrix(10,0,0,10,294.1,887.9)" />
<use xlink:href="#f0_28" transform="matrix(10,0,0,10,301.1,887.9)" />
<use xlink:href="#f0_25" transform="matrix(10,0,0,10,307.8,887.9)" />
<use xlink:href="#f0_2e" transform="matrix(10,0,0,10,311.9,887.9)" />
<use xlink:href="#f0_2b" transform="matrix(10,0,0,10,317.2,887.9)" />
<use xlink:href="#f0_2a" transform="matrix(10,0,0,10,324.9,887.9)" />
<use xlink:href="#f0_1x" transform="matrix(10,0,0,10,335.2,887.9)" />
<use xlink:href="#f0_2a" transform="matrix(10,0,0,10,342.1,887.9)" />
<use xlink:href="#f0_20" transform="matrix(10,0,0,10,349.5,887.9)" />
<use xlink:href="#f0_1z" transform="matrix(10,0,0,10,360.1,887.9)" />
<use xlink:href="#f0_2b" transform="matrix(10,0,0,10,367.1,887.9)" />
<use xlink:href="#f0_2a" transform="matrix(10,0,0,10,374.6,887.9)" />
<use xlink:href="#f0_2g" transform="matrix(10,0,0,10,382.3,887.9)" />
<use xlink:href="#f0_1x" transform="matrix(10,0,0,10,386.1,887.9)" />
<use xlink:href="#f0_25" transform="matrix(10,0,0,10,393.1,887.9)" />
<use xlink:href="#f0_2a" transform="matrix(10,0,0,10,397.1,887.9)" />
<use xlink:href="#f0_2f" transform="matrix(10,0,0,10,404.8,887.9)" />
<use xlink:href="#f0_2g" transform="matrix(10,0,0,10,413.6,887.9)" />
<use xlink:href="#f0_24" transform="matrix(10,0,0,10,417.6,887.9)" />
<use xlink:href="#f0_21" transform="matrix(10,0,0,10,425.3,887.9)" />
<use xlink:href="#f0_28" transform="matrix(10,0,0,10,434.7,887.9)" />
<use xlink:href="#f0_2b" transform="matrix(10,0,0,10,438.9,887.9)" />
<use xlink:href="#f0_2j" transform="matrix(10,0,0,10,446.8,887.9)" />
<use xlink:href="#f0_21" transform="matrix(10,0,0,10,457.4,887.9)" />
<use xlink:href="#f0_2f" transform="matrix(10,0,0,10,464.2,887.9)" />
<use xlink:href="#f0_2g" transform="matrix(10,0,0,10,469.7,887.9)" />
<use xlink:href="#f0_2c" transform="matrix(10,0,0,10,476.9,887.9)" />
<use xlink:href="#f0_21" transform="matrix(10,0,0,10,484.7,887.9)" />
<use xlink:href="#f0_2e" transform="matrix(10,0,0,10,491.3,887.9)" />
<use xlink:href="#f0_1z" transform="matrix(10,0,0,10,496.7,887.9)" />
<use xlink:href="#f0_21" transform="matrix(10,0,0,10,503.4,887.9)" />
<use xlink:href="#f0_2a" transform="matrix(10,0,0,10,510.2,887.9)" />
<use xlink:href="#f0_2g" transform="matrix(10,0,0,10,517.7,887.9)" />
<use xlink:href="#f0_1x" transform="matrix(10,0,0,10,522,887.9)" />
<use xlink:href="#f0_23" transform="matrix(10,0,0,10,528.6,887.9)" />
<use xlink:href="#f0_21" transform="matrix(10,0,0,10,536.1,887.9)" />
<use xlink:href="#f0_2b" transform="matrix(10,0,0,10,545.8,887.9)" />
<use xlink:href="#f0_22" transform="matrix(10,0,0,10,553.5,887.9)" />
<use xlink:href="#f0_1z" transform="matrix(10,0,0,10,561.4,887.9)" />
<use xlink:href="#f0_1x" transform="matrix(10,0,0,10,568.2,887.9)" />
<use xlink:href="#f0_2e" transform="matrix(10,0,0,10,575,887.9)" />
<use xlink:href="#f0_1y" transform="matrix(10,0,0,10,580.1,887.9)" />
<use xlink:href="#f0_2b" transform="matrix(10,0,0,10,587.6,887.9)" />
<use xlink:href="#f0_2a" transform="matrix(10,0,0,10,595.5,887.9)" />
<use xlink:href="#f0_2i" transform="matrix(10,0,0,10,605.9,887.9)" />
<use xlink:href="#f0_25" transform="matrix(10,0,0,10,613.5,887.9)" />
<use xlink:href="#f0_2m" transform="matrix(10,0,0,10,617.7,887.9)" />
<use xlink:href="#f0_i" transform="matrix(10,0,0,10,624.5,887.9)" />
<use xlink:href="#f0_k" transform="matrix(10,0,0,10,630.7,887.9)" />
<use xlink:href="#f0_i" transform="matrix(10,0,0,10,638.6,887.9)" />
<use xlink:href="#f0_l" transform="matrix(10,0,0,10,642.2,887.9)" />
<use xlink:href="#f0_m" transform="matrix(10,0,0,10,650.1,887.9)" />
<use xlink:href="#f0_2g" transform="matrix(10,0,0,10,660.8,887.9)" />
<use xlink:href="#f0_2b" transform="matrix(10,0,0,10,664.8,887.9)" />
<use xlink:href="#f0_k" transform="matrix(10,0,0,10,675.4,887.9)" />
<use xlink:href="#f0_i" transform="matrix(10,0,0,10,683.3,887.9)" />
<use xlink:href="#f0_m" transform="matrix(10,0,0,10,687,887.9)" />
<use xlink:href="#f0_p" transform="matrix(10,0,0,10,694.8,887.9)" />
<use xlink:href="#f0_9" transform="matrix(10,0,0,10,702.4,887.9)" />
<use xlink:href="#f0_1x" transform="matrix(10,0,0,10,717.7,887.9)" />
<use xlink:href="#f0_2a" transform="matrix(10,0,0,10,724.7,887.9)" />
<use xlink:href="#f0_20" transform="matrix(10,0,0,10,732.1,887.9)" />
<use xlink:href="#f0_k" transform="matrix(10,0,0,10,742.7,887.9)" />
<use xlink:href="#f0_i" transform="matrix(10,0,0,10,750.2,887.9)" />
<use xlink:href="#f0_n" transform="matrix(10,0,0,10,754.2,887.9)" />
<use xlink:href="#f0_9" transform="matrix(10,0,0,10,761.8,887.9)" />
<use xlink:href="#f0_2b" transform="matrix(10,0,0,10,777.3,887.9)" />
<use xlink:href="#f0_22" transform="matrix(10,0,0,10,785.2,887.9)" />
<use xlink:href="#f0_25" transform="matrix(10,0,0,10,793.1,887.9)" />
<use xlink:href="#f0_29" transform="matrix(10,0,0,10,797.1,887.9)" />
<use xlink:href="#f0_2c" transform="matrix(10,0,0,10,808.7,887.9)" />
<use xlink:href="#f0_2h" transform="matrix(10,0,0,10,816.4,887.9)" />
<use xlink:href="#f0_2e" transform="matrix(10,0,0,10,823.9,887.9)" />
<use xlink:href="#f0_25" transform="matrix(10,0,0,10,829,887.9)" />
<use xlink:href="#f0_2g" transform="matrix(10,0,0,10,833.1,887.9)" />
<use xlink:href="#f0_25" transform="matrix(10,0,0,10,837.3,887.9)" />
<use xlink:href="#f0_21" transform="matrix(10,0,0,10,841.5,887.9)" />
<use xlink:href="#f0_2f" transform="matrix(10,0,0,10,848.5,887.9)" />
<use xlink:href="#f0_28" transform="matrix(10,0,0,10,99.4,915.4)" />
<use xlink:href="#f0_25" transform="matrix(10,0,0,10,103.8,915.4)" />
<use xlink:href="#f0_27" transform="matrix(10,0,0,10,108,915.4)" />
<use xlink:href="#f0_21" transform="matrix(10,0,0,10,115.1,915.4)" />
<use xlink:href="#f0_1j" transform="matrix(10,0,0,10,125,915.4)" />
<use xlink:href="#f0_g" transform="matrix(10,0,0,10,133.3,915.4)" />
<use xlink:href="#f0_1g" transform="matrix(10,0,0,10,140.1,915.4)" />
<use xlink:href="#f0_g" transform="matrix(10,0,0,10,146.9,915.4)" />
<use xlink:href="#f0_1j" transform="matrix(10,0,0,10,153.6,915.4)" />
<use xlink:href="#f0_25" transform="matrix(10,0,0,10,161.9,915.4)" />
<use xlink:href="#f0_1x" transform="matrix(10,0,0,10,168.9,915.4)" />
<use xlink:href="#f0_2a" transform="matrix(10,0,0,10,175.8,915.4)" />
<use xlink:href="#f0_20" transform="matrix(10,0,0,10,183.2,915.4)" />
<use xlink:href="#f0_1d" transform="matrix(10,0,0,10,193.8,915.4)" />
<use xlink:href="#f0_2a" transform="matrix(10,0,0,10,207.4,915.4)" />
<use xlink:href="#f0_i" transform="matrix(10,0,0,10,214.7,915.4)" />
</g>
<path fill-rule="evenodd" d="M53.9,69.5H856.2V97.9H53.9V69.5l1.5,26.8H854.5V71H55.4V96.3L53.9,69.5Z" class="g0_12" />
<path fill-rule="evenodd" d="M55.2,94.6H854.7v3.1H55.2V94.6Z" class="g1_12" />
<path fill-rule="evenodd" d="M55.2,69.7H854.7v3.1H55.2V69.7Z" class="g1_12" />
<path fill-rule="evenodd" d="M54.1,1177.4H854.8v2.3H54.1v-2.3Z" class="g1_12" />
<g fill="#000000" >
<use xlink:href="#f2_1d" transform="matrix(10,0,0,10,733.1,87.7)" />
<use xlink:href="#f2_15" transform="matrix(10,0,0,10,747.4,87.7)" />
<use xlink:href="#f2_1k" transform="matrix(10,0,0,10,758.4,87.7)" />
<use xlink:href="#f2_11" transform="matrix(10,0,0,10,769,87.7)" />
<use xlink:href="#f2_1c" transform="matrix(10,0,0,10,780,87.7)" />
<use xlink:href="#f2_1c" transform="matrix(10,0,0,10,789.7,87.7)" />
<use xlink:href="#f2_1l" transform="matrix(10,0,0,10,799.4,87.7)" />
<use xlink:href="#f2_1i" transform="matrix(10,0,0,10,810.7,87.7)" />
<use xlink:href="#f2_17" transform="matrix(10,0,0,10,822.5,87.7)" />
<use xlink:href="#f2_1p" transform="matrix(10,0,0,10,834.4,87.7)" />
</g>
<path d="M55.1,95.8H853.9V73.5H55.1V95.8Z" class="g2_12" />
<defs>
<path d="M474,-21L174,817c0,0,-34,94,-42,112c0,0,-15,28,-41,42c0,0,-26,14,-70,14v27H395V985H377c0,0,-40,0,-60,-18c0,0,-21,-18,-21,-44c0,0,0,-26,33,-120L528,235L696,718l-30,85l-24,68c0,0,-16,37,-35,66c0,0,-10,14,-24,24c0,0,-19,13,-38,19c0,0,-14,5,-44,5v27H894V985H867c0,0,-41,0,-61,-18c0,0,-19,-18,-19,-49c0,0,0,-38,33,-133L1015,235l193,557c0,0,32,93,32,129c0,0,0,17,-10,32c0,0,-11,15,-28,21c0,0,-28,11,-74,11v27h302V985c0,0,-39,0,-64,-15c0,0,-25,-14,-47,-53c0,0,-15,-26,-47,-124L990,-21H960L729,624L501,-21Z" 
id="f0_1n"
transform="scale(0.001,-0.001)" />

<path d="M20,0V26c0,0,45,0,71,15c0,0,15,7,24,28c0,0,9,21,9,85V773c0,0,0,117,-5,144c0,0,-6,27,-17,37c0,0,-12,9,-31,9c0,0,-16,0,-51,-12L10,978l204,83h34V561c0,0,83,91,131,116c0,0,49,26,97,26c0,0,58,0,100,-32c0,0,42,-32,62,-101c0,0,14,-47,14,-174V154c0,0,0,-65,11,-89c0,0,7,-18,25,-28c0,0,18,-11,66,-11V0H418V26h15c0,0,48,0,67,15c0,0,18,15,26,43c0,0,2,12,2,70V396c0,0,0,112,-12,147c0,0,-11,35,-36,53c0,0,-26,17,-61,17c0,0,-37,0,-76,-19c0,0,-40,-20,-95,-79V154c0,0,0,-70,8,-87c0,0,8,-17,29,-29c0,0,22,-12,74,-12V0Z" 
id="f0_24"
transform="scale(0.001,-0.001)" />

<path d="M479,469c0,0,-4,66,-16,93c0,0,-18,42,-55,65c0,0,-37,24,-78,24c0,0,-62,0,-111,-48c0,0,-48,-48,-57,-134ZM355,-20c0,0,-123,0,-211,95c0,0,-87,96,-87,258c0,0,0,175,90,273c0,0,89,98,225,98c0,0,115,0,189,-76c0,0,74,-75,74,-202H162c0,0,0,-152,74,-239c0,0,75,-86,175,-86c0,0,67,0,117,36c0,0,50,37,83,127l24,-15c0,0,-16,-102,-91,-186c0,0,-76,-83,-189,-83Z" 
id="f0_21"
transform="scale(0.001,-0.001)" />

<path d="M21,0V26H35c0,0,53,0,71,27c0,0,18,27,18,101V408c0,0,0,123,-5,150c0,0,-6,27,-17,37c0,0,-12,10,-31,10c0,0,-21,0,-50,-11L10,620l206,83h32V558c0,0,120,145,229,145c0,0,56,0,96,-28c0,0,40,-28,64,-92c0,0,16,-45,16,-137V154c0,0,0,-65,11,-88c0,0,8,-19,26,-29c0,0,18,-11,68,-11V0H419V26h14c0,0,47,0,66,15c0,0,20,15,27,43c0,0,3,11,3,70V434c0,0,0,93,-24,135c0,0,-24,42,-81,42c0,0,-88,0,-176,-97V154c0,0,0,-69,9,-86c0,0,10,-21,28,-31c0,0,19,-11,75,-11V0Z" 
id="f0_2a"
transform="scale(0.001,-0.001)" />

<path d="M255,-10c0,0,-35,0,-68,18c0,0,-32,19,-48,55c0,0,-16,35,-16,109V632H15v24c0,0,41,16,84,56c0,0,43,39,77,92c0,0,17,29,48,104h23V683H407V632H247V188c0,0,0,-66,19,-90c0,0,19,-23,49,-23c0,0,24,0,47,16c0,0,23,15,36,45h29c0,0,-26,-73,-74,-110c0,0,-47,-36,-98,-36Z" 
id="f0_2g"
transform="scale(0.001,-0.001)" />

<path d="M23,0V26c0,0,47,0,66,10c0,0,19,11,28,33c0,0,10,22,10,85V416c0,0,0,112,-7,145c0,0,-5,25,-16,34c0,0,-11,10,-31,10c0,0,-21,0,-50,-11L12,620l207,83h32V557c0,0,75,75,88,86c0,0,34,29,72,44c0,0,39,16,77,16c0,0,64,0,110,-37c0,0,47,-38,62,-109c0,0,77,90,130,118c0,0,53,28,109,28c0,0,54,0,96,-28c0,0,42,-28,67,-91c0,0,16,-43,16,-136V154c0,0,0,-64,10,-88c0,0,8,-16,28,-28c0,0,20,-12,65,-12V0H844V26h14c0,0,44,0,69,18c0,0,17,12,24,38c0,0,3,13,3,72V448c0,0,0,83,-20,117c0,0,-29,48,-93,48c0,0,-39,0,-79,-20c0,0,-40,-19,-97,-73l-1,-8l2,-32V154c0,0,0,-70,8,-87c0,0,7,-17,29,-29c0,0,21,-12,73,-12V0H431V26c0,0,57,0,78,14c0,0,21,13,29,40c0,0,4,13,4,74V448c0,0,0,83,-25,120c0,0,-33,48,-91,48c0,0,-40,0,-80,-22c0,0,-61,-33,-95,-74V154c0,0,0,-67,10,-87c0,0,9,-20,27,-30c0,0,18,-11,74,-11V0Z" 
id="f0_29"
transform="scale(0.001,-0.001)" />

<path d="M406,32c0,0,72,0,119,60c0,0,47,59,47,205c0,0,0,181,-78,286c0,0,-53,71,-135,71c0,0,-40,0,-79,-23c0,0,-40,-24,-65,-83c0,0,-24,-58,-24,-151c0,0,0,-149,59,-257c0,0,59,-108,156,-108ZM374,-20c0,0,-154,0,-245,122c0,0,-77,104,-77,233c0,0,0,94,46,187c0,0,47,92,123,137c0,0,76,44,161,44c0,0,155,0,249,-118c0,0,80,-100,80,-231c0,0,0,-91,-44,-185C667,169,623,75,546,27c0,0,-77,-47,-172,-47Z" 
id="f0_2b"
transform="scale(0.001,-0.001)" />

<path d="M58,0V26c0,0,47,0,64,10c0,0,18,10,28,32c0,0,9,23,9,86V775c0,0,0,116,-5,142c0,0,-5,27,-17,37c0,0,-11,9,-29,9c0,0,-20,0,-49,-12L46,978l204,83h34V154c0,0,0,-64,9,-85c0,0,9,-21,29,-32c0,0,19,-11,72,-11V0Z" 
id="f0_28"
transform="scale(0.001,-0.001)" />

<path d="M398,24c0,0,74,0,120,58c0,0,61,76,61,214c0,0,0,156,-69,240c0,0,-47,59,-113,59c0,0,-36,0,-71,-18c0,0,-27,-14,-88,-81V242c0,0,0,-83,6,-109c0,0,11,-43,51,-76c0,0,41,-33,103,-33ZM-4,-326v27H15c5,0,42,0,69,16c0,0,14,8,22,26c0,0,7,19,7,94V481c0,0,0,67,-6,85c0,0,-5,18,-18,27c0,0,-13,9,-36,9c0,0,-18,0,-45,-10L0,615l209,85h29V540c0,0,53,91,106,127c0,0,53,36,112,36c0,0,103,0,172,-80c0,0,84,-99,84,-257c0,0,0,-176,-102,-292c0,0,-83,-94,-210,-94c0,0,-55,0,-95,16c0,0,-30,10,-67,44V-167c0,0,0,-71,8,-90c0,0,9,-20,30,-31c0,0,21,-11,77,-11v-27Z" 
id="f0_2c"
transform="scale(0.001,-0.001)" />

<path d="M55,0V26c0,0,50,0,67,10c0,0,17,10,27,32c0,0,10,23,10,86V418c0,0,0,111,-6,144c0,0,-6,24,-17,33c0,0,-11,10,-30,10c0,0,-21,0,-51,-11L45,620l206,83h33V154c0,0,0,-64,9,-85c0,0,9,-22,27,-32c0,0,19,-11,67,-11V0ZM222,909c0,0,-32,0,-54,23c0,0,-22,22,-22,53c0,0,0,32,22,54c0,0,22,22,54,22c0,0,31,0,53,-22c0,0,22,-22,22,-54c0,0,0,-31,-22,-53c0,0,-22,-23,-53,-23Z" 
id="f0_25"
transform="scale(0.001,-0.001)" />

<path d="M411,-239c0,0,134,0,198,48c0,0,64,47,64,100c0,0,0,39,-38,55c0,0,-39,16,-154,19c0,0,-167,5,-258,17c0,0,-35,-37,-53,-70c0,0,-17,-32,-17,-60c0,0,0,-36,43,-62c0,0,74,-47,215,-47ZM380,257c0,0,56,0,93,43c0,0,36,42,36,133c0,0,0,118,-51,185c0,0,-38,49,-98,49c0,0,-55,0,-92,-44c0,0,-37,-44,-37,-135c0,0,0,-117,50,-182c0,0,39,-49,99,-49ZM345,-328c0,0,-144,0,-243,64c0,0,-56,38,-56,78c0,0,0,18,8,36c0,0,13,27,52,76c0,0,5,7,76,80c0,0,-39,23,-55,41c0,0,-16,19,-16,42c0,0,0,26,22,61c0,0,21,35,98,100c0,0,-63,30,-97,85c0,0,-33,55,-33,121c0,0,0,101,76,174c0,0,77,73,196,73c0,0,98,0,170,-48H688c0,0,32,0,37,-2c0,0,6,-2,8,-6c0,0,4,-7,4,-24c0,0,0,-20,-4,-27c0,0,-2,-4,-7,-6c0,0,-6,-2,-38,-2H599c0,0,41,-54,41,-137c0,0,0,-96,-73,-163c0,0,-73,-68,-196,-68c0,0,-51,0,-104,15c0,0,-33,-28,-44,-49c0,0,-12,-22,-12,-37c0,0,0,-12,13,-24c0,0,12,-12,48,-17c0,0,21,-4,104,-6c0,0,154,-4,199,-11c0,0,70,-10,111,-51c0,0,42,-41,42,-102c0,0,0,-84,-79,-158c0,0,-117,-108,-304,-108Z" 
id="f0_23"
transform="scale(0.001,-0.001)" />

<path d="M17,0V26c0,0,52,0,77,17c0,0,19,12,26,38c0,0,4,13,4,73V419c0,0,0,119,-5,142c0,0,-4,23,-17,33c0,0,-13,11,-33,11c0,0,-23,0,-52,-11l-7,26l207,83h31V549c0,0,86,154,176,154c0,0,41,0,68,-25c0,0,27,-25,27,-58c0,0,0,-29,-20,-49c0,0,-19,-20,-46,-20c0,0,-26,0,-58,25c0,0,-33,26,-48,26c0,0,-14,0,-29,-15c0,0,-34,-30,-70,-101V159c0,0,0,-56,15,-85c0,0,9,-20,34,-34c0,0,24,-14,71,-14V0Z" 
id="f0_2e"
transform="scale(0.001,-0.001)" />

<path d="M312,-20c0,0,-62,0,-143,22c0,0,-25,8,-40,8c0,0,-18,0,-27,-19H77V234h25c0,0,21,-105,80,-158c0,0,59,-53,132,-53c0,0,51,0,84,31c0,0,32,30,32,72c0,0,0,52,-36,87c0,0,-36,35,-144,88c0,0,-109,54,-142,97c0,0,-34,43,-34,107c0,0,0,85,58,141c0,0,58,57,150,57c0,0,40,0,97,-17c0,0,38,-11,51,-11c0,0,12,0,19,5c0,0,7,5,15,23h25V470H464c0,0,-28,110,-72,149c0,0,-45,40,-113,40c0,0,-53,0,-85,-28c0,0,-32,-27,-32,-61c0,0,0,-41,24,-71c0,0,23,-31,94,-65L389,381c0,0,152,-74,152,-194c0,0,0,-94,-71,-151c0,0,-70,-56,-158,-56Z" 
id="f0_2f"
transform="scale(0.001,-0.001)" />

<path d="M342,-20c0,0,-116,0,-203,97c0,0,-86,98,-86,264c0,0,0,161,96,261c0,0,95,101,230,101c0,0,100,0,165,-53c0,0,65,-54,65,-111c0,0,0,-29,-18,-46c0,0,-18,-18,-51,-18c0,0,-44,0,-66,29c0,0,-13,15,-17,59c0,0,-4,45,-30,68c0,0,-26,22,-73,22c0,0,-74,0,-120,-55c0,0,-60,-73,-60,-193c0,0,0,-122,60,-216c0,0,60,-93,162,-93c0,0,73,0,131,49c0,0,41,35,80,126l22,-10C629,261,601,125,521,52c0,0,-81,-72,-179,-72Z" 
id="f0_1z"
transform="scale(0.001,-0.001)" />

<path d="M399,62c0,0,68,0,131,68V481c0,0,-5,51,-27,93c0,0,-22,42,-59,63c0,0,-37,21,-72,21c0,0,-65,0,-117,-59c0,0,-67,-77,-67,-226c0,0,0,-151,65,-231c0,0,66,-80,146,-80ZM330,-20c0,0,-112,0,-196,93c0,0,-83,94,-83,240c0,0,0,147,92,269c0,0,93,122,238,122c0,0,90,0,149,-58V773c0,0,0,117,-6,144c0,0,-5,27,-17,37c0,0,-12,9,-30,9c0,0,-20,0,-52,-12l-9,27l204,83h33V270c0,0,0,-120,6,-146c0,0,5,-27,18,-37c0,0,12,-11,28,-11c0,0,21,0,54,13l9,-26L564,-20H530V78C530,78,480,25,432,2c0,0,-47,-22,-102,-22Z" 
id="f0_20"
transform="scale(0.001,-0.001)" />

<path d="M286,72c0,0,57,0,149,75V407c0,0,-113,-45,-145,-64c0,0,-59,-32,-85,-68c0,0,-25,-36,-25,-78c0,0,0,-54,32,-89c0,0,32,-36,74,-36ZM217,-13c0,0,-71,0,-116,48c0,0,-46,48,-46,127c0,0,0,50,22,87c0,0,31,50,106,95c0,0,76,45,252,109v26c0,0,0,102,-32,140c0,0,-32,38,-94,38c0,0,-47,0,-74,-25c0,0,-28,-25,-28,-58l1,-43c0,0,0,-34,-17,-53c0,0,-18,-18,-47,-18c0,0,-28,0,-45,19c0,0,-18,19,-18,53c0,0,0,64,66,117c0,0,65,54,184,54c0,0,91,0,149,-31c0,0,44,-23,65,-72c0,0,13,-32,13,-131V238c0,0,0,-98,4,-120c0,0,4,-22,12,-29c0,0,9,-8,20,-8c0,0,12,0,21,5c0,0,16,10,61,55V99C676,99,592,-12,516,-12c0,0,-37,0,-58,24c0,0,-22,26,-23,86C435,98,330,17,303,5c0,0,-40,-18,-86,-18Z" 
id="f0_1x"
transform="scale(0.001,-0.001)" />

<path d="M82,-253v33c0,0,77,25,119,78c0,0,42,54,42,114c0,0,0,14,-7,23c0,0,-5,6,-11,6c0,0,-8,0,-35,-14c0,0,-14,-7,-28,-7c0,0,-37,0,-58,21C104,1,82,23,82,61c0,0,0,36,28,62c0,0,28,27,68,27c0,0,49,0,88,-43c0,0,38,-43,38,-113c0,0,0,-77,-53,-143c0,0,-53,-66,-169,-104Z" 
id="f0_g"
transform="scale(0.001,-0.001)" />

<path d="M336,-20L117,554c0,0,-21,55,-42,74c0,0,-21,19,-66,29v26H296V657c0,0,-40,-3,-52,-14c0,0,-13,-12,-13,-33c0,0,0,-23,13,-56L390,162L537,481L498,581c0,0,-18,46,-47,63c0,0,-17,11,-61,13v26H716V657c0,0,-54,-2,-77,-20c0,0,-15,-12,-15,-39c0,0,0,-15,6,-30L785,177L929,554c0,0,15,40,15,65c0,0,0,14,-15,25c0,0,-14,12,-57,13v26h216V657c0,0,-65,-10,-95,-89L764,-20H733L563,415L363,-20Z" 
id="f0_2j"
transform="scale(0.001,-0.001)" />

<path d="M397,34c0,0,67,0,126,75c0,0,58,74,58,216c0,0,0,131,-58,201c0,0,-59,70,-133,70c0,0,-39,0,-79,-20c0,0,-29,-14,-75,-59V109c0,0,37,-37,78,-56c0,0,40,-19,83,-19ZM358,-20c0,0,-59,0,-121,21c0,0,-61,22,-126,65V773c0,0,0,117,-5,144c0,0,-6,27,-18,37c0,0,-12,9,-29,9c0,0,-21,0,-53,-12l-9,27l205,83h34V564c0,0,98,139,213,139c0,0,105,0,183,-90c0,0,78,-90,78,-245c0,0,0,-182,-121,-293c0,0,-103,-95,-231,-95Z" 
id="f0_1y"
transform="scale(0.001,-0.001)" />

<path d="M63,0V26H93c0,0,30,0,54,15c0,0,25,15,34,41c0,0,10,25,10,99V630H58v53H191v45c0,0,0,102,33,173c0,0,32,71,100,114c0,0,68,44,152,44c0,0,79,0,145,-51c0,0,43,-33,43,-75c0,0,0,-22,-19,-42c0,0,-20,-20,-42,-20c0,0,-17,0,-36,12c0,0,-19,13,-47,53c0,0,-28,41,-51,55c0,0,-23,14,-51,14c0,0,-35,0,-58,-18c0,0,-24,-18,-35,-57c0,0,-10,-38,-10,-197V683H491V630H315V181c0,0,0,-96,21,-122c0,0,27,-33,73,-33h62V0Z" 
id="f0_22"
transform="scale(0.001,-0.001)" />

<path d="M24,0V27H60c0,0,63,0,91,37c0,0,18,24,18,115V833c0,0,0,77,-10,102c0,0,-7,18,-30,32c0,0,-32,18,-69,18H24v27H776L787,790H761c0,0,-20,71,-45,104c0,0,-26,33,-64,48c0,0,-37,15,-117,15H312V558H497c0,0,63,0,93,28c0,0,29,28,39,111h27V355H629c0,0,-1,59,-16,87c0,0,-14,27,-40,41c0,0,-26,14,-76,14H312V179c0,0,0,-77,10,-102c0,0,7,-18,31,-32c0,0,33,-18,69,-18h37V0Z" 
id="f0_16"
transform="scale(0.001,-0.001)" />

<path d="M238,-17c0,0,-103,0,-139,25C99,8,62,33,62,62c0,0,0,22,17,38c0,0,18,16,42,16c0,0,19,0,38,-6c0,0,13,-3,58,-27c0,0,45,-23,62,-28c0,0,27,-8,59,-8c0,0,76,0,132,59c0,0,56,59,56,140c0,0,0,59,-26,115c0,0,-19,41,-42,63c0,0,-32,30,-88,54c0,0,-56,25,-114,25H232v22c0,0,59,8,118,42c0,0,59,35,86,85c0,0,27,49,27,108c0,0,0,76,-48,124c0,0,-48,47,-120,47c0,0,-116,0,-193,-124L77,819c0,0,44,102,110,158c0,0,66,56,164,56c0,0,122,0,187,-80c0,0,49,-58,49,-126c0,0,0,-110,-139,-228c0,0,93,-36,141,-104c0,0,48,-68,48,-160c0,0,0,-131,-84,-227C553,108,444,-17,238,-17Z" 
id="f0_n"
transform="scale(0.001,-0.001)" />

<path d="M548,-21c0,0,-251,0,-389,185C159,164,56,303,56,490c0,0,0,152,68,278c0,0,67,127,186,197c0,0,119,69,260,69c0,0,109,0,216,-53c0,0,31,-17,44,-17c0,0,20,0,35,14c0,0,20,21,28,56h26L943,690H919c0,0,-46,155,-131,224c0,0,-86,68,-206,68c0,0,-100,0,-181,-51c0,0,-81,-52,-128,-163c0,0,-46,-112,-46,-279c0,0,0,-137,44,-238c0,0,44,-101,132,-154c0,0,88,-54,201,-54c0,0,99,0,174,42c0,0,75,42,165,167l23,-14C966,238,890,103,789,40c0,0,-102,-61,-241,-61Z" 
id="f0_13"
transform="scale(0.001,-0.001)" />

<path d="M145,-328c0,0,-44,0,-73,25c0,0,-28,25,-28,58c0,0,0,31,21,50c0,0,20,19,56,19c0,0,25,0,67,-16c0,0,30,-11,38,-11c0,0,22,0,49,23c0,0,26,23,53,89L376,28L131,542c0,0,-11,24,-36,58c0,0,-19,27,-30,36c0,0,-18,12,-56,21v26H328V657H312c0,0,-33,0,-50,-15c0,0,-17,-14,-17,-36c0,0,0,-30,25,-81L437,179L589,557c0,0,12,31,12,62c0,0,0,13,-5,20c0,0,-6,8,-19,13c0,0,-12,5,-44,5v26H754V657c0,0,-27,-3,-42,-12c0,0,-15,-9,-33,-34c0,0,-7,-10,-25,-58L376,-128c0,0,-40,-99,-105,-150c0,0,-66,-50,-126,-50Z" 
id="f0_2l"
transform="scale(0.001,-0.001)" />

<path d="M191,-20c0,0,-34,0,-58,24c0,0,-24,24,-24,58c0,0,0,35,24,59c0,0,24,24,58,24c0,0,35,0,59,-24c0,0,24,-25,24,-59c0,0,0,-34,-24,-58c0,0,-25,-24,-59,-24Z" 
id="f0_i"
transform="scale(0.001,-0.001)" />

<path d="M114,0V27h27c0,0,65,0,93,15c0,0,27,15,37,41c0,0,10,27,10,122V729c0,0,0,71,-7,89c0,0,-7,17,-25,30c0,0,-18,12,-42,12c0,0,-38,0,-93,-24l-13,26l372,171h25V205c0,0,0,-93,8,-119c0,0,8,-26,34,-42c0,0,27,-17,84,-17h23V0Z" 
id="f1_l"
transform="scale(0.001,-0.001)" />

<path d="M191,-18c0,0,-51,0,-87,36c0,0,-37,36,-37,87c0,0,0,52,37,88c0,0,36,37,87,37c0,0,52,0,89,-37c0,0,36,-36,36,-88c0,0,0,-51,-37,-87c0,0,-36,-36,-88,-36Z" 
id="f1_i"
transform="scale(0.001,-0.001)" />

<path d="M610,-21c0,0,-162,0,-287,63c0,0,-126,65,-194,187c0,0,-68,121,-68,258c0,0,0,145,75,275c0,0,76,129,205,201c0,0,128,71,273,71c0,0,107,0,225,-46c0,0,69,-27,88,-27c0,0,24,0,41,18c0,0,18,17,23,55h29V683H991c0,0,-33,138,-122,211c0,0,-90,73,-203,73c0,0,-95,0,-174,-54c0,0,-79,-55,-116,-143c0,0,-47,-112,-47,-250c0,0,0,-135,34,-247c0,0,35,-111,108,-168c0,0,73,-57,189,-57c0,0,96,0,175,42c0,0,80,41,168,144V146c0,0,-85,-89,-178,-129c0,0,-92,-38,-215,-38Z" 
id="f1_13"
transform="scale(0.001,-0.001)" />

<path d="M381,31c0,0,33,0,56,19c0,0,29,25,38,71c0,0,15,71,15,286c0,0,0,127,-14,174c0,0,-14,48,-42,69c0,0,-19,16,-50,16c0,0,-38,0,-65,-29c0,0,-27,-29,-36,-113c0,0,-8,-85,-8,-235c0,0,0,-80,10,-150c0,0,8,-53,35,-80c0,0,27,-28,61,-28Zm2,-51c0,0,-157,0,-242,110c0,0,-85,110,-85,256c0,0,0,150,87,261c0,0,86,112,238,112c0,0,90,0,169,-47c0,0,78,-47,119,-134c0,0,40,-86,40,-189c0,0,0,-149,-75,-249c0,0,-91,-120,-251,-120Z" 
id="f1_2b"
transform="scale(0.001,-0.001)" />

<path d="M312,-20c0,0,-50,0,-134,30c0,0,-22,9,-30,9c0,0,-25,0,-41,-37H82L70,232H97c0,0,33,-99,91,-148c0,0,59,-49,111,-49c0,0,35,0,58,22c0,0,22,22,22,54c0,0,0,35,-22,61c0,0,-22,27,-100,80c0,0,-114,79,-147,120c0,0,-49,62,-49,136c0,0,0,80,55,145c0,0,56,66,161,66c0,0,56,0,109,-28c0,0,20,-11,33,-11c0,0,13,0,21,5c0,0,9,6,27,32h26L504,479H477c0,0,-45,106,-94,145c0,0,-48,39,-96,39c0,0,-31,0,-52,-21c0,0,-22,-20,-22,-47c0,0,0,-20,15,-39c0,0,24,-30,133,-105c0,0,110,-74,144,-126c0,0,35,-52,35,-116c0,0,0,-58,-29,-114C511,95,482,39,429,9c0,0,-53,-29,-117,-29Z" 
id="f1_2f"
transform="scale(0.001,-0.001)" />

<path d="M298,-9c0,0,-67,0,-113,36c0,0,-46,37,-58,83c0,0,-8,25,-8,137V624H28v26c0,0,94,66,161,139c0,0,66,73,115,163h25V697H494V624H329V193c0,0,0,-60,5,-78c0,0,6,-17,20,-28c0,0,14,-11,26,-11c0,0,48,0,92,75l22,-17C494,134,434,-9,298,-9Z" 
id="f1_2g"
transform="scale(0.001,-0.001)" />

<path d="M29,0V27H63c0,0,44,0,71,16c0,0,19,11,30,36c0,0,8,18,8,94V839c0,0,0,78,-8,97c0,0,-8,20,-33,34c0,0,-25,15,-68,15H29v27H558V985H525c0,0,-44,0,-71,-16c0,0,-19,-11,-30,-36c0,0,-8,-18,-8,-94V173c0,0,0,-78,8,-97c0,0,9,-20,34,-34c0,0,24,-15,67,-15h33V0Z" 
id="f1_19"
transform="scale(0.001,-0.001)" />

<path d="M57,0V26c0,0,45,4,61,25c0,0,16,22,16,113V550c0,0,0,59,-6,76c0,0,-7,21,-22,30c0,0,-14,10,-49,14v27H342l1,-158c0,0,69,109,121,144c0,0,52,36,100,36c0,0,42,0,66,-26c0,0,25,-26,25,-73c0,0,0,-50,-24,-77c0,0,-25,-28,-59,-28c0,0,-39,0,-68,25c0,0,-28,26,-33,29c0,0,-8,4,-17,4c0,0,-22,0,-41,-16c0,0,-31,-26,-46,-73c0,0,-24,-72,-24,-159V122c0,0,0,-42,5,-54c0,0,9,-21,27,-30c0,0,17,-9,59,-12V0Z" 
id="f1_2e"
transform="scale(0.001,-0.001)" />

<path d="M52,0V26c0,0,44,5,62,29c0,0,13,16,13,97V546c0,0,0,79,-14,98c0,0,-15,20,-61,26v27H336V607c0,0,54,59,104,85c0,0,49,27,106,27c0,0,68,0,113,-38c0,0,44,-38,59,-94c0,0,12,-42,12,-163V152c0,0,0,-81,15,-101c0,0,14,-19,61,-25V0H452V26c0,0,40,6,57,33c0,0,12,19,12,93V462c0,0,0,86,-7,109c0,0,-6,22,-22,35c0,0,-16,12,-36,12c0,0,-64,0,-120,-92V152c0,0,0,-79,15,-100c0,0,15,-20,55,-26V0Z" 
id="f1_2a"
transform="scale(0.001,-0.001)" />

<path d="M450,515c0,0,91,0,141,54c0,0,49,54,49,167c0,0,0,113,-49,165c0,0,-50,52,-148,52H413V516c0,0,24,-1,37,-1ZM39,0V27c0,0,70,0,95,13c0,0,25,14,35,35c0,0,10,21,10,103V834c0,0,0,82,-10,104c0,0,-10,21,-36,34c0,0,-25,13,-94,13v27H480c0,0,218,0,313,-78c0,0,94,-77,94,-194c0,0,0,-99,-61,-169c0,0,-61,-70,-169,-95c0,0,-72,-18,-244,-18V178c0,0,0,-82,10,-104c0,0,10,-21,35,-34c0,0,26,-13,94,-13V0Z" 
id="f1_1g"
transform="scale(0.001,-0.001)" />

<path d="M32,0V26c0,0,46,2,69,27c0,0,14,18,14,92V551c0,0,0,75,-17,95c0,0,-17,21,-66,24v27H325V145c0,0,0,-74,17,-95c0,0,17,-21,68,-24V0ZM220,804c0,0,-48,0,-82,33c0,0,-33,34,-33,82c0,0,0,48,33,82c0,0,34,33,82,33c0,0,48,0,82,-33c0,0,33,-34,33,-82c0,0,0,-48,-34,-82c0,0,-34,-33,-81,-33Z" 
id="f1_25"
transform="scale(0.001,-0.001)" />

<path d="M393,-277c0,0,104,0,164,28c0,0,59,27,59,77c0,0,0,19,-11,32c0,0,-20,22,-61,30c0,0,-41,8,-218,8c0,0,-76,0,-101,-12c0,0,-42,-23,-42,-63c0,0,0,-38,44,-69c0,0,44,-31,166,-31ZM366,253c0,0,45,0,75,41c0,0,30,41,30,160c0,0,0,134,-33,183c0,0,-24,36,-68,36c0,0,-43,0,-73,-44c0,0,-30,-44,-30,-181c0,0,0,-112,29,-153c0,0,30,-42,70,-42Zm8,-581c0,0,-94,0,-171,18c0,0,-78,18,-112,51c0,0,-33,32,-33,68c0,0,0,34,25,61c0,0,26,28,96,46c0,0,-97,48,-97,132c0,0,0,51,40,100c0,0,39,48,125,84c0,0,-100,36,-145,96c0,0,-44,60,-44,138c0,0,0,103,83,178c0,0,84,75,215,75c0,0,70,0,144,-30H734V607H601c0,0,37,-36,51,-66c0,0,18,-40,18,-85c0,0,0,-74,-42,-129c0,0,-41,-55,-112,-86c0,0,-72,-31,-127,-31c0,0,-5,0,-90,4c0,0,-33,0,-56,-22c0,0,-23,-22,-23,-52c0,0,0,-27,21,-44c0,0,20,-17,66,-17l130,1c0,0,157,0,216,-34c0,0,84,-47,84,-146c0,0,0,-64,-39,-115c0,0,-38,-52,-102,-77c0,0,-96,-36,-222,-36Z" 
id="f1_23"
transform="scale(0.001,-0.001)" />

<path d="M254,-18c0,0,-51,0,-88,36c0,0,-36,36,-36,87c0,0,0,52,36,88c0,0,37,37,88,37c0,0,53,0,89,-37c0,0,36,-36,36,-88c0,0,0,-51,-36,-87c0,0,-37,-36,-89,-36Zm2,488c0,0,-52,0,-88,36c0,0,-36,37,-36,88c0,0,0,51,36,88c0,0,36,36,88,36c0,0,51,0,87,-36c0,0,36,-37,36,-88c0,0,0,-51,-36,-88c0,0,-36,-36,-87,-36Z" 
id="f1_u"
transform="scale(0.001,-0.001)" />

<path d="M253,0V27h36c0,0,64,0,91,39c0,0,16,24,16,109V948H274c0,0,-71,0,-100,-10c0,0,-39,-14,-67,-54c0,0,-27,-41,-33,-109H46l12,237H883L894,775H865c0,0,-8,62,-22,89c0,0,-23,43,-61,64c0,0,-39,20,-101,20H539V175c0,0,0,-93,20,-116c0,0,28,-32,87,-32h36V0Z" 
id="f0_1k"
transform="scale(0.001,-0.001)" />

<path d="M292,-20c0,0,-57,0,-100,33c0,0,-42,33,-58,85c0,0,-17,52,-17,148V551c0,0,0,49,-10,68c0,0,-11,18,-31,29c0,0,-19,9,-68,9c-2,0,-4,0,-6,0v26H242V226c0,0,0,-95,33,-125c0,0,33,-30,80,-30c0,0,32,0,73,21c0,0,40,20,96,76V555c0,0,0,59,-21,80c0,0,-22,21,-89,22v26H647V269c0,0,0,-119,6,-145c0,0,6,-27,18,-37c0,0,12,-11,29,-11c0,0,23,0,52,13L763,63L558,-20H524V124C524,124,436,29,390,4c0,0,-47,-24,-98,-24Z" 
id="f0_2h"
transform="scale(0.001,-0.001)" />

<path d="M376,-20L133,556c0,0,-17,41,-31,58c0,0,-15,18,-39,30c0,0,-12,7,-50,13v26H335V657H314c0,0,-29,0,-44,-14c0,0,-16,-14,-15,-38c0,0,-1,-26,15,-62L429,165L588,557c0,0,17,42,17,64c0,0,0,10,-6,17c0,0,-8,11,-21,15c0,0,-13,4,-52,4v26H750V657c0,0,-39,-3,-54,-16c0,0,-26,-23,-47,-76L409,-20Z" 
id="f0_2i"
transform="scale(0.001,-0.001)" />

<path d="M30,0V27L485,632H260c0,0,-72,0,-94,-10c0,0,-22,-9,-36,-35c0,0,-20,-37,-23,-92H76l5,188H654V656L196,51H445c0,0,79,0,106,13c0,0,28,13,45,46c0,0,12,23,21,100h25L634,0Z" 
id="f0_2m"
transform="scale(0.001,-0.001)" />

<path d="M33,0V27c0,0,264,241,371,393c0,0,108,152,108,278c0,0,0,96,-59,158c0,0,-59,62,-141,62c0,0,-75,0,-134,-43c0,0,-59,-44,-88,-128H63c0,0,18,138,95,212c0,0,77,74,193,74c0,0,123,0,205,-80c0,0,83,-79,83,-186c0,0,0,-77,-36,-154c0,0,-55,-121,-179,-256C424,357,238,154,191,112H455c0,0,81,0,114,6c0,0,32,6,58,25c0,0,27,18,46,52h27L630,0Z" 
id="f0_m"
transform="scale(0.001,-0.001)" />

<path d="M247,-17c0,0,-91,0,-132,30c0,0,-42,31,-42,68c0,0,0,21,17,37c0,0,18,16,44,17c0,0,19,0,34,-6c0,0,14,-7,49,-31c0,0,56,-39,113,-39c0,0,88,0,154,66c0,0,66,66,66,161c0,0,0,92,-59,171c0,0,-59,80,-163,123c0,0,-81,34,-221,39l194,393H663L605,885H301L234,750c0,0,198,-29,313,-147c0,0,100,-102,100,-239c0,0,0,-80,-33,-148c0,0,-32,-68,-81,-116c0,0,-50,-47,-110,-77c0,0,-86,-40,-176,-40Z" 
id="f0_p"
transform="scale(0.001,-0.001)" />

<path d="M452,373V875L97,373ZM452,0V267H23v95l470,671h82V373H711V267H575V0Z" 
id="f0_o"
transform="scale(0.001,-0.001)" />

<path d="M1005,0c0,0,34,0,61,41c0,0,36,55,36,187c0,0,0,141,-36,196c0,0,-25,39,-61,39c0,0,-36,0,-62,-41c0,0,-34,-52,-34,-197c0,0,0,-134,35,-187c0,0,25,-38,61,-38Zm2,-41c0,0,-55,0,-106,34c0,0,-51,32,-80,94c0,0,-30,63,-30,142c0,0,0,79,29,144c0,0,30,64,81,97c0,0,51,32,104,32c0,0,53,0,105,-34c0,0,53,-33,82,-98c0,0,28,-64,28,-141c0,0,0,-132,-63,-201c0,0,-64,-69,-150,-69ZM267,524c0,0,36,0,61,39c0,0,38,57,38,192c0,0,0,142,-37,199c0,0,-24,38,-60,38c0,0,-38,0,-67,-44c0,0,-30,-45,-30,-189c0,0,0,-103,17,-158c0,0,12,-41,39,-63c0,0,16,-14,39,-14Zm3,-37c0,0,-59,0,-108,32c0,0,-49,33,-79,97c0,0,-29,64,-29,143c0,0,0,78,30,144c0,0,30,66,81,99c0,0,52,32,107,32c0,0,101,0,156,-83c0,0,56,-84,56,-192c0,0,0,-130,-63,-201c0,0,-62,-71,-151,-71ZM235,-41L972,1034h67L301,-41Z" 
id="f0_9"
transform="scale(0.001,-0.001)" />

<path d="M13,0V26c0,0,52,0,78,13c0,0,16,8,24,25c0,0,11,25,11,86V773c0,0,0,118,-5,145c0,0,-5,26,-17,36c0,0,-12,10,-32,10c0,0,-15,0,-47,-13L13,978l203,83h34V381L424,540c0,0,55,50,64,64c0,0,6,9,6,18c0,0,0,15,-12,26c0,0,-13,11,-41,12v23H738V660c0,0,-61,-2,-102,-19c0,0,-40,-17,-89,-62L372,418L547,196c0,0,73,-92,98,-117c0,0,36,-35,63,-45c0,0,18,-8,65,-8V0H441V26c0,0,28,1,38,9c0,0,10,8,10,22c0,0,0,17,-29,56L250,381V154c0,0,0,-67,10,-88c0,0,9,-21,26,-30c0,0,17,-9,75,-10V0Z" 
id="f0_27"
transform="scale(0.001,-0.001)" />

<path d="M107,-21V325h27c0,0,19,-109,52,-163c0,0,33,-54,100,-90c0,0,68,-36,148,-36c0,0,93,0,148,49c0,0,54,50,54,117c0,0,0,37,-21,75c0,0,-20,38,-64,71c0,0,-29,22,-159,95c0,0,-130,72,-185,115c0,0,-55,44,-83,96c0,0,-28,52,-28,114c0,0,0,109,83,188c0,0,84,78,213,78c0,0,81,0,171,-39c0,0,42,-19,59,-19c0,0,20,0,32,11c0,0,12,12,20,47h27V684H674c0,0,-14,101,-48,161c0,0,-35,60,-100,95c0,0,-64,35,-133,35c0,0,-77,0,-128,-47c0,0,-51,-48,-51,-108c0,0,0,-46,32,-84c0,0,47,-56,221,-149c0,0,142,-76,194,-117c0,0,51,-41,80,-96c0,0,28,-55,28,-115c0,0,0,-115,-90,-198c0,0,-89,-82,-229,-82c0,0,-44,0,-83,6c0,0,-23,4,-95,27c0,0,-73,24,-93,24c0,0,-18,0,-29,-11c0,0,-11,-12,-16,-46Z" 
id="f0_1j"
transform="scale(0.001,-0.001)" />

<path d="M435,502c0,0,78,0,134,60c0,0,57,60,57,155c0,0,0,66,-27,122c0,0,-27,56,-76,84c0,0,-50,28,-112,28c0,0,-38,0,-98,-14V517c0,0,39,-8,70,-12c0,0,31,-3,52,-3ZM25,0V27H63c0,0,65,0,92,42c0,0,15,23,15,110V833c0,0,0,96,-20,119c0,0,-29,33,-87,33H25v27H396c0,0,136,0,214,-28c0,0,78,-28,132,-94c0,0,54,-67,54,-158c0,0,0,-124,-82,-202c0,0,-82,-77,-231,-77c0,0,-36,0,-79,5c0,0,-43,5,-91,16V179c0,0,0,-96,21,-119c0,0,28,-33,85,-33h39V0Z" 
id="f0_1g"
transform="scale(0.001,-0.001)" />

<path d="M25,0V27H61c0,0,64,0,91,39c0,0,16,24,16,109V837c0,0,0,67,-15,97c0,0,-10,22,-38,36c0,0,-28,15,-90,15v27H312L678,220l363,792h285V985h-35c0,0,-64,0,-91,-39c0,0,-17,-24,-17,-109V175c0,0,0,-93,21,-116c0,0,28,-32,87,-32h35V0H898V27h36c0,0,64,0,90,39c0,0,17,24,17,109V852L649,0H625L234,852V175c0,0,0,-93,20,-116c0,0,27,-32,87,-32h35V0Z" 
id="f0_1d"
transform="scale(0.001,-0.001)" />

<path d="M213,-20c0,0,-34,0,-58,24c0,0,-24,24,-24,58c0,0,0,34,24,58c0,0,24,25,58,25c0,0,35,0,59,-25c0,0,24,-24,24,-58c0,0,0,-34,-24,-58c0,0,-25,-24,-59,-24Zm3,559c0,0,-35,0,-59,24c0,0,-24,24,-24,58c0,0,0,35,24,59c0,0,24,24,59,24c0,0,34,0,58,-24c0,0,24,-24,24,-59c0,0,0,-34,-24,-58c0,0,-24,-24,-58,-24Z" 
id="f0_u"
transform="scale(0.001,-0.001)" />

<path d="M27,354v62H831V354Zm0,243v62H831V597Z" 
id="f0_x"
transform="scale(0.001,-0.001)" />

<path d="M379,437c0,0,34,0,81,16c0,0,47,17,83,47c0,0,14,97,14,155c0,0,0,72,-25,156c0,0,-25,83,-70,128c0,0,-45,45,-103,45c0,0,-66,0,-116,-60c0,0,-50,-59,-50,-177c0,0,0,-157,66,-246c0,0,49,-64,120,-64ZM80,-20V7c0,0,97,1,181,45c0,0,83,44,161,153c0,0,78,109,109,240c0,0,-117,-75,-212,-75c0,0,-107,0,-183,82c0,0,-76,82,-76,219c0,0,0,132,76,236c0,0,92,126,240,126c0,0,124,0,213,-103c0,0,109,-128,109,-315c0,0,0,-169,-82,-314C616,301,533,155,385,59c0,0,-120,-79,-262,-79Z" 
id="f0_t"
transform="scale(0.001,-0.001)" />

<path d="M-12,338v55H777V338Z" 
id="f0_4y"
transform="scale(0.001,-0.001)" />

<path d="M379,29c0,0,41,0,84,37c0,0,43,36,65,121c0,0,34,128,34,362c0,0,0,173,-35,288c0,0,-27,86,-69,122c0,0,-31,25,-74,25c0,0,-51,0,-90,-46c0,0,-54,-62,-73,-195c0,0,-20,-132,-20,-261c0,0,0,-209,52,-341c0,0,42,-112,126,-112Zm-2,-46c0,0,-145,0,-241,170c0,0,-81,144,-81,347c0,0,0,173,52,298c0,0,52,125,139,186c0,0,67,49,139,49c0,0,116,0,208,-119c0,0,116,-147,116,-398c0,0,0,-176,-51,-299C658,217,608,94,529,38c0,0,-79,-55,-152,-55Z" 
id="f0_k"
transform="scale(0.001,-0.001)" />

<path d="M405,24c0,0,65,0,116,62c0,0,51,61,51,174c0,0,0,128,-50,221c0,0,-51,93,-144,93c0,0,-29,0,-61,-12c0,0,-33,-12,-96,-51c0,0,-14,-101,-14,-163c0,0,0,-72,27,-155c0,0,26,-84,79,-134c0,0,38,-35,92,-35ZM384,-17c0,0,-104,0,-177,68C207,51,66,185,66,397c0,0,0,136,54,258c0,0,54,122,156,217c0,0,101,95,193,128c0,0,93,33,172,33h44v-28c0,0,-99,-10,-161,-39c0,0,-62,-29,-123,-90c0,0,-61,-60,-101,-135c0,0,-39,-74,-66,-176c0,0,107,73,215,73c0,0,104,0,180,-83c0,0,76,-84,76,-215c0,0,0,-126,-77,-231c0,0,-92,-126,-244,-126Z" 
id="f0_q"
transform="scale(0.001,-0.001)" />

<path d="M394,23c0,0,80,0,129,45c0,0,48,45,48,110c0,0,0,54,-28,97c0,0,-53,79,-214,206c0,0,-62,-52,-92,-114c0,0,-30,-61,-30,-133c0,0,0,-96,53,-154c0,0,52,-57,134,-57Zm17,566c0,0,90,81,114,128c0,0,24,46,24,105c0,0,0,79,-44,123c0,0,-44,45,-121,45c0,0,-76,0,-124,-45c0,0,-48,-44,-48,-103c0,0,0,-38,20,-77c0,0,20,-39,56,-74L411,589ZM382,-17c0,0,-144,0,-225,90c0,0,-64,72,-64,158c0,0,0,67,45,133c0,0,45,66,156,146c0,0,-121,98,-156,158c0,0,-34,59,-34,124c0,0,0,98,76,169c0,0,76,72,202,72c0,0,123,0,198,-67c0,0,74,-66,74,-151c0,0,0,-57,-40,-116c0,0,-40,-59,-168,-139c0,0,132,-101,174,-159c0,0,57,-76,57,-161c0,0,0,-106,-82,-182c0,0,-81,-75,-213,-75Z" 
id="f0_s"
transform="scale(0.001,-0.001)" />

<path d="M197,0V27c0,0,71,2,92,13c0,0,21,10,29,29c0,0,9,18,9,109V725c0,0,0,110,-8,141c0,0,-5,24,-19,35c0,0,-14,11,-33,11c0,0,-28,0,-77,-23l-11,23l246,121h25V178c0,0,0,-85,7,-106c0,0,7,-21,29,-32c0,0,23,-11,91,-13V0Z" 
id="f0_l"
transform="scale(0.001,-0.001)" />

<path d="M37,0V16c0,0,275,327,333,439c0,0,59,113,59,220c0,0,0,79,-49,131c0,0,-49,52,-119,52c0,0,-115,0,-178,-115l-28,9c0,0,40,143,123,212c0,0,82,69,189,69c0,0,77,0,141,-36c0,0,63,-36,99,-98c0,0,36,-63,36,-117c0,0,0,-99,-56,-202c0,0,-75,-138,-329,-384H477c0,0,81,0,105,6c0,0,24,7,40,23c0,0,15,16,41,67h27L633,0Z" 
id="f1_m"
transform="scale(0.001,-0.001)" />

<path d="M485,-21L152,803c0,0,-51,125,-71,151c0,0,-20,26,-68,31v27H452V985c0,0,-53,-2,-71,-16c0,0,-17,-15,-17,-37c0,0,0,-28,36,-120L599,321L758,705L717,812c0,0,-35,88,-53,118c0,0,-19,29,-43,42c0,0,-25,13,-72,13v27h490V985c0,0,-52,-1,-74,-9c0,0,-16,-5,-25,-17c0,0,-9,-12,-9,-28c0,0,0,-17,34,-105L1149,347l165,433c0,0,26,67,32,92c0,0,6,25,6,45c0,0,0,31,-21,49c0,0,-21,17,-79,19v27h262V985c0,0,-28,-3,-47,-16c0,0,-20,-14,-35,-41c0,0,-4,-9,-46,-116L1068,-21h-29L789,632L512,-21Z" 
id="f1_1n"
transform="scale(0.001,-0.001)" />

<path d="M304,-20c0,0,-59,0,-105,36c0,0,-45,36,-61,84c0,0,-16,49,-16,169V546c0,0,0,79,-14,98c0,0,-15,20,-61,26v27H331V221c0,0,0,-74,8,-96c0,0,7,-21,22,-33c0,0,15,-11,35,-11c0,0,27,0,49,14c0,0,30,20,71,78V546c0,0,0,79,-14,98c0,0,-15,20,-61,26v27H726V152c0,0,0,-81,14,-100c0,0,15,-20,61,-26V0H516V93C516,93,466,34,416,7c0,0,-50,-27,-112,-27Z" 
id="f1_2h"
transform="scale(0.001,-0.001)" />

<path d="M52,0V26c0,0,44,5,62,29c0,0,13,16,13,97V860c0,0,0,80,-14,99c0,0,-15,20,-61,26v27H336V608c0,0,58,61,106,86c0,0,47,25,99,25c0,0,65,0,112,-38c0,0,47,-37,62,-87c0,0,15,-51,15,-170V152c0,0,0,-81,15,-100c0,0,15,-20,61,-26V0H452V26c0,0,37,6,56,30c0,0,13,20,13,96V463c0,0,0,86,-7,108c0,0,-6,22,-22,35c0,0,-16,12,-36,12c0,0,-30,0,-59,-21c0,0,-28,-20,-61,-72V152c0,0,0,-75,12,-94c0,0,14,-26,58,-32V0Z" 
id="f1_24"
transform="scale(0.001,-0.001)" />

<path d="M38,0V27H74c0,0,63,0,91,37c0,0,18,24,18,115V833c0,0,0,77,-10,102c0,0,-7,18,-30,32c0,0,-33,18,-69,18H38v27H470V985H434c0,0,-62,0,-90,-37c0,0,-18,-24,-18,-115V179c0,0,0,-77,9,-102c0,0,8,-18,31,-32c0,0,32,-18,68,-18h36V0Z" 
id="f0_19"
transform="scale(0.001,-0.001)" />

<path d="M59,0V144h42c0,0,39,0,54,7c0,0,15,7,22,22c0,0,7,15,7,57V813c0,0,0,40,-5,52c0,0,-7,17,-21,24c0,0,-13,8,-42,8H59v143H530L711,408l185,632h481V897h-52c0,0,-41,0,-57,-18c0,0,-16,-17,-16,-66V222c0,0,0,-39,4,-48c0,0,7,-15,19,-21c0,0,16,-9,43,-9h59V0H876V144h39c0,0,42,0,57,6c0,0,15,7,22,21c0,0,7,14,7,51V862L748,0H604L359,835V202c0,0,0,-22,8,-34c0,0,8,-12,22,-18c0,0,15,-6,47,-6h50V0Z" 
id="f2_1d"
transform="scale(0.001,-0.001)" />

<path d="M59,0V144H85c0,0,52,0,70,7c0,0,18,8,25,26c0,0,4,11,4,64V808c0,0,0,46,-7,60c0,0,-6,14,-19,22c0,0,-14,7,-53,7H59v143H928L1046,712L911,663c0,0,-34,81,-80,130c0,0,-46,49,-102,65c0,0,-55,16,-129,16H441V615h52c0,0,59,0,80,9c0,0,20,8,29,26c0,0,9,19,9,73v40H744V322H611v45c0,0,0,45,-11,66c0,0,-11,21,-29,29c0,0,-19,7,-83,7H441V230c0,0,0,-38,4,-47c0,0,3,-8,14,-12c0,0,11,-5,47,-5h87c0,0,98,0,165,28c0,0,67,28,120,91c0,0,53,63,81,149l136,-47L959,0Z" 
id="f2_15"
transform="scale(0.001,-0.001)" />

<path d="M280,0V144h30c0,0,51,0,66,6c0,0,14,6,21,22c0,0,8,17,8,67V851c0,0,0,26,-6,33c0,0,-6,7,-26,7c0,0,-38,0,-86,-29c0,0,-48,-29,-85,-82c0,0,-15,-21,-63,-118L2,711l128,365h99l10,-36H826l13,36h99L1067,711L928,662c0,0,-46,91,-66,119c0,0,-40,55,-92,86c0,0,-38,24,-77,24c0,0,-18,0,-24,-9c0,0,-7,-8,-7,-39V244c0,0,0,-53,4,-66c0,0,3,-13,12,-21c0,0,9,-8,25,-11c0,0,16,-2,84,-2V0Z" 
id="f2_1k"
transform="scale(0.001,-0.001)" />

<path d="M610,480L509,765L404,480ZM2,0V144c0,0,39,0,56,6c0,0,18,7,30,21c0,0,11,13,25,49l322,820H669L981,237c0,0,25,-64,45,-79c0,0,19,-14,68,-14c2,0,3,0,5,0V0H606V144h30c0,0,41,0,58,11c0,0,16,11,16,27c0,0,0,13,-14,55l-32,94H349L310,226c0,0,-12,-33,-12,-44c0,0,0,-11,8,-21c0,0,9,-10,28,-14c0,0,13,-3,71,-3V0Z" 
id="f2_11"
transform="scale(0.001,-0.001)" />

<path d="M63,0V144h49c0,0,31,0,46,8c0,0,16,8,23,22c0,0,7,14,7,48V812c0,0,0,37,-7,53c0,0,-7,17,-20,24c0,0,-13,8,-44,8H63v143H570V897H526c0,0,-37,0,-47,-4c0,0,-18,-8,-26,-23c0,0,-8,-15,-8,-49V226c0,0,0,-36,3,-44c0,0,4,-8,14,-13c0,0,10,-5,40,-5c0,0,100,0,161,26c0,0,61,27,110,84c0,0,49,58,84,158L994,385L857,0Z" 
id="f2_1c"
transform="scale(0.001,-0.001)" />

<path d="M561,-17c0,0,-97,0,-173,29c0,0,-76,29,-133,84c0,0,-57,55,-80,116c0,0,-22,61,-22,181V794c0,0,0,56,-6,72c0,0,-6,16,-20,23c0,0,-13,8,-52,8H27v143H536V897H486c0,0,-35,0,-49,-9c0,0,-15,-8,-22,-23c0,0,-6,-15,-6,-62V424c0,0,0,-106,21,-158c0,0,21,-52,64,-79c0,0,43,-28,105,-28c0,0,61,0,109,30c0,0,48,30,68,76c0,0,21,46,21,152V834c0,0,0,26,-7,37c0,0,-9,15,-24,21c0,0,-10,5,-53,5H673v143h429V897h-34c0,0,-49,0,-61,-6c0,0,-18,-9,-26,-26c0,0,-6,-12,-6,-62V393c0,0,0,-114,-33,-191C942,202,896,98,797,40c0,0,-100,-57,-236,-57Z" 
id="f2_1l"
transform="scale(0.001,-0.001)" />

<path d="M593,600c0,0,92,0,137,17c0,0,45,17,68,48c0,0,22,31,22,76c0,0,0,41,-21,71c0,0,-21,29,-60,43c0,0,-40,14,-128,14H439V600ZM55,0V144h46c0,0,37,0,52,8c0,0,16,7,23,23c0,0,4,9,4,56V816c0,0,0,35,-6,49c0,0,-5,15,-18,19c0,0,-18,8,-41,8H55v148H697c0,0,62,0,135,-11c0,0,74,-11,133,-49c0,0,60,-38,92,-96c0,0,33,-59,33,-132c0,0,0,-118,-84,-192c0,0,-85,-73,-201,-96L1019,215l9,-11c0,0,21,-25,38,-38c0,0,17,-12,34,-17c0,0,18,-5,48,-5h45V0H859L526,448H439V241c0,0,0,-54,6,-69c0,0,6,-14,19,-21c0,0,13,-7,52,-7h48V0Z" 
id="f2_1i"
transform="scale(0.001,-0.001)" />

<path d="M568,-17c0,0,-143,0,-260,69c0,0,-117,69,-185,193c0,0,-68,125,-68,279c0,0,0,153,67,274c0,0,68,121,189,190c0,0,121,70,263,70c0,0,68,0,136,-17c0,0,69,-18,117,-47l28,46H959l94,-344L916,651c0,0,-71,113,-111,154c0,0,-41,41,-94,65c0,0,-52,23,-102,23c0,0,-71,0,-133,-41c0,0,-61,-41,-97,-120c0,0,-36,-79,-36,-191c0,0,0,-123,39,-213c0,0,40,-90,103,-134c0,0,64,-43,140,-43c0,0,53,0,102,21c0,0,48,22,66,49c0,0,18,26,18,72v38c0,0,0,39,-6,49c0,0,-8,15,-22,22c0,0,-13,7,-53,7H671V554h507V409h-38c0,0,-37,0,-51,-7c0,0,-14,-7,-20,-21c0,0,-7,-15,-7,-56V0H909L870,75C870,75,799,28,724,5c0,0,-75,-22,-156,-22Z" 
id="f2_17"
transform="scale(0.001,-0.001)" />

<path d="M280,0V144h27c0,0,54,0,69,7c0,0,15,7,23,24c0,0,8,16,8,67V405L129,827c0,0,-33,49,-57,61c0,0,-18,9,-71,9v143H518V897H479c0,0,-41,0,-51,-7c0,0,-11,-6,-11,-20c0,0,0,-20,24,-59L579,586L730,821c0,0,20,31,22,34c0,0,3,9,3,17c0,0,0,13,-8,19c0,0,-9,6,-40,6H653v143h416V897c0,0,-55,-1,-77,-13c0,0,-22,-12,-52,-57L663,422V236c0,0,0,-49,6,-64c0,0,7,-14,22,-21c0,0,15,-7,60,-7h37V0Z" 
id="f2_1p"
transform="scale(0.001,-0.001)" />


</defs>
</svg>