<?xml version="1.0" encoding="UTF-8" standalone="no"?>
<!DOCTYPE svg PUBLIC "-//W3C//DTD SVG 1.1//EN"
"http://www.w3.org/Graphics/SVG/1.1/DTD/svg11.dtd">
<svg viewBox="0 0 909 1286" version="1.1" xmlns="http://www.w3.org/2000/svg" xmlns:xlink="http://www.w3.org/1999/xlink">
<defs>
<style type="text/css"><![CDATA[
.g0_10{
fill: #FFFFFF;
}
.g1_10{
}
.g2_10{
fill: #009900;
fill-opacity: 0.4;
}
]]></style>
</defs>
<g fill="#000000" >
<use xlink:href="#f0_16" transform="matrix(10,0,0,10,247,841.5)" />
<use xlink:href="#f0_28" transform="matrix(10,0,0,10,257.2,841.5)" />
<use xlink:href="#f0_2b" transform="matrix(10,0,0,10,262.3,841.5)" />
<use xlink:href="#f0_2j" transform="matrix(10,0,0,10,271.9,841.5)" />
<use xlink:href="#f0_1j" transform="matrix(10,0,0,10,288.4,841.5)" />
<use xlink:href="#f0_24" transform="matrix(10,0,0,10,298.7,841.5)" />
<use xlink:href="#f0_21" transform="matrix(10,0,0,10,308.7,841.5)" />
<use xlink:href="#f0_21" transform="matrix(10,0,0,10,317.7,841.5)" />
<use xlink:href="#f0_2g" transform="matrix(10,0,0,10,326.5,841.5)" />
<use xlink:href="#f0_22" transform="matrix(10,0,0,10,338.2,841.5)" />
<use xlink:href="#f0_2b" transform="matrix(10,0,0,10,343.9,841.5)" />
<use xlink:href="#f0_2e" transform="matrix(10,0,0,10,353.5,841.5)" />
<use xlink:href="#f0_2g" transform="matrix(10,0,0,10,365,841.5)" />
<use xlink:href="#f0_24" transform="matrix(10,0,0,10,371.8,841.5)" />
<use xlink:href="#f0_21" transform="matrix(10,0,0,10,382.2,841.5)" />
<use xlink:href="#f0_15" transform="matrix(10,0,0,10,395.6,841.5)" />
<use xlink:href="#f0_2k" transform="matrix(10,0,0,10,406.5,841.5)" />
<use xlink:href="#f0_2g" transform="matrix(10,0,0,10,416,841.5)" />
<use xlink:href="#f0_2e" transform="matrix(10,0,0,10,422.8,841.5)" />
<use xlink:href="#f0_1x" transform="matrix(10,0,0,10,429.7,841.5)" />
<use xlink:href="#f0_1z" transform="matrix(10,0,0,10,438.7,841.5)" />
<use xlink:href="#f0_2g" transform="matrix(10,0,0,10,447.5,841.5)" />
<use xlink:href="#f0_25" transform="matrix(10,0,0,10,454.5,841.5)" />
<use xlink:href="#f0_2b" transform="matrix(10,0,0,10,460,841.5)" />
<use xlink:href="#f0_2a" transform="matrix(10,0,0,10,469.1,841.5)" />
<use xlink:href="#f0_2b" transform="matrix(10,0,0,10,484.4,841.5)" />
<use xlink:href="#f0_22" transform="matrix(10,0,0,10,493.5,841.5)" />
<use xlink:href="#f0_1c" transform="matrix(10,0,0,10,504,841.5)" />
<use xlink:href="#f0_21" transform="matrix(10,0,0,10,513.9,841.5)" />
<use xlink:href="#f0_1x" transform="matrix(10,0,0,10,522.7,841.5)" />
<use xlink:href="#f0_20" transform="matrix(10,0,0,10,531.5,841.5)" />
<use xlink:href="#f0_1x" transform="matrix(10,0,0,10,546,841.5)" />
<use xlink:href="#f0_2a" transform="matrix(10,0,0,10,554.8,841.5)" />
<use xlink:href="#f0_20" transform="matrix(10,0,0,10,565,841.5)" />
<use xlink:href="#f0_16" transform="matrix(10,0,0,10,579.3,841.5)" />
<use xlink:href="#f0_2b" transform="matrix(10,0,0,10,589.4,841.5)" />
<use xlink:href="#f0_2e" transform="matrix(10,0,0,10,598.9,841.5)" />
<use xlink:href="#f0_29" transform="matrix(10,0,0,10,605.9,841.5)" />
<use xlink:href="#f0_1x" transform="matrix(10,0,0,10,621.1,841.5)" />
<use xlink:href="#f0_2g" transform="matrix(10,0,0,10,629.7,841.5)" />
<use xlink:href="#f0_25" transform="matrix(10,0,0,10,636.7,841.5)" />
<use xlink:href="#f0_2b" transform="matrix(10,0,0,10,642.2,841.5)" />
<use xlink:href="#f0_2a" transform="matrix(10,0,0,10,651.7,841.5)" />
<use xlink:href="#f0_2b" transform="matrix(10,0,0,10,367,867)" />
<use xlink:href="#f0_22" transform="matrix(10,0,0,10,376.2,867)" />
<use xlink:href="#f0_1m" transform="matrix(10,0,0,10,385.9,867)" />
<use xlink:href="#f0_1x" transform="matrix(10,0,0,10,397.1,867)" />
<use xlink:href="#f0_2e" transform="matrix(10,0,0,10,405.7,867)" />
<use xlink:href="#f0_25" transform="matrix(10,0,0,10,412.7,867)" />
<use xlink:href="#f0_2b" transform="matrix(10,0,0,10,418.2,867)" />
<use xlink:href="#f0_2h" transform="matrix(10,0,0,10,427.7,867)" />
<use xlink:href="#f0_2f" transform="matrix(10,0,0,10,437.6,867)" />
<use xlink:href="#f0_13" transform="matrix(10,0,0,10,449.3,867)" />
<use xlink:href="#f0_2b" transform="matrix(10,0,0,10,460.7,867)" />
<use xlink:href="#f0_29" transform="matrix(10,0,0,10,469.9,867)" />
<use xlink:href="#f0_2c" transform="matrix(10,0,0,10,485.1,867)" />
<use xlink:href="#f0_2b" transform="matrix(10,0,0,10,495,867)" />
<use xlink:href="#f0_2h" transform="matrix(10,0,0,10,504.2,867)" />
<use xlink:href="#f0_2a" transform="matrix(10,0,0,10,514.4,867)" />
<use xlink:href="#f0_20" transform="matrix(10,0,0,10,524.5,867)" />
<use xlink:href="#f0_2f" transform="matrix(10,0,0,10,534.4,867)" />
</g>
<image preserveAspectRatio="none" x="173" y="168" width="571" height="599" xlink:href="img/1.png" />
<path fill-rule="evenodd" d="M53.9,69.5H856.2V97.9H53.9V69.5l1.5,26.8H854.5V71H55.4V96.3L53.9,69.5Z" class="g0_10" />
<path fill-rule="evenodd" d="M55.2,94.6H854.7v3.1H55.2V94.6Z" class="g1_10" />
<path fill-rule="evenodd" d="M55.2,69.7H854.7v3.1H55.2V69.7Z" class="g1_10" />
<path fill-rule="evenodd" d="M55.1,1177.4H854.9v2.3H55.1v-2.3Z" class="g1_10" />
<g fill="#000000" >
<use xlink:href="#f1_1d" transform="matrix(10,0,0,10,733.1,87.7)" />
<use xlink:href="#f1_15" transform="matrix(10,0,0,10,747.4,87.7)" />
<use xlink:href="#f1_1k" transform="matrix(10,0,0,10,758.4,87.7)" />
<use xlink:href="#f1_11" transform="matrix(10,0,0,10,769,87.7)" />
<use xlink:href="#f1_1c" transform="matrix(10,0,0,10,780,87.7)" />
<use xlink:href="#f1_1c" transform="matrix(10,0,0,10,789.7,87.7)" />
<use xlink:href="#f1_1l" transform="matrix(10,0,0,10,799.4,87.7)" />
<use xlink:href="#f1_1i" transform="matrix(10,0,0,10,810.7,87.7)" />
<use xlink:href="#f1_17" transform="matrix(10,0,0,10,822.5,87.7)" />
<use xlink:href="#f1_1p" transform="matrix(10,0,0,10,834.4,87.7)" />
</g>
<path d="M54.5,94.7H853.4V72.5H54.5V94.7Z" class="g2_10" />
<defs>
<path d="M59,0V144H92c0,0,57,0,74,14c0,0,18,15,18,59V815c0,0,0,41,-7,55c0,0,-7,13,-22,20c0,0,-16,7,-63,7H59v143H919L1037,709L902,662c0,0,-33,72,-63,109c0,0,-29,37,-70,61c0,0,-41,25,-89,33c0,0,-32,5,-114,5H438V594h66c0,0,37,0,58,12c0,0,22,11,31,29c0,0,9,18,9,60v55H736V284H602v67c0,0,0,29,-5,43c0,0,-7,18,-19,29c0,0,-12,11,-27,15c0,0,-15,5,-55,5H438V224c0,0,0,-39,7,-53c0,0,6,-14,21,-21c0,0,15,-6,58,-6h42V0Z" 
id="f0_16"
transform="scale(0.001,-0.001)" />

<path d="M42,0V144H70c0,0,45,0,58,5c0,0,13,6,19,18c0,0,6,13,6,55V888H42v144c0,0,133,9,276,63h72V222c0,0,0,-44,4,-52c0,0,5,-15,23,-22c0,0,11,-4,60,-4h27V0Z" 
id="f0_28"
transform="scale(0.001,-0.001)" />

<path d="M469,144c0,0,66,0,113,55c0,0,47,56,47,172c0,0,0,114,-44,170c0,0,-43,57,-111,57c0,0,-43,0,-80,-25c0,0,-37,-25,-58,-74c0,0,-20,-49,-20,-125c0,0,0,-78,20,-130c0,0,20,-51,55,-76c0,0,36,-24,78,-24Zm5,-161c0,0,-193,0,-307,109C167,92,57,196,57,374c0,0,0,117,50,201c0,0,50,85,146,136c0,0,95,51,218,51c0,0,127,0,222,-50c0,0,95,-50,146,-136c0,0,51,-86,51,-202c0,0,0,-174,-113,-283C777,91,663,-17,474,-17Z" 
id="f0_2b"
transform="scale(0.001,-0.001)" />

<path d="M299,0L103,533c0,0,-10,28,-25,47c0,0,-9,12,-20,16c0,0,-10,4,-46,4V744H407V600H390c0,0,-28,0,-36,-6c0,0,-11,-7,-11,-20c0,0,0,-11,7,-32L455,221l90,251l-24,70c0,0,-11,32,-26,44c0,0,-15,13,-45,14V744H825V600H794c0,0,-25,0,-35,-7c0,0,-10,-8,-10,-22c0,0,0,-13,9,-39L848,264l92,269c0,0,9,26,9,39c0,0,0,14,-11,21c0,0,-11,7,-45,7H876V744h335V600c0,0,-36,0,-47,-4c0,0,-11,-5,-20,-14c0,0,-10,-14,-23,-49L920,0H723L611,299L499,0Z" 
id="f0_2j"
transform="scale(0.001,-0.001)" />

<path d="M567,-17c0,0,-83,0,-152,21c0,0,-70,21,-145,71L237,0H126L52,404l140,33c0,0,49,-123,153,-205c0,0,104,-82,228,-82c0,0,56,0,93,14c0,0,37,14,56,39c0,0,18,25,18,52c0,0,0,45,-43,77c0,0,-44,32,-154,63L369,446c0,0,-40,11,-107,42c0,0,-68,31,-104,64c0,0,-36,34,-60,86c0,0,-24,53,-24,111c0,0,0,83,46,153c0,0,46,69,138,113c0,0,92,43,204,43c0,0,135,0,244,-70l29,52H842L932,692L792,652c0,0,-69,125,-157,183c0,0,-88,58,-187,58c0,0,-64,0,-101,-26c0,0,-37,-27,-37,-59c0,0,0,-36,34,-67c0,0,32,-32,121,-56L665,626c0,0,166,-47,237,-126c0,0,70,-80,70,-186c0,0,0,-135,-107,-229C865,85,745,-17,567,-17Z" 
id="f0_1j"
transform="scale(0.001,-0.001)" />

<path d="M63,0V144h41c0,0,37,0,47,5c0,0,10,4,15,16c0,0,5,12,5,46V888H63v144c0,0,61,3,139,21c0,0,77,17,139,42h70V680c0,0,73,45,130,63c0,0,57,19,110,19c0,0,71,0,126,-30c0,0,56,-31,82,-76c0,0,26,-46,26,-122V223c0,0,0,-45,4,-55c0,0,6,-14,22,-21c0,0,10,-3,53,-3h35V0H560V144h23c0,0,32,0,43,6c0,0,12,6,17,16c0,0,4,11,4,53V476c0,0,0,51,-6,67c0,0,-6,17,-23,28c0,0,-16,11,-41,11c0,0,-35,0,-73,-14c0,0,-38,-15,-93,-53V219c0,0,0,-42,4,-53c0,0,5,-10,17,-16c0,0,13,-6,47,-6h17V0Z" 
id="f0_24"
transform="scale(0.001,-0.001)" />

<path d="M583,491c0,0,-5,45,-22,71c0,0,-16,25,-43,41c0,0,-27,15,-57,15c0,0,-32,0,-61,-16c0,0,-29,-15,-47,-42c0,0,-17,-27,-23,-69ZM457,-17c0,0,-170,0,-286,115C171,98,55,213,55,376c0,0,0,107,52,196c0,0,52,89,145,139c0,0,92,51,209,51c0,0,75,0,136,-22c0,0,61,-22,107,-62c0,0,46,-40,73,-97c0,0,28,-57,39,-118c0,0,4,-31,4,-97H319c0,0,1,-95,55,-153c0,0,54,-58,133,-58c0,0,50,0,109,30c0,0,58,30,116,91L834,173C834,173,746,73,655,27c0,0,-92,-44,-198,-44Z" 
id="f0_21"
transform="scale(0.001,-0.001)" />

<path d="M435,-11c0,0,-70,0,-123,17c0,0,-53,17,-91,50c0,0,-37,32,-52,69c0,0,-15,36,-15,105V585H43V728c0,0,60,20,102,56c0,0,42,36,68,87c0,0,26,51,35,129H392V744H633V585H392V326c0,0,0,-88,9,-113c0,0,10,-25,35,-39c0,0,34,-20,77,-20c0,0,77,0,153,49V44C666,44,601,13,548,1c0,0,-52,-12,-113,-12Z" 
id="f0_2g"
transform="scale(0.001,-0.001)" />

<path d="M61,0V144H97c0,0,45,0,55,4c0,0,9,5,14,16c0,0,5,12,5,57V587H61V744H171v78c0,0,0,83,29,133c0,0,35,62,111,101c0,0,76,39,182,39c0,0,112,0,175,-47c0,0,63,-48,63,-105c0,0,0,-46,-28,-74c0,0,-29,-29,-76,-29c0,0,-19,0,-36,6c0,0,-18,5,-33,16c0,0,-12,8,-39,38c0,0,-25,28,-34,33c0,0,-11,7,-21,7c0,0,-26,0,-41,-24c0,0,-14,-24,-14,-94V744H530V587H409V221c0,0,0,-44,3,-53c0,0,6,-12,18,-18c0,0,11,-6,49,-6h41V0Z" 
id="f0_22"
transform="scale(0.001,-0.001)" />

<path d="M65,0V144h38c0,0,41,0,51,4c0,0,10,5,16,16c0,0,5,11,5,50V556H65L64,699c0,0,122,8,253,63h70V654c0,0,60,62,104,85c0,0,44,23,84,23c0,0,37,0,66,-17c0,0,28,-17,45,-48c0,0,17,-32,17,-67c0,0,0,-47,-31,-85c0,0,-31,-38,-87,-38c0,0,-15,0,-27,2c0,0,-11,2,-49,15c0,0,-19,6,-32,6c0,0,-19,0,-64,-25V214c0,0,0,-37,5,-49c0,0,6,-11,18,-16c0,0,13,-5,55,-5h33V0Z" 
id="f0_2e"
transform="scale(0.001,-0.001)" />

<path d="M59,0V144H85c0,0,52,0,70,7c0,0,18,8,25,26c0,0,4,11,4,64V808c0,0,0,46,-7,60c0,0,-6,14,-19,22c0,0,-14,7,-53,7H59v143H928L1046,712L911,663c0,0,-34,81,-80,130c0,0,-46,49,-102,65c0,0,-55,16,-129,16H441V615h52c0,0,59,0,80,9c0,0,20,8,29,26c0,0,9,19,9,73v40H744V322H611v45c0,0,0,45,-11,66c0,0,-11,21,-29,29c0,0,-19,7,-83,7H441V230c0,0,0,-38,4,-47c0,0,3,-8,14,-12c0,0,11,-5,47,-5h87c0,0,98,0,165,28c0,0,67,28,120,91c0,0,53,63,81,149l136,-47L959,0Z" 
id="f0_15"
transform="scale(0.001,-0.001)" />

<path d="M-3,0V144c0,0,2,0,4,0c9,0,33,0,48,4c0,0,19,5,33,16c0,0,15,10,40,40L290,397L149,552c0,0,-27,29,-49,39c0,0,-22,9,-66,9V744H487V600c0,0,-36,0,-46,-6c0,0,-10,-6,-10,-18c0,0,0,-11,20,-39l65,-89l65,89c0,0,21,28,21,41c0,0,0,12,-9,17c0,0,-9,5,-54,5V744H886V600c0,0,-45,0,-66,-9c0,0,-21,-9,-47,-39L627,383L785,212c0,0,41,-44,65,-56c0,0,24,-12,71,-12V0H444V144h26c0,0,32,0,42,6c0,0,10,6,10,15c0,0,0,10,-23,39L400,332L311,212c0,0,-27,-37,-27,-47c0,0,0,-10,8,-16c0,0,9,-5,39,-5h32V0Z" 
id="f0_2k"
transform="scale(0.001,-0.001)" />

<path d="M379,147c0,0,24,0,57,12c0,0,32,13,72,38V328c0,0,-97,-15,-137,-29c0,0,-40,-15,-58,-37c0,0,-17,-22,-17,-45c0,0,0,-30,23,-50c0,0,22,-20,60,-20ZM287,-11c0,0,-107,0,-172,59c0,0,-66,60,-66,148c0,0,0,50,23,92c0,0,22,42,68,73c0,0,45,32,139,56c0,0,94,24,229,35v55c0,0,0,48,-8,67c0,0,-8,19,-29,31c0,0,-22,12,-54,12c0,0,-25,0,-45,-8c0,0,-20,-8,-32,-21c0,0,-11,-13,-27,-49c0,0,-20,-46,-48,-66c0,0,-28,-20,-66,-20c0,0,-48,0,-78,29c0,0,-31,30,-31,74c0,0,0,50,31,89c0,0,42,51,125,84c0,0,82,33,186,33c0,0,104,0,176,-34c0,0,73,-33,102,-80c0,0,28,-47,28,-142V239c0,0,0,-49,5,-63c0,0,6,-13,23,-24c0,0,17,-10,38,-10c0,0,20,0,55,12V8c0,0,-63,-19,-121,-19c0,0,-69,0,-117,22c0,0,-49,22,-81,67C540,78,465,29,404,9c0,0,-61,-20,-117,-20Z" 
id="f0_1x"
transform="scale(0.001,-0.001)" />

<path d="M461,-17c0,0,-172,0,-288,112C173,95,57,207,57,369c0,0,0,110,54,200c0,0,54,91,148,142c0,0,94,51,222,51c0,0,154,0,251,-72c0,0,97,-71,97,-150c0,0,0,-34,-15,-60c0,0,-15,-27,-47,-43c0,0,-31,-17,-66,-17c0,0,-28,0,-51,12c0,0,-22,11,-37,28c0,0,-7,7,-26,46c0,0,-24,49,-38,64c0,0,-13,16,-32,25c0,0,-19,8,-42,8c0,0,-39,0,-74,-25c0,0,-36,-25,-59,-75c0,0,-22,-51,-22,-113c0,0,0,-69,27,-123c0,0,26,-55,71,-83c0,0,46,-29,100,-29c0,0,52,0,105,29c0,0,53,28,114,98L847,186C847,186,759,79,664,31c0,0,-95,-48,-203,-48Z" 
id="f0_1z"
transform="scale(0.001,-0.001)" />

<path d="M59,0V144H98c0,0,39,0,50,4c0,0,11,4,16,14c0,0,5,9,5,38V556H59V696c0,0,59,3,113,13c0,0,54,10,96,23c0,0,28,9,68,30h71V211c0,0,0,-40,4,-49c0,0,5,-9,16,-13c0,0,12,-5,52,-5h40V0ZM286,820c0,0,-57,0,-97,40c0,0,-39,40,-39,97c0,0,0,56,41,96c0,0,41,41,95,41c0,0,57,0,97,-40c0,0,39,-40,39,-96c0,0,0,-58,-39,-98c0,0,-40,-40,-97,-40Z" 
id="f0_25"
transform="scale(0.001,-0.001)" />

<path d="M67,0V144H89c0,0,52,0,64,4c0,0,12,5,19,16c0,0,6,11,6,44V554H67V698c0,0,134,17,251,64h69V663c0,0,85,57,145,78c0,0,60,21,122,21c0,0,73,0,128,-31c0,0,56,-30,81,-76c0,0,26,-46,26,-130V215c0,0,0,-40,5,-51c0,0,6,-11,18,-17c0,0,9,-3,54,-3h36V0H564V144c0,0,50,0,56,2c0,0,19,5,25,17c0,0,6,12,6,51V487c0,0,0,53,-11,69c0,0,-18,26,-57,26c0,0,-32,0,-69,-14c0,0,-36,-14,-98,-58V214c0,0,0,-48,10,-59c0,0,11,-11,51,-11h24V0Z" 
id="f0_2a"
transform="scale(0.001,-0.001)" />

<path d="M63,0V144h49c0,0,31,0,46,8c0,0,16,8,23,22c0,0,7,14,7,48V812c0,0,0,37,-7,53c0,0,-7,17,-20,24c0,0,-13,8,-44,8H63v143H570V897H526c0,0,-37,0,-47,-4c0,0,-18,-8,-26,-23c0,0,-8,-15,-8,-49V226c0,0,0,-36,3,-44c0,0,4,-8,14,-13c0,0,10,-5,40,-5c0,0,100,0,161,26c0,0,61,27,110,84c0,0,49,58,84,158L994,385L857,0Z" 
id="f0_1c"
transform="scale(0.001,-0.001)" />

<path d="M463,160c0,0,26,0,49,9c0,0,24,9,81,44V463c0,0,0,47,-7,66c0,0,-9,28,-41,49c0,0,-32,20,-71,20c0,0,-41,0,-75,-24c0,0,-35,-24,-55,-74c0,0,-20,-50,-20,-124c0,0,0,-104,45,-166c0,0,36,-50,94,-50ZM389,-17c0,0,-86,0,-158,46c0,0,-72,47,-118,138c0,0,-46,92,-46,204c0,0,0,113,47,205c0,0,47,92,122,139c0,0,75,47,168,47c0,0,48,0,92,-12c0,0,43,-11,97,-40V888H484v144c0,0,92,9,150,22c0,0,57,14,124,41h72V227c0,0,0,-51,5,-62c0,0,4,-11,15,-16c0,0,11,-5,57,-5h35V0L618,-10V66C618,66,548,19,495,1c0,0,-53,-18,-106,-18Z" 
id="f0_20"
transform="scale(0.001,-0.001)" />

<path d="M73,0V144h29c0,0,47,0,58,5c0,0,12,4,18,17c0,0,6,12,6,54V554H73V698c0,0,137,13,253,64h70V663c0,0,65,49,132,74c0,0,67,25,136,25c0,0,44,0,85,-13c0,0,41,-13,68,-34c0,0,27,-21,49,-57c0,0,73,55,139,79c0,0,66,25,135,25c0,0,60,0,108,-22c0,0,49,-22,79,-58c0,0,30,-37,39,-81c0,0,6,-26,6,-78V215c0,0,0,-38,5,-50c0,0,6,-11,19,-17c0,0,10,-4,55,-4h32V0H1049V144c0,0,48,0,61,5c0,0,12,4,18,15c0,0,6,11,6,48V483c0,0,0,47,-6,62c0,0,-7,15,-25,26c0,0,-18,11,-44,11c0,0,-29,0,-63,-13c0,0,-33,-13,-99,-57V220c0,0,0,-43,6,-55c0,0,5,-11,20,-17c0,0,9,-4,59,-4V0H574V144c0,0,51,0,62,5c0,0,11,4,17,16c0,0,6,12,6,55V475c0,0,0,58,-10,78c0,0,-17,29,-59,29c0,0,-21,0,-44,-5c0,0,-23,-6,-46,-17c0,0,-12,-6,-61,-38L421,510V220c0,0,0,-42,5,-52c0,0,4,-11,17,-18c0,0,13,-6,45,-6h20V0Z" 
id="f0_29"
transform="scale(0.001,-0.001)" />

<path d="M433,0L117,807c0,0,-20,49,-30,62c0,0,-11,14,-30,21c0,0,-16,7,-49,7c-2,0,-4,0,-6,0v143H497V897H481c0,0,-47,0,-60,-4c0,0,-13,-4,-22,-16c0,0,-9,-12,-9,-24c0,0,0,-16,17,-65L591,271L787,802c0,0,15,39,15,54c0,0,0,21,-14,31c0,0,-14,10,-60,10H696v143h403V897c0,0,-50,0,-67,-12c0,0,-26,-17,-52,-83L668,0Z" 
id="f0_1m"
transform="scale(0.001,-0.001)" />

<path d="M384,-17c0,0,-54,0,-99,17c0,0,-45,17,-75,47c0,0,-31,29,-46,69c0,0,-14,39,-14,101V524c0,0,0,43,-5,54c0,0,-5,11,-16,17c0,0,-12,5,-49,5H39V744l348,7V268c0,0,0,-52,7,-69c0,0,6,-17,23,-28c0,0,16,-11,42,-11c0,0,37,0,79,18c0,0,16,8,87,53V521c0,0,0,38,-6,53c0,0,-6,14,-17,20c0,0,-12,6,-44,6H514V744l350,7V218c0,0,0,-42,5,-53c0,0,5,-11,16,-15c0,0,11,-5,51,-5h40V0L648,-8V79C648,79,583,31,517,7c0,0,-66,-24,-133,-24Z" 
id="f0_2h"
transform="scale(0.001,-0.001)" />

<path d="M456,-17c0,0,-117,0,-203,58L232,0H133L41,244l141,60c0,0,53,-82,130,-130c0,0,78,-47,143,-47c0,0,40,0,68,19c0,0,21,15,21,35c0,0,0,17,-17,32c0,0,-16,16,-72,35L294,304c0,0,-133,47,-181,100c0,0,-48,54,-48,127c0,0,0,94,75,158c0,0,86,73,212,73c0,0,111,0,191,-51l20,33h97L721,537L580,480c0,0,-40,65,-101,102c0,0,-61,37,-121,37c0,0,-40,0,-59,-14c0,0,-19,-13,-19,-32c0,0,0,-15,13,-29c0,0,14,-13,58,-28L556,443c0,0,54,-20,104,-49c0,0,50,-29,75,-71c0,0,25,-42,25,-99c0,0,0,-101,-78,-166c0,0,-91,-75,-226,-75Z" 
id="f0_2f"
transform="scale(0.001,-0.001)" />

<path d="M579,-17c0,0,-147,0,-266,70c0,0,-119,70,-189,197c0,0,-71,127,-71,277c0,0,0,149,69,271c0,0,69,123,187,191c0,0,119,69,265,69c0,0,149,0,260,-62l25,44H965L1067,667L928,627c0,0,-69,133,-130,189c0,0,-85,77,-185,77c0,0,-72,0,-135,-41c0,0,-63,-40,-100,-118c0,0,-37,-78,-37,-183c0,0,0,-161,85,-276c0,0,85,-116,222,-116c0,0,87,0,168,50c0,0,100,62,173,167l116,-86C1105,290,992,136,899,76c0,0,-144,-93,-320,-93Z" 
id="f0_13"
transform="scale(0.001,-0.001)" />

<path d="M515,151c0,0,60,0,100,55c0,0,40,56,40,170c0,0,0,106,-35,157c0,0,-34,51,-85,51c0,0,-58,0,-129,-55V287c0,0,0,-57,11,-81c0,0,10,-25,37,-40c0,0,26,-15,61,-15ZM58,-331v143H83c0,0,51,0,62,4c0,0,11,5,17,18c0,0,6,13,6,53V553H58V698c0,0,80,10,136,24c0,0,57,14,115,40h69V679c0,0,85,52,130,67c0,0,46,16,97,16c0,0,130,0,212,-96c0,0,94,-111,94,-282c0,0,0,-164,-82,-274c0,0,-94,-127,-252,-127c0,0,-50,0,-88,12c0,0,-38,11,-83,41V-113c0,0,0,-45,4,-54c0,0,5,-11,17,-16c0,0,12,-5,58,-5h35V-331Z" 
id="f0_2c"
transform="scale(0.001,-0.001)" />

<path d="M59,0V144h42c0,0,39,0,54,7c0,0,15,7,22,22c0,0,7,15,7,57V813c0,0,0,40,-5,52c0,0,-7,17,-21,24c0,0,-13,8,-42,8H59v143H530L711,408l185,632h481V897h-52c0,0,-41,0,-57,-18c0,0,-16,-17,-16,-66V222c0,0,0,-39,4,-48c0,0,7,-15,19,-21c0,0,16,-9,43,-9h59V0H876V144h39c0,0,42,0,57,6c0,0,15,7,22,21c0,0,7,14,7,51V862L748,0H604L359,835V202c0,0,0,-22,8,-34c0,0,8,-12,22,-18c0,0,15,-6,47,-6h50V0Z" 
id="f1_1d"
transform="scale(0.001,-0.001)" />

<path d="M59,0V144H85c0,0,52,0,70,7c0,0,18,8,25,26c0,0,4,11,4,64V808c0,0,0,46,-7,60c0,0,-6,14,-19,22c0,0,-14,7,-53,7H59v143H928L1046,712L911,663c0,0,-34,81,-80,130c0,0,-46,49,-102,65c0,0,-55,16,-129,16H441V615h52c0,0,59,0,80,9c0,0,20,8,29,26c0,0,9,19,9,73v40H744V322H611v45c0,0,0,45,-11,66c0,0,-11,21,-29,29c0,0,-19,7,-83,7H441V230c0,0,0,-38,4,-47c0,0,3,-8,14,-12c0,0,11,-5,47,-5h87c0,0,98,0,165,28c0,0,67,28,120,91c0,0,53,63,81,149l136,-47L959,0Z" 
id="f1_15"
transform="scale(0.001,-0.001)" />

<path d="M280,0V144h30c0,0,51,0,66,6c0,0,14,6,21,22c0,0,8,17,8,67V851c0,0,0,26,-6,33c0,0,-6,7,-26,7c0,0,-38,0,-86,-29c0,0,-48,-29,-85,-82c0,0,-15,-21,-63,-118L2,711l128,365h99l10,-36H826l13,36h99L1067,711L928,662c0,0,-46,91,-66,119c0,0,-40,55,-92,86c0,0,-38,24,-77,24c0,0,-18,0,-24,-9c0,0,-7,-8,-7,-39V244c0,0,0,-53,4,-66c0,0,3,-13,12,-21c0,0,9,-8,25,-11c0,0,16,-2,84,-2V0Z" 
id="f1_1k"
transform="scale(0.001,-0.001)" />

<path d="M610,480L509,765L404,480ZM2,0V144c0,0,39,0,56,6c0,0,18,7,30,21c0,0,11,13,25,49l322,820H669L981,237c0,0,25,-64,45,-79c0,0,19,-14,68,-14c2,0,3,0,5,0V0H606V144h30c0,0,41,0,58,11c0,0,16,11,16,27c0,0,0,13,-14,55l-32,94H349L310,226c0,0,-12,-33,-12,-44c0,0,0,-11,8,-21c0,0,9,-10,28,-14c0,0,13,-3,71,-3V0Z" 
id="f1_11"
transform="scale(0.001,-0.001)" />

<path d="M63,0V144h49c0,0,31,0,46,8c0,0,16,8,23,22c0,0,7,14,7,48V812c0,0,0,37,-7,53c0,0,-7,17,-20,24c0,0,-13,8,-44,8H63v143H570V897H526c0,0,-37,0,-47,-4c0,0,-18,-8,-26,-23c0,0,-8,-15,-8,-49V226c0,0,0,-36,3,-44c0,0,4,-8,14,-13c0,0,10,-5,40,-5c0,0,100,0,161,26c0,0,61,27,110,84c0,0,49,58,84,158L994,385L857,0Z" 
id="f1_1c"
transform="scale(0.001,-0.001)" />

<path d="M561,-17c0,0,-97,0,-173,29c0,0,-76,29,-133,84c0,0,-57,55,-80,116c0,0,-22,61,-22,181V794c0,0,0,56,-6,72c0,0,-6,16,-20,23c0,0,-13,8,-52,8H27v143H536V897H486c0,0,-35,0,-49,-9c0,0,-15,-8,-22,-23c0,0,-6,-15,-6,-62V424c0,0,0,-106,21,-158c0,0,21,-52,64,-79c0,0,43,-28,105,-28c0,0,61,0,109,30c0,0,48,30,68,76c0,0,21,46,21,152V834c0,0,0,26,-7,37c0,0,-9,15,-24,21c0,0,-10,5,-53,5H673v143h429V897h-34c0,0,-49,0,-61,-6c0,0,-18,-9,-26,-26c0,0,-6,-12,-6,-62V393c0,0,0,-114,-33,-191C942,202,896,98,797,40c0,0,-100,-57,-236,-57Z" 
id="f1_1l"
transform="scale(0.001,-0.001)" />

<path d="M593,600c0,0,92,0,137,17c0,0,45,17,68,48c0,0,22,31,22,76c0,0,0,41,-21,71c0,0,-21,29,-60,43c0,0,-40,14,-128,14H439V600ZM55,0V144h46c0,0,37,0,52,8c0,0,16,7,23,23c0,0,4,9,4,56V816c0,0,0,35,-6,49c0,0,-5,15,-18,19c0,0,-18,8,-41,8H55v148H697c0,0,62,0,135,-11c0,0,74,-11,133,-49c0,0,60,-38,92,-96c0,0,33,-59,33,-132c0,0,0,-118,-84,-192c0,0,-85,-73,-201,-96L1019,215l9,-11c0,0,21,-25,38,-38c0,0,17,-12,34,-17c0,0,18,-5,48,-5h45V0H859L526,448H439V241c0,0,0,-54,6,-69c0,0,6,-14,19,-21c0,0,13,-7,52,-7h48V0Z" 
id="f1_1i"
transform="scale(0.001,-0.001)" />

<path d="M568,-17c0,0,-143,0,-260,69c0,0,-117,69,-185,193c0,0,-68,125,-68,279c0,0,0,153,67,274c0,0,68,121,189,190c0,0,121,70,263,70c0,0,68,0,136,-17c0,0,69,-18,117,-47l28,46H959l94,-344L916,651c0,0,-71,113,-111,154c0,0,-41,41,-94,65c0,0,-52,23,-102,23c0,0,-71,0,-133,-41c0,0,-61,-41,-97,-120c0,0,-36,-79,-36,-191c0,0,0,-123,39,-213c0,0,40,-90,103,-134c0,0,64,-43,140,-43c0,0,53,0,102,21c0,0,48,22,66,49c0,0,18,26,18,72v38c0,0,0,39,-6,49c0,0,-8,15,-22,22c0,0,-13,7,-53,7H671V554h507V409h-38c0,0,-37,0,-51,-7c0,0,-14,-7,-20,-21c0,0,-7,-15,-7,-56V0H909L870,75C870,75,799,28,724,5c0,0,-75,-22,-156,-22Z" 
id="f1_17"
transform="scale(0.001,-0.001)" />

<path d="M280,0V144h27c0,0,54,0,69,7c0,0,15,7,23,24c0,0,8,16,8,67V405L129,827c0,0,-33,49,-57,61c0,0,-18,9,-71,9v143H518V897H479c0,0,-41,0,-51,-7c0,0,-11,-6,-11,-20c0,0,0,-20,24,-59L579,586L730,821c0,0,20,31,22,34c0,0,3,9,3,17c0,0,0,13,-8,19c0,0,-9,6,-40,6H653v143h416V897c0,0,-55,-1,-77,-13c0,0,-22,-12,-52,-57L663,422V236c0,0,0,-49,6,-64c0,0,7,-14,22,-21c0,0,15,-7,60,-7h37V0Z" 
id="f1_1p"
transform="scale(0.001,-0.001)" />


</defs>
</svg>