<?xml version="1.0" encoding="UTF-8" standalone="no"?>
<!DOCTYPE svg PUBLIC "-//W3C//DTD SVG 1.1//EN"
"http://www.w3.org/Graphics/SVG/1.1/DTD/svg11.dtd">
<svg viewBox="0 0 909 1286" version="1.1" xmlns="http://www.w3.org/2000/svg" xmlns:xlink="http://www.w3.org/1999/xlink">
<defs>
<style type="text/css"><![CDATA[
.g0_101{
fill: #FFFFFF;
}
.g1_101{
}
.g2_101{
fill: #009900;
fill-opacity: 0.4;
}
]]></style>
</defs>
<path fill-rule="evenodd" d="M53.9,69.5H856.2V97.9H53.9V69.5l1.5,26.8H854.5V71H55.4V96.3L53.9,69.5Z" class="g0_101" />
<g fill="#000000" >
<use xlink:href="#f0_13" transform="matrix(10,0,0,10,610,87.6)" />
<use xlink:href="#f0_1f" transform="matrix(10,0,0,10,620.8,87.6)" />
<use xlink:href="#f0_h" transform="matrix(10,0,0,10,633.1,87.6)" />
<use xlink:href="#f0_1f" transform="matrix(10,0,0,10,638.2,87.6)" />
<use xlink:href="#f0_1i" transform="matrix(10,0,0,10,650.3,87.6)" />
<use xlink:href="#f0_14" transform="matrix(10,0,0,10,662,87.6)" />
<use xlink:href="#f0_19" transform="matrix(10,0,0,10,673.8,87.6)" />
<use xlink:href="#f0_1e" transform="matrix(10,0,0,10,680,87.6)" />
<use xlink:href="#f0_11" transform="matrix(10,0,0,10,690.8,87.6)" />
<use xlink:href="#f0_1k" transform="matrix(10,0,0,10,701.6,87.6)" />
<use xlink:href="#f0_19" transform="matrix(10,0,0,10,712.3,87.6)" />
<use xlink:href="#f0_1f" transform="matrix(10,0,0,10,718.3,87.6)" />
<use xlink:href="#f0_1e" transform="matrix(10,0,0,10,730.1,87.6)" />
<use xlink:href="#f0_13" transform="matrix(10,0,0,10,745.1,87.6)" />
<use xlink:href="#f0_1f" transform="matrix(10,0,0,10,756.1,87.6)" />
<use xlink:href="#f0_1d" transform="matrix(10,0,0,10,768.2,87.6)" />
<use xlink:href="#f0_1g" transform="matrix(10,0,0,10,782.1,87.6)" />
<use xlink:href="#f0_1f" transform="matrix(10,0,0,10,792.4,87.6)" />
<use xlink:href="#f0_1l" transform="matrix(10,0,0,10,804.3,87.6)" />
<use xlink:href="#f0_1e" transform="matrix(10,0,0,10,815.1,87.6)" />
<use xlink:href="#f0_14" transform="matrix(10,0,0,10,826.5,87.6)" />
<use xlink:href="#f0_1j" transform="matrix(10,0,0,10,838.2,87.6)" />
</g>
<path fill-rule="evenodd" d="M55.2,94.6H854.7v3.1H55.2V94.6Z" class="g1_101" />
<path fill-rule="evenodd" d="M55.2,69.7H854.7v3.1H55.2V69.7Z" class="g1_101" />
<path fill-rule="evenodd" d="M57.1,1199.4H854.9v2.3H57.1v-2.3Z" class="g1_101" />
<path fill-rule="evenodd" d="M453.8,1198.4V109.8h1.6V1198.4h-1.6Z" class="g1_101" />
<g fill="#000000" >
<use xlink:href="#f1_23" transform="matrix(10,0,0,10,89.1,123.4)" />
<use xlink:href="#f1_21" transform="matrix(10,0,0,10,97.4,123.4)" />
<use xlink:href="#f1_2b" transform="matrix(10,0,0,10,105.1,123.4)" />
<use xlink:href="#f1_29" transform="matrix(10,0,0,10,113.3,123.4)" />
<use xlink:href="#f1_21" transform="matrix(10,0,0,10,126,123.4)" />
<use xlink:href="#f1_2g" transform="matrix(10,0,0,10,133.3,123.4)" />
<use xlink:href="#f1_2e" transform="matrix(10,0,0,10,138.4,123.4)" />
<use xlink:href="#f1_25" transform="matrix(10,0,0,10,144.1,123.4)" />
<use xlink:href="#f1_1z" transform="matrix(10,0,0,10,149.2,123.4)" />
<use xlink:href="#f1_1x" transform="matrix(10,0,0,10,156.6,123.4)" />
<use xlink:href="#f1_28" transform="matrix(10,0,0,10,164.3,123.4)" />
<use xlink:href="#f1_25" transform="matrix(10,0,0,10,175.8,123.4)" />
<use xlink:href="#f1_2f" transform="matrix(10,0,0,10,180.6,123.4)" />
<use xlink:href="#f1_2b" transform="matrix(10,0,0,10,187.4,123.4)" />
<use xlink:href="#f1_29" transform="matrix(10,0,0,10,195.8,123.4)" />
<use xlink:href="#f1_21" transform="matrix(10,0,0,10,208.1,123.4)" />
<use xlink:href="#f1_2e" transform="matrix(10,0,0,10,215.4,123.4)" />
<use xlink:href="#f1_2f" transform="matrix(10,0,0,10,221.5,123.4)" />
<use xlink:href="#f1_1x" transform="matrix(10,0,0,10,234.9,123.4)" />
<use xlink:href="#f1_2a" transform="matrix(10,0,0,10,242.4,123.4)" />
<use xlink:href="#f1_20" transform="matrix(10,0,0,10,250.5,123.4)" />
<use xlink:href="#f1_2g" transform="matrix(10,0,0,10,265.5,123.4)" />
<use xlink:href="#f1_24" transform="matrix(10,0,0,10,270.3,123.4)" />
<use xlink:href="#f1_21" transform="matrix(10,0,0,10,278.7,123.4)" />
<use xlink:href="#f1_2c" transform="matrix(10,0,0,10,293,123.4)" />
<use xlink:href="#f1_24" transform="matrix(10,0,0,10,301.4,123.4)" />
<use xlink:href="#f1_21" transform="matrix(10,0,0,10,309.5,123.4)" />
<use xlink:href="#f1_2a" transform="matrix(10,0,0,10,317.2,123.4)" />
<use xlink:href="#f1_2b" transform="matrix(10,0,0,10,325.4,123.4)" />
<use xlink:href="#f1_29" transform="matrix(10,0,0,10,333.7,123.4)" />
<use xlink:href="#f1_21" transform="matrix(10,0,0,10,346.2,123.4)" />
<use xlink:href="#f1_2a" transform="matrix(10,0,0,10,353.5,123.4)" />
<use xlink:href="#f1_2b" transform="matrix(10,0,0,10,362.1,123.4)" />
<use xlink:href="#f1_2a" transform="matrix(10,0,0,10,370.4,123.4)" />
<use xlink:href="#f1_25" transform="matrix(10,0,0,10,385.2,123.4)" />
<use xlink:href="#f1_2f" transform="matrix(10,0,0,10,390,123.4)" />
<use xlink:href="#f1_1z" transform="matrix(10,0,0,10,403.4,123.4)" />
<use xlink:href="#f1_1x" transform="matrix(10,0,0,10,410.7,123.4)" />
<use xlink:href="#f1_28" transform="matrix(10,0,0,10,418.6,123.4)" />
<use xlink:href="#f1_28" transform="matrix(10,0,0,10,423.4,123.4)" />
<use xlink:href="#f1_21" transform="matrix(10,0,0,10,428.5,123.4)" />
<use xlink:href="#f1_20" transform="matrix(10,0,0,10,435.8,123.4)" />
<use xlink:href="#f1_23" transform="matrix(10,0,0,10,89.1,144.1)" />
<use xlink:href="#f1_21" transform="matrix(10,0,0,10,96.4,144.1)" />
<use xlink:href="#f1_2b" transform="matrix(10,0,0,10,103.2,144.1)" />
<use xlink:href="#f1_29" transform="matrix(10,0,0,10,110.7,144.1)" />
<use xlink:href="#f1_21" transform="matrix(10,0,0,10,121.9,144.1)" />
<use xlink:href="#f1_2g" transform="matrix(10,0,0,10,128.7,144.1)" />
<use xlink:href="#f1_2e" transform="matrix(10,0,0,10,132.7,144.1)" />
<use xlink:href="#f1_25" transform="matrix(10,0,0,10,137.5,144.1)" />
<use xlink:href="#f1_1z" transform="matrix(10,0,0,10,141.7,144.1)" />
<use xlink:href="#f1_1x" transform="matrix(10,0,0,10,148.1,144.1)" />
<use xlink:href="#f1_28" transform="matrix(10,0,0,10,154.9,144.1)" />
<use xlink:href="#f1_25" transform="matrix(10,0,0,10,161.7,144.1)" />
<use xlink:href="#f1_2f" transform="matrix(10,0,0,10,165.6,144.1)" />
<use xlink:href="#f1_2b" transform="matrix(10,0,0,10,171.4,144.1)" />
<use xlink:href="#f1_29" transform="matrix(10,0,0,10,179,144.1)" />
<use xlink:href="#f1_21" transform="matrix(10,0,0,10,190.3,144.1)" />
<use xlink:href="#f1_2e" transform="matrix(10,0,0,10,196.7,144.1)" />
<use xlink:href="#f1_25" transform="matrix(10,0,0,10,201.9,144.1)" />
<use xlink:href="#f1_2f" transform="matrix(10,0,0,10,205.9,144.1)" />
<use xlink:href="#f1_29" transform="matrix(10,0,0,10,211.4,144.1)" />
<use xlink:href="#f1_i" transform="matrix(10,0,0,10,223,144.1)" />
<use xlink:href="#f2_l" transform="matrix(10,0,0,10,89.1,170.1)" />
<use xlink:href="#f2_k" transform="matrix(10,0,0,10,96.6,170.1)" />
<use xlink:href="#f2_i" transform="matrix(10,0,0,10,104.5,170.1)" />
<use xlink:href="#f2_m" transform="matrix(10,0,0,10,107.8,170.1)" />
<use xlink:href="#f2_i" transform="matrix(10,0,0,10,114.9,170.1)" />
<use xlink:href="#f2_l" transform="matrix(10,0,0,10,117.9,170.1)" />
<use xlink:href="#f2_i" transform="matrix(10,0,0,10,125,170.1)" />
<use xlink:href="#f2_l" transform="matrix(10,0,0,10,128.5,170.1)" />
<use xlink:href="#f2_17" transform="matrix(10,0,0,10,137.7,170.1)" />
<use xlink:href="#f2_21" transform="matrix(10,0,0,10,149.1,170.1)" />
<use xlink:href="#f2_2b" transform="matrix(10,0,0,10,155.3,170.1)" />
<use xlink:href="#f2_29" transform="matrix(10,0,0,10,162.4,170.1)" />
<use xlink:href="#f2_21" transform="matrix(10,0,0,10,174.2,170.1)" />
<use xlink:href="#f2_2g" transform="matrix(10,0,0,10,180.2,170.1)" />
<use xlink:href="#f2_2e" transform="matrix(10,0,0,10,184.8,170.1)" />
<use xlink:href="#f2_25" transform="matrix(10,0,0,10,191,170.1)" />
<use xlink:href="#f2_1z" transform="matrix(10,0,0,10,194.7,170.1)" />
<use xlink:href="#f2_1x" transform="matrix(10,0,0,10,200.8,170.1)" />
<use xlink:href="#f2_28" transform="matrix(10,0,0,10,207.7,170.1)" />
<use xlink:href="#f2_19" transform="matrix(10,0,0,10,213.8,170.1)" />
<use xlink:href="#f2_2f" transform="matrix(10,0,0,10,219.1,170.1)" />
<use xlink:href="#f2_2b" transform="matrix(10,0,0,10,224.4,170.1)" />
<use xlink:href="#f2_29" transform="matrix(10,0,0,10,231.6,170.1)" />
<use xlink:href="#f2_21" transform="matrix(10,0,0,10,243.1,170.1)" />
<use xlink:href="#f2_2e" transform="matrix(10,0,0,10,249.5,170.1)" />
<use xlink:href="#f2_25" transform="matrix(10,0,0,10,255.6,170.1)" />
<use xlink:href="#f2_2f" transform="matrix(10,0,0,10,259.3,170.1)" />
<use xlink:href="#f2_29" transform="matrix(10,0,0,10,264.6,170.1)" />
<use xlink:href="#f2_25" transform="matrix(10,0,0,10,278.3,170.1)" />
<use xlink:href="#f2_2a" transform="matrix(10,0,0,10,281.8,170.1)" />
<use xlink:href="#f2_2f" transform="matrix(10,0,0,10,292.2,170.1)" />
<use xlink:href="#f2_2d" transform="matrix(10,0,0,10,297.6,170.1)" />
<use xlink:href="#f2_2h" transform="matrix(10,0,0,10,305.1,170.1)" />
<use xlink:href="#f2_1x" transform="matrix(10,0,0,10,313,170.1)" />
<use xlink:href="#f2_2e" transform="matrix(10,0,0,10,320.1,170.1)" />
<use xlink:href="#f2_21" transform="matrix(10,0,0,10,326.5,170.1)" />
<use xlink:href="#f2_2c" transform="matrix(10,0,0,10,334.8,170.1)" />
<use xlink:href="#f2_28" transform="matrix(10,0,0,10,342.7,170.1)" />
<use xlink:href="#f2_1x" transform="matrix(10,0,0,10,346.3,170.1)" />
<use xlink:href="#f2_2a" transform="matrix(10,0,0,10,353.5,170.1)" />
<use xlink:href="#f2_1x" transform="matrix(10,0,0,10,361.4,170.1)" />
<use xlink:href="#f2_2e" transform="matrix(10,0,0,10,368.5,170.1)" />
<use xlink:href="#f2_1z" transform="matrix(10,0,0,10,376.9,170.1)" />
<use xlink:href="#f2_2b" transform="matrix(10,0,0,10,383.2,170.1)" />
<use xlink:href="#f2_29" transform="matrix(10,0,0,10,390.1,170.1)" />
<use xlink:href="#f2_2c" transform="matrix(10,0,0,10,401.9,170.1)" />
<use xlink:href="#f2_28" transform="matrix(10,0,0,10,409.7,170.1)" />
<use xlink:href="#f2_21" transform="matrix(10,0,0,10,413.4,170.1)" />
<use xlink:href="#f2_2k" transform="matrix(10,0,0,10,419.5,170.1)" />
<use xlink:href="#f2_21" transform="matrix(10,0,0,10,426.6,170.1)" />
<use xlink:href="#f2_2f" transform="matrix(10,0,0,10,432.9,170.1)" />
<use xlink:href="#f1_11" transform="matrix(10,0,0,10,89.1,196.5)" />
<use xlink:href="#f1_2f" transform="matrix(10,0,0,10,102.7,196.5)" />
<use xlink:href="#f1_2d" transform="matrix(10,0,0,10,108.7,196.5)" />
<use xlink:href="#f1_2h" transform="matrix(10,0,0,10,116,196.5)" />
<use xlink:href="#f1_1x" transform="matrix(10,0,0,10,123.7,196.5)" />
<use xlink:href="#f1_2e" transform="matrix(10,0,0,10,130.3,196.5)" />
<use xlink:href="#f1_21" transform="matrix(10,0,0,10,135.5,196.5)" />
<use xlink:href="#f1_2c" transform="matrix(10,0,0,10,144.7,196.5)" />
<use xlink:href="#f1_28" transform="matrix(10,0,0,10,152.3,196.5)" />
<use xlink:href="#f1_1x" transform="matrix(10,0,0,10,156.4,196.5)" />
<use xlink:href="#f1_2a" transform="matrix(10,0,0,10,163.2,196.5)" />
<use xlink:href="#f1_1x" transform="matrix(10,0,0,10,170.7,196.5)" />
<use xlink:href="#f1_2e" transform="matrix(10,0,0,10,177.3,196.5)" />
<use xlink:href="#f1_1z" transform="matrix(10,0,0,10,185.2,196.5)" />
<use xlink:href="#f1_2b" transform="matrix(10,0,0,10,192,196.5)" />
<use xlink:href="#f1_29" transform="matrix(10,0,0,10,199.3,196.5)" />
<use xlink:href="#f1_2c" transform="matrix(10,0,0,10,210.9,196.5)" />
<use xlink:href="#f1_28" transform="matrix(10,0,0,10,218.5,196.5)" />
<use xlink:href="#f1_21" transform="matrix(10,0,0,10,222.6,196.5)" />
<use xlink:href="#f1_2k" transform="matrix(10,0,0,10,229.4,196.5)" />
<use xlink:href="#f1_21" transform="matrix(10,0,0,10,236.9,196.5)" />
<use xlink:href="#f1_24" transform="matrix(10,0,0,10,246.2,196.5)" />
<use xlink:href="#f1_1x" transform="matrix(10,0,0,10,253.8,196.5)" />
<use xlink:href="#f1_2i" transform="matrix(10,0,0,10,260.5,196.5)" />
<use xlink:href="#f1_25" transform="matrix(10,0,0,10,267.9,196.5)" />
<use xlink:href="#f1_2a" transform="matrix(10,0,0,10,272.1,196.5)" />
<use xlink:href="#f1_23" transform="matrix(10,0,0,10,279.4,196.5)" />
<use xlink:href="#f1_2f" transform="matrix(10,0,0,10,289.9,196.5)" />
<use xlink:href="#f1_25" transform="matrix(10,0,0,10,295.4,196.5)" />
<use xlink:href="#f1_29" transform="matrix(10,0,0,10,299.6,196.5)" />
<use xlink:href="#f1_25" transform="matrix(10,0,0,10,311.1,196.5)" />
<use xlink:href="#f1_28" transform="matrix(10,0,0,10,315.2,196.5)" />
<use xlink:href="#f1_1x" transform="matrix(10,0,0,10,319.4,196.5)" />
<use xlink:href="#f1_2e" transform="matrix(10,0,0,10,326.2,196.5)" />
<use xlink:href="#f1_28" transform="matrix(10,0,0,10,333.7,196.5)" />
<use xlink:href="#f1_25" transform="matrix(10,0,0,10,337.9,196.5)" />
<use xlink:href="#f1_23" transform="matrix(10,0,0,10,342,196.5)" />
<use xlink:href="#f1_1x" transform="matrix(10,0,0,10,349.5,196.5)" />
<use xlink:href="#f1_2a" transform="matrix(10,0,0,10,356.3,196.5)" />
<use xlink:href="#f1_20" transform="matrix(10,0,0,10,363.6,196.5)" />
<use xlink:href="#f1_2f" transform="matrix(10,0,0,10,371.3,196.5)" />
<use xlink:href="#f1_1x" transform="matrix(10,0,0,10,379.7,196.5)" />
<use xlink:href="#f1_2g" transform="matrix(10,0,0,10,386.5,196.5)" />
<use xlink:href="#f1_1x" transform="matrix(10,0,0,10,393.4,196.5)" />
<use xlink:href="#f1_20" transform="matrix(10,0,0,10,400.2,196.5)" />
<use xlink:href="#f1_26" transform="matrix(10,0,0,10,407.7,196.5)" />
<use xlink:href="#f1_1x" transform="matrix(10,0,0,10,412.1,196.5)" />
<use xlink:href="#f1_1z" transform="matrix(10,0,0,10,418.6,196.5)" />
<use xlink:href="#f1_21" transform="matrix(10,0,0,10,425.5,196.5)" />
<use xlink:href="#f1_2a" transform="matrix(10,0,0,10,431.9,196.5)" />
<use xlink:href="#f1_2g" transform="matrix(10,0,0,10,439.6,196.5)" />
<use xlink:href="#f1_2c" transform="matrix(10,0,0,10,89.1,217.1)" />
<use xlink:href="#f1_2b" transform="matrix(10,0,0,10,97,217.1)" />
<use xlink:href="#f1_2f" transform="matrix(10,0,0,10,104.5,217.1)" />
<use xlink:href="#f1_25" transform="matrix(10,0,0,10,110.5,217.1)" />
<use xlink:href="#f1_2g" transform="matrix(10,0,0,10,114.8,217.1)" />
<use xlink:href="#f1_25" transform="matrix(10,0,0,10,118.8,217.1)" />
<use xlink:href="#f1_2b" transform="matrix(10,0,0,10,123,217.1)" />
<use xlink:href="#f1_2a" transform="matrix(10,0,0,10,130.7,217.1)" />
<use xlink:href="#f1_2f" transform="matrix(10,0,0,10,138.2,217.1)" />
<use xlink:href="#f1_c" transform="matrix(10,0,0,10,148.7,217.1)" />
<use xlink:href="#f1_t" transform="matrix(10,0,0,10,153.8,217.1)" />
<use xlink:href="#f1_k" transform="matrix(10,0,0,10,161.3,217.1)" />
<use xlink:href="#f1_4f" transform="matrix(10,0,0,10,169.2,217.1)" />
<use xlink:href="#f1_1x" transform="matrix(10,0,0,10,178.4,217.1)" />
<use xlink:href="#f1_2c" transform="matrix(10,0,0,10,189.8,217.1)" />
<use xlink:href="#f1_1x" transform="matrix(10,0,0,10,197.3,217.1)" />
<use xlink:href="#f1_2e" transform="matrix(10,0,0,10,204.2,217.1)" />
<use xlink:href="#f1_2g" transform="matrix(10,0,0,10,209.4,217.1)" />
<use xlink:href="#f1_d" transform="matrix(10,0,0,10,213.4,217.1)" />
<use xlink:href="#f1_25" transform="matrix(10,0,0,10,222.9,217.1)" />
<use xlink:href="#f1_2f" transform="matrix(10,0,0,10,227.2,217.1)" />
<use xlink:href="#f1_1z" transform="matrix(10,0,0,10,237.6,217.1)" />
<use xlink:href="#f1_1x" transform="matrix(10,0,0,10,244.4,217.1)" />
<use xlink:href="#f1_28" transform="matrix(10,0,0,10,251.2,217.1)" />
<use xlink:href="#f1_28" transform="matrix(10,0,0,10,255.4,217.1)" />
<use xlink:href="#f1_21" transform="matrix(10,0,0,10,259.6,217.1)" />
<use xlink:href="#f1_20" transform="matrix(10,0,0,10,266.4,217.1)" />
<use xlink:href="#f1_1z" transform="matrix(10,0,0,10,278.7,217.1)" />
<use xlink:href="#f1_25" transform="matrix(10,0,0,10,285.5,217.1)" />
<use xlink:href="#f1_2f" transform="matrix(10,0,0,10,289.7,217.1)" />
<use xlink:href="#f1_h" transform="matrix(10,0,0,10,299.8,217.1)" />
<use xlink:href="#f1_25" transform="matrix(10,0,0,10,309.1,217.1)" />
<use xlink:href="#f1_2f" transform="matrix(10,0,0,10,313.3,217.1)" />
<use xlink:href="#f1_2b" transform="matrix(10,0,0,10,319.2,217.1)" />
<use xlink:href="#f1_29" transform="matrix(10,0,0,10,327.1,217.1)" />
<use xlink:href="#f1_21" transform="matrix(10,0,0,10,338.6,217.1)" />
<use xlink:href="#f1_2e" transform="matrix(10,0,0,10,345.4,217.1)" />
<use xlink:href="#f1_2j" transform="matrix(10,0,0,10,354.8,217.1)" />
<use xlink:href="#f1_24" transform="matrix(10,0,0,10,365.6,217.1)" />
<use xlink:href="#f1_25" transform="matrix(10,0,0,10,372.9,217.1)" />
<use xlink:href="#f1_28" transform="matrix(10,0,0,10,377.1,217.1)" />
<use xlink:href="#f1_21" transform="matrix(10,0,0,10,381.4,217.1)" />
<use xlink:href="#f1_1x" transform="matrix(10,0,0,10,392.7,217.1)" />
<use xlink:href="#f1_2f" transform="matrix(10,0,0,10,403.9,217.1)" />
<use xlink:href="#f1_2d" transform="matrix(10,0,0,10,409.6,217.1)" />
<use xlink:href="#f1_2h" transform="matrix(10,0,0,10,417.4,217.1)" />
<use xlink:href="#f1_1x" transform="matrix(10,0,0,10,424.8,217.1)" />
<use xlink:href="#f1_2e" transform="matrix(10,0,0,10,431.8,217.1)" />
<use xlink:href="#f1_21" transform="matrix(10,0,0,10,436.9,217.1)" />
<use xlink:href="#f1_2c" transform="matrix(10,0,0,10,89.1,237.8)" />
<use xlink:href="#f1_28" transform="matrix(10,0,0,10,97.2,237.8)" />
<use xlink:href="#f1_1x" transform="matrix(10,0,0,10,101.6,237.8)" />
<use xlink:href="#f1_2a" transform="matrix(10,0,0,10,108.7,237.8)" />
<use xlink:href="#f1_1x" transform="matrix(10,0,0,10,116.2,237.8)" />
<use xlink:href="#f1_2e" transform="matrix(10,0,0,10,123.2,237.8)" />
<use xlink:href="#f1_1z" transform="matrix(10,0,0,10,134.8,237.8)" />
<use xlink:href="#f1_2b" transform="matrix(10,0,0,10,141.7,237.8)" />
<use xlink:href="#f1_29" transform="matrix(10,0,0,10,149.8,237.8)" />
<use xlink:href="#f1_2c" transform="matrix(10,0,0,10,161.5,237.8)" />
<use xlink:href="#f1_28" transform="matrix(10,0,0,10,169.2,237.8)" />
<use xlink:href="#f1_21" transform="matrix(10,0,0,10,173.6,237.8)" />
<use xlink:href="#f1_2k" transform="matrix(10,0,0,10,180.6,237.8)" />
<use xlink:href="#f1_24" transform="matrix(10,0,0,10,194.5,237.8)" />
<use xlink:href="#f1_1x" transform="matrix(10,0,0,10,202,237.8)" />
<use xlink:href="#f1_2i" transform="matrix(10,0,0,10,209.2,237.8)" />
<use xlink:href="#f1_25" transform="matrix(10,0,0,10,216.9,237.8)" />
<use xlink:href="#f1_2a" transform="matrix(10,0,0,10,221.1,237.8)" />
<use xlink:href="#f1_23" transform="matrix(10,0,0,10,228.8,237.8)" />
<use xlink:href="#f1_2g" transform="matrix(10,0,0,10,242.9,237.8)" />
<use xlink:href="#f1_2j" transform="matrix(10,0,0,10,247.3,237.8)" />
<use xlink:href="#f1_2b" transform="matrix(10,0,0,10,258.2,237.8)" />
<use xlink:href="#f1_2f" transform="matrix(10,0,0,10,271.7,237.8)" />
<use xlink:href="#f1_25" transform="matrix(10,0,0,10,278,237.8)" />
<use xlink:href="#f1_29" transform="matrix(10,0,0,10,282.4,237.8)" />
<use xlink:href="#f1_25" transform="matrix(10,0,0,10,294.1,237.8)" />
<use xlink:href="#f1_28" transform="matrix(10,0,0,10,298.5,237.8)" />
<use xlink:href="#f1_1x" transform="matrix(10,0,0,10,303.1,237.8)" />
<use xlink:href="#f1_2e" transform="matrix(10,0,0,10,310.2,237.8)" />
<use xlink:href="#f1_28" transform="matrix(10,0,0,10,321.6,237.8)" />
<use xlink:href="#f1_25" transform="matrix(10,0,0,10,326,237.8)" />
<use xlink:href="#f1_23" transform="matrix(10,0,0,10,330.2,237.8)" />
<use xlink:href="#f1_1x" transform="matrix(10,0,0,10,337.9,237.8)" />
<use xlink:href="#f1_2a" transform="matrix(10,0,0,10,345.1,237.8)" />
<use xlink:href="#f1_20" transform="matrix(10,0,0,10,353,237.8)" />
<use xlink:href="#f1_2f" transform="matrix(10,0,0,10,360.8,237.8)" />
<use xlink:href="#f1_1x" transform="matrix(10,0,0,10,372.6,237.8)" />
<use xlink:href="#f1_2g" transform="matrix(10,0,0,10,379.7,237.8)" />
<use xlink:href="#f1_2b" transform="matrix(10,0,0,10,390.4,237.8)" />
<use xlink:href="#f1_2c" transform="matrix(10,0,0,10,398.2,237.8)" />
<use xlink:href="#f1_2c" transform="matrix(10,0,0,10,405.9,237.8)" />
<use xlink:href="#f1_2b" transform="matrix(10,0,0,10,413.8,237.8)" />
<use xlink:href="#f1_2f" transform="matrix(10,0,0,10,421.9,237.8)" />
<use xlink:href="#f1_25" transform="matrix(10,0,0,10,428.1,237.8)" />
<use xlink:href="#f1_2g" transform="matrix(10,0,0,10,432.5,237.8)" />
<use xlink:href="#f1_21" transform="matrix(10,0,0,10,436.9,237.8)" />
<use xlink:href="#f1_2c" transform="matrix(10,0,0,10,89.1,258.3)" />
<use xlink:href="#f1_2b" transform="matrix(10,0,0,10,97,258.3)" />
<use xlink:href="#f1_2f" transform="matrix(10,0,0,10,104.5,258.3)" />
<use xlink:href="#f1_25" transform="matrix(10,0,0,10,110.5,258.3)" />
<use xlink:href="#f1_2g" transform="matrix(10,0,0,10,114.8,258.3)" />
<use xlink:href="#f1_25" transform="matrix(10,0,0,10,118.8,258.3)" />
<use xlink:href="#f1_2b" transform="matrix(10,0,0,10,123,258.3)" />
<use xlink:href="#f1_2a" transform="matrix(10,0,0,10,130.7,258.3)" />
<use xlink:href="#f1_2f" transform="matrix(10,0,0,10,138.2,258.3)" />
<use xlink:href="#f1_c" transform="matrix(10,0,0,10,147,258.3)" />
<use xlink:href="#f1_l" transform="matrix(10,0,0,10,152.2,258.3)" />
<use xlink:href="#f1_s" transform="matrix(10,0,0,10,160.1,258.3)" />
<use xlink:href="#f1_k" transform="matrix(10,0,0,10,167.6,258.3)" />
<use xlink:href="#f1_4f" transform="matrix(10,0,0,10,175.5,258.3)" />
<use xlink:href="#f1_1x" transform="matrix(10,0,0,10,183.3,258.3)" />
<use xlink:href="#f1_2c" transform="matrix(10,0,0,10,192.9,258.3)" />
<use xlink:href="#f1_1x" transform="matrix(10,0,0,10,200.8,258.3)" />
<use xlink:href="#f1_2e" transform="matrix(10,0,0,10,207.5,258.3)" />
<use xlink:href="#f1_2g" transform="matrix(10,0,0,10,212.7,258.3)" />
<use xlink:href="#f1_d" transform="matrix(10,0,0,10,216.7,258.3)" />
<use xlink:href="#f1_25" transform="matrix(10,0,0,10,225.1,258.3)" />
<use xlink:href="#f1_2f" transform="matrix(10,0,0,10,229.2,258.3)" />
<use xlink:href="#f1_1z" transform="matrix(10,0,0,10,238,258.3)" />
<use xlink:href="#f1_1x" transform="matrix(10,0,0,10,244.9,258.3)" />
<use xlink:href="#f1_28" transform="matrix(10,0,0,10,251.7,258.3)" />
<use xlink:href="#f1_28" transform="matrix(10,0,0,10,255.9,258.3)" />
<use xlink:href="#f1_21" transform="matrix(10,0,0,10,260.2,258.3)" />
<use xlink:href="#f1_20" transform="matrix(10,0,0,10,266.8,258.3)" />
<use xlink:href="#f1_2g" transform="matrix(10,0,0,10,277.6,258.3)" />
<use xlink:href="#f1_2e" transform="matrix(10,0,0,10,281.8,258.3)" />
<use xlink:href="#f1_1x" transform="matrix(10,0,0,10,286.9,258.3)" />
<use xlink:href="#f1_2a" transform="matrix(10,0,0,10,293.7,258.3)" />
<use xlink:href="#f1_2f" transform="matrix(10,0,0,10,301.1,258.3)" />
<use xlink:href="#f1_h" transform="matrix(10,0,0,10,307.1,258.3)" />
<use xlink:href="#f1_25" transform="matrix(10,0,0,10,311.9,258.3)" />
<use xlink:href="#f1_2f" transform="matrix(10,0,0,10,316.1,258.3)" />
<use xlink:href="#f1_2b" transform="matrix(10,0,0,10,322.1,258.3)" />
<use xlink:href="#f1_29" transform="matrix(10,0,0,10,329.7,258.3)" />
<use xlink:href="#f1_21" transform="matrix(10,0,0,10,341.2,258.3)" />
<use xlink:href="#f1_2e" transform="matrix(10,0,0,10,348.2,258.3)" />
<use xlink:href="#f1_i" transform="matrix(10,0,0,10,352.4,258.3)" />
<use xlink:href="#f2_l" transform="matrix(10,0,0,10,54.8,286)" />
<use xlink:href="#f2_i" transform="matrix(10,0,0,10,62.5,286)" />
<use xlink:href="#f2_1d" transform="matrix(10,0,0,10,89.1,286)" />
<use xlink:href="#f2_1x" transform="matrix(10,0,0,10,103,286)" />
<use xlink:href="#f2_m" transform="matrix(5.8,0,0,5.8,109.6,291.1)" />
<use xlink:href="#f2_1y" transform="matrix(10,0,0,10,113.5,286)" />
<use xlink:href="#f2_m" transform="matrix(6.4,0,0,6.4,120.8,291.3)" />
</g>
<image preserveAspectRatio="none" x="115" y="302" width="269" height="146" xlink:href="img/1.png" />
<g fill="#000000" >
<use xlink:href="#f1_14" transform="matrix(10,0,0,10,89.1,520.1)" />
<use xlink:href="#f1_2e" transform="matrix(10,0,0,10,100.1,520.1)" />
<use xlink:href="#f1_1x" transform="matrix(10,0,0,10,105.2,520.1)" />
<use xlink:href="#f1_2j" transform="matrix(10,0,0,10,112,520.1)" />
<use xlink:href="#f1_2g" transform="matrix(10,0,0,10,125.2,520.1)" />
<use xlink:href="#f1_24" transform="matrix(10,0,0,10,129.4,520.1)" />
<use xlink:href="#f1_21" transform="matrix(10,0,0,10,136.8,520.1)" />
<use xlink:href="#f1_23" transform="matrix(10,0,0,10,146.5,520.1)" />
<use xlink:href="#f1_21" transform="matrix(10,0,0,10,153.8,520.1)" />
<use xlink:href="#f1_2b" transform="matrix(10,0,0,10,160.6,520.1)" />
<use xlink:href="#f1_29" transform="matrix(10,0,0,10,168.3,520.1)" />
<use xlink:href="#f1_21" transform="matrix(10,0,0,10,179.7,520.1)" />
<use xlink:href="#f1_2g" transform="matrix(10,0,0,10,186.5,520.1)" />
<use xlink:href="#f1_2e" transform="matrix(10,0,0,10,190.7,520.1)" />
<use xlink:href="#f1_25" transform="matrix(10,0,0,10,195.4,520.1)" />
<use xlink:href="#f1_1z" transform="matrix(10,0,0,10,199.7,520.1)" />
<use xlink:href="#f1_1x" transform="matrix(10,0,0,10,206.4,520.1)" />
<use xlink:href="#f1_28" transform="matrix(10,0,0,10,213.2,520.1)" />
<use xlink:href="#f1_25" transform="matrix(10,0,0,10,220,520.1)" />
<use xlink:href="#f1_2f" transform="matrix(10,0,0,10,224.1,520.1)" />
<use xlink:href="#f1_2b" transform="matrix(10,0,0,10,229.7,520.1)" />
<use xlink:href="#f1_29" transform="matrix(10,0,0,10,237.6,520.1)" />
<use xlink:href="#f1_21" transform="matrix(10,0,0,10,248.8,520.1)" />
<use xlink:href="#f1_2e" transform="matrix(10,0,0,10,255.8,520.1)" />
<use xlink:href="#f1_2f" transform="matrix(10,0,0,10,260.5,520.1)" />
<use xlink:href="#f1_2b" transform="matrix(10,0,0,10,269.2,520.1)" />
<use xlink:href="#f1_22" transform="matrix(10,0,0,10,277,520.1)" />
<use xlink:href="#f1_1r" transform="matrix(10,0,0,10,284.6,520.1)" />
<use xlink:href="#f1_1g" transform="matrix(10,0,0,10,289.7,520.1)" />
<use xlink:href="#f1_2g" transform="matrix(10,0,0,10,298.3,520.1)" />
<use xlink:href="#f1_13" transform="matrix(10,0,0,10,302.5,520.1)" />
<use xlink:href="#f1_28" transform="matrix(10,0,0,10,312.4,520.1)" />
<use xlink:href="#f1_m" transform="matrix(6.4,0,0,6.4,316.6,525.6)" />
<use xlink:href="#f1_c" transform="matrix(10,0,0,10,321.6,520.1)" />
<use xlink:href="#f1_1e" transform="matrix(10,0,0,10,326.5,520.1)" />
<use xlink:href="#f1_18" transform="matrix(10,0,0,10,337.5,520.1)" />
<use xlink:href="#f1_n" transform="matrix(5.8,0,0,5.8,348.3,525.1)" />
<use xlink:href="#f1_d" transform="matrix(10,0,0,10,352.5,520.1)" />
<use xlink:href="#f1_m" transform="matrix(6.4,0,0,6.4,357.9,525.6)" />
<use xlink:href="#f1_1t" transform="matrix(10,0,0,10,362.6,520.1)" />
<use xlink:href="#f2_1j" transform="matrix(10,0,0,10,54.8,552.2)" />
<use xlink:href="#f2_2b" transform="matrix(10,0,0,10,63.1,552.2)" />
<use xlink:href="#f2_28" transform="matrix(10,0,0,10,70.8,552.2)" />
<use xlink:href="#f2_i" transform="matrix(10,0,0,10,75,552.2)" />
</g>
<image preserveAspectRatio="none" x="113" y="574" width="272" height="138" xlink:href="img/2.png" />
<g fill="#000000" >
<use xlink:href="#f2_m" transform="matrix(10,0,0,10,54.8,739)" />
<use xlink:href="#f2_i" transform="matrix(10,0,0,10,62.5,739)" />
<use xlink:href="#f2_1d" transform="matrix(10,0,0,10,89.1,739)" />
<use xlink:href="#f2_1x" transform="matrix(10,0,0,10,102.9,739)" />
<use xlink:href="#f2_m" transform="matrix(5.8,0,0,5.8,109.3,744.1)" />
<use xlink:href="#f2_1y" transform="matrix(10,0,0,10,113.1,739)" />
<use xlink:href="#f2_1z" transform="matrix(10,0,0,10,120.3,739)" />
</g>
<image preserveAspectRatio="none" x="118" y="760" width="262" height="135" xlink:href="img/3.png" />
<g fill="#000000" >
<use xlink:href="#f1_14" transform="matrix(10,0,0,10,89.1,975.3)" />
<use xlink:href="#f1_2e" transform="matrix(10,0,0,10,100.1,975.3)" />
<use xlink:href="#f1_1x" transform="matrix(10,0,0,10,105.2,975.3)" />
<use xlink:href="#f1_2j" transform="matrix(10,0,0,10,112,975.3)" />
<use xlink:href="#f1_2g" transform="matrix(10,0,0,10,125.2,975.3)" />
<use xlink:href="#f1_24" transform="matrix(10,0,0,10,129.4,975.3)" />
<use xlink:href="#f1_21" transform="matrix(10,0,0,10,136.9,975.3)" />
<use xlink:href="#f1_23" transform="matrix(10,0,0,10,146.5,975.3)" />
<use xlink:href="#f1_21" transform="matrix(10,0,0,10,153.8,975.3)" />
<use xlink:href="#f1_2b" transform="matrix(10,0,0,10,160.8,975.3)" />
<use xlink:href="#f1_29" transform="matrix(10,0,0,10,168.1,975.3)" />
<use xlink:href="#f1_21" transform="matrix(10,0,0,10,179.7,975.3)" />
<use xlink:href="#f1_2g" transform="matrix(10,0,0,10,186.3,975.3)" />
<use xlink:href="#f1_2e" transform="matrix(10,0,0,10,190.5,975.3)" />
<use xlink:href="#f1_25" transform="matrix(10,0,0,10,195.6,975.3)" />
<use xlink:href="#f1_1z" transform="matrix(10,0,0,10,199.8,975.3)" />
<use xlink:href="#f1_1x" transform="matrix(10,0,0,10,206.6,975.3)" />
<use xlink:href="#f1_28" transform="matrix(10,0,0,10,213.1,975.3)" />
<use xlink:href="#f1_25" transform="matrix(10,0,0,10,220,975.3)" />
<use xlink:href="#f1_2f" transform="matrix(10,0,0,10,224.2,975.3)" />
<use xlink:href="#f1_2b" transform="matrix(10,0,0,10,229.9,975.3)" />
<use xlink:href="#f1_29" transform="matrix(10,0,0,10,237.6,975.3)" />
<use xlink:href="#f1_21" transform="matrix(10,0,0,10,249.2,975.3)" />
<use xlink:href="#f1_2e" transform="matrix(10,0,0,10,255.6,975.3)" />
<use xlink:href="#f1_2f" transform="matrix(10,0,0,10,260.9,975.3)" />
<use xlink:href="#f1_2b" transform="matrix(10,0,0,10,269.5,975.3)" />
<use xlink:href="#f1_22" transform="matrix(10,0,0,10,277,975.3)" />
<use xlink:href="#f1_1r" transform="matrix(10,0,0,10,284.9,975.3)" />
<use xlink:href="#f1_1g" transform="matrix(10,0,0,10,289.9,975.3)" />
<use xlink:href="#f1_2g" transform="matrix(10,0,0,10,298.5,975.3)" />
<use xlink:href="#f1_13" transform="matrix(10,0,0,10,302.7,975.3)" />
<use xlink:href="#f1_28" transform="matrix(10,0,0,10,312.6,975.3)" />
<use xlink:href="#f1_m" transform="matrix(6.4,0,0,6.4,316.8,980.8)" />
<use xlink:href="#f1_c" transform="matrix(10,0,0,10,321.6,975.3)" />
<use xlink:href="#f1_1e" transform="matrix(10,0,0,10,326.9,975.3)" />
<use xlink:href="#f1_18" transform="matrix(10,0,0,10,337.7,975.3)" />
<use xlink:href="#f1_n" transform="matrix(5.8,0,0,5.8,348.7,980.3)" />
<use xlink:href="#f1_d" transform="matrix(10,0,0,10,353.1,975.3)" />
<use xlink:href="#f1_2c" transform="matrix(10,0,0,10,358.1,975.3)" />
<use xlink:href="#f1_2l" transform="matrix(10,0,0,10,365.7,975.3)" />
<use xlink:href="#f1_1t" transform="matrix(10,0,0,10,372.9,975.3)" />
<use xlink:href="#f2_1j" transform="matrix(10,0,0,10,54.8,1014.9)" />
<use xlink:href="#f2_2b" transform="matrix(10,0,0,10,63.1,1014.9)" />
<use xlink:href="#f2_28" transform="matrix(10,0,0,10,70.8,1014.9)" />
<use xlink:href="#f2_i" transform="matrix(10,0,0,10,75,1014.9)" />
</g>
<image preserveAspectRatio="none" x="113" y="1028" width="272" height="116" xlink:href="img/4.png" />
<g fill="#000000" >
<use xlink:href="#f2_n" transform="matrix(10,0,0,10,465.3,121.5)" />
<use xlink:href="#f2_i" transform="matrix(10,0,0,10,473.2,121.5)" />
<use xlink:href="#f2_1d" transform="matrix(10,0,0,10,499.6,121.5)" />
<use xlink:href="#f2_1x" transform="matrix(10,0,0,10,512.8,121.5)" />
<use xlink:href="#f2_1y" transform="matrix(10,0,0,10,519.2,121.5)" />
<use xlink:href="#f2_1z" transform="matrix(10,0,0,10,526.2,121.5)" />
<use xlink:href="#f2_20" transform="matrix(10,0,0,10,531.5,121.5)" />
</g>
<image preserveAspectRatio="none" x="537" y="145" width="246" height="118" xlink:href="img/5.png" />
<image preserveAspectRatio="none" x="536" y="281" width="248" height="162" xlink:href="img/6.png" />
<g fill="#000000" >
<use xlink:href="#f1_14" transform="matrix(10,0,0,10,499.8,505.3)" />
<use xlink:href="#f1_2e" transform="matrix(10,0,0,10,510.6,505.3)" />
<use xlink:href="#f1_1x" transform="matrix(10,0,0,10,515.7,505.3)" />
<use xlink:href="#f1_2j" transform="matrix(10,0,0,10,522.5,505.3)" />
<use xlink:href="#f1_2g" transform="matrix(10,0,0,10,535.7,505.3)" />
<use xlink:href="#f1_24" transform="matrix(10,0,0,10,539.9,505.3)" />
<use xlink:href="#f1_21" transform="matrix(10,0,0,10,547.2,505.3)" />
<use xlink:href="#f1_23" transform="matrix(10,0,0,10,556.8,505.3)" />
<use xlink:href="#f1_21" transform="matrix(10,0,0,10,564.1,505.3)" />
<use xlink:href="#f1_2b" transform="matrix(10,0,0,10,570.9,505.3)" />
<use xlink:href="#f1_29" transform="matrix(10,0,0,10,578.6,505.3)" />
<use xlink:href="#f1_21" transform="matrix(10,0,0,10,589.8,505.3)" />
<use xlink:href="#f1_2g" transform="matrix(10,0,0,10,596.6,505.3)" />
<use xlink:href="#f1_2e" transform="matrix(10,0,0,10,600.8,505.3)" />
<use xlink:href="#f1_25" transform="matrix(10,0,0,10,605.9,505.3)" />
<use xlink:href="#f1_1z" transform="matrix(10,0,0,10,610.1,505.3)" />
<use xlink:href="#f1_1x" transform="matrix(10,0,0,10,616.6,505.3)" />
<use xlink:href="#f1_28" transform="matrix(10,0,0,10,623.5,505.3)" />
<use xlink:href="#f1_25" transform="matrix(10,0,0,10,630.5,505.3)" />
<use xlink:href="#f1_2f" transform="matrix(10,0,0,10,634.4,505.3)" />
<use xlink:href="#f1_2b" transform="matrix(10,0,0,10,640.4,505.3)" />
<use xlink:href="#f1_29" transform="matrix(10,0,0,10,647.9,505.3)" />
<use xlink:href="#f1_21" transform="matrix(10,0,0,10,659.3,505.3)" />
<use xlink:href="#f1_2e" transform="matrix(10,0,0,10,666.3,505.3)" />
<use xlink:href="#f1_2f" transform="matrix(10,0,0,10,671,505.3)" />
<use xlink:href="#f1_2b" transform="matrix(10,0,0,10,679.8,505.3)" />
<use xlink:href="#f1_22" transform="matrix(10,0,0,10,687.5,505.3)" />
<use xlink:href="#f1_1r" transform="matrix(10,0,0,10,697.8,505.3)" />
<use xlink:href="#f1_1g" transform="matrix(10,0,0,10,702.9,505.3)" />
<use xlink:href="#f1_2g" transform="matrix(10,0,0,10,711.4,505.3)" />
<use xlink:href="#f1_13" transform="matrix(10,0,0,10,715.6,505.3)" />
<use xlink:href="#f1_28" transform="matrix(10,0,0,10,725.5,505.3)" />
<use xlink:href="#f1_12" transform="matrix(10,0,0,10,729.7,505.3)" />
<use xlink:href="#f1_2e" transform="matrix(10,0,0,10,739.8,505.3)" />
<use xlink:href="#f1_2c" transform="matrix(10,0,0,10,744.9,505.3)" />
<use xlink:href="#f1_2l" transform="matrix(10,0,0,10,752.6,505.3)" />
<use xlink:href="#f1_c" transform="matrix(10,0,0,10,762.7,505.3)" />
<use xlink:href="#f1_1e" transform="matrix(10,0,0,10,767.8,505.3)" />
<use xlink:href="#f1_18" transform="matrix(10,0,0,10,778.6,505.3)" />
<use xlink:href="#f1_n" transform="matrix(6.4,0,0,6.4,789.4,510.9)" />
<use xlink:href="#f1_d" transform="matrix(10,0,0,10,794.6,505.3)" />
<use xlink:href="#f1_1t" transform="matrix(10,0,0,10,799.5,505.3)" />
<use xlink:href="#f2_1j" transform="matrix(10,0,0,10,465.3,544.9)" />
<use xlink:href="#f2_2b" transform="matrix(10,0,0,10,473.7,544.9)" />
<use xlink:href="#f2_28" transform="matrix(10,0,0,10,481.4,544.9)" />
<use xlink:href="#f2_i" transform="matrix(10,0,0,10,485.6,544.9)" />
</g>
<image preserveAspectRatio="none" x="477" y="558" width="365" height="117" xlink:href="img/7.png" />
<g fill="#000000" >
<use xlink:href="#f2_o" transform="matrix(10,0,0,10,465.3,709.9)" />
<use xlink:href="#f2_i" transform="matrix(10,0,0,10,473.2,709.9)" />
<use xlink:href="#f2_1d" transform="matrix(10,0,0,10,499.6,709.9)" />
<use xlink:href="#f2_c" transform="matrix(10,0,0,10,516.3,709.9)" />
<use xlink:href="#f2_11" transform="matrix(10,0,0,10,520.9,709.9)" />
<use xlink:href="#f2_12" transform="matrix(10,0,0,10,531.5,709.9)" />
<use xlink:href="#f2_d" transform="matrix(10,0,0,10,541.2,709.9)" />
<use xlink:href="#f2_m" transform="matrix(5.8,0,0,5.8,545.8,715)" />
<use xlink:href="#f1_14" transform="matrix(10,0,0,10,499.8,775.3)" />
<use xlink:href="#f1_2e" transform="matrix(10,0,0,10,510.6,775.3)" />
<use xlink:href="#f1_1x" transform="matrix(10,0,0,10,515.9,775.3)" />
<use xlink:href="#f1_2j" transform="matrix(10,0,0,10,522.7,775.3)" />
<use xlink:href="#f1_2g" transform="matrix(10,0,0,10,536.1,775.3)" />
<use xlink:href="#f1_24" transform="matrix(10,0,0,10,540.3,775.3)" />
<use xlink:href="#f1_21" transform="matrix(10,0,0,10,547.6,775.3)" />
<use xlink:href="#f1_23" transform="matrix(10,0,0,10,557.3,775.3)" />
<use xlink:href="#f1_21" transform="matrix(10,0,0,10,565,775.3)" />
<use xlink:href="#f1_2b" transform="matrix(10,0,0,10,571.8,775.3)" />
<use xlink:href="#f1_29" transform="matrix(10,0,0,10,579.3,775.3)" />
<use xlink:href="#f1_21" transform="matrix(10,0,0,10,590.9,775.3)" />
<use xlink:href="#f1_2g" transform="matrix(10,0,0,10,597.9,775.3)" />
<use xlink:href="#f1_2e" transform="matrix(10,0,0,10,601.7,775.3)" />
<use xlink:href="#f1_25" transform="matrix(10,0,0,10,606.8,775.3)" />
<use xlink:href="#f1_1z" transform="matrix(10,0,0,10,611.2,775.3)" />
<use xlink:href="#f1_1x" transform="matrix(10,0,0,10,618,775.3)" />
<use xlink:href="#f1_28" transform="matrix(10,0,0,10,624.8,775.3)" />
<use xlink:href="#f1_25" transform="matrix(10,0,0,10,631.8,775.3)" />
<use xlink:href="#f1_2f" transform="matrix(10,0,0,10,635.8,775.3)" />
<use xlink:href="#f1_2b" transform="matrix(10,0,0,10,641.9,775.3)" />
<use xlink:href="#f1_29" transform="matrix(10,0,0,10,649.4,775.3)" />
<use xlink:href="#f1_21" transform="matrix(10,0,0,10,660.8,775.3)" />
<use xlink:href="#f1_2e" transform="matrix(10,0,0,10,667.7,775.3)" />
<use xlink:href="#f1_2f" transform="matrix(10,0,0,10,672.7,775.3)" />
<use xlink:href="#f1_2b" transform="matrix(10,0,0,10,681.5,775.3)" />
<use xlink:href="#f1_22" transform="matrix(10,0,0,10,689.4,775.3)" />
<use xlink:href="#f1_1r" transform="matrix(10,0,0,10,697.1,775.3)" />
<use xlink:href="#f1_1g" transform="matrix(10,0,0,10,702.2,775.3)" />
<use xlink:href="#f1_2g" transform="matrix(10,0,0,10,711,775.3)" />
<use xlink:href="#f1_c" transform="matrix(10,0,0,10,714.8,775.3)" />
<use xlink:href="#f1_23" transform="matrix(10,0,0,10,720,775.3)" />
<use xlink:href="#f1_28" transform="matrix(10,0,0,10,727.5,775.3)" />
<use xlink:href="#f1_2l" transform="matrix(10,0,0,10,731.7,775.3)" />
<use xlink:href="#f1_d" transform="matrix(10,0,0,10,739.2,775.3)" />
<use xlink:href="#f1_m" transform="matrix(6.4,0,0,6.4,744.2,780.8)" />
<use xlink:href="#f1_1t" transform="matrix(10,0,0,10,749.1,775.3)" />
<use xlink:href="#f2_1j" transform="matrix(10,0,0,10,465.3,814.9)" />
<use xlink:href="#f2_2b" transform="matrix(10,0,0,10,473.7,814.9)" />
<use xlink:href="#f2_28" transform="matrix(10,0,0,10,481.4,814.9)" />
<use xlink:href="#f2_i" transform="matrix(10,0,0,10,485.7,814.9)" />
</g>
<image preserveAspectRatio="none" x="544" y="828" width="231" height="123" xlink:href="img/8.png" />
<image preserveAspectRatio="none" x="572" y="961" width="238" height="157" xlink:href="img/9.png" />
<path fill-rule="evenodd" d="M56.1,475.9h92.4v19.8H56.1V475.9Z" class="g1_101" />
<path fill-rule="evenodd" d="M54.8,474.8H150v22H54.8v-22l1.7,20.6h91.8V476.3H56.5v19.1L54.8,474.8Z" class="g1_101" />
<path fill-rule="evenodd" d="M54.8,496.3H443.7v36.5H54.8V496.3l2.4,34.3H441.5V498.5H57.2v32.1L54.8,496.3Z" class="g1_101" />
<g fill="#FFFFFF" >
<use xlink:href="#f2_15" transform="matrix(10,0,0,10,64.9,489.7)" />
<use xlink:href="#f2_2k" transform="matrix(10,0,0,10,75.2,489.7)" />
<use xlink:href="#f2_1x" transform="matrix(10,0,0,10,82.7,489.7)" />
<use xlink:href="#f2_29" transform="matrix(10,0,0,10,90.8,489.7)" />
<use xlink:href="#f2_2c" transform="matrix(10,0,0,10,103,489.7)" />
<use xlink:href="#f2_28" transform="matrix(10,0,0,10,111.5,489.7)" />
<use xlink:href="#f2_21" transform="matrix(10,0,0,10,116.1,489.7)" />
<use xlink:href="#f2_h" transform="matrix(10,0,0,10,125.8,489.7)" />
<use xlink:href="#f2_l" transform="matrix(10,0,0,10,134.2,489.7)" />
</g>
<path fill-rule="evenodd" d="M56.1,931.7h92.4v19.6H56.1V931.7Z" class="g1_101" />
<path fill-rule="evenodd" d="M54.8,930.4H150v22.2H54.8V930.4L56.5,951h91.8V932.1H56.5V951L54.8,930.4Z" class="g1_101" />
<path fill-rule="evenodd" d="M54.8,951.9H443.7v36.6H54.8V951.9l2.4,34.3H441.5v-32H57.2v32L54.8,951.9Z" class="g1_101" />
<g fill="#FFFFFF" >
<use xlink:href="#f2_15" transform="matrix(10,0,0,10,64.9,945.6)" />
<use xlink:href="#f2_2k" transform="matrix(10,0,0,10,75.2,945.6)" />
<use xlink:href="#f2_1x" transform="matrix(10,0,0,10,82.7,945.6)" />
<use xlink:href="#f2_29" transform="matrix(10,0,0,10,90.8,945.6)" />
<use xlink:href="#f2_2c" transform="matrix(10,0,0,10,103,945.6)" />
<use xlink:href="#f2_28" transform="matrix(10,0,0,10,111.5,945.6)" />
<use xlink:href="#f2_21" transform="matrix(10,0,0,10,116.1,945.6)" />
<use xlink:href="#f2_h" transform="matrix(10,0,0,10,125.8,945.6)" />
<use xlink:href="#f2_m" transform="matrix(10,0,0,10,134.2,945.6)" />
</g>
<path fill-rule="evenodd" d="M466.6,462.4h92.7V482H466.6V462.4Z" class="g1_101" />
<path fill-rule="evenodd" d="M465.5,461.1h94.9v22.2H465.5V461.1l1.4,20.5H559V462.7H466.9v18.9l-1.4,-20.5Z" class="g1_101" />
<path fill-rule="evenodd" d="M465.5,482.5H854.3v36.7H465.5V482.5l2.2,34.5H852.1V484.9H467.7V517l-2.2,-34.5Z" class="g1_101" />
<g fill="#FFFFFF" >
<use xlink:href="#f2_15" transform="matrix(10,0,0,10,475.6,476.1)" />
<use xlink:href="#f2_2k" transform="matrix(10,0,0,10,485.7,476.1)" />
<use xlink:href="#f2_1x" transform="matrix(10,0,0,10,493.2,476.1)" />
<use xlink:href="#f2_29" transform="matrix(10,0,0,10,501.2,476.1)" />
<use xlink:href="#f2_2c" transform="matrix(10,0,0,10,513.5,476.1)" />
<use xlink:href="#f2_28" transform="matrix(10,0,0,10,521.9,476.1)" />
<use xlink:href="#f2_21" transform="matrix(10,0,0,10,526.5,476.1)" />
<use xlink:href="#f2_h" transform="matrix(10,0,0,10,536.3,476.1)" />
<use xlink:href="#f2_n" transform="matrix(10,0,0,10,544.7,476.1)" />
</g>
<path fill-rule="evenodd" d="M466.6,734.3h92.7v19.6H466.6V734.3Z" class="g1_101" />
<path fill-rule="evenodd" d="M465.5,733h94.9v22.2H465.5V733l1.4,20.5H559V734.6H466.9v18.9L465.5,733Z" class="g1_101" />
<path fill-rule="evenodd" d="M465.5,754.4H854.3v36.7H465.5V754.4l2.2,34.3H852.1V756.8H467.7v31.9l-2.2,-34.3Z" class="g1_101" />
<g fill="#FFFFFF" >
<use xlink:href="#f2_15" transform="matrix(10,0,0,10,475.6,748.2)" />
<use xlink:href="#f2_2k" transform="matrix(10,0,0,10,485.7,748.2)" />
<use xlink:href="#f2_1x" transform="matrix(10,0,0,10,493.2,748.2)" />
<use xlink:href="#f2_29" transform="matrix(10,0,0,10,501.2,748.2)" />
<use xlink:href="#f2_2c" transform="matrix(10,0,0,10,513.5,748.2)" />
<use xlink:href="#f2_28" transform="matrix(10,0,0,10,521.9,748.2)" />
<use xlink:href="#f2_21" transform="matrix(10,0,0,10,526.5,748.2)" />
<use xlink:href="#f2_h" transform="matrix(10,0,0,10,536.3,748.2)" />
<use xlink:href="#f2_o" transform="matrix(10,0,0,10,544.7,748.2)" />
</g>
<path d="M54.9,95.1H853.8V72.8H54.9V95.1Z" class="g2_101" />
<defs>
<path d="M579,-17c0,0,-147,0,-266,70c0,0,-119,70,-189,197c0,0,-71,127,-71,277c0,0,0,149,69,271c0,0,69,123,187,191c0,0,119,69,265,69c0,0,149,0,260,-62l25,44H965L1067,667L928,627c0,0,-69,133,-130,189c0,0,-85,77,-185,77c0,0,-72,0,-135,-41c0,0,-63,-40,-100,-118c0,0,-37,-78,-37,-183c0,0,0,-161,85,-276c0,0,85,-116,222,-116c0,0,87,0,168,50c0,0,100,62,173,167l116,-86C1105,290,992,136,899,76c0,0,-144,-93,-320,-93Z" 
id="f0_13"
transform="scale(0.001,-0.001)" />

<path d="M611,148c0,0,117,0,187,88c0,0,83,105,83,281c0,0,0,124,-35,208c0,0,-36,84,-96,126c0,0,-61,42,-132,42c0,0,-118,0,-189,-89c0,0,-88,-112,-88,-289c0,0,0,-176,82,-279c0,0,71,-88,188,-88ZM608,-17c0,0,-231,0,-378,126C230,109,53,262,53,518c0,0,0,237,155,389c0,0,156,151,407,151c0,0,248,0,401,-151c0,0,153,-150,153,-386c0,0,0,-159,-70,-282c0,0,-70,-123,-193,-190c0,0,-124,-66,-298,-66Z" 
id="f0_1f"
transform="scale(0.001,-0.001)" />

<path d="M73,290V468H478V290Z" 
id="f0_h"
transform="scale(0.001,-0.001)" />

<path d="M593,600c0,0,92,0,137,17c0,0,45,17,68,48c0,0,22,31,22,76c0,0,0,41,-21,71c0,0,-21,29,-60,43c0,0,-40,14,-128,14H439V600ZM55,0V144h46c0,0,37,0,52,8c0,0,16,7,23,23c0,0,4,9,4,56V816c0,0,0,35,-6,49c0,0,-5,15,-18,19c0,0,-18,8,-41,8H55v148H697c0,0,62,0,135,-11c0,0,74,-11,133,-49c0,0,60,-38,92,-96c0,0,33,-59,33,-132c0,0,0,-118,-84,-192c0,0,-85,-73,-201,-96L1019,215l9,-11c0,0,21,-25,38,-38c0,0,17,-12,34,-17c0,0,18,-5,48,-5h45V0H859L526,448H439V241c0,0,0,-54,6,-69c0,0,6,-14,19,-21c0,0,13,-7,52,-7h48V0Z" 
id="f0_1i"
transform="scale(0.001,-0.001)" />

<path d="M514,166c0,0,122,0,191,38c0,0,69,38,111,121c0,0,43,83,43,199c0,0,0,113,-40,197c0,0,-40,84,-99,119c0,0,-59,34,-168,34H437V226c0,0,0,-33,4,-40c0,0,6,-12,17,-16c0,0,12,-4,56,-4ZM55,0V144H91c0,0,46,0,60,7c0,0,15,8,24,26c0,0,6,14,6,61V807c0,0,0,48,-6,62c0,0,-7,13,-21,21c0,0,-15,7,-62,7H56v143H601c0,0,186,0,296,-59c0,0,110,-58,175,-174c0,0,65,-116,65,-278c0,0,0,-112,-33,-201c0,0,-33,-89,-99,-160c0,0,-66,-71,-141,-107C864,61,807,34,703,17C703,17,599,0,536,0Z" 
id="f0_14"
transform="scale(0.001,-0.001)" />

<path d="M52,0V144H93c0,0,44,0,58,6c0,0,13,6,20,20c0,0,6,14,6,55V803c0,0,0,49,-6,64c0,0,-7,15,-22,24c0,0,-10,6,-51,6H52v143H559V897H513c0,0,-40,0,-53,-7c0,0,-13,-8,-20,-23c0,0,-6,-15,-6,-58V233c0,0,0,-47,5,-61c0,0,6,-13,18,-19c0,0,16,-9,47,-9h55V0Z" 
id="f0_19"
transform="scale(0.001,-0.001)" />

<path d="M59,0V144h44c0,0,37,0,51,6c0,0,14,6,22,22c0,0,8,16,8,47V816c0,0,0,34,-8,50c0,0,-7,16,-20,24c0,0,-12,7,-42,7H59v143H480L786,433V805c0,0,0,48,-5,60c0,0,-8,17,-20,25c0,0,-13,7,-49,7H661v143h428V897h-47c0,0,-36,0,-51,-9c0,0,-15,-8,-21,-22c0,0,-6,-14,-6,-61V0H750L364,767V230c0,0,0,-46,5,-59c0,0,6,-12,20,-20c0,0,15,-7,50,-7h50V0Z" 
id="f0_1e"
transform="scale(0.001,-0.001)" />

<path d="M610,480L509,765L404,480ZM2,0V144c0,0,39,0,56,6c0,0,18,7,30,21c0,0,11,13,25,49l322,820H669L981,237c0,0,25,-64,45,-79c0,0,19,-14,68,-14c2,0,3,0,5,0V0H606V144h30c0,0,41,0,58,11c0,0,16,11,16,27c0,0,0,13,-14,55l-32,94H349L310,226c0,0,-12,-33,-12,-44c0,0,0,-11,8,-21c0,0,9,-10,28,-14c0,0,13,-3,71,-3V0Z" 
id="f0_11"
transform="scale(0.001,-0.001)" />

<path d="M280,0V144h30c0,0,51,0,66,6c0,0,14,6,21,22c0,0,8,17,8,67V851c0,0,0,26,-6,33c0,0,-6,7,-26,7c0,0,-38,0,-86,-29c0,0,-48,-29,-85,-82c0,0,-15,-21,-63,-118L2,711l128,365h99l10,-36H826l13,36h99L1067,711L928,662c0,0,-46,91,-66,119c0,0,-40,55,-92,86c0,0,-38,24,-77,24c0,0,-18,0,-24,-9c0,0,-7,-8,-7,-39V244c0,0,0,-53,4,-66c0,0,3,-13,12,-21c0,0,9,-8,25,-11c0,0,16,-2,84,-2V0Z" 
id="f0_1k"
transform="scale(0.001,-0.001)" />

<path d="M59,0V144h42c0,0,39,0,54,7c0,0,15,7,22,22c0,0,7,15,7,57V813c0,0,0,40,-5,52c0,0,-7,17,-21,24c0,0,-13,8,-42,8H59v143H530L711,408l185,632h481V897h-52c0,0,-41,0,-57,-18c0,0,-16,-17,-16,-66V222c0,0,0,-39,4,-48c0,0,7,-15,19,-21c0,0,16,-9,43,-9h59V0H876V144h39c0,0,42,0,57,6c0,0,15,7,22,21c0,0,7,14,7,51V862L748,0H604L359,835V202c0,0,0,-22,8,-34c0,0,8,-12,22,-18c0,0,15,-6,47,-6h50V0Z" 
id="f0_1d"
transform="scale(0.001,-0.001)" />

<path d="M532,575c0,0,81,0,119,17c0,0,38,16,61,51c0,0,23,35,23,83c0,0,0,71,-55,113c0,0,-41,31,-121,31H443V575ZM61,0V144H96c0,0,46,0,61,6c0,0,15,7,22,22c0,0,7,14,7,60V804c0,0,0,48,-6,63c0,0,-6,15,-19,23c0,0,-13,7,-50,7H61v143H611c0,0,104,0,173,-21c0,0,69,-21,119,-64c0,0,49,-44,76,-103c0,0,27,-59,27,-126c0,0,0,-133,-102,-223c0,0,-103,-90,-284,-90H443V218c0,0,0,-37,5,-47c0,0,7,-14,21,-21c0,0,13,-6,46,-6h53V0Z" 
id="f0_1g"
transform="scale(0.001,-0.001)" />

<path d="M561,-17c0,0,-97,0,-173,29c0,0,-76,29,-133,84c0,0,-57,55,-80,116c0,0,-22,61,-22,181V794c0,0,0,56,-6,72c0,0,-6,16,-20,23c0,0,-13,8,-52,8H27v143H536V897H486c0,0,-35,0,-49,-9c0,0,-15,-8,-22,-23c0,0,-6,-15,-6,-62V424c0,0,0,-106,21,-158c0,0,21,-52,64,-79c0,0,43,-28,105,-28c0,0,61,0,109,30c0,0,48,30,68,76c0,0,21,46,21,152V834c0,0,0,26,-7,37c0,0,-9,15,-24,21c0,0,-10,5,-53,5H673v143h429V897h-34c0,0,-49,0,-61,-6c0,0,-18,-9,-26,-26c0,0,-6,-12,-6,-62V393c0,0,0,-114,-33,-191C942,202,896,98,797,40c0,0,-100,-57,-236,-57Z" 
id="f0_1l"
transform="scale(0.001,-0.001)" />

<path d="M567,-17c0,0,-83,0,-152,21c0,0,-70,21,-145,71L237,0H126L52,404l140,33c0,0,49,-123,153,-205c0,0,104,-82,228,-82c0,0,56,0,93,14c0,0,37,14,56,39c0,0,18,25,18,52c0,0,0,45,-43,77c0,0,-44,32,-154,63L369,446c0,0,-40,11,-107,42c0,0,-68,31,-104,64c0,0,-36,34,-60,86c0,0,-24,53,-24,111c0,0,0,83,46,153c0,0,46,69,138,113c0,0,92,43,204,43c0,0,135,0,244,-70l29,52H842L932,692L792,652c0,0,-69,125,-157,183c0,0,-88,58,-187,58c0,0,-64,0,-101,-26c0,0,-37,-27,-37,-59c0,0,0,-36,34,-67c0,0,32,-32,121,-56L665,626c0,0,166,-47,237,-126c0,0,70,-80,70,-186c0,0,0,-135,-107,-229C865,85,745,-17,567,-17Z" 
id="f0_1j"
transform="scale(0.001,-0.001)" />

<path d="M411,-239c0,0,134,0,198,48c0,0,64,47,64,100c0,0,0,39,-38,55c0,0,-39,16,-154,19c0,0,-167,5,-258,17c0,0,-35,-37,-53,-70c0,0,-17,-32,-17,-60c0,0,0,-36,43,-62c0,0,74,-47,215,-47ZM380,257c0,0,56,0,93,43c0,0,36,42,36,133c0,0,0,118,-51,185c0,0,-38,49,-98,49c0,0,-55,0,-92,-44c0,0,-37,-44,-37,-135c0,0,0,-117,50,-182c0,0,39,-49,99,-49ZM345,-328c0,0,-144,0,-243,64c0,0,-56,38,-56,78c0,0,0,18,8,36c0,0,13,27,52,76c0,0,5,7,76,80c0,0,-39,23,-55,41c0,0,-16,19,-16,42c0,0,0,26,22,61c0,0,21,35,98,100c0,0,-63,30,-97,85c0,0,-33,55,-33,121c0,0,0,101,76,174c0,0,77,73,196,73c0,0,98,0,170,-48H688c0,0,32,0,37,-2c0,0,6,-2,8,-6c0,0,4,-7,4,-24c0,0,0,-20,-4,-27c0,0,-2,-4,-7,-6c0,0,-6,-2,-38,-2H599c0,0,41,-54,41,-137c0,0,0,-96,-73,-163c0,0,-73,-68,-196,-68c0,0,-51,0,-104,15c0,0,-33,-28,-44,-49c0,0,-12,-22,-12,-37c0,0,0,-12,13,-24c0,0,12,-12,48,-17c0,0,21,-4,104,-6c0,0,154,-4,199,-11c0,0,70,-10,111,-51c0,0,42,-41,42,-102c0,0,0,-84,-79,-158c0,0,-117,-108,-304,-108Z" 
id="f1_23"
transform="scale(0.001,-0.001)" />

<path d="M479,469c0,0,-4,66,-16,93c0,0,-18,42,-55,65c0,0,-37,24,-78,24c0,0,-62,0,-111,-48c0,0,-48,-48,-57,-134ZM355,-20c0,0,-123,0,-211,95c0,0,-87,96,-87,258c0,0,0,175,90,273c0,0,89,98,225,98c0,0,115,0,189,-76c0,0,74,-75,74,-202H162c0,0,0,-152,74,-239c0,0,75,-86,175,-86c0,0,67,0,117,36c0,0,50,37,83,127l24,-15c0,0,-16,-102,-91,-186c0,0,-76,-83,-189,-83Z" 
id="f1_21"
transform="scale(0.001,-0.001)" />

<path d="M406,32c0,0,72,0,119,60c0,0,47,59,47,205c0,0,0,181,-78,286c0,0,-53,71,-135,71c0,0,-40,0,-79,-23c0,0,-40,-24,-65,-83c0,0,-24,-58,-24,-151c0,0,0,-149,59,-257c0,0,59,-108,156,-108ZM374,-20c0,0,-154,0,-245,122c0,0,-77,104,-77,233c0,0,0,94,46,187c0,0,47,92,123,137c0,0,76,44,161,44c0,0,155,0,249,-118c0,0,80,-100,80,-231c0,0,0,-91,-44,-185C667,169,623,75,546,27c0,0,-77,-47,-172,-47Z" 
id="f1_2b"
transform="scale(0.001,-0.001)" />

<path d="M23,0V26c0,0,47,0,66,10c0,0,19,11,28,33c0,0,10,22,10,85V416c0,0,0,112,-7,145c0,0,-5,25,-16,34c0,0,-11,10,-31,10c0,0,-21,0,-50,-11L12,620l207,83h32V557c0,0,75,75,88,86c0,0,34,29,72,44c0,0,39,16,77,16c0,0,64,0,110,-37c0,0,47,-38,62,-109c0,0,77,90,130,118c0,0,53,28,109,28c0,0,54,0,96,-28c0,0,42,-28,67,-91c0,0,16,-43,16,-136V154c0,0,0,-64,10,-88c0,0,8,-16,28,-28c0,0,20,-12,65,-12V0H844V26h14c0,0,44,0,69,18c0,0,17,12,24,38c0,0,3,13,3,72V448c0,0,0,83,-20,117c0,0,-29,48,-93,48c0,0,-39,0,-79,-20c0,0,-40,-19,-97,-73l-1,-8l2,-32V154c0,0,0,-70,8,-87c0,0,7,-17,29,-29c0,0,21,-12,73,-12V0H431V26c0,0,57,0,78,14c0,0,21,13,29,40c0,0,4,13,4,74V448c0,0,0,83,-25,120c0,0,-33,48,-91,48c0,0,-40,0,-80,-22c0,0,-61,-33,-95,-74V154c0,0,0,-67,10,-87c0,0,9,-20,27,-30c0,0,18,-11,74,-11V0Z" 
id="f1_29"
transform="scale(0.001,-0.001)" />

<path d="M255,-10c0,0,-35,0,-68,18c0,0,-32,19,-48,55c0,0,-16,35,-16,109V632H15v24c0,0,41,16,84,56c0,0,43,39,77,92c0,0,17,29,48,104h23V683H407V632H247V188c0,0,0,-66,19,-90c0,0,19,-23,49,-23c0,0,24,0,47,16c0,0,23,15,36,45h29c0,0,-26,-73,-74,-110c0,0,-47,-36,-98,-36Z" 
id="f1_2g"
transform="scale(0.001,-0.001)" />

<path d="M17,0V26c0,0,52,0,77,17c0,0,19,12,26,38c0,0,4,13,4,73V419c0,0,0,119,-5,142c0,0,-4,23,-17,33c0,0,-13,11,-33,11c0,0,-23,0,-52,-11l-7,26l207,83h31V549c0,0,86,154,176,154c0,0,41,0,68,-25c0,0,27,-25,27,-58c0,0,0,-29,-20,-49c0,0,-19,-20,-46,-20c0,0,-26,0,-58,25c0,0,-33,26,-48,26c0,0,-14,0,-29,-15c0,0,-34,-30,-70,-101V159c0,0,0,-56,15,-85c0,0,9,-20,34,-34c0,0,24,-14,71,-14V0Z" 
id="f1_2e"
transform="scale(0.001,-0.001)" />

<path d="M55,0V26c0,0,50,0,67,10c0,0,17,10,27,32c0,0,10,23,10,86V418c0,0,0,111,-6,144c0,0,-6,24,-17,33c0,0,-11,10,-30,10c0,0,-21,0,-51,-11L45,620l206,83h33V154c0,0,0,-64,9,-85c0,0,9,-22,27,-32c0,0,19,-11,67,-11V0ZM222,909c0,0,-32,0,-54,23c0,0,-22,22,-22,53c0,0,0,32,22,54c0,0,22,22,54,22c0,0,31,0,53,-22c0,0,22,-22,22,-54c0,0,0,-31,-22,-53c0,0,-22,-23,-53,-23Z" 
id="f1_25"
transform="scale(0.001,-0.001)" />

<path d="M342,-20c0,0,-116,0,-203,97c0,0,-86,98,-86,264c0,0,0,161,96,261c0,0,95,101,230,101c0,0,100,0,165,-53c0,0,65,-54,65,-111c0,0,0,-29,-18,-46c0,0,-18,-18,-51,-18c0,0,-44,0,-66,29c0,0,-13,15,-17,59c0,0,-4,45,-30,68c0,0,-26,22,-73,22c0,0,-74,0,-120,-55c0,0,-60,-73,-60,-193c0,0,0,-122,60,-216c0,0,60,-93,162,-93c0,0,73,0,131,49c0,0,41,35,80,126l22,-10C629,261,601,125,521,52c0,0,-81,-72,-179,-72Z" 
id="f1_1z"
transform="scale(0.001,-0.001)" />

<path d="M286,72c0,0,57,0,149,75V407c0,0,-113,-45,-145,-64c0,0,-59,-32,-85,-68c0,0,-25,-36,-25,-78c0,0,0,-54,32,-89c0,0,32,-36,74,-36ZM217,-13c0,0,-71,0,-116,48c0,0,-46,48,-46,127c0,0,0,50,22,87c0,0,31,50,106,95c0,0,76,45,252,109v26c0,0,0,102,-32,140c0,0,-32,38,-94,38c0,0,-47,0,-74,-25c0,0,-28,-25,-28,-58l1,-43c0,0,0,-34,-17,-53c0,0,-18,-18,-47,-18c0,0,-28,0,-45,19c0,0,-18,19,-18,53c0,0,0,64,66,117c0,0,65,54,184,54c0,0,91,0,149,-31c0,0,44,-23,65,-72c0,0,13,-32,13,-131V238c0,0,0,-98,4,-120c0,0,4,-22,12,-29c0,0,9,-8,20,-8c0,0,12,0,21,5c0,0,16,10,61,55V99C676,99,592,-12,516,-12c0,0,-37,0,-58,24c0,0,-22,26,-23,86C435,98,330,17,303,5c0,0,-40,-18,-86,-18Z" 
id="f1_1x"
transform="scale(0.001,-0.001)" />

<path d="M58,0V26c0,0,47,0,64,10c0,0,18,10,28,32c0,0,9,23,9,86V775c0,0,0,116,-5,142c0,0,-5,27,-17,37c0,0,-11,9,-29,9c0,0,-20,0,-49,-12L46,978l204,83h34V154c0,0,0,-64,9,-85c0,0,9,-21,29,-32c0,0,19,-11,72,-11V0Z" 
id="f1_28"
transform="scale(0.001,-0.001)" />

<path d="M312,-20c0,0,-62,0,-143,22c0,0,-25,8,-40,8c0,0,-18,0,-27,-19H77V234h25c0,0,21,-105,80,-158c0,0,59,-53,132,-53c0,0,51,0,84,31c0,0,32,30,32,72c0,0,0,52,-36,87c0,0,-36,35,-144,88c0,0,-109,54,-142,97c0,0,-34,43,-34,107c0,0,0,85,58,141c0,0,58,57,150,57c0,0,40,0,97,-17c0,0,38,-11,51,-11c0,0,12,0,19,5c0,0,7,5,15,23h25V470H464c0,0,-28,110,-72,149c0,0,-45,40,-113,40c0,0,-53,0,-85,-28c0,0,-32,-27,-32,-61c0,0,0,-41,24,-71c0,0,23,-31,94,-65L389,381c0,0,152,-74,152,-194c0,0,0,-94,-71,-151c0,0,-70,-56,-158,-56Z" 
id="f1_2f"
transform="scale(0.001,-0.001)" />

<path d="M21,0V26H35c0,0,53,0,71,27c0,0,18,27,18,101V408c0,0,0,123,-5,150c0,0,-6,27,-17,37c0,0,-12,10,-31,10c0,0,-21,0,-50,-11L10,620l206,83h32V558c0,0,120,145,229,145c0,0,56,0,96,-28c0,0,40,-28,64,-92c0,0,16,-45,16,-137V154c0,0,0,-65,11,-88c0,0,8,-19,26,-29c0,0,18,-11,68,-11V0H419V26h14c0,0,47,0,66,15c0,0,20,15,27,43c0,0,3,11,3,70V434c0,0,0,93,-24,135c0,0,-24,42,-81,42c0,0,-88,0,-176,-97V154c0,0,0,-69,9,-86c0,0,10,-21,28,-31c0,0,19,-11,75,-11V0Z" 
id="f1_2a"
transform="scale(0.001,-0.001)" />

<path d="M399,62c0,0,68,0,131,68V481c0,0,-5,51,-27,93c0,0,-22,42,-59,63c0,0,-37,21,-72,21c0,0,-65,0,-117,-59c0,0,-67,-77,-67,-226c0,0,0,-151,65,-231c0,0,66,-80,146,-80ZM330,-20c0,0,-112,0,-196,93c0,0,-83,94,-83,240c0,0,0,147,92,269c0,0,93,122,238,122c0,0,90,0,149,-58V773c0,0,0,117,-6,144c0,0,-5,27,-17,37c0,0,-12,9,-30,9c0,0,-20,0,-52,-12l-9,27l204,83h33V270c0,0,0,-120,6,-146c0,0,5,-27,18,-37c0,0,12,-11,28,-11c0,0,21,0,54,13l9,-26L564,-20H530V78C530,78,480,25,432,2c0,0,-47,-22,-102,-22Z" 
id="f1_20"
transform="scale(0.001,-0.001)" />

<path d="M20,0V26c0,0,45,0,71,15c0,0,15,7,24,28c0,0,9,21,9,85V773c0,0,0,117,-5,144c0,0,-6,27,-17,37c0,0,-12,9,-31,9c0,0,-16,0,-51,-12L10,978l204,83h34V561c0,0,83,91,131,116c0,0,49,26,97,26c0,0,58,0,100,-32c0,0,42,-32,62,-101c0,0,14,-47,14,-174V154c0,0,0,-65,11,-89c0,0,7,-18,25,-28c0,0,18,-11,66,-11V0H418V26h15c0,0,48,0,67,15c0,0,18,15,26,43c0,0,2,12,2,70V396c0,0,0,112,-12,147c0,0,-11,35,-36,53c0,0,-26,17,-61,17c0,0,-37,0,-76,-19c0,0,-40,-20,-95,-79V154c0,0,0,-70,8,-87c0,0,8,-17,29,-29c0,0,22,-12,74,-12V0Z" 
id="f1_24"
transform="scale(0.001,-0.001)" />

<path d="M398,24c0,0,74,0,120,58c0,0,61,76,61,214c0,0,0,156,-69,240c0,0,-47,59,-113,59c0,0,-36,0,-71,-18c0,0,-27,-14,-88,-81V242c0,0,0,-83,6,-109c0,0,11,-43,51,-76c0,0,41,-33,103,-33ZM-4,-326v27H15c5,0,42,0,69,16c0,0,14,8,22,26c0,0,7,19,7,94V481c0,0,0,67,-6,85c0,0,-5,18,-18,27c0,0,-13,9,-36,9c0,0,-18,0,-45,-10L0,615l209,85h29V540c0,0,53,91,106,127c0,0,53,36,112,36c0,0,103,0,172,-80c0,0,84,-99,84,-257c0,0,0,-176,-102,-292c0,0,-83,-94,-210,-94c0,0,-55,0,-95,16c0,0,-30,10,-67,44V-167c0,0,0,-71,8,-90c0,0,9,-20,30,-31c0,0,21,-11,77,-11v-27Z" 
id="f1_2c"
transform="scale(0.001,-0.001)" />

<path d="M191,-20c0,0,-34,0,-58,24c0,0,-24,24,-24,58c0,0,0,35,24,59c0,0,24,24,58,24c0,0,35,0,59,-24c0,0,24,-25,24,-59c0,0,0,-34,-24,-58c0,0,-25,-24,-59,-24Z" 
id="f1_i"
transform="scale(0.001,-0.001)" />

<path d="M114,0V27h27c0,0,65,0,93,15c0,0,27,15,37,41c0,0,10,27,10,122V729c0,0,0,71,-7,89c0,0,-7,17,-25,30c0,0,-18,12,-42,12c0,0,-38,0,-93,-24l-13,26l372,171h25V205c0,0,0,-93,8,-119c0,0,8,-26,34,-42c0,0,27,-17,84,-17h23V0Z" 
id="f2_l"
transform="scale(0.001,-0.001)" />

<path d="M383,34c0,0,38,0,56,24c0,0,32,42,36,129l3,320c0,0,0,266,-3,310c0,0,-7,103,-36,140c0,0,-18,24,-60,24c0,0,-32,0,-51,-18c0,0,-28,-26,-38,-92c0,0,-9,-66,-9,-460c0,0,0,-215,15,-288c0,0,11,-53,32,-71c0,0,21,-18,55,-18Zm-2,-54c0,0,-73,0,-132,37c0,0,-59,37,-105,106c0,0,-33,51,-57,135c0,0,-32,114,-32,236c0,0,0,165,46,303c0,0,38,114,116,175c0,0,77,61,164,61c0,0,88,0,165,-61c0,0,76,-60,112,-161c0,0,50,-139,50,-305c0,0,0,-151,-42,-283c0,0,-26,-80,-69,-132c0,0,-43,-51,-97,-81c0,0,-55,-30,-119,-30Z" 
id="f2_k"
transform="scale(0.001,-0.001)" />

<path d="M191,-18c0,0,-51,0,-87,36c0,0,-37,36,-37,87c0,0,0,52,37,88c0,0,36,37,87,37c0,0,52,0,89,-37c0,0,36,-36,36,-88c0,0,0,-51,-37,-87c0,0,-36,-36,-88,-36Z" 
id="f2_i"
transform="scale(0.001,-0.001)" />

<path d="M37,0V16c0,0,275,327,333,439c0,0,59,113,59,220c0,0,0,79,-49,131c0,0,-49,52,-119,52c0,0,-115,0,-178,-115l-28,9c0,0,40,143,123,212c0,0,82,69,189,69c0,0,77,0,141,-36c0,0,63,-36,99,-98c0,0,36,-63,36,-117c0,0,0,-99,-56,-202c0,0,-75,-138,-329,-384H477c0,0,81,0,105,6c0,0,24,7,40,23c0,0,15,16,41,67h27L633,0Z" 
id="f2_m"
transform="scale(0.001,-0.001)" />

<path d="M635,-22c0,0,-144,0,-239,38c0,0,-96,39,-168,102c0,0,-73,64,-114,144c0,0,-52,103,-52,230c0,0,0,228,160,385c0,0,161,157,404,157c0,0,75,0,136,-12c0,0,33,-6,106,-34c0,0,74,-28,87,-28c0,0,21,0,39,16c0,0,18,15,33,58h27V678h-27c0,0,-50,146,-150,222c0,0,-100,76,-219,76c0,0,-113,0,-189,-64c0,0,-75,-64,-107,-178c0,0,-31,-114,-31,-234c0,0,0,-145,34,-255c0,0,35,-110,111,-161c0,0,76,-52,181,-52c0,0,37,0,75,8c0,0,39,8,79,23V274c0,0,0,60,-8,77c0,0,-9,18,-34,32c0,0,-26,14,-63,14H680v27h493V397c0,0,-56,-4,-78,-15c0,0,-22,-12,-34,-39c0,0,-6,-14,-6,-69L1054,63c0,0,-97,-43,-201,-64c0,0,-105,-21,-218,-21Z" 
id="f2_17"
transform="scale(0.001,-0.001)" />

<path d="M458,424c0,0,0,120,-13,165c0,0,-13,44,-40,67c0,0,-16,14,-42,14c0,0,-39,0,-63,-38c0,0,-44,-66,-44,-182V424ZM358,-20c0,0,-155,0,-235,119c0,0,-64,96,-64,239c0,0,0,174,94,277c0,0,94,104,221,104c0,0,106,0,184,-87c0,0,78,-87,84,-257H259c0,0,7,-139,74,-220c0,0,51,-62,124,-62c0,0,45,0,81,25c0,0,37,25,79,90l25,-16C642,192,585,76,517,28c0,0,-69,-48,-159,-48Z" 
id="f2_21"
transform="scale(0.001,-0.001)" />

<path d="M381,31c0,0,33,0,56,19c0,0,29,25,38,71c0,0,15,71,15,286c0,0,0,127,-14,174c0,0,-14,48,-42,69c0,0,-19,16,-50,16c0,0,-38,0,-65,-29c0,0,-27,-29,-36,-113c0,0,-8,-85,-8,-235c0,0,0,-80,10,-150c0,0,8,-53,35,-80c0,0,27,-28,61,-28Zm2,-51c0,0,-157,0,-242,110c0,0,-85,110,-85,256c0,0,0,150,87,261c0,0,86,112,238,112c0,0,90,0,169,-47c0,0,78,-47,119,-134c0,0,40,-86,40,-189c0,0,0,-149,-75,-249c0,0,-91,-120,-251,-120Z" 
id="f2_2b"
transform="scale(0.001,-0.001)" />

<path d="M56,0V26c0,0,44,5,63,29c0,0,13,16,13,97V546c0,0,0,79,-15,98c0,0,-14,20,-61,26v27H341V606c0,0,57,63,106,88c0,0,49,25,108,25c0,0,67,0,112,-32c0,0,46,-31,71,-95c0,0,59,67,114,97c0,0,55,30,115,30c0,0,72,0,115,-34c0,0,43,-33,60,-84c0,0,16,-51,16,-163V152c0,0,0,-81,15,-100c0,0,14,-20,61,-26V0H873V26c0,0,42,4,63,33c0,0,13,20,13,93V452c0,0,0,93,-7,119c0,0,-8,25,-24,38c0,0,-16,12,-37,12c0,0,-32,0,-65,-24c0,0,-33,-23,-66,-70V152c0,0,0,-76,12,-95c0,0,17,-28,66,-31V0H466V26c0,0,29,2,46,15c0,0,17,13,23,31c0,0,5,18,5,80V452c0,0,0,95,-7,119c0,0,-8,24,-25,37c0,0,-18,14,-38,14c0,0,-30,0,-54,-16c0,0,-35,-23,-75,-79V152c0,0,0,-74,14,-98c0,0,15,-23,61,-28V0Z" 
id="f2_29"
transform="scale(0.001,-0.001)" />

<path d="M298,-9c0,0,-67,0,-113,36c0,0,-46,37,-58,83c0,0,-8,25,-8,137V624H28v26c0,0,94,66,161,139c0,0,66,73,115,163h25V697H494V624H329V193c0,0,0,-60,5,-78c0,0,6,-17,20,-28c0,0,14,-11,26,-11c0,0,48,0,92,75l22,-17C494,134,434,-9,298,-9Z" 
id="f2_2g"
transform="scale(0.001,-0.001)" />

<path d="M57,0V26c0,0,45,4,61,25c0,0,16,22,16,113V550c0,0,0,59,-6,76c0,0,-7,21,-22,30c0,0,-14,10,-49,14v27H342l1,-158c0,0,69,109,121,144c0,0,52,36,100,36c0,0,42,0,66,-26c0,0,25,-26,25,-73c0,0,0,-50,-24,-77c0,0,-25,-28,-59,-28c0,0,-39,0,-68,25c0,0,-28,26,-33,29c0,0,-8,4,-17,4c0,0,-22,0,-41,-16c0,0,-31,-26,-46,-73c0,0,-24,-72,-24,-159V122c0,0,0,-42,5,-54c0,0,9,-21,27,-30c0,0,17,-9,59,-12V0Z" 
id="f2_2e"
transform="scale(0.001,-0.001)" />

<path d="M32,0V26c0,0,46,2,69,27c0,0,14,18,14,92V551c0,0,0,75,-17,95c0,0,-17,21,-66,24v27H325V145c0,0,0,-74,17,-95c0,0,17,-21,68,-24V0ZM220,804c0,0,-48,0,-82,33c0,0,-33,34,-33,82c0,0,0,48,33,82c0,0,34,33,82,33c0,0,48,0,82,-33c0,0,33,-34,33,-82c0,0,0,-48,-34,-82c0,0,-34,-33,-81,-33Z" 
id="f2_25"
transform="scale(0.001,-0.001)" />

<path d="M365,-20c0,0,-139,0,-223,105c0,0,-83,105,-83,253c0,0,0,142,76,250c0,0,92,131,253,131c0,0,108,0,172,-55c0,0,63,-54,63,-121c0,0,0,-43,-25,-68c0,0,-26,-25,-68,-25c0,0,-44,0,-73,29c0,0,-28,29,-35,104c0,0,-5,47,-22,65c0,0,-17,19,-40,19c0,0,-36,0,-61,-38c0,0,-39,-58,-39,-176c0,0,0,-99,31,-188c0,0,32,-90,86,-134c0,0,41,-32,97,-32c0,0,36,0,69,17c0,0,33,17,78,65l23,-18C644,163,595,70,521,25c0,0,-73,-45,-156,-45Z" 
id="f2_1z"
transform="scale(0.001,-0.001)" />

<path d="M350,115c0,0,37,0,86,42V391c0,0,-90,-53,-134,-113c0,0,-29,-41,-29,-82c0,0,0,-34,24,-60c0,0,19,-21,53,-21ZM207,-9c0,0,-59,0,-99,38c0,0,-40,40,-40,99c0,0,0,80,69,143c0,0,69,64,299,170v70c0,0,0,79,-8,100c0,0,-9,20,-33,36c0,0,-23,15,-53,15c0,0,-49,0,-80,-22c0,0,-19,-13,-19,-31c0,0,0,-16,21,-39c0,0,28,-32,28,-62c0,0,0,-36,-27,-62c0,0,-27,-26,-71,-26c0,0,-47,0,-79,29c0,0,-32,28,-32,66c0,0,0,54,43,103c0,0,42,48,118,75c0,0,76,26,158,26c0,0,99,0,157,-42c0,0,58,-43,75,-92c0,0,11,-31,11,-144V170c0,0,0,-47,3,-60c0,0,4,-12,11,-18c0,0,8,-6,18,-6c0,0,19,0,39,28L738,96c0,0,-37,-56,-77,-81c0,0,-40,-24,-90,-24c0,0,-60,0,-94,27c0,0,-33,28,-41,85C436,103,309,-9,207,-9Z" 
id="f2_1x"
transform="scale(0.001,-0.001)" />

<path d="M32,0V26c0,0,46,2,69,27c0,0,14,18,14,92V867c0,0,0,74,-17,94c0,0,-17,21,-66,24v27H325V145c0,0,0,-74,17,-95c0,0,17,-21,68,-24V0Z" 
id="f2_28"
transform="scale(0.001,-0.001)" />

<path d="M29,0V27H63c0,0,44,0,71,16c0,0,19,11,30,36c0,0,8,18,8,94V839c0,0,0,78,-8,97c0,0,-8,20,-33,34c0,0,-25,15,-68,15H29v27H558V985H525c0,0,-44,0,-71,-16c0,0,-19,-11,-30,-36c0,0,-8,-18,-8,-94V173c0,0,0,-78,8,-97c0,0,9,-20,34,-34c0,0,24,-15,67,-15h33V0Z" 
id="f2_19"
transform="scale(0.001,-0.001)" />

<path d="M312,-20c0,0,-50,0,-134,30c0,0,-22,9,-30,9c0,0,-25,0,-41,-37H82L70,232H97c0,0,33,-99,91,-148c0,0,59,-49,111,-49c0,0,35,0,58,22c0,0,22,22,22,54c0,0,0,35,-22,61c0,0,-22,27,-100,80c0,0,-114,79,-147,120c0,0,-49,62,-49,136c0,0,0,80,55,145c0,0,56,66,161,66c0,0,56,0,109,-28c0,0,20,-11,33,-11c0,0,13,0,21,5c0,0,9,6,27,32h26L504,479H477c0,0,-45,106,-94,145c0,0,-48,39,-96,39c0,0,-31,0,-52,-21c0,0,-22,-20,-22,-47c0,0,0,-20,15,-39c0,0,24,-30,133,-105c0,0,110,-74,144,-126c0,0,35,-52,35,-116c0,0,0,-58,-29,-114C511,95,482,39,429,9c0,0,-53,-29,-117,-29Z" 
id="f2_2f"
transform="scale(0.001,-0.001)" />

<path d="M52,0V26c0,0,44,5,62,29c0,0,13,16,13,97V546c0,0,0,79,-14,98c0,0,-15,20,-61,26v27H336V607c0,0,54,59,104,85c0,0,49,27,106,27c0,0,68,0,113,-38c0,0,44,-38,59,-94c0,0,12,-42,12,-163V152c0,0,0,-81,15,-101c0,0,14,-19,61,-25V0H452V26c0,0,40,6,57,33c0,0,12,19,12,93V462c0,0,0,86,-7,109c0,0,-6,22,-22,35c0,0,-16,12,-36,12c0,0,-64,0,-120,-92V152c0,0,0,-79,15,-100c0,0,15,-20,55,-26V0Z" 
id="f2_2a"
transform="scale(0.001,-0.001)" />

<path d="M394,65c0,0,27,0,61,18c0,0,33,19,64,59V429c0,0,0,120,-13,159c0,0,-13,38,-47,67c0,0,-18,14,-45,14c0,0,-57,0,-88,-50c0,0,-48,-77,-48,-285c0,0,0,-161,42,-225c0,0,29,-44,74,-44Zm23,-391v28c0,0,45,0,66,10c0,0,21,11,28,28c0,0,8,17,8,70V73C519,73,474,26,434,6c0,0,-52,-26,-108,-26c0,0,-131,0,-207,117c0,0,-60,93,-60,223c0,0,0,108,45,203c0,0,46,95,126,145c0,0,80,51,170,51c0,0,59,0,106,-20c0,0,46,-21,80,-61l117,81h25V-184c0,0,0,-69,12,-86c0,0,20,-27,78,-28v-28Z" 
id="f2_2d"
transform="scale(0.001,-0.001)" />

<path d="M304,-20c0,0,-59,0,-105,36c0,0,-45,36,-61,84c0,0,-16,49,-16,169V546c0,0,0,79,-14,98c0,0,-15,20,-61,26v27H331V221c0,0,0,-74,8,-96c0,0,7,-21,22,-33c0,0,15,-11,35,-11c0,0,27,0,49,14c0,0,30,20,71,78V546c0,0,0,79,-14,98c0,0,-15,20,-61,26v27H726V152c0,0,0,-81,14,-100c0,0,15,-20,61,-26V0H516V93C516,93,466,34,416,7c0,0,-50,-27,-112,-27Z" 
id="f2_2h"
transform="scale(0.001,-0.001)" />

<path d="M459,56c0,0,40,0,66,42c0,0,39,63,39,239c0,0,0,180,-42,247c0,0,-29,44,-76,44c0,0,-76,0,-124,-109V147c0,0,64,-91,137,-91ZM29,-326v28c0,0,46,1,69,26c0,0,14,17,14,89V551c0,0,0,75,-17,95c0,0,-17,21,-66,24v27H322V605c0,0,36,54,74,78c0,0,55,36,119,36c0,0,77,0,140,-49c0,0,63,-48,95,-134c0,0,33,-85,33,-184c0,0,0,-106,-34,-193c0,0,-34,-88,-98,-134c0,0,-65,-45,-144,-45c0,0,-57,0,-107,25c0,0,-37,19,-78,66V-188c0,0,0,-53,8,-73c0,0,9,-19,27,-28c0,0,18,-9,70,-9v-28Z" 
id="f2_2c"
transform="scale(0.001,-0.001)" />

<path d="M34,0V26c0,0,51,0,93,28c0,0,42,28,123,147l58,85L188,509c0,0,-59,109,-88,133c0,0,-29,25,-65,28v27H419V669L362,656c0,0,-6,-6,-6,-18c0,0,0,-11,4,-23c0,0,2,-5,20,-40L435,473l27,41c0,0,60,82,60,115c0,0,0,15,-13,26c0,0,-13,11,-47,15v27H710V670c0,0,-46,-2,-85,-28c0,0,-40,-27,-89,-103L460,427L584,198c0,0,62,-121,99,-153c0,0,20,-17,55,-19V0H349V26c0,0,46,4,57,12c0,0,11,9,11,23c0,0,0,21,-24,66L332,240L281,165c0,0,-35,-52,-39,-62c0,0,-6,-14,-6,-25c0,0,0,-17,7,-29c0,0,7,-11,19,-17c0,0,13,-6,45,-6V0Z" 
id="f2_2k"
transform="scale(0.001,-0.001)" />

<path d="M678,393L506,802L330,393ZM11,0V27c0,0,63,12,82,30c0,0,38,35,84,145l356,832h27L912,193c0,0,43,-101,77,-132c0,0,35,-30,97,-34V0H687V27c0,0,60,3,82,21c0,0,21,17,21,41c0,0,0,33,-30,104L700,338H307L239,179c0,0,-26,-59,-26,-88c0,0,0,-23,22,-41c0,0,22,-17,95,-23V0Z" 
id="f1_11"
transform="scale(0.001,-0.001)" />

<path d="M384,85c0,0,44,0,78,19c0,0,35,19,68,62V487c0,0,0,55,-15,87c0,0,-14,33,-51,55c0,0,-38,22,-85,22c0,0,-84,0,-143,-71c0,0,-60,-70,-60,-214c0,0,0,-138,61,-209c0,0,61,-72,147,-72Zm35,-411v27h15c0,0,41,0,63,12c0,0,15,8,24,30c0,0,9,21,9,83V119C530,119,462,39,411,9c0,0,-50,-29,-105,-29c0,0,-99,0,-177,90c0,0,-78,90,-78,241c0,0,0,174,103,283c0,0,103,109,248,109c0,0,43,0,78,-12c0,0,36,-12,65,-35c0,0,43,20,83,47h25V-174c0,0,0,-66,9,-85c0,0,9,-19,28,-30c0,0,19,-10,74,-10v-27Z" 
id="f1_2d"
transform="scale(0.001,-0.001)" />

<path d="M292,-20c0,0,-57,0,-100,33c0,0,-42,33,-58,85c0,0,-17,52,-17,148V551c0,0,0,49,-10,68c0,0,-11,18,-31,29c0,0,-19,9,-68,9c-2,0,-4,0,-6,0v26H242V226c0,0,0,-95,33,-125c0,0,33,-30,80,-30c0,0,32,0,73,21c0,0,40,20,96,76V555c0,0,0,59,-21,80c0,0,-22,21,-89,22v26H647V269c0,0,0,-119,6,-145c0,0,6,-27,18,-37c0,0,12,-11,29,-11c0,0,23,0,52,13L763,63L558,-20H524V124C524,124,436,29,390,4c0,0,-47,-24,-98,-24Z" 
id="f1_2h"
transform="scale(0.001,-0.001)" />

<path d="M25,0V26c0,0,27,4,47,19c0,0,29,22,96,111L311,346L182,535c0,0,-55,81,-86,102c0,0,-30,20,-75,20v26H341V657c0,0,-30,0,-42,-10c0,0,-13,-11,-13,-28c0,0,0,-19,27,-56c0,0,8,-12,25,-37l48,-78l56,77c0,0,55,74,55,94c0,0,0,16,0,27c0,0,0,11,0,11v26H674V657c0,0,-37,-2,-64,-20c0,0,-37,-26,-100,-111L416,402L587,156c0,0,63,-91,89,-109c0,0,27,-18,70,-21V0H423V26c0,0,34,0,53,15c0,0,14,11,14,28c0,0,0,17,-48,87L341,302L232,157c0,0,-50,-69,-50,-82c0,0,0,-18,17,-32c0,0,17,-15,50,-17V0Z" 
id="f1_2k"
transform="scale(0.001,-0.001)" />

<path d="M376,-20L133,556c0,0,-17,41,-31,58c0,0,-15,18,-39,30c0,0,-12,7,-50,13v26H335V657H314c0,0,-29,0,-44,-14c0,0,-16,-14,-15,-38c0,0,-1,-26,15,-62L429,165L588,557c0,0,17,42,17,64c0,0,0,10,-6,17c0,0,-8,11,-21,15c0,0,-13,4,-52,4v26H750V657c0,0,-39,-3,-54,-16c0,0,-26,-23,-47,-76L409,-20Z" 
id="f1_2i"
transform="scale(0.001,-0.001)" />

<path d="M17,-328c0,0,-67,0,-100,24c0,0,-33,25,-33,51c0,0,0,26,18,45c0,0,18,18,43,18c0,0,19,0,40,-9c0,0,12,-6,48,-38c0,0,37,-33,61,-33c0,0,18,0,35,14c0,0,17,14,25,46c0,0,8,33,8,141V416c0,0,0,113,-6,145c0,0,-6,25,-17,34c0,0,-11,10,-31,10c0,0,-21,0,-51,-11L47,620l207,83h32V16c0,0,0,-175,-74,-260c0,0,-75,-84,-195,-84ZM223,908c0,0,-32,0,-54,23c0,0,-22,22,-22,53c0,0,0,32,22,55c0,0,22,22,54,22c0,0,32,0,54,-22c0,0,22,-23,22,-55c0,0,0,-31,-22,-53c0,0,-22,-23,-54,-23Z" 
id="f1_26"
transform="scale(0.001,-0.001)" />

<path d="M474,-326c0,0,-112,57,-188,133c0,0,-107,108,-165,254c0,0,-58,147,-58,305c0,0,0,231,114,421c0,0,114,191,297,273v-31c0,0,-92,-51,-151,-139c0,0,-59,-88,-88,-223c0,0,-30,-135,-30,-281c0,0,0,-160,25,-290c0,0,20,-102,47,-164c0,0,28,-62,75,-120c0,0,47,-57,122,-109v-29Z" 
id="f1_c"
transform="scale(0.001,-0.001)" />

<path d="M379,437c0,0,34,0,81,16c0,0,47,17,83,47c0,0,14,97,14,155c0,0,0,72,-25,156c0,0,-25,83,-70,128c0,0,-45,45,-103,45c0,0,-66,0,-116,-60c0,0,-50,-59,-50,-177c0,0,0,-157,66,-246c0,0,49,-64,120,-64ZM80,-20V7c0,0,97,1,181,45c0,0,83,44,161,153c0,0,78,109,109,240c0,0,-117,-75,-212,-75c0,0,-107,0,-183,82c0,0,-76,82,-76,219c0,0,0,132,76,236c0,0,92,126,240,126c0,0,124,0,213,-103c0,0,109,-128,109,-315c0,0,0,-169,-82,-314C616,301,533,155,385,59c0,0,-120,-79,-262,-79Z" 
id="f1_t"
transform="scale(0.001,-0.001)" />

<path d="M379,29c0,0,41,0,84,37c0,0,43,36,65,121c0,0,34,128,34,362c0,0,0,173,-35,288c0,0,-27,86,-69,122c0,0,-31,25,-74,25c0,0,-51,0,-90,-46c0,0,-54,-62,-73,-195c0,0,-20,-132,-20,-261c0,0,0,-209,52,-341c0,0,42,-112,126,-112Zm-2,-46c0,0,-145,0,-241,170c0,0,-81,144,-81,347c0,0,0,173,52,298c0,0,52,125,139,186c0,0,67,49,139,49c0,0,116,0,208,-119c0,0,116,-147,116,-398c0,0,0,-176,-51,-299C658,217,608,94,529,38c0,0,-79,-55,-152,-55Z" 
id="f1_k"
transform="scale(0.001,-0.001)" />

<path d="M255,626c0,0,42,0,70,33c0,0,28,33,28,105c0,0,0,116,-53,190c0,0,-33,46,-79,46c0,0,-39,0,-66,-33c0,0,-28,-34,-28,-107c0,0,0,-118,52,-192c0,0,29,-42,76,-42ZM232,588c0,0,-88,0,-149,60c0,0,-61,61,-61,154c0,0,0,103,61,167c0,0,62,64,159,64c0,0,92,0,153,-63c0,0,61,-63,61,-156c0,0,0,-92,-67,-159c0,0,-66,-67,-157,-67Z" 
id="f1_4f"
transform="scale(0.001,-0.001)" />

<path d="M35,-326v29c0,0,92,51,151,139c0,0,60,87,89,221c0,0,28,136,28,282c0,0,0,159,-24,290c0,0,-19,103,-47,165c0,0,-28,62,-75,119c0,0,-46,57,-122,110v31c0,0,113,-56,188,-132c0,0,107,-109,165,-255c0,0,58,-147,58,-306c0,0,0,-231,-114,-420c0,0,-113,-191,-297,-273Z" 
id="f1_d"
transform="scale(0.001,-0.001)" />

<path d="M62,286V399H448V286Z" 
id="f1_h"
transform="scale(0.001,-0.001)" />

<path d="M336,-20L117,554c0,0,-21,55,-42,74c0,0,-21,19,-66,29v26H296V657c0,0,-40,-3,-52,-14c0,0,-13,-12,-13,-33c0,0,0,-23,13,-56L390,162L537,481L498,581c0,0,-18,46,-47,63c0,0,-17,11,-61,13v26H716V657c0,0,-54,-2,-77,-20c0,0,-15,-12,-15,-39c0,0,0,-15,6,-30L785,177L929,554c0,0,15,40,15,65c0,0,0,14,-15,25c0,0,-14,12,-57,13v26h216V657c0,0,-65,-10,-95,-89L764,-20H733L563,415L363,-20Z" 
id="f1_2j"
transform="scale(0.001,-0.001)" />

<path d="M197,0V27c0,0,71,2,92,13c0,0,21,10,29,29c0,0,9,18,9,109V725c0,0,0,110,-8,141c0,0,-5,24,-19,35c0,0,-14,11,-33,11c0,0,-28,0,-77,-23l-11,23l246,121h25V178c0,0,0,-85,7,-106c0,0,7,-21,29,-32c0,0,23,-11,91,-13V0Z" 
id="f1_l"
transform="scale(0.001,-0.001)" />

<path d="M394,23c0,0,80,0,129,45c0,0,48,45,48,110c0,0,0,54,-28,97c0,0,-53,79,-214,206c0,0,-62,-52,-92,-114c0,0,-30,-61,-30,-133c0,0,0,-96,53,-154c0,0,52,-57,134,-57Zm17,566c0,0,90,81,114,128c0,0,24,46,24,105c0,0,0,79,-44,123c0,0,-44,45,-121,45c0,0,-76,0,-124,-45c0,0,-48,-44,-48,-103c0,0,0,-38,20,-77c0,0,20,-39,56,-74L411,589ZM382,-17c0,0,-144,0,-225,90c0,0,-64,72,-64,158c0,0,0,67,45,133c0,0,45,66,156,146c0,0,-121,98,-156,158c0,0,-34,59,-34,124c0,0,0,98,76,169c0,0,76,72,202,72c0,0,123,0,198,-67c0,0,74,-66,74,-151c0,0,0,-57,-40,-116c0,0,-40,-59,-168,-139c0,0,132,-101,174,-159c0,0,57,-76,57,-161c0,0,0,-106,-82,-182c0,0,-81,-75,-213,-75Z" 
id="f1_s"
transform="scale(0.001,-0.001)" />

<path d="M30,0V27H40c0,0,1,0,2,0c6,0,36,1,62,11c0,0,29,12,44,31c0,0,15,20,23,55c0,0,2,8,2,76V841c0,0,0,77,-9,96c0,0,-8,19,-33,33c0,0,-26,15,-69,15H30v27H445L729,346l274,666h412V985h-33c0,0,-45,0,-72,-16c0,0,-19,-10,-30,-35c0,0,-8,-18,-8,-93V173c0,0,0,-78,8,-97c0,0,8,-20,34,-34c0,0,25,-15,68,-15h33V0H886V27h33c0,0,44,0,71,16c0,0,19,11,30,36c0,0,8,18,8,94V923L641,0H623L229,916V203c0,0,0,-74,4,-91c0,0,10,-38,42,-61c0,0,33,-24,102,-24V0Z" 
id="f2_1d"
transform="scale(0.001,-0.001)" />

<path d="M434,31c0,0,38,0,65,22c0,0,28,22,46,86c0,0,18,64,18,231c0,0,0,161,-40,220c0,0,-29,44,-78,44c0,0,-64,0,-123,-73V251c0,0,0,-95,4,-121c0,0,8,-44,36,-71c0,0,28,-28,72,-28ZM115,-20V867c0,0,0,61,-5,75c0,0,-7,21,-23,31c0,0,-17,10,-55,12v27H322V628c0,0,88,91,192,91c0,0,72,0,135,-42c0,0,64,-43,99,-120c0,0,36,-78,36,-179c0,0,0,-114,-45,-208C739,170,693,77,617,28c0,0,-76,-48,-174,-48c0,0,-56,0,-100,18c0,0,-44,17,-87,57L141,-20Z" 
id="f2_1y"
transform="scale(0.001,-0.001)" />

<path d="M473,53c0,0,173,0,287,121c0,0,114,122,114,330c0,0,0,210,-114,330c0,0,-114,121,-293,121c0,0,-67,0,-153,-21V74c0,0,95,-21,159,-21ZM26,0V27H64c0,0,64,0,91,41c0,0,16,25,16,111V833c0,0,0,95,-21,119c0,0,-29,33,-86,33H26v27H438c0,0,226,0,345,-51c0,0,118,-52,190,-172c0,0,72,-120,72,-278c0,0,0,-211,-129,-353C916,158,773,0,478,0Z" 
id="f1_14"
transform="scale(0.001,-0.001)" />

<path d="M63,0V26H93c0,0,30,0,54,15c0,0,25,15,34,41c0,0,10,25,10,99V630H58v53H191v45c0,0,0,102,33,173c0,0,32,71,100,114c0,0,68,44,152,44c0,0,79,0,145,-51c0,0,43,-33,43,-75c0,0,0,-22,-19,-42c0,0,-20,-20,-42,-20c0,0,-17,0,-36,12c0,0,-19,13,-47,53c0,0,-28,41,-51,55c0,0,-23,14,-51,14c0,0,-35,0,-58,-18c0,0,-24,-18,-35,-57c0,0,-10,-38,-10,-197V683H491V630H315V181c0,0,0,-96,21,-122c0,0,27,-33,73,-33h62V0Z" 
id="f1_22"
transform="scale(0.001,-0.001)" />

<path d="M125,-302V1034H453V975H237V-243H453v-59Z" 
id="f1_1r"
transform="scale(0.001,-0.001)" />

<path d="M435,502c0,0,78,0,134,60c0,0,57,60,57,155c0,0,0,66,-27,122c0,0,-27,56,-76,84c0,0,-50,28,-112,28c0,0,-38,0,-98,-14V517c0,0,39,-8,70,-12c0,0,31,-3,52,-3ZM25,0V27H63c0,0,65,0,92,42c0,0,15,23,15,110V833c0,0,0,96,-20,119c0,0,-29,33,-87,33H25v27H396c0,0,136,0,214,-28c0,0,78,-28,132,-94c0,0,54,-67,54,-158c0,0,0,-124,-82,-202c0,0,-82,-77,-231,-77c0,0,-36,0,-79,5c0,0,-43,5,-91,16V179c0,0,0,-96,21,-119c0,0,28,-33,85,-33h39V0Z" 
id="f1_1g"
transform="scale(0.001,-0.001)" />

<path d="M548,-21c0,0,-251,0,-389,185C159,164,56,303,56,490c0,0,0,152,68,278c0,0,67,127,186,197c0,0,119,69,260,69c0,0,109,0,216,-53c0,0,31,-17,44,-17c0,0,20,0,35,14c0,0,20,21,28,56h26L943,690H919c0,0,-46,155,-131,224c0,0,-86,68,-206,68c0,0,-100,0,-181,-51c0,0,-81,-52,-128,-163c0,0,-46,-112,-46,-279c0,0,0,-137,44,-238c0,0,44,-101,132,-154c0,0,88,-54,201,-54c0,0,99,0,174,42c0,0,75,42,165,167l23,-14C966,238,890,103,789,40c0,0,-102,-61,-241,-61Z" 
id="f1_13"
transform="scale(0.001,-0.001)" />

<path d="M33,0V27c0,0,264,241,371,393c0,0,108,152,108,278c0,0,0,96,-59,158c0,0,-59,62,-141,62c0,0,-75,0,-134,-43c0,0,-59,-44,-88,-128H63c0,0,18,138,95,212c0,0,77,74,193,74c0,0,123,0,205,-80c0,0,83,-79,83,-186c0,0,0,-77,-36,-154c0,0,-55,-121,-179,-256C424,357,238,154,191,112H455c0,0,81,0,114,6c0,0,32,6,58,25c0,0,27,18,46,52h27L630,0Z" 
id="f1_m"
transform="scale(0.001,-0.001)" />

<path d="M911,-16L244,799V175c0,0,0,-93,21,-116c0,0,28,-32,86,-32h36V0H36V27H71c0,0,65,0,92,39c0,0,16,24,16,109V879c0,0,-44,52,-67,68c0,0,-23,17,-67,31c0,0,-21,7,-64,7v27H253L873,253V837c0,0,0,93,-21,116c0,0,-28,32,-87,32H730v27h351V985h-36c0,0,-64,0,-91,-39c0,0,-16,-24,-16,-109V-16Z" 
id="f1_1e"
transform="scale(0.001,-0.001)" />

<path d="M26,0V27H62c0,0,63,0,91,37c0,0,18,24,18,115V833c0,0,0,77,-10,102c0,0,-7,18,-30,32c0,0,-33,18,-69,18H26v27H459V985H422c0,0,-35,0,-67,-17c0,0,-23,-12,-32,-36c0,0,-9,-25,-9,-99V542H784V833c0,0,0,77,-10,102c0,0,-8,18,-31,32c0,0,-33,18,-68,18H639v27h432V985h-36c0,0,-36,0,-68,-17c0,0,-24,-12,-32,-36c0,0,-9,-25,-9,-99V179c0,0,0,-77,10,-102c0,0,7,-18,31,-32c0,0,32,-18,68,-18h36V0H639V27h36c0,0,62,0,90,37c0,0,19,24,19,115V487H314V179c0,0,0,-77,9,-102c0,0,8,-18,32,-32c0,0,32,-18,67,-18h37V0Z" 
id="f1_18"
transform="scale(0.001,-0.001)" />

<path d="M238,-17c0,0,-103,0,-139,25C99,8,62,33,62,62c0,0,0,22,17,38c0,0,18,16,42,16c0,0,19,0,38,-6c0,0,13,-3,58,-27c0,0,45,-23,62,-28c0,0,27,-8,59,-8c0,0,76,0,132,59c0,0,56,59,56,140c0,0,0,59,-26,115c0,0,-19,41,-42,63c0,0,-32,30,-88,54c0,0,-56,25,-114,25H232v22c0,0,59,8,118,42c0,0,59,35,86,85c0,0,27,49,27,108c0,0,0,76,-48,124c0,0,-48,47,-120,47c0,0,-116,0,-193,-124L77,819c0,0,44,102,110,158c0,0,66,56,164,56c0,0,122,0,187,-80c0,0,49,-58,49,-126c0,0,0,-110,-139,-228c0,0,93,-36,141,-104c0,0,48,-68,48,-160c0,0,0,-131,-84,-227C553,108,444,-17,238,-17Z" 
id="f1_n"
transform="scale(0.001,-0.001)" />

<path d="M56,-302v60H272V975H56v59H383V-302Z" 
id="f1_1t"
transform="scale(0.001,-0.001)" />

<path d="M78,-22V359h28c0,0,32,-161,126,-246c0,0,94,-85,202,-85c0,0,84,0,133,46c0,0,50,45,50,106c0,0,0,36,-19,69c0,0,-19,34,-58,64c0,0,-39,30,-138,79c0,0,-138,68,-198,115c0,0,-60,48,-92,107c0,0,-33,59,-33,130c0,0,0,120,89,205c0,0,89,85,224,85c0,0,49,0,96,-11c0,0,35,-9,85,-34c0,0,51,-24,71,-24c0,0,19,0,30,12c0,0,12,12,21,57h23l8,-337H695c0,0,-21,127,-106,204c0,0,-85,78,-184,78c0,0,-76,0,-121,-41c0,0,-44,-41,-44,-94c0,0,0,-33,15,-59c0,0,22,-35,70,-70c0,0,35,-24,162,-87c0,0,178,-87,240,-165c0,0,61,-77,61,-177c0,0,0,-127,-99,-218c0,0,-99,-90,-251,-90c0,0,-48,0,-90,9c0,0,-43,10,-107,36c0,0,-36,15,-59,15c0,0,-20,0,-41,-15c0,0,-22,-15,-35,-45Z" 
id="f2_1j"
transform="scale(0.001,-0.001)" />

<path d="M145,-328c0,0,-44,0,-73,25c0,0,-28,25,-28,58c0,0,0,31,21,50c0,0,20,19,56,19c0,0,25,0,67,-16c0,0,30,-11,38,-11c0,0,22,0,49,23c0,0,26,23,53,89L376,28L131,542c0,0,-11,24,-36,58c0,0,-19,27,-30,36c0,0,-18,12,-56,21v26H328V657H312c0,0,-33,0,-50,-15c0,0,-17,-14,-17,-36c0,0,0,-30,25,-81L437,179L589,557c0,0,12,31,12,62c0,0,0,13,-5,20c0,0,-6,8,-19,13c0,0,-12,5,-44,5v26H754V657c0,0,-27,-3,-42,-12c0,0,-15,-9,-33,-34c0,0,-7,-10,-25,-58L376,-128c0,0,-40,-99,-105,-150c0,0,-66,-50,-126,-50Z" 
id="f1_2l"
transform="scale(0.001,-0.001)" />

<path d="M254,-20c0,0,-128,0,-187,41C67,21,24,51,24,98c0,0,0,34,25,59c0,0,25,24,57,24c0,0,25,0,46,-11c0,0,12,-6,85,-65c0,0,73,-59,136,-59c0,0,56,0,95,44c0,0,40,43,40,110c0,0,0,102,-72,189c0,0,-72,86,-210,118v27c0,0,85,24,118,46c0,0,33,21,57,64c0,0,24,44,24,89c0,0,0,61,-46,106c0,0,-45,44,-112,44c0,0,-105,0,-178,-110l-27,9c0,0,53,125,137,188c0,0,84,63,187,63c0,0,105,0,174,-65c0,0,68,-64,68,-150c0,0,0,-56,-32,-107c0,0,-32,-52,-100,-92c0,0,88,-42,134,-105c0,0,46,-62,46,-156c0,0,0,-158,-115,-269C561,89,447,-20,254,-20Z" 
id="f2_n"
transform="scale(0.001,-0.001)" />

<path d="M397,69c0,0,65,0,123,103V539c0,0,-55,105,-134,105c0,0,-28,0,-46,-15c0,0,-27,-23,-45,-81c0,0,-17,-58,-17,-178c0,0,0,-132,19,-195c0,0,19,-63,53,-91c0,0,17,-15,47,-15ZM332,-20c0,0,-133,0,-211,119c0,0,-62,97,-62,238c0,0,0,112,38,202c0,0,39,89,107,134c0,0,67,46,145,46c0,0,50,0,88,-20c0,0,39,-19,83,-67V842c0,0,0,80,-7,96c0,0,-8,22,-26,32c0,0,-18,11,-68,11v31H729V209c0,0,0,-81,5,-96c0,0,6,-25,22,-36c0,0,17,-12,58,-15V37L520,-20V90C520,90,467,26,426,3c0,0,-42,-23,-94,-23Z" 
id="f2_20"
transform="scale(0.001,-0.001)" />

<path d="M485,53c0,0,135,0,206,61c0,0,71,60,71,150c0,0,0,59,-32,114c0,0,-33,54,-105,85c0,0,-72,32,-179,32c0,0,-46,0,-79,-2c0,0,-33,-1,-53,-5V73c0,0,86,-20,171,-20ZM455,547c0,0,109,0,164,23c0,0,55,24,84,72c0,0,29,49,29,106c0,0,0,89,-72,151c0,0,-73,63,-212,63c0,0,-74,0,-134,-16V557c0,0,27,-5,63,-8c0,0,35,-2,78,-2ZM24,0V27H63c0,0,63,0,91,41c0,0,17,26,17,111V833c0,0,0,94,-22,119c0,0,-29,33,-86,33H24v27H462c0,0,122,0,196,-18c0,0,112,-27,171,-95c0,0,59,-68,59,-157c0,0,0,-76,-46,-136c0,0,-47,-60,-137,-89c0,0,105,-23,157,-72c0,0,73,-69,73,-168c0,0,0,-75,-48,-145C887,132,839,63,756,32C756,32,673,0,502,0Z" 
id="f1_12"
transform="scale(0.001,-0.001)" />

<path d="M404,381V781L110,381ZM404,0V227H38V381l480,652h91V381h93V227H609V0Z" 
id="f2_o"
transform="scale(0.001,-0.001)" />

<path d="M491,-305c0,0,-180,60,-305,247C186,-58,61,127,61,368c0,0,0,239,124,423c0,0,125,184,306,243v-34c0,0,-78,-50,-115,-99c0,0,-50,-67,-79,-172c0,0,-36,-131,-36,-365c0,0,0,-221,33,-343c0,0,32,-122,88,-197c0,0,39,-52,109,-92v-37Z" 
id="f2_c"
transform="scale(0.001,-0.001)" />

<path d="M610,343L459,690L304,343ZM12,0V27c0,0,54,9,89,46c0,0,35,37,87,153l361,807h14L928,203c0,0,52,-118,86,-149c0,0,25,-23,71,-27V0H596V27h20c0,0,59,0,83,17c0,0,16,12,16,34c0,0,0,14,-4,28c0,0,-1,7,-22,56L634,288H279L235,190c0,0,-20,-50,-20,-82c0,0,0,-42,34,-63c0,0,20,-12,99,-18V0Z" 
id="f2_11"
transform="scale(0.001,-0.001)" />

<path d="M488,56c0,0,60,0,110,26c0,0,51,27,78,77c0,0,27,50,27,112c0,0,0,71,-33,127c0,0,-32,56,-90,79L407,499V137c0,0,0,-40,20,-61c0,0,21,-20,61,-20ZM407,557c0,0,107,0,157,24c0,0,51,24,78,67c0,0,27,44,27,111c0,0,0,67,-27,110c0,0,-26,43,-76,66c0,0,-47,21,-153,21c-2,0,-3,0,-5,0L407,557ZM32,0V27c0,0,70,0,95,13c0,0,25,14,35,35c0,0,10,21,10,103V834c0,0,0,82,-10,104c0,0,-10,21,-35,34c0,0,-26,13,-95,13v27H517c0,0,174,0,246,-31c0,0,73,-31,115,-92c0,0,41,-62,41,-131c0,0,0,-73,-53,-130c0,0,-53,-57,-186,-91c0,0,144,-34,202,-81c0,0,83,-68,83,-177c0,0,0,-114,-91,-189C874,90,761,0,546,0Z" 
id="f2_12"
transform="scale(0.001,-0.001)" />

<path d="M19,-305v34c0,0,77,52,114,100c0,0,50,67,79,171c0,0,36,131,36,365c0,0,0,221,-33,343c0,0,-32,122,-88,198c0,0,-39,52,-108,91v37c0,0,179,-60,304,-246c0,0,125,-186,125,-428c0,0,0,-238,-125,-421c0,0,-125,-184,-304,-244Z" 
id="f2_d"
transform="scale(0.001,-0.001)" />

<path d="M29,0V27H63c0,0,44,0,71,16c0,0,19,11,30,36c0,0,8,18,8,94V839c0,0,0,69,-4,84c0,0,-7,27,-27,41c0,0,-29,21,-78,21H29v27H877V713H850c0,0,-22,109,-61,157c0,0,-39,48,-111,70c0,0,-42,13,-158,13H416V542h20c0,0,97,0,140,60c0,0,44,60,56,178h27V251H632c0,0,-9,87,-38,142c0,0,-29,55,-67,74c0,0,-39,19,-111,19V201c0,0,0,-84,7,-103c0,0,7,-18,26,-30c0,0,20,-12,63,-12h60c0,0,142,0,228,65c0,0,86,66,123,201h28L905,0Z" 
id="f2_15"
transform="scale(0.001,-0.001)" />

<path d="M37,274V428H473V274Z" 
id="f2_h"
transform="scale(0.001,-0.001)" />


</defs>
</svg>