<?xml version="1.0" encoding="UTF-8" standalone="no"?>
<!DOCTYPE svg PUBLIC "-//W3C//DTD SVG 1.1//EN"
"http://www.w3.org/Graphics/SVG/1.1/DTD/svg11.dtd">
<svg viewBox="0 0 909 1286" version="1.1" xmlns="http://www.w3.org/2000/svg" xmlns:xlink="http://www.w3.org/1999/xlink">
<defs>
<style type="text/css"><![CDATA[
.g0_102{
fill: #FFFFFF;
}
.g1_102{
}
.g2_102{
fill: #009900;
fill-opacity: 0.4;
}
]]></style>
</defs>
<path fill-rule="evenodd" d="M54.1,68H856.2V96.4H54.1V68l1.5,27H854.7V69.7H55.6V95L54.1,68Z" class="g0_102" />
<path fill-rule="evenodd" d="M55.6,93.3H855.1v3H55.6v-3Z" class="g1_102" />
<path fill-rule="evenodd" d="M55.6,68.2H855.1v3.1H55.6V68.2Z" class="g1_102" />
<g fill="#000000" >
<use xlink:href="#f0_13" transform="matrix(10,0,0,10,61.2,86.7)" />
<use xlink:href="#f0_1f" transform="matrix(10,0,0,10,72.2,86.7)" />
<use xlink:href="#f0_h" transform="matrix(10,0,0,10,84.5,86.7)" />
<use xlink:href="#f0_1f" transform="matrix(10,0,0,10,89.8,86.7)" />
<use xlink:href="#f0_1i" transform="matrix(10,0,0,10,101.6,86.7)" />
<use xlink:href="#f0_14" transform="matrix(10,0,0,10,113.5,86.7)" />
<use xlink:href="#f0_19" transform="matrix(10,0,0,10,125.4,86.7)" />
<use xlink:href="#f0_1e" transform="matrix(10,0,0,10,131.3,86.7)" />
<use xlink:href="#f0_11" transform="matrix(10,0,0,10,142.5,86.7)" />
<use xlink:href="#f0_1k" transform="matrix(10,0,0,10,153.3,86.7)" />
<use xlink:href="#f0_19" transform="matrix(10,0,0,10,163.9,86.7)" />
<use xlink:href="#f0_1f" transform="matrix(10,0,0,10,169.6,86.7)" />
<use xlink:href="#f0_1e" transform="matrix(10,0,0,10,181.5,86.7)" />
<use xlink:href="#f0_13" transform="matrix(10,0,0,10,196.6,86.7)" />
<use xlink:href="#f0_1f" transform="matrix(10,0,0,10,207.4,86.7)" />
<use xlink:href="#f0_1d" transform="matrix(10,0,0,10,219.7,86.7)" />
<use xlink:href="#f0_1g" transform="matrix(10,0,0,10,233.8,86.7)" />
<use xlink:href="#f0_1f" transform="matrix(10,0,0,10,243.9,86.7)" />
<use xlink:href="#f0_1l" transform="matrix(10,0,0,10,255.6,86.7)" />
<use xlink:href="#f0_1e" transform="matrix(10,0,0,10,266.6,86.7)" />
<use xlink:href="#f0_14" transform="matrix(10,0,0,10,278,86.7)" />
<use xlink:href="#f0_1j" transform="matrix(10,0,0,10,289.5,86.7)" />
</g>
<path fill-rule="evenodd" d="M55,1201.5H855.9v2.4H55v-2.4Z" class="g1_102" />
<path fill-rule="evenodd" d="M453.9,1201V109.8h1.7V1201h-1.7Z" class="g1_102" />
<g fill="#000000" >
<use xlink:href="#f1_l" transform="matrix(10,0,0,10,73,119.7)" />
<use xlink:href="#f1_k" transform="matrix(10,0,0,10,80.3,119.7)" />
<use xlink:href="#f1_i" transform="matrix(10,0,0,10,88,119.7)" />
<use xlink:href="#f1_m" transform="matrix(10,0,0,10,91.7,119.7)" />
<use xlink:href="#f1_i" transform="matrix(10,0,0,10,99.2,119.7)" />
<use xlink:href="#f1_l" transform="matrix(10,0,0,10,103,119.7)" />
<use xlink:href="#f1_i" transform="matrix(10,0,0,10,110.5,119.7)" />
<use xlink:href="#f1_m" transform="matrix(10,0,0,10,114,119.7)" />
<use xlink:href="#f1_17" transform="matrix(10,0,0,10,124.7,119.7)" />
<use xlink:href="#f1_21" transform="matrix(10,0,0,10,136.2,119.7)" />
<use xlink:href="#f1_2b" transform="matrix(10,0,0,10,142.6,119.7)" />
<use xlink:href="#f1_29" transform="matrix(10,0,0,10,150.2,119.7)" />
<use xlink:href="#f1_21" transform="matrix(10,0,0,10,162.4,119.7)" />
<use xlink:href="#f1_2e" transform="matrix(10,0,0,10,168.9,119.7)" />
<use xlink:href="#f1_2g" transform="matrix(10,0,0,10,175.8,119.7)" />
<use xlink:href="#f1_25" transform="matrix(10,0,0,10,180.6,119.7)" />
<use xlink:href="#f1_1z" transform="matrix(10,0,0,10,184.8,119.7)" />
<use xlink:href="#f1_1x" transform="matrix(10,0,0,10,191.2,119.7)" />
<use xlink:href="#f1_28" transform="matrix(10,0,0,10,198.9,119.7)" />
<use xlink:href="#f1_19" transform="matrix(10,0,0,10,205.7,119.7)" />
<use xlink:href="#f1_2f" transform="matrix(10,0,0,10,211.6,119.7)" />
<use xlink:href="#f1_2b" transform="matrix(10,0,0,10,217.1,119.7)" />
<use xlink:href="#f1_29" transform="matrix(10,0,0,10,224.8,119.7)" />
<use xlink:href="#f1_21" transform="matrix(10,0,0,10,236.7,119.7)" />
<use xlink:href="#f1_2e" transform="matrix(10,0,0,10,243.3,119.7)" />
<use xlink:href="#f1_25" transform="matrix(10,0,0,10,250.1,119.7)" />
<use xlink:href="#f1_2f" transform="matrix(10,0,0,10,254.3,119.7)" />
<use xlink:href="#f1_29" transform="matrix(10,0,0,10,260,119.7)" />
<use xlink:href="#f1_25" transform="matrix(10,0,0,10,274.5,119.7)" />
<use xlink:href="#f1_2a" transform="matrix(10,0,0,10,278.7,119.7)" />
<use xlink:href="#f1_2b" transform="matrix(10,0,0,10,289.7,119.7)" />
<use xlink:href="#f1_1z" transform="matrix(10,0,0,10,297.4,119.7)" />
<use xlink:href="#f1_2g" transform="matrix(10,0,0,10,303.8,119.7)" />
<use xlink:href="#f1_1x" transform="matrix(10,0,0,10,308.9,119.7)" />
<use xlink:href="#f1_24" transform="matrix(10,0,0,10,316.5,119.7)" />
<use xlink:href="#f1_21" transform="matrix(10,0,0,10,324.7,119.7)" />
<use xlink:href="#f1_20" transform="matrix(10,0,0,10,331.3,119.7)" />
<use xlink:href="#f1_2e" transform="matrix(10,0,0,10,339.7,119.7)" />
<use xlink:href="#f1_1x" transform="matrix(10,0,0,10,346.2,119.7)" />
<use xlink:href="#f1_28" transform="matrix(10,0,0,10,353.7,119.7)" />
<use xlink:href="#f1_1z" transform="matrix(10,0,0,10,360.6,119.7)" />
<use xlink:href="#f1_2b" transform="matrix(10,0,0,10,367.4,119.7)" />
<use xlink:href="#f1_29" transform="matrix(10,0,0,10,374.9,119.7)" />
<use xlink:href="#f1_2c" transform="matrix(10,0,0,10,386.9,119.7)" />
<use xlink:href="#f1_28" transform="matrix(10,0,0,10,395.1,119.7)" />
<use xlink:href="#f1_21" transform="matrix(10,0,0,10,399.3,119.7)" />
<use xlink:href="#f1_2k" transform="matrix(10,0,0,10,405.9,119.7)" />
<use xlink:href="#f1_21" transform="matrix(10,0,0,10,413.2,119.7)" />
<use xlink:href="#f1_2f" transform="matrix(10,0,0,10,420,119.7)" />
<use xlink:href="#f1_l" transform="matrix(10,0,0,10,55,144.8)" />
<use xlink:href="#f1_i" transform="matrix(10,0,0,10,62.7,144.8)" />
<use xlink:href="#f1_1d" transform="matrix(10,0,0,10,89.3,144.8)" />
<use xlink:href="#f1_1x" transform="matrix(10,0,0,10,103.2,144.8)" />
<use xlink:href="#f1_o" transform="matrix(5.8,0,0,5.8,110,150)" />
<use xlink:href="#f1_1y" transform="matrix(10,0,0,10,113.9,144.8)" />
<use xlink:href="#f1_m" transform="matrix(6.4,0,0,6.4,121.2,150.5)" />
</g>
<image preserveAspectRatio="none" x="122" y="165" width="255" height="179" xlink:href="img/1.png" />
<g fill="#000000" >
<use xlink:href="#f2_14" transform="matrix(10,0,0,10,89.5,403.7)" />
<use xlink:href="#f2_2e" transform="matrix(10,0,0,10,100.3,403.7)" />
<use xlink:href="#f2_1x" transform="matrix(10,0,0,10,105.4,403.7)" />
<use xlink:href="#f2_2j" transform="matrix(10,0,0,10,112.2,403.7)" />
<use xlink:href="#f2_2g" transform="matrix(10,0,0,10,125.4,403.7)" />
<use xlink:href="#f2_24" transform="matrix(10,0,0,10,129.6,403.7)" />
<use xlink:href="#f2_21" transform="matrix(10,0,0,10,136.9,403.7)" />
<use xlink:href="#f2_23" transform="matrix(10,0,0,10,146.7,403.7)" />
<use xlink:href="#f2_21" transform="matrix(10,0,0,10,154,403.7)" />
<use xlink:href="#f2_2b" transform="matrix(10,0,0,10,160.8,403.7)" />
<use xlink:href="#f2_29" transform="matrix(10,0,0,10,168.1,403.7)" />
<use xlink:href="#f2_21" transform="matrix(10,0,0,10,179.7,403.7)" />
<use xlink:href="#f2_2g" transform="matrix(10,0,0,10,186.6,403.7)" />
<use xlink:href="#f2_2e" transform="matrix(10,0,0,10,190.5,403.7)" />
<use xlink:href="#f2_25" transform="matrix(10,0,0,10,195.6,403.7)" />
<use xlink:href="#f2_1z" transform="matrix(10,0,0,10,199.8,403.7)" />
<use xlink:href="#f2_1x" transform="matrix(10,0,0,10,206.6,403.7)" />
<use xlink:href="#f2_28" transform="matrix(10,0,0,10,213.1,403.7)" />
<use xlink:href="#f2_25" transform="matrix(10,0,0,10,220,403.7)" />
<use xlink:href="#f2_2f" transform="matrix(10,0,0,10,224.2,403.7)" />
<use xlink:href="#f2_2b" transform="matrix(10,0,0,10,229.7,403.7)" />
<use xlink:href="#f2_29" transform="matrix(10,0,0,10,237.6,403.7)" />
<use xlink:href="#f2_21" transform="matrix(10,0,0,10,249.2,403.7)" />
<use xlink:href="#f2_2e" transform="matrix(10,0,0,10,255.6,403.7)" />
<use xlink:href="#f2_2f" transform="matrix(10,0,0,10,260.9,403.7)" />
<use xlink:href="#f2_2b" transform="matrix(10,0,0,10,269.3,403.7)" />
<use xlink:href="#f2_22" transform="matrix(10,0,0,10,277,403.7)" />
<use xlink:href="#f2_1r" transform="matrix(10,0,0,10,284.6,403.7)" />
<use xlink:href="#f2_13" transform="matrix(10,0,0,10,289.7,403.7)" />
<use xlink:href="#f2_2e" transform="matrix(10,0,0,10,299.6,403.7)" />
<use xlink:href="#f2_13" transform="matrix(10,0,0,10,304.9,403.7)" />
<use xlink:href="#f2_28" transform="matrix(10,0,0,10,314.6,403.7)" />
<use xlink:href="#f2_m" transform="matrix(6.4,0,0,6.4,318.8,409)" />
<use xlink:href="#f2_c" transform="matrix(10,0,0,10,323.6,403.7)" />
<use xlink:href="#f2_1e" transform="matrix(10,0,0,10,328.9,403.7)" />
<use xlink:href="#f2_18" transform="matrix(10,0,0,10,339.7,403.7)" />
<use xlink:href="#f2_n" transform="matrix(6.4,0,0,6.4,350.5,409)" />
<use xlink:href="#f2_d" transform="matrix(10,0,0,10,355.5,403.7)" />
<use xlink:href="#f2_o" transform="matrix(6.4,0,0,6.4,360.6,409)" />
<use xlink:href="#f2_1t" transform="matrix(10,0,0,10,365.6,403.7)" />
<use xlink:href="#f2_f" transform="matrix(7.6,0,0,7.6,370.3,396.9)" />
<use xlink:href="#f1_1j" transform="matrix(10,0,0,10,55,440.4)" />
<use xlink:href="#f1_2b" transform="matrix(10,0,0,10,63.2,440.4)" />
<use xlink:href="#f1_28" transform="matrix(10,0,0,10,70.9,440.4)" />
<use xlink:href="#f1_i" transform="matrix(10,0,0,10,75.2,440.4)" />
</g>
<image preserveAspectRatio="none" x="81" y="450" width="336" height="171" xlink:href="img/2.png" />
<g fill="#000000" >
<use xlink:href="#f1_m" transform="matrix(10,0,0,10,55,656.5)" />
<use xlink:href="#f1_i" transform="matrix(10,0,0,10,62.7,656.5)" />
<use xlink:href="#f1_1d" transform="matrix(10,0,0,10,89.3,656.5)" />
<use xlink:href="#f1_1x" transform="matrix(10,0,0,10,103.2,656.5)" />
<use xlink:href="#f1_n" transform="matrix(5.8,0,0,5.8,110,661.6)" />
<use xlink:href="#f1_1y" transform="matrix(10,0,0,10,113.9,656.5)" />
<use xlink:href="#f1_n" transform="matrix(6.4,0,0,6.4,121.2,662)" />
</g>
<image preserveAspectRatio="none" x="140" y="666" width="218" height="176" xlink:href="img/3.png" />
<g fill="#000000" >
<use xlink:href="#f2_14" transform="matrix(10,0,0,10,89.5,920.3)" />
<use xlink:href="#f2_2e" transform="matrix(10,0,0,10,100.3,920.3)" />
<use xlink:href="#f2_1x" transform="matrix(10,0,0,10,105.6,920.3)" />
<use xlink:href="#f2_2j" transform="matrix(10,0,0,10,112,920.3)" />
<use xlink:href="#f2_2g" transform="matrix(10,0,0,10,125.6,920.3)" />
<use xlink:href="#f2_24" transform="matrix(10,0,0,10,129.8,920.3)" />
<use xlink:href="#f2_21" transform="matrix(10,0,0,10,137.5,920.3)" />
<use xlink:href="#f2_23" transform="matrix(10,0,0,10,146.9,920.3)" />
<use xlink:href="#f2_21" transform="matrix(10,0,0,10,154.6,920.3)" />
<use xlink:href="#f2_2b" transform="matrix(10,0,0,10,161.3,920.3)" />
<use xlink:href="#f2_29" transform="matrix(10,0,0,10,168.9,920.3)" />
<use xlink:href="#f2_21" transform="matrix(10,0,0,10,180.4,920.3)" />
<use xlink:href="#f2_2g" transform="matrix(10,0,0,10,187.2,920.3)" />
<use xlink:href="#f2_2e" transform="matrix(10,0,0,10,191.2,920.3)" />
<use xlink:href="#f2_25" transform="matrix(10,0,0,10,196.5,920.3)" />
<use xlink:href="#f2_1z" transform="matrix(10,0,0,10,200.8,920.3)" />
<use xlink:href="#f2_1x" transform="matrix(10,0,0,10,207.5,920.3)" />
<use xlink:href="#f2_28" transform="matrix(10,0,0,10,214,920.3)" />
<use xlink:href="#f2_25" transform="matrix(10,0,0,10,220.9,920.3)" />
<use xlink:href="#f2_2f" transform="matrix(10,0,0,10,225.2,920.3)" />
<use xlink:href="#f2_2b" transform="matrix(10,0,0,10,231.2,920.3)" />
<use xlink:href="#f2_29" transform="matrix(10,0,0,10,238.5,920.3)" />
<use xlink:href="#f2_21" transform="matrix(10,0,0,10,250.1,920.3)" />
<use xlink:href="#f2_2e" transform="matrix(10,0,0,10,257.1,920.3)" />
<use xlink:href="#f2_2f" transform="matrix(10,0,0,10,262,920.3)" />
<use xlink:href="#f2_2b" transform="matrix(10,0,0,10,270.8,920.3)" />
<use xlink:href="#f2_22" transform="matrix(10,0,0,10,278.5,920.3)" />
<use xlink:href="#f2_1r" transform="matrix(10,0,0,10,286.2,920.3)" />
<use xlink:href="#f2_1i" transform="matrix(10,0,0,10,291.3,920.3)" />
<use xlink:href="#f2_24" transform="matrix(10,0,0,10,301.4,920.3)" />
<use xlink:href="#f2_13" transform="matrix(10,0,0,10,308.9,920.3)" />
<use xlink:href="#f2_28" transform="matrix(10,0,0,10,319,920.3)" />
<use xlink:href="#f2_n" transform="matrix(6.4,0,0,6.4,323,925.8)" />
<use xlink:href="#f2_c" transform="matrix(10,0,0,10,328,920.3)" />
<use xlink:href="#f2_2c" transform="matrix(10,0,0,10,333.3,920.3)" />
<use xlink:href="#f2_2l" transform="matrix(10,0,0,10,340.8,920.3)" />
<use xlink:href="#f2_d" transform="matrix(10,0,0,10,348.3,920.3)" />
<use xlink:href="#f2_n" transform="matrix(6.4,0,0,6.4,353.5,925.8)" />
<use xlink:href="#f2_1t" transform="matrix(10,0,0,10,358.2,920.3)" />
<use xlink:href="#f1_1j" transform="matrix(10,0,0,10,55,959.9)" />
<use xlink:href="#f1_2b" transform="matrix(10,0,0,10,63.2,959.9)" />
<use xlink:href="#f1_28" transform="matrix(10,0,0,10,70.9,959.9)" />
<use xlink:href="#f1_i" transform="matrix(10,0,0,10,75.2,959.9)" />
</g>
<image preserveAspectRatio="none" x="112" y="961" width="276" height="163" xlink:href="img/4.png" />
<g fill="#000000" >
<use xlink:href="#f1_n" transform="matrix(10,0,0,10,55,1140.7)" />
<use xlink:href="#f1_i" transform="matrix(10,0,0,10,62.7,1140.7)" />
<use xlink:href="#f1_1d" transform="matrix(10,0,0,10,89.3,1140.7)" />
<use xlink:href="#f1_1x" transform="matrix(10,0,0,10,104,1140.7)" />
<use xlink:href="#f1_1y" transform="matrix(10,0,0,10,111.3,1140.7)" />
<use xlink:href="#f1_1z" transform="matrix(10,0,0,10,119.5,1140.7)" />
<use xlink:href="#f1_20" transform="matrix(10,0,0,10,126.3,1140.7)" />
<use xlink:href="#f1_21" transform="matrix(10,0,0,10,134.4,1140.7)" />
<use xlink:href="#f1_22" transform="matrix(10,0,0,10,141.2,1140.7)" />
<use xlink:href="#f1_u" transform="matrix(10,0,0,10,151.4,1140.7)" />
<use xlink:href="#f2_1k" transform="matrix(10,0,0,10,161.9,1140.7)" />
<use xlink:href="#f2_24" transform="matrix(10,0,0,10,171.1,1140.7)" />
<use xlink:href="#f2_21" transform="matrix(10,0,0,10,178.4,1140.7)" />
<use xlink:href="#f2_2l" transform="matrix(10,0,0,10,185.2,1140.7)" />
<use xlink:href="#f2_22" transform="matrix(10,0,0,10,194.9,1140.7)" />
<use xlink:href="#f2_2b" transform="matrix(10,0,0,10,199.8,1140.7)" />
<use xlink:href="#f2_2e" transform="matrix(10,0,0,10,207.2,1140.7)" />
<use xlink:href="#f2_29" transform="matrix(10,0,0,10,212.3,1140.7)" />
<use xlink:href="#f2_l" transform="matrix(10,0,0,10,226.2,1140.7)" />
<use xlink:href="#f2_p" transform="matrix(10,0,0,10,233.6,1140.7)" />
<use xlink:href="#f2_25" transform="matrix(10,0,0,10,244,1140.7)" />
<use xlink:href="#f2_2f" transform="matrix(10,0,0,10,247.9,1140.7)" />
<use xlink:href="#f2_2b" transform="matrix(10,0,0,10,253.7,1140.7)" />
<use xlink:href="#f2_29" transform="matrix(10,0,0,10,261.1,1140.7)" />
<use xlink:href="#f2_21" transform="matrix(10,0,0,10,272.6,1140.7)" />
<use xlink:href="#f2_2e" transform="matrix(10,0,0,10,279,1140.7)" />
<use xlink:href="#f2_2f" transform="matrix(10,0,0,10,284.2,1140.7)" />
<use xlink:href="#f1_o" transform="matrix(10,0,0,10,55,1161.6)" />
<use xlink:href="#f1_i" transform="matrix(10,0,0,10,62.7,1161.6)" />
<use xlink:href="#f1_1d" transform="matrix(10,0,0,10,89.3,1161.6)" />
<use xlink:href="#f1_c" transform="matrix(10,0,0,10,106.2,1161.6)" />
<use xlink:href="#f1_11" transform="matrix(10,0,0,10,110.7,1161.6)" />
<use xlink:href="#f1_12" transform="matrix(10,0,0,10,121.5,1161.6)" />
<use xlink:href="#f1_d" transform="matrix(10,0,0,10,131.3,1161.6)" />
<use xlink:href="#f1_n" transform="matrix(6.4,0,0,6.4,136,1167.1)" />
</g>
<image preserveAspectRatio="none" x="536" y="115" width="248" height="144" xlink:href="img/5.png" />
<g fill="#000000" >
<use xlink:href="#f2_14" transform="matrix(10,0,0,10,500,324.5)" />
<use xlink:href="#f2_2e" transform="matrix(10,0,0,10,510.8,324.5)" />
<use xlink:href="#f2_1x" transform="matrix(10,0,0,10,516.1,324.5)" />
<use xlink:href="#f2_2j" transform="matrix(10,0,0,10,522.5,324.5)" />
<use xlink:href="#f2_2g" transform="matrix(10,0,0,10,536.1,324.5)" />
<use xlink:href="#f2_24" transform="matrix(10,0,0,10,540.3,324.5)" />
<use xlink:href="#f2_21" transform="matrix(10,0,0,10,548,324.5)" />
<use xlink:href="#f2_23" transform="matrix(10,0,0,10,557.3,324.5)" />
<use xlink:href="#f2_21" transform="matrix(10,0,0,10,565,324.5)" />
<use xlink:href="#f2_2b" transform="matrix(10,0,0,10,571.8,324.5)" />
<use xlink:href="#f2_29" transform="matrix(10,0,0,10,579.3,324.5)" />
<use xlink:href="#f2_21" transform="matrix(10,0,0,10,590.7,324.5)" />
<use xlink:href="#f2_2g" transform="matrix(10,0,0,10,597.7,324.5)" />
<use xlink:href="#f2_2e" transform="matrix(10,0,0,10,601.7,324.5)" />
<use xlink:href="#f2_25" transform="matrix(10,0,0,10,606.8,324.5)" />
<use xlink:href="#f2_1z" transform="matrix(10,0,0,10,611.1,324.5)" />
<use xlink:href="#f2_1x" transform="matrix(10,0,0,10,617.9,324.5)" />
<use xlink:href="#f2_28" transform="matrix(10,0,0,10,624.6,324.5)" />
<use xlink:href="#f2_25" transform="matrix(10,0,0,10,631.4,324.5)" />
<use xlink:href="#f2_2f" transform="matrix(10,0,0,10,635.6,324.5)" />
<use xlink:href="#f2_2b" transform="matrix(10,0,0,10,641.7,324.5)" />
<use xlink:href="#f2_29" transform="matrix(10,0,0,10,649,324.5)" />
<use xlink:href="#f2_21" transform="matrix(10,0,0,10,660.8,324.5)" />
<use xlink:href="#f2_2e" transform="matrix(10,0,0,10,667.5,324.5)" />
<use xlink:href="#f2_2f" transform="matrix(10,0,0,10,672.7,324.5)" />
<use xlink:href="#f2_2b" transform="matrix(10,0,0,10,681.3,324.5)" />
<use xlink:href="#f2_22" transform="matrix(10,0,0,10,688.8,324.5)" />
<use xlink:href="#f2_1r" transform="matrix(10,0,0,10,699.6,324.5)" />
<use xlink:href="#f2_13" transform="matrix(10,0,0,10,704.8,324.5)" />
<use xlink:href="#f2_2e" transform="matrix(10,0,0,10,714.8,324.5)" />
<use xlink:href="#f2_c" transform="matrix(10,0,0,10,720,324.5)" />
<use xlink:href="#f2_23" transform="matrix(10,0,0,10,725.1,324.5)" />
<use xlink:href="#f2_28" transform="matrix(10,0,0,10,732.4,324.5)" />
<use xlink:href="#f2_2l" transform="matrix(10,0,0,10,736.7,324.5)" />
<use xlink:href="#f2_d" transform="matrix(10,0,0,10,744,324.5)" />
<use xlink:href="#f2_n" transform="matrix(6.4,0,0,6.4,749.1,330)" />
<use xlink:href="#f2_1t" transform="matrix(10,0,0,10,753.7,324.5)" />
<use xlink:href="#f1_1j" transform="matrix(10,0,0,10,465.5,374.4)" />
<use xlink:href="#f1_2b" transform="matrix(10,0,0,10,473.9,374.4)" />
<use xlink:href="#f1_28" transform="matrix(10,0,0,10,481.6,374.4)" />
<use xlink:href="#f1_i" transform="matrix(10,0,0,10,485.8,374.4)" />
</g>
<image preserveAspectRatio="none" x="479" y="383" width="362" height="160" xlink:href="img/6.png" />
<g fill="#000000" >
<use xlink:href="#f1_p" transform="matrix(10,0,0,10,465.5,582.1)" />
<use xlink:href="#f1_i" transform="matrix(10,0,0,10,473.4,582.1)" />
<use xlink:href="#f3_1d" transform="matrix(10.8,0,0,10.8,500,581.9)" />
<use xlink:href="#f3_c" transform="matrix(10.8,0,0,10.8,513.9,581.9)" />
<use xlink:href="#f3_11" transform="matrix(10.8,0,0,10.8,518.3,581.9)" />
<use xlink:href="#f3_11" transform="matrix(10.8,0,0,10.8,528.2,581.9)" />
<use xlink:href="#f3_d" transform="matrix(10.8,0,0,10.8,538.6,581.9)" />
<use xlink:href="#f1_m" transform="matrix(5.8,0,0,5.8,543,587)" />
<use xlink:href="#f1_1y" transform="matrix(10,0,0,10,547.1,582.1)" />
<use xlink:href="#f1_m" transform="matrix(6.4,0,0,6.4,554.6,587.4)" />
</g>
<image preserveAspectRatio="none" x="528" y="591" width="265" height="154" xlink:href="img/7.png" />
<g fill="#000000" >
<use xlink:href="#f2_14" transform="matrix(10,0,0,10,500,808.3)" />
<use xlink:href="#f2_2e" transform="matrix(10,0,0,10,510.8,808.3)" />
<use xlink:href="#f2_1x" transform="matrix(10,0,0,10,515.9,808.3)" />
<use xlink:href="#f2_2j" transform="matrix(10,0,0,10,522.7,808.3)" />
<use xlink:href="#f2_2g" transform="matrix(10,0,0,10,536.2,808.3)" />
<use xlink:href="#f2_24" transform="matrix(10,0,0,10,540.1,808.3)" />
<use xlink:href="#f2_21" transform="matrix(10,0,0,10,547.8,808.3)" />
<use xlink:href="#f2_23" transform="matrix(10,0,0,10,557.3,808.3)" />
<use xlink:href="#f2_21" transform="matrix(10,0,0,10,564.7,808.3)" />
<use xlink:href="#f2_2b" transform="matrix(10,0,0,10,571.6,808.3)" />
<use xlink:href="#f2_29" transform="matrix(10,0,0,10,579,808.3)" />
<use xlink:href="#f2_21" transform="matrix(10,0,0,10,590.5,808.3)" />
<use xlink:href="#f2_2g" transform="matrix(10,0,0,10,597.5,808.3)" />
<use xlink:href="#f2_2e" transform="matrix(10,0,0,10,601.5,808.3)" />
<use xlink:href="#f2_25" transform="matrix(10,0,0,10,606.7,808.3)" />
<use xlink:href="#f2_1z" transform="matrix(10,0,0,10,610.7,808.3)" />
<use xlink:href="#f2_1x" transform="matrix(10,0,0,10,617.7,808.3)" />
<use xlink:href="#f2_28" transform="matrix(10,0,0,10,624.1,808.3)" />
<use xlink:href="#f2_25" transform="matrix(10,0,0,10,631.1,808.3)" />
<use xlink:href="#f2_2f" transform="matrix(10,0,0,10,635.3,808.3)" />
<use xlink:href="#f2_2b" transform="matrix(10,0,0,10,641,808.3)" />
<use xlink:href="#f2_29" transform="matrix(10,0,0,10,648.8,808.3)" />
<use xlink:href="#f2_21" transform="matrix(10,0,0,10,660.4,808.3)" />
<use xlink:href="#f2_2e" transform="matrix(10,0,0,10,666.8,808.3)" />
<use xlink:href="#f2_2f" transform="matrix(10,0,0,10,672.1,808.3)" />
<use xlink:href="#f2_2b" transform="matrix(10,0,0,10,680.7,808.3)" />
<use xlink:href="#f2_22" transform="matrix(10,0,0,10,688.3,808.3)" />
<use xlink:href="#f2_1r" transform="matrix(10,0,0,10,696,808.3)" />
<use xlink:href="#f2_13" transform="matrix(10,0,0,10,701.1,808.3)" />
<use xlink:href="#f2_2b" transform="matrix(10,0,0,10,711.2,808.3)" />
<use xlink:href="#f2_13" transform="matrix(10,0,0,10,718.9,808.3)" />
<use xlink:href="#f2_28" transform="matrix(10,0,0,10,728.8,808.3)" />
<use xlink:href="#f2_m" transform="matrix(6.4,0,0,6.4,733.2,814)" />
<use xlink:href="#f2_c" transform="matrix(10,0,0,10,737.9,808.3)" />
<use xlink:href="#f2_21" transform="matrix(10,0,0,10,743.2,808.3)" />
<use xlink:href="#f2_2a" transform="matrix(10,0,0,10,749.7,808.3)" />
<use xlink:href="#f2_d" transform="matrix(10,0,0,10,757.4,808.3)" />
<use xlink:href="#f2_m" transform="matrix(6.4,0,0,6.4,762.5,814)" />
<use xlink:href="#f2_1t" transform="matrix(10,0,0,10,767.4,808.3)" />
<use xlink:href="#f2_f" transform="matrix(7,0,0,7,772.4,802.4)" />
<use xlink:href="#f1_1j" transform="matrix(10,0,0,10,465.5,858.7)" />
<use xlink:href="#f1_2b" transform="matrix(10,0,0,10,473.9,858.7)" />
<use xlink:href="#f1_28" transform="matrix(10,0,0,10,481.6,858.7)" />
<use xlink:href="#f1_i" transform="matrix(10,0,0,10,485.8,858.7)" />
</g>
<image preserveAspectRatio="none" x="494" y="873" width="137" height="154" xlink:href="img/8.png" />
<image preserveAspectRatio="none" x="672" y="863" width="136" height="169" xlink:href="img/9.png" />
<g fill="#000000" >
<use xlink:href="#f1_13" transform="matrix(10,0,0,10,500,1052)" />
<use xlink:href="#f1_25" transform="matrix(10,0,0,10,510.8,1052)" />
<use xlink:href="#f1_2f" transform="matrix(10,0,0,10,515,1052)" />
<use xlink:href="#f1_1x" transform="matrix(10,0,0,10,523.4,1052)" />
<use xlink:href="#f1_2a" transform="matrix(10,0,0,10,531.3,1052)" />
<use xlink:href="#f1_20" transform="matrix(10,0,0,10,539.4,1052)" />
<use xlink:href="#f1_2g" transform="matrix(10,0,0,10,550.7,1052)" />
<use xlink:href="#f1_2e" transform="matrix(10,0,0,10,555.9,1052)" />
<use xlink:href="#f1_1x" transform="matrix(10,0,0,10,562.3,1052)" />
<use xlink:href="#f1_2a" transform="matrix(10,0,0,10,570.2,1052)" />
<use xlink:href="#f1_2f" transform="matrix(10,0,0,10,578.2,1052)" />
<use xlink:href="#f1_h" transform="matrix(10,0,0,10,584.3,1052)" />
<use xlink:href="#f1_25" transform="matrix(10,0,0,10,589,1052)" />
<use xlink:href="#f1_2f" transform="matrix(10,0,0,10,593.3,1052)" />
<use xlink:href="#f1_2b" transform="matrix(10,0,0,10,599.3,1052)" />
<use xlink:href="#f1_29" transform="matrix(10,0,0,10,606.6,1052)" />
<use xlink:href="#f1_21" transform="matrix(10,0,0,10,619.1,1052)" />
<use xlink:href="#f1_2e" transform="matrix(10,0,0,10,625.5,1052)" />
<use xlink:href="#f1_2f" transform="matrix(10,0,0,10,632.5,1052)" />
<use xlink:href="#f1_2b" transform="matrix(10,0,0,10,641.1,1052)" />
<use xlink:href="#f1_22" transform="matrix(10,0,0,10,648.6,1052)" />
<use xlink:href="#f1_1r" transform="matrix(10,0,0,10,656.5,1052)" />
<use xlink:href="#f1_13" transform="matrix(10,0,0,10,661.5,1052)" />
<use xlink:href="#f1_2b" transform="matrix(10,0,0,10,672.3,1052)" />
<use xlink:href="#f1_19" transform="matrix(7,0,0,7,680,1045.7)" />
<use xlink:href="#f1_19" transform="matrix(7,0,0,7,684.4,1045.7)" />
<use xlink:href="#f1_19" transform="matrix(7,0,0,7,688.4,1045.7)" />
<use xlink:href="#f1_c" transform="matrix(10,0,0,10,695.2,1052)" />
<use xlink:href="#f1_21" transform="matrix(10,0,0,10,700.5,1052)" />
<use xlink:href="#f1_2a" transform="matrix(10,0,0,10,706.9,1052)" />
<use xlink:href="#f1_d" transform="matrix(10,0,0,10,715.5,1052)" />
<use xlink:href="#f1_m" transform="matrix(5.8,0,0,5.8,720.3,1056.9)" />
<use xlink:href="#f1_13" transform="matrix(10,0,0,10,727.6,1052)" />
<use xlink:href="#f1_28" transform="matrix(10,0,0,10,738.5,1052)" />
<use xlink:href="#f1_m" transform="matrix(6.4,0,0,6.4,742.9,1057.5)" />
<use xlink:href="#f1_1t" transform="matrix(10,0,0,10,747.5,1052)" />
<use xlink:href="#f1_f" transform="matrix(7,0,0,7,752.8,1045.7)" />
<use xlink:href="#f1_25" transform="matrix(10,0,0,10,761.2,1052)" />
<use xlink:href="#f1_2b" transform="matrix(10,0,0,10,765.4,1052)" />
<use xlink:href="#f1_2a" transform="matrix(10,0,0,10,772.8,1052)" />
<use xlink:href="#f1_i" transform="matrix(10,0,0,10,781.4,1052)" />
<use xlink:href="#f1_c" transform="matrix(10,0,0,10,500,1073.2)" />
<use xlink:href="#f1_1x" transform="matrix(10,0,0,10,504.9,1073.2)" />
<use xlink:href="#f1_d" transform="matrix(10,0,0,10,512.6,1073.2)" />
<use xlink:href="#f1_13" transform="matrix(10,0,0,10,520.5,1073.2)" />
<use xlink:href="#f1_25" transform="matrix(10,0,0,10,531.3,1073.2)" />
<use xlink:href="#f1_2f" transform="matrix(10,0,0,10,535.3,1073.2)" />
<use xlink:href="#f1_h" transform="matrix(10,0,0,10,541.2,1073.2)" />
<use xlink:href="#f1_25" transform="matrix(10,0,0,10,546.3,1073.2)" />
<use xlink:href="#f1_2f" transform="matrix(10,0,0,10,550.2,1073.2)" />
<use xlink:href="#f1_2b" transform="matrix(10,0,0,10,556.2,1073.2)" />
<use xlink:href="#f1_29" transform="matrix(10,0,0,10,563.6,1073.2)" />
<use xlink:href="#f1_21" transform="matrix(10,0,0,10,576,1073.2)" />
<use xlink:href="#f1_2e" transform="matrix(10,0,0,10,582.4,1073.2)" />
<use xlink:href="#f1_c" transform="matrix(10,0,0,10,661.3,1073.2)" />
<use xlink:href="#f1_1y" transform="matrix(10,0,0,10,666.4,1073.2)" />
<use xlink:href="#f1_d" transform="matrix(10,0,0,10,674.3,1073.2)" />
<use xlink:href="#f1_2g" transform="matrix(10,0,0,10,682.2,1073.2)" />
<use xlink:href="#f1_2e" transform="matrix(10,0,0,10,686.9,1073.2)" />
<use xlink:href="#f1_1x" transform="matrix(10,0,0,10,693.4,1073.2)" />
<use xlink:href="#f1_2a" transform="matrix(10,0,0,10,701.1,1073.2)" />
<use xlink:href="#f1_2f" transform="matrix(10,0,0,10,709.1,1073.2)" />
<use xlink:href="#f1_h" transform="matrix(10,0,0,10,714.8,1073.2)" />
<use xlink:href="#f1_25" transform="matrix(10,0,0,10,719.8,1073.2)" />
<use xlink:href="#f1_2f" transform="matrix(10,0,0,10,723.6,1073.2)" />
<use xlink:href="#f1_2b" transform="matrix(10,0,0,10,729.5,1073.2)" />
<use xlink:href="#f1_29" transform="matrix(10,0,0,10,737,1073.2)" />
<use xlink:href="#f1_21" transform="matrix(10,0,0,10,748.7,1073.2)" />
<use xlink:href="#f1_2e" transform="matrix(10,0,0,10,755.5,1073.2)" />
</g>
<path fill-rule="evenodd" d="M56.1,361.2h92.8v20H56.1v-20Z" class="g1_102" />
<path fill-rule="evenodd" d="M55,360.2h95v22.1H55V360.2l1.5,20.6h92V361.7h-92v19.1L55,360.2Z" class="g1_102" />
<path fill-rule="evenodd" d="M55,381.7H443.9v36.5H55V381.7L57.2,416H441.7V383.9H57.2V416L55,381.7Z" class="g1_102" />
<g fill="#FFFFFF" >
<use xlink:href="#f1_15" transform="matrix(10,0,0,10,64.9,375.1)" />
<use xlink:href="#f1_2k" transform="matrix(10,0,0,10,75.2,375.1)" />
<use xlink:href="#f1_1x" transform="matrix(10,0,0,10,82.7,375.1)" />
<use xlink:href="#f1_29" transform="matrix(10,0,0,10,90.8,375.1)" />
<use xlink:href="#f1_2c" transform="matrix(10,0,0,10,103,375.1)" />
<use xlink:href="#f1_28" transform="matrix(10,0,0,10,111.5,375.1)" />
<use xlink:href="#f1_21" transform="matrix(10,0,0,10,116.1,375.1)" />
<use xlink:href="#f1_h" transform="matrix(10,0,0,10,125.8,375.1)" />
<use xlink:href="#f1_p" transform="matrix(10,0,0,10,134.2,375.1)" />
</g>
<path fill-rule="evenodd" d="M56.1,877.8h92.8v19.8H56.1V877.8Z" class="g1_102" />
<path fill-rule="evenodd" d="M55,876.7h95v22H55v-22l1.5,20.5h92v-19h-92v19L55,876.7Z" class="g1_102" />
<path fill-rule="evenodd" d="M55,898.2H443.9v36.4H55V898.2l2.2,34.2H441.7v-32H57.2v32L55,898.2Z" class="g1_102" />
<g fill="#FFFFFF" >
<use xlink:href="#f1_15" transform="matrix(10,0,0,10,64.9,891.5)" />
<use xlink:href="#f1_2k" transform="matrix(10,0,0,10,75.2,891.5)" />
<use xlink:href="#f1_1x" transform="matrix(10,0,0,10,82.7,891.5)" />
<use xlink:href="#f1_29" transform="matrix(10,0,0,10,90.8,891.5)" />
<use xlink:href="#f1_2c" transform="matrix(10,0,0,10,103,891.5)" />
<use xlink:href="#f1_28" transform="matrix(10,0,0,10,111.5,891.5)" />
<use xlink:href="#f1_21" transform="matrix(10,0,0,10,116.1,891.5)" />
<use xlink:href="#f1_h" transform="matrix(10,0,0,10,125.8,891.5)" />
<use xlink:href="#f1_q" transform="matrix(10,0,0,10,134.2,891.5)" />
</g>
<path fill-rule="evenodd" d="M466.8,282.3h92.7v19.8H466.8V282.3Z" class="g1_102" />
<path fill-rule="evenodd" d="M465.7,281.2h94.9v22.2H465.7V281.2l1.4,20.6h92.1V282.7H467.1v19.1l-1.4,-20.6Z" class="g1_102" />
<path fill-rule="evenodd" d="M465.7,302.7H854.5v36.6H465.7V302.7l2.2,34.3H852.1V305.1H467.9V337l-2.2,-34.3Z" class="g1_102" />
<g fill="#FFFFFF" >
<use xlink:href="#f1_15" transform="matrix(10,0,0,10,475.8,296.4)" />
<use xlink:href="#f1_2k" transform="matrix(10,0,0,10,485.8,296.4)" />
<use xlink:href="#f1_1x" transform="matrix(10,0,0,10,493.4,296.4)" />
<use xlink:href="#f1_29" transform="matrix(10,0,0,10,501.4,296.4)" />
<use xlink:href="#f1_2c" transform="matrix(10,0,0,10,513.7,296.4)" />
<use xlink:href="#f1_28" transform="matrix(10,0,0,10,522.1,296.4)" />
<use xlink:href="#f1_21" transform="matrix(10,0,0,10,526.7,296.4)" />
<use xlink:href="#f1_h" transform="matrix(10,0,0,10,536.4,296.4)" />
<use xlink:href="#f1_r" transform="matrix(10,0,0,10,544.9,296.4)" />
</g>
<path fill-rule="evenodd" d="M466.8,765.4h92.7v19.8H466.8V765.4Z" class="g1_102" />
<path fill-rule="evenodd" d="M465.7,764.3h94.9v22H465.7v-22l1.4,20.6h92.1V765.8H467.1v19.1l-1.4,-20.6Z" class="g1_102" />
<path fill-rule="evenodd" d="M465.7,785.8H854.5v36.6H465.7V785.8l2.2,34.3H852.1V788.2H467.9v31.9l-2.2,-34.3Z" class="g1_102" />
<g fill="#FFFFFF" >
<use xlink:href="#f1_15" transform="matrix(10,0,0,10,475.8,779.5)" />
<use xlink:href="#f1_2k" transform="matrix(10,0,0,10,485.8,779.5)" />
<use xlink:href="#f1_1x" transform="matrix(10,0,0,10,493.4,779.5)" />
<use xlink:href="#f1_29" transform="matrix(10,0,0,10,501.4,779.5)" />
<use xlink:href="#f1_2c" transform="matrix(10,0,0,10,513.7,779.5)" />
<use xlink:href="#f1_28" transform="matrix(10,0,0,10,522.1,779.5)" />
<use xlink:href="#f1_21" transform="matrix(10,0,0,10,526.7,779.5)" />
<use xlink:href="#f1_h" transform="matrix(10,0,0,10,536.4,779.5)" />
<use xlink:href="#f1_s" transform="matrix(10,0,0,10,544.9,779.5)" />
</g>
<path d="M55.2,93.4H854.1V71.1H55.2V93.4Z" class="g2_102" />
<defs>
<path d="M579,-17c0,0,-147,0,-266,70c0,0,-119,70,-189,197c0,0,-71,127,-71,277c0,0,0,149,69,271c0,0,69,123,187,191c0,0,119,69,265,69c0,0,149,0,260,-62l25,44H965L1067,667L928,627c0,0,-69,133,-130,189c0,0,-85,77,-185,77c0,0,-72,0,-135,-41c0,0,-63,-40,-100,-118c0,0,-37,-78,-37,-183c0,0,0,-161,85,-276c0,0,85,-116,222,-116c0,0,87,0,168,50c0,0,100,62,173,167l116,-86C1105,290,992,136,899,76c0,0,-144,-93,-320,-93Z" 
id="f0_13"
transform="scale(0.001,-0.001)" />

<path d="M611,148c0,0,117,0,187,88c0,0,83,105,83,281c0,0,0,124,-35,208c0,0,-36,84,-96,126c0,0,-61,42,-132,42c0,0,-118,0,-189,-89c0,0,-88,-112,-88,-289c0,0,0,-176,82,-279c0,0,71,-88,188,-88ZM608,-17c0,0,-231,0,-378,126C230,109,53,262,53,518c0,0,0,237,155,389c0,0,156,151,407,151c0,0,248,0,401,-151c0,0,153,-150,153,-386c0,0,0,-159,-70,-282c0,0,-70,-123,-193,-190c0,0,-124,-66,-298,-66Z" 
id="f0_1f"
transform="scale(0.001,-0.001)" />

<path d="M73,290V468H478V290Z" 
id="f0_h"
transform="scale(0.001,-0.001)" />

<path d="M593,600c0,0,92,0,137,17c0,0,45,17,68,48c0,0,22,31,22,76c0,0,0,41,-21,71c0,0,-21,29,-60,43c0,0,-40,14,-128,14H439V600ZM55,0V144h46c0,0,37,0,52,8c0,0,16,7,23,23c0,0,4,9,4,56V816c0,0,0,35,-6,49c0,0,-5,15,-18,19c0,0,-18,8,-41,8H55v148H697c0,0,62,0,135,-11c0,0,74,-11,133,-49c0,0,60,-38,92,-96c0,0,33,-59,33,-132c0,0,0,-118,-84,-192c0,0,-85,-73,-201,-96L1019,215l9,-11c0,0,21,-25,38,-38c0,0,17,-12,34,-17c0,0,18,-5,48,-5h45V0H859L526,448H439V241c0,0,0,-54,6,-69c0,0,6,-14,19,-21c0,0,13,-7,52,-7h48V0Z" 
id="f0_1i"
transform="scale(0.001,-0.001)" />

<path d="M514,166c0,0,122,0,191,38c0,0,69,38,111,121c0,0,43,83,43,199c0,0,0,113,-40,197c0,0,-40,84,-99,119c0,0,-59,34,-168,34H437V226c0,0,0,-33,4,-40c0,0,6,-12,17,-16c0,0,12,-4,56,-4ZM55,0V144H91c0,0,46,0,60,7c0,0,15,8,24,26c0,0,6,14,6,61V807c0,0,0,48,-6,62c0,0,-7,13,-21,21c0,0,-15,7,-62,7H56v143H601c0,0,186,0,296,-59c0,0,110,-58,175,-174c0,0,65,-116,65,-278c0,0,0,-112,-33,-201c0,0,-33,-89,-99,-160c0,0,-66,-71,-141,-107C864,61,807,34,703,17C703,17,599,0,536,0Z" 
id="f0_14"
transform="scale(0.001,-0.001)" />

<path d="M52,0V144H93c0,0,44,0,58,6c0,0,13,6,20,20c0,0,6,14,6,55V803c0,0,0,49,-6,64c0,0,-7,15,-22,24c0,0,-10,6,-51,6H52v143H559V897H513c0,0,-40,0,-53,-7c0,0,-13,-8,-20,-23c0,0,-6,-15,-6,-58V233c0,0,0,-47,5,-61c0,0,6,-13,18,-19c0,0,16,-9,47,-9h55V0Z" 
id="f0_19"
transform="scale(0.001,-0.001)" />

<path d="M59,0V144h44c0,0,37,0,51,6c0,0,14,6,22,22c0,0,8,16,8,47V816c0,0,0,34,-8,50c0,0,-7,16,-20,24c0,0,-12,7,-42,7H59v143H480L786,433V805c0,0,0,48,-5,60c0,0,-8,17,-20,25c0,0,-13,7,-49,7H661v143h428V897h-47c0,0,-36,0,-51,-9c0,0,-15,-8,-21,-22c0,0,-6,-14,-6,-61V0H750L364,767V230c0,0,0,-46,5,-59c0,0,6,-12,20,-20c0,0,15,-7,50,-7h50V0Z" 
id="f0_1e"
transform="scale(0.001,-0.001)" />

<path d="M610,480L509,765L404,480ZM2,0V144c0,0,39,0,56,6c0,0,18,7,30,21c0,0,11,13,25,49l322,820H669L981,237c0,0,25,-64,45,-79c0,0,19,-14,68,-14c2,0,3,0,5,0V0H606V144h30c0,0,41,0,58,11c0,0,16,11,16,27c0,0,0,13,-14,55l-32,94H349L310,226c0,0,-12,-33,-12,-44c0,0,0,-11,8,-21c0,0,9,-10,28,-14c0,0,13,-3,71,-3V0Z" 
id="f0_11"
transform="scale(0.001,-0.001)" />

<path d="M280,0V144h30c0,0,51,0,66,6c0,0,14,6,21,22c0,0,8,17,8,67V851c0,0,0,26,-6,33c0,0,-6,7,-26,7c0,0,-38,0,-86,-29c0,0,-48,-29,-85,-82c0,0,-15,-21,-63,-118L2,711l128,365h99l10,-36H826l13,36h99L1067,711L928,662c0,0,-46,91,-66,119c0,0,-40,55,-92,86c0,0,-38,24,-77,24c0,0,-18,0,-24,-9c0,0,-7,-8,-7,-39V244c0,0,0,-53,4,-66c0,0,3,-13,12,-21c0,0,9,-8,25,-11c0,0,16,-2,84,-2V0Z" 
id="f0_1k"
transform="scale(0.001,-0.001)" />

<path d="M59,0V144h42c0,0,39,0,54,7c0,0,15,7,22,22c0,0,7,15,7,57V813c0,0,0,40,-5,52c0,0,-7,17,-21,24c0,0,-13,8,-42,8H59v143H530L711,408l185,632h481V897h-52c0,0,-41,0,-57,-18c0,0,-16,-17,-16,-66V222c0,0,0,-39,4,-48c0,0,7,-15,19,-21c0,0,16,-9,43,-9h59V0H876V144h39c0,0,42,0,57,6c0,0,15,7,22,21c0,0,7,14,7,51V862L748,0H604L359,835V202c0,0,0,-22,8,-34c0,0,8,-12,22,-18c0,0,15,-6,47,-6h50V0Z" 
id="f0_1d"
transform="scale(0.001,-0.001)" />

<path d="M532,575c0,0,81,0,119,17c0,0,38,16,61,51c0,0,23,35,23,83c0,0,0,71,-55,113c0,0,-41,31,-121,31H443V575ZM61,0V144H96c0,0,46,0,61,6c0,0,15,7,22,22c0,0,7,14,7,60V804c0,0,0,48,-6,63c0,0,-6,15,-19,23c0,0,-13,7,-50,7H61v143H611c0,0,104,0,173,-21c0,0,69,-21,119,-64c0,0,49,-44,76,-103c0,0,27,-59,27,-126c0,0,0,-133,-102,-223c0,0,-103,-90,-284,-90H443V218c0,0,0,-37,5,-47c0,0,7,-14,21,-21c0,0,13,-6,46,-6h53V0Z" 
id="f0_1g"
transform="scale(0.001,-0.001)" />

<path d="M561,-17c0,0,-97,0,-173,29c0,0,-76,29,-133,84c0,0,-57,55,-80,116c0,0,-22,61,-22,181V794c0,0,0,56,-6,72c0,0,-6,16,-20,23c0,0,-13,8,-52,8H27v143H536V897H486c0,0,-35,0,-49,-9c0,0,-15,-8,-22,-23c0,0,-6,-15,-6,-62V424c0,0,0,-106,21,-158c0,0,21,-52,64,-79c0,0,43,-28,105,-28c0,0,61,0,109,30c0,0,48,30,68,76c0,0,21,46,21,152V834c0,0,0,26,-7,37c0,0,-9,15,-24,21c0,0,-10,5,-53,5H673v143h429V897h-34c0,0,-49,0,-61,-6c0,0,-18,-9,-26,-26c0,0,-6,-12,-6,-62V393c0,0,0,-114,-33,-191C942,202,896,98,797,40c0,0,-100,-57,-236,-57Z" 
id="f0_1l"
transform="scale(0.001,-0.001)" />

<path d="M567,-17c0,0,-83,0,-152,21c0,0,-70,21,-145,71L237,0H126L52,404l140,33c0,0,49,-123,153,-205c0,0,104,-82,228,-82c0,0,56,0,93,14c0,0,37,14,56,39c0,0,18,25,18,52c0,0,0,45,-43,77c0,0,-44,32,-154,63L369,446c0,0,-40,11,-107,42c0,0,-68,31,-104,64c0,0,-36,34,-60,86c0,0,-24,53,-24,111c0,0,0,83,46,153c0,0,46,69,138,113c0,0,92,43,204,43c0,0,135,0,244,-70l29,52H842L932,692L792,652c0,0,-69,125,-157,183c0,0,-88,58,-187,58c0,0,-64,0,-101,-26c0,0,-37,-27,-37,-59c0,0,0,-36,34,-67c0,0,32,-32,121,-56L665,626c0,0,166,-47,237,-126c0,0,70,-80,70,-186c0,0,0,-135,-107,-229C865,85,745,-17,567,-17Z" 
id="f0_1j"
transform="scale(0.001,-0.001)" />

<path d="M114,0V27h27c0,0,65,0,93,15c0,0,27,15,37,41c0,0,10,27,10,122V729c0,0,0,71,-7,89c0,0,-7,17,-25,30c0,0,-18,12,-42,12c0,0,-38,0,-93,-24l-13,26l372,171h25V205c0,0,0,-93,8,-119c0,0,8,-26,34,-42c0,0,27,-17,84,-17h23V0Z" 
id="f1_l"
transform="scale(0.001,-0.001)" />

<path d="M383,34c0,0,38,0,56,24c0,0,32,42,36,129l3,320c0,0,0,266,-3,310c0,0,-7,103,-36,140c0,0,-18,24,-60,24c0,0,-32,0,-51,-18c0,0,-28,-26,-38,-92c0,0,-9,-66,-9,-460c0,0,0,-215,15,-288c0,0,11,-53,32,-71c0,0,21,-18,55,-18Zm-2,-54c0,0,-73,0,-132,37c0,0,-59,37,-105,106c0,0,-33,51,-57,135c0,0,-32,114,-32,236c0,0,0,165,46,303c0,0,38,114,116,175c0,0,77,61,164,61c0,0,88,0,165,-61c0,0,76,-60,112,-161c0,0,50,-139,50,-305c0,0,0,-151,-42,-283c0,0,-26,-80,-69,-132c0,0,-43,-51,-97,-81c0,0,-55,-30,-119,-30Z" 
id="f1_k"
transform="scale(0.001,-0.001)" />

<path d="M191,-18c0,0,-51,0,-87,36c0,0,-37,36,-37,87c0,0,0,52,37,88c0,0,36,37,87,37c0,0,52,0,89,-37c0,0,36,-36,36,-88c0,0,0,-51,-37,-87c0,0,-36,-36,-88,-36Z" 
id="f1_i"
transform="scale(0.001,-0.001)" />

<path d="M37,0V16c0,0,275,327,333,439c0,0,59,113,59,220c0,0,0,79,-49,131c0,0,-49,52,-119,52c0,0,-115,0,-178,-115l-28,9c0,0,40,143,123,212c0,0,82,69,189,69c0,0,77,0,141,-36c0,0,63,-36,99,-98c0,0,36,-63,36,-117c0,0,0,-99,-56,-202c0,0,-75,-138,-329,-384H477c0,0,81,0,105,6c0,0,24,7,40,23c0,0,15,16,41,67h27L633,0Z" 
id="f1_m"
transform="scale(0.001,-0.001)" />

<path d="M635,-22c0,0,-144,0,-239,38c0,0,-96,39,-168,102c0,0,-73,64,-114,144c0,0,-52,103,-52,230c0,0,0,228,160,385c0,0,161,157,404,157c0,0,75,0,136,-12c0,0,33,-6,106,-34c0,0,74,-28,87,-28c0,0,21,0,39,16c0,0,18,15,33,58h27V678h-27c0,0,-50,146,-150,222c0,0,-100,76,-219,76c0,0,-113,0,-189,-64c0,0,-75,-64,-107,-178c0,0,-31,-114,-31,-234c0,0,0,-145,34,-255c0,0,35,-110,111,-161c0,0,76,-52,181,-52c0,0,37,0,75,8c0,0,39,8,79,23V274c0,0,0,60,-8,77c0,0,-9,18,-34,32c0,0,-26,14,-63,14H680v27h493V397c0,0,-56,-4,-78,-15c0,0,-22,-12,-34,-39c0,0,-6,-14,-6,-69L1054,63c0,0,-97,-43,-201,-64c0,0,-105,-21,-218,-21Z" 
id="f1_17"
transform="scale(0.001,-0.001)" />

<path d="M458,424c0,0,0,120,-13,165c0,0,-13,44,-40,67c0,0,-16,14,-42,14c0,0,-39,0,-63,-38c0,0,-44,-66,-44,-182V424ZM358,-20c0,0,-155,0,-235,119c0,0,-64,96,-64,239c0,0,0,174,94,277c0,0,94,104,221,104c0,0,106,0,184,-87c0,0,78,-87,84,-257H259c0,0,7,-139,74,-220c0,0,51,-62,124,-62c0,0,45,0,81,25c0,0,37,25,79,90l25,-16C642,192,585,76,517,28c0,0,-69,-48,-159,-48Z" 
id="f1_21"
transform="scale(0.001,-0.001)" />

<path d="M381,31c0,0,33,0,56,19c0,0,29,25,38,71c0,0,15,71,15,286c0,0,0,127,-14,174c0,0,-14,48,-42,69c0,0,-19,16,-50,16c0,0,-38,0,-65,-29c0,0,-27,-29,-36,-113c0,0,-8,-85,-8,-235c0,0,0,-80,10,-150c0,0,8,-53,35,-80c0,0,27,-28,61,-28Zm2,-51c0,0,-157,0,-242,110c0,0,-85,110,-85,256c0,0,0,150,87,261c0,0,86,112,238,112c0,0,90,0,169,-47c0,0,78,-47,119,-134c0,0,40,-86,40,-189c0,0,0,-149,-75,-249c0,0,-91,-120,-251,-120Z" 
id="f1_2b"
transform="scale(0.001,-0.001)" />

<path d="M56,0V26c0,0,44,5,63,29c0,0,13,16,13,97V546c0,0,0,79,-15,98c0,0,-14,20,-61,26v27H341V606c0,0,57,63,106,88c0,0,49,25,108,25c0,0,67,0,112,-32c0,0,46,-31,71,-95c0,0,59,67,114,97c0,0,55,30,115,30c0,0,72,0,115,-34c0,0,43,-33,60,-84c0,0,16,-51,16,-163V152c0,0,0,-81,15,-100c0,0,14,-20,61,-26V0H873V26c0,0,42,4,63,33c0,0,13,20,13,93V452c0,0,0,93,-7,119c0,0,-8,25,-24,38c0,0,-16,12,-37,12c0,0,-32,0,-65,-24c0,0,-33,-23,-66,-70V152c0,0,0,-76,12,-95c0,0,17,-28,66,-31V0H466V26c0,0,29,2,46,15c0,0,17,13,23,31c0,0,5,18,5,80V452c0,0,0,95,-7,119c0,0,-8,24,-25,37c0,0,-18,14,-38,14c0,0,-30,0,-54,-16c0,0,-35,-23,-75,-79V152c0,0,0,-74,14,-98c0,0,15,-23,61,-28V0Z" 
id="f1_29"
transform="scale(0.001,-0.001)" />

<path d="M57,0V26c0,0,45,4,61,25c0,0,16,22,16,113V550c0,0,0,59,-6,76c0,0,-7,21,-22,30c0,0,-14,10,-49,14v27H342l1,-158c0,0,69,109,121,144c0,0,52,36,100,36c0,0,42,0,66,-26c0,0,25,-26,25,-73c0,0,0,-50,-24,-77c0,0,-25,-28,-59,-28c0,0,-39,0,-68,25c0,0,-28,26,-33,29c0,0,-8,4,-17,4c0,0,-22,0,-41,-16c0,0,-31,-26,-46,-73c0,0,-24,-72,-24,-159V122c0,0,0,-42,5,-54c0,0,9,-21,27,-30c0,0,17,-9,59,-12V0Z" 
id="f1_2e"
transform="scale(0.001,-0.001)" />

<path d="M298,-9c0,0,-67,0,-113,36c0,0,-46,37,-58,83c0,0,-8,25,-8,137V624H28v26c0,0,94,66,161,139c0,0,66,73,115,163h25V697H494V624H329V193c0,0,0,-60,5,-78c0,0,6,-17,20,-28c0,0,14,-11,26,-11c0,0,48,0,92,75l22,-17C494,134,434,-9,298,-9Z" 
id="f1_2g"
transform="scale(0.001,-0.001)" />

<path d="M32,0V26c0,0,46,2,69,27c0,0,14,18,14,92V551c0,0,0,75,-17,95c0,0,-17,21,-66,24v27H325V145c0,0,0,-74,17,-95c0,0,17,-21,68,-24V0ZM220,804c0,0,-48,0,-82,33c0,0,-33,34,-33,82c0,0,0,48,33,82c0,0,34,33,82,33c0,0,48,0,82,-33c0,0,33,-34,33,-82c0,0,0,-48,-34,-82c0,0,-34,-33,-81,-33Z" 
id="f1_25"
transform="scale(0.001,-0.001)" />

<path d="M365,-20c0,0,-139,0,-223,105c0,0,-83,105,-83,253c0,0,0,142,76,250c0,0,92,131,253,131c0,0,108,0,172,-55c0,0,63,-54,63,-121c0,0,0,-43,-25,-68c0,0,-26,-25,-68,-25c0,0,-44,0,-73,29c0,0,-28,29,-35,104c0,0,-5,47,-22,65c0,0,-17,19,-40,19c0,0,-36,0,-61,-38c0,0,-39,-58,-39,-176c0,0,0,-99,31,-188c0,0,32,-90,86,-134c0,0,41,-32,97,-32c0,0,36,0,69,17c0,0,33,17,78,65l23,-18C644,163,595,70,521,25c0,0,-73,-45,-156,-45Z" 
id="f1_1z"
transform="scale(0.001,-0.001)" />

<path d="M350,115c0,0,37,0,86,42V391c0,0,-90,-53,-134,-113c0,0,-29,-41,-29,-82c0,0,0,-34,24,-60c0,0,19,-21,53,-21ZM207,-9c0,0,-59,0,-99,38c0,0,-40,40,-40,99c0,0,0,80,69,143c0,0,69,64,299,170v70c0,0,0,79,-8,100c0,0,-9,20,-33,36c0,0,-23,15,-53,15c0,0,-49,0,-80,-22c0,0,-19,-13,-19,-31c0,0,0,-16,21,-39c0,0,28,-32,28,-62c0,0,0,-36,-27,-62c0,0,-27,-26,-71,-26c0,0,-47,0,-79,29c0,0,-32,28,-32,66c0,0,0,54,43,103c0,0,42,48,118,75c0,0,76,26,158,26c0,0,99,0,157,-42c0,0,58,-43,75,-92c0,0,11,-31,11,-144V170c0,0,0,-47,3,-60c0,0,4,-12,11,-18c0,0,8,-6,18,-6c0,0,19,0,39,28L738,96c0,0,-37,-56,-77,-81c0,0,-40,-24,-90,-24c0,0,-60,0,-94,27c0,0,-33,28,-41,85C436,103,309,-9,207,-9Z" 
id="f1_1x"
transform="scale(0.001,-0.001)" />

<path d="M32,0V26c0,0,46,2,69,27c0,0,14,18,14,92V867c0,0,0,74,-17,94c0,0,-17,21,-66,24v27H325V145c0,0,0,-74,17,-95c0,0,17,-21,68,-24V0Z" 
id="f1_28"
transform="scale(0.001,-0.001)" />

<path d="M29,0V27H63c0,0,44,0,71,16c0,0,19,11,30,36c0,0,8,18,8,94V839c0,0,0,78,-8,97c0,0,-8,20,-33,34c0,0,-25,15,-68,15H29v27H558V985H525c0,0,-44,0,-71,-16c0,0,-19,-11,-30,-36c0,0,-8,-18,-8,-94V173c0,0,0,-78,8,-97c0,0,9,-20,34,-34c0,0,24,-15,67,-15h33V0Z" 
id="f1_19"
transform="scale(0.001,-0.001)" />

<path d="M312,-20c0,0,-50,0,-134,30c0,0,-22,9,-30,9c0,0,-25,0,-41,-37H82L70,232H97c0,0,33,-99,91,-148c0,0,59,-49,111,-49c0,0,35,0,58,22c0,0,22,22,22,54c0,0,0,35,-22,61c0,0,-22,27,-100,80c0,0,-114,79,-147,120c0,0,-49,62,-49,136c0,0,0,80,55,145c0,0,56,66,161,66c0,0,56,0,109,-28c0,0,20,-11,33,-11c0,0,13,0,21,5c0,0,9,6,27,32h26L504,479H477c0,0,-45,106,-94,145c0,0,-48,39,-96,39c0,0,-31,0,-52,-21c0,0,-22,-20,-22,-47c0,0,0,-20,15,-39c0,0,24,-30,133,-105c0,0,110,-74,144,-126c0,0,35,-52,35,-116c0,0,0,-58,-29,-114C511,95,482,39,429,9c0,0,-53,-29,-117,-29Z" 
id="f1_2f"
transform="scale(0.001,-0.001)" />

<path d="M52,0V26c0,0,44,5,62,29c0,0,13,16,13,97V546c0,0,0,79,-14,98c0,0,-15,20,-61,26v27H336V607c0,0,54,59,104,85c0,0,49,27,106,27c0,0,68,0,113,-38c0,0,44,-38,59,-94c0,0,12,-42,12,-163V152c0,0,0,-81,15,-101c0,0,14,-19,61,-25V0H452V26c0,0,40,6,57,33c0,0,12,19,12,93V462c0,0,0,86,-7,109c0,0,-6,22,-22,35c0,0,-16,12,-36,12c0,0,-64,0,-120,-92V152c0,0,0,-79,15,-100c0,0,15,-20,55,-26V0Z" 
id="f1_2a"
transform="scale(0.001,-0.001)" />

<path d="M52,0V26c0,0,44,5,62,29c0,0,13,16,13,97V860c0,0,0,80,-14,99c0,0,-15,20,-61,26v27H336V608c0,0,58,61,106,86c0,0,47,25,99,25c0,0,65,0,112,-38c0,0,47,-37,62,-87c0,0,15,-51,15,-170V152c0,0,0,-81,15,-100c0,0,15,-20,61,-26V0H452V26c0,0,37,6,56,30c0,0,13,20,13,96V463c0,0,0,86,-7,108c0,0,-6,22,-22,35c0,0,-16,12,-36,12c0,0,-30,0,-59,-21c0,0,-28,-20,-61,-72V152c0,0,0,-75,12,-94c0,0,14,-26,58,-32V0Z" 
id="f1_24"
transform="scale(0.001,-0.001)" />

<path d="M397,69c0,0,65,0,123,103V539c0,0,-55,105,-134,105c0,0,-28,0,-46,-15c0,0,-27,-23,-45,-81c0,0,-17,-58,-17,-178c0,0,0,-132,19,-195c0,0,19,-63,53,-91c0,0,17,-15,47,-15ZM332,-20c0,0,-133,0,-211,119c0,0,-62,97,-62,238c0,0,0,112,38,202c0,0,39,89,107,134c0,0,67,46,145,46c0,0,50,0,88,-20c0,0,39,-19,83,-67V842c0,0,0,80,-7,96c0,0,-8,22,-26,32c0,0,-18,11,-68,11v31H729V209c0,0,0,-81,5,-96c0,0,6,-25,22,-36c0,0,17,-12,58,-15V37L520,-20V90C520,90,467,26,426,3c0,0,-42,-23,-94,-23Z" 
id="f1_20"
transform="scale(0.001,-0.001)" />

<path d="M459,56c0,0,40,0,66,42c0,0,39,63,39,239c0,0,0,180,-42,247c0,0,-29,44,-76,44c0,0,-76,0,-124,-109V147c0,0,64,-91,137,-91ZM29,-326v28c0,0,46,1,69,26c0,0,14,17,14,89V551c0,0,0,75,-17,95c0,0,-17,21,-66,24v27H322V605c0,0,36,54,74,78c0,0,55,36,119,36c0,0,77,0,140,-49c0,0,63,-48,95,-134c0,0,33,-85,33,-184c0,0,0,-106,-34,-193c0,0,-34,-88,-98,-134c0,0,-65,-45,-144,-45c0,0,-57,0,-107,25c0,0,-37,19,-78,66V-188c0,0,0,-53,8,-73c0,0,9,-19,27,-28c0,0,18,-9,70,-9v-28Z" 
id="f1_2c"
transform="scale(0.001,-0.001)" />

<path d="M34,0V26c0,0,51,0,93,28c0,0,42,28,123,147l58,85L188,509c0,0,-59,109,-88,133c0,0,-29,25,-65,28v27H419V669L362,656c0,0,-6,-6,-6,-18c0,0,0,-11,4,-23c0,0,2,-5,20,-40L435,473l27,41c0,0,60,82,60,115c0,0,0,15,-13,26c0,0,-13,11,-47,15v27H710V670c0,0,-46,-2,-85,-28c0,0,-40,-27,-89,-103L460,427L584,198c0,0,62,-121,99,-153c0,0,20,-17,55,-19V0H349V26c0,0,46,4,57,12c0,0,11,9,11,23c0,0,0,21,-24,66L332,240L281,165c0,0,-35,-52,-39,-62c0,0,-6,-14,-6,-25c0,0,0,-17,7,-29c0,0,7,-11,19,-17c0,0,13,-6,45,-6V0Z" 
id="f1_2k"
transform="scale(0.001,-0.001)" />

<path d="M30,0V27H40c0,0,1,0,2,0c6,0,36,1,62,11c0,0,29,12,44,31c0,0,15,20,23,55c0,0,2,8,2,76V841c0,0,0,77,-9,96c0,0,-8,19,-33,33c0,0,-26,15,-69,15H30v27H445L729,346l274,666h412V985h-33c0,0,-45,0,-72,-16c0,0,-19,-10,-30,-35c0,0,-8,-18,-8,-93V173c0,0,0,-78,8,-97c0,0,8,-20,34,-34c0,0,25,-15,68,-15h33V0H886V27h33c0,0,44,0,71,16c0,0,19,11,30,36c0,0,8,18,8,94V923L641,0H623L229,916V203c0,0,0,-74,4,-91c0,0,10,-38,42,-61c0,0,33,-24,102,-24V0Z" 
id="f1_1d"
transform="scale(0.001,-0.001)" />

<path d="M404,381V781L110,381ZM404,0V227H38V381l480,652h91V381h93V227H609V0Z" 
id="f1_o"
transform="scale(0.001,-0.001)" />

<path d="M434,31c0,0,38,0,65,22c0,0,28,22,46,86c0,0,18,64,18,231c0,0,0,161,-40,220c0,0,-29,44,-78,44c0,0,-64,0,-123,-73V251c0,0,0,-95,4,-121c0,0,8,-44,36,-71c0,0,28,-28,72,-28ZM115,-20V867c0,0,0,61,-5,75c0,0,-7,21,-23,31c0,0,-17,10,-55,12v27H322V628c0,0,88,91,192,91c0,0,72,0,135,-42c0,0,64,-43,99,-120c0,0,36,-78,36,-179c0,0,0,-114,-45,-208C739,170,693,77,617,28c0,0,-76,-48,-174,-48c0,0,-56,0,-100,18c0,0,-44,17,-87,57L141,-20Z" 
id="f1_1y"
transform="scale(0.001,-0.001)" />

<path d="M473,53c0,0,173,0,287,121c0,0,114,122,114,330c0,0,0,210,-114,330c0,0,-114,121,-293,121c0,0,-67,0,-153,-21V74c0,0,95,-21,159,-21ZM26,0V27H64c0,0,64,0,91,41c0,0,16,25,16,111V833c0,0,0,95,-21,119c0,0,-29,33,-86,33H26v27H438c0,0,226,0,345,-51c0,0,118,-52,190,-172c0,0,72,-120,72,-278c0,0,0,-211,-129,-353C916,158,773,0,478,0Z" 
id="f2_14"
transform="scale(0.001,-0.001)" />

<path d="M17,0V26c0,0,52,0,77,17c0,0,19,12,26,38c0,0,4,13,4,73V419c0,0,0,119,-5,142c0,0,-4,23,-17,33c0,0,-13,11,-33,11c0,0,-23,0,-52,-11l-7,26l207,83h31V549c0,0,86,154,176,154c0,0,41,0,68,-25c0,0,27,-25,27,-58c0,0,0,-29,-20,-49c0,0,-19,-20,-46,-20c0,0,-26,0,-58,25c0,0,-33,26,-48,26c0,0,-14,0,-29,-15c0,0,-34,-30,-70,-101V159c0,0,0,-56,15,-85c0,0,9,-20,34,-34c0,0,24,-14,71,-14V0Z" 
id="f2_2e"
transform="scale(0.001,-0.001)" />

<path d="M286,72c0,0,57,0,149,75V407c0,0,-113,-45,-145,-64c0,0,-59,-32,-85,-68c0,0,-25,-36,-25,-78c0,0,0,-54,32,-89c0,0,32,-36,74,-36ZM217,-13c0,0,-71,0,-116,48c0,0,-46,48,-46,127c0,0,0,50,22,87c0,0,31,50,106,95c0,0,76,45,252,109v26c0,0,0,102,-32,140c0,0,-32,38,-94,38c0,0,-47,0,-74,-25c0,0,-28,-25,-28,-58l1,-43c0,0,0,-34,-17,-53c0,0,-18,-18,-47,-18c0,0,-28,0,-45,19c0,0,-18,19,-18,53c0,0,0,64,66,117c0,0,65,54,184,54c0,0,91,0,149,-31c0,0,44,-23,65,-72c0,0,13,-32,13,-131V238c0,0,0,-98,4,-120c0,0,4,-22,12,-29c0,0,9,-8,20,-8c0,0,12,0,21,5c0,0,16,10,61,55V99C676,99,592,-12,516,-12c0,0,-37,0,-58,24c0,0,-22,26,-23,86C435,98,330,17,303,5c0,0,-40,-18,-86,-18Z" 
id="f2_1x"
transform="scale(0.001,-0.001)" />

<path d="M336,-20L117,554c0,0,-21,55,-42,74c0,0,-21,19,-66,29v26H296V657c0,0,-40,-3,-52,-14c0,0,-13,-12,-13,-33c0,0,0,-23,13,-56L390,162L537,481L498,581c0,0,-18,46,-47,63c0,0,-17,11,-61,13v26H716V657c0,0,-54,-2,-77,-20c0,0,-15,-12,-15,-39c0,0,0,-15,6,-30L785,177L929,554c0,0,15,40,15,65c0,0,0,14,-15,25c0,0,-14,12,-57,13v26h216V657c0,0,-65,-10,-95,-89L764,-20H733L563,415L363,-20Z" 
id="f2_2j"
transform="scale(0.001,-0.001)" />

<path d="M255,-10c0,0,-35,0,-68,18c0,0,-32,19,-48,55c0,0,-16,35,-16,109V632H15v24c0,0,41,16,84,56c0,0,43,39,77,92c0,0,17,29,48,104h23V683H407V632H247V188c0,0,0,-66,19,-90c0,0,19,-23,49,-23c0,0,24,0,47,16c0,0,23,15,36,45h29c0,0,-26,-73,-74,-110c0,0,-47,-36,-98,-36Z" 
id="f2_2g"
transform="scale(0.001,-0.001)" />

<path d="M20,0V26c0,0,45,0,71,15c0,0,15,7,24,28c0,0,9,21,9,85V773c0,0,0,117,-5,144c0,0,-6,27,-17,37c0,0,-12,9,-31,9c0,0,-16,0,-51,-12L10,978l204,83h34V561c0,0,83,91,131,116c0,0,49,26,97,26c0,0,58,0,100,-32c0,0,42,-32,62,-101c0,0,14,-47,14,-174V154c0,0,0,-65,11,-89c0,0,7,-18,25,-28c0,0,18,-11,66,-11V0H418V26h15c0,0,48,0,67,15c0,0,18,15,26,43c0,0,2,12,2,70V396c0,0,0,112,-12,147c0,0,-11,35,-36,53c0,0,-26,17,-61,17c0,0,-37,0,-76,-19c0,0,-40,-20,-95,-79V154c0,0,0,-70,8,-87c0,0,8,-17,29,-29c0,0,22,-12,74,-12V0Z" 
id="f2_24"
transform="scale(0.001,-0.001)" />

<path d="M479,469c0,0,-4,66,-16,93c0,0,-18,42,-55,65c0,0,-37,24,-78,24c0,0,-62,0,-111,-48c0,0,-48,-48,-57,-134ZM355,-20c0,0,-123,0,-211,95c0,0,-87,96,-87,258c0,0,0,175,90,273c0,0,89,98,225,98c0,0,115,0,189,-76c0,0,74,-75,74,-202H162c0,0,0,-152,74,-239c0,0,75,-86,175,-86c0,0,67,0,117,36c0,0,50,37,83,127l24,-15c0,0,-16,-102,-91,-186c0,0,-76,-83,-189,-83Z" 
id="f2_21"
transform="scale(0.001,-0.001)" />

<path d="M411,-239c0,0,134,0,198,48c0,0,64,47,64,100c0,0,0,39,-38,55c0,0,-39,16,-154,19c0,0,-167,5,-258,17c0,0,-35,-37,-53,-70c0,0,-17,-32,-17,-60c0,0,0,-36,43,-62c0,0,74,-47,215,-47ZM380,257c0,0,56,0,93,43c0,0,36,42,36,133c0,0,0,118,-51,185c0,0,-38,49,-98,49c0,0,-55,0,-92,-44c0,0,-37,-44,-37,-135c0,0,0,-117,50,-182c0,0,39,-49,99,-49ZM345,-328c0,0,-144,0,-243,64c0,0,-56,38,-56,78c0,0,0,18,8,36c0,0,13,27,52,76c0,0,5,7,76,80c0,0,-39,23,-55,41c0,0,-16,19,-16,42c0,0,0,26,22,61c0,0,21,35,98,100c0,0,-63,30,-97,85c0,0,-33,55,-33,121c0,0,0,101,76,174c0,0,77,73,196,73c0,0,98,0,170,-48H688c0,0,32,0,37,-2c0,0,6,-2,8,-6c0,0,4,-7,4,-24c0,0,0,-20,-4,-27c0,0,-2,-4,-7,-6c0,0,-6,-2,-38,-2H599c0,0,41,-54,41,-137c0,0,0,-96,-73,-163c0,0,-73,-68,-196,-68c0,0,-51,0,-104,15c0,0,-33,-28,-44,-49c0,0,-12,-22,-12,-37c0,0,0,-12,13,-24c0,0,12,-12,48,-17c0,0,21,-4,104,-6c0,0,154,-4,199,-11c0,0,70,-10,111,-51c0,0,42,-41,42,-102c0,0,0,-84,-79,-158c0,0,-117,-108,-304,-108Z" 
id="f2_23"
transform="scale(0.001,-0.001)" />

<path d="M406,32c0,0,72,0,119,60c0,0,47,59,47,205c0,0,0,181,-78,286c0,0,-53,71,-135,71c0,0,-40,0,-79,-23c0,0,-40,-24,-65,-83c0,0,-24,-58,-24,-151c0,0,0,-149,59,-257c0,0,59,-108,156,-108ZM374,-20c0,0,-154,0,-245,122c0,0,-77,104,-77,233c0,0,0,94,46,187c0,0,47,92,123,137c0,0,76,44,161,44c0,0,155,0,249,-118c0,0,80,-100,80,-231c0,0,0,-91,-44,-185C667,169,623,75,546,27c0,0,-77,-47,-172,-47Z" 
id="f2_2b"
transform="scale(0.001,-0.001)" />

<path d="M23,0V26c0,0,47,0,66,10c0,0,19,11,28,33c0,0,10,22,10,85V416c0,0,0,112,-7,145c0,0,-5,25,-16,34c0,0,-11,10,-31,10c0,0,-21,0,-50,-11L12,620l207,83h32V557c0,0,75,75,88,86c0,0,34,29,72,44c0,0,39,16,77,16c0,0,64,0,110,-37c0,0,47,-38,62,-109c0,0,77,90,130,118c0,0,53,28,109,28c0,0,54,0,96,-28c0,0,42,-28,67,-91c0,0,16,-43,16,-136V154c0,0,0,-64,10,-88c0,0,8,-16,28,-28c0,0,20,-12,65,-12V0H844V26h14c0,0,44,0,69,18c0,0,17,12,24,38c0,0,3,13,3,72V448c0,0,0,83,-20,117c0,0,-29,48,-93,48c0,0,-39,0,-79,-20c0,0,-40,-19,-97,-73l-1,-8l2,-32V154c0,0,0,-70,8,-87c0,0,7,-17,29,-29c0,0,21,-12,73,-12V0H431V26c0,0,57,0,78,14c0,0,21,13,29,40c0,0,4,13,4,74V448c0,0,0,83,-25,120c0,0,-33,48,-91,48c0,0,-40,0,-80,-22c0,0,-61,-33,-95,-74V154c0,0,0,-67,10,-87c0,0,9,-20,27,-30c0,0,18,-11,74,-11V0Z" 
id="f2_29"
transform="scale(0.001,-0.001)" />

<path d="M55,0V26c0,0,50,0,67,10c0,0,17,10,27,32c0,0,10,23,10,86V418c0,0,0,111,-6,144c0,0,-6,24,-17,33c0,0,-11,10,-30,10c0,0,-21,0,-51,-11L45,620l206,83h33V154c0,0,0,-64,9,-85c0,0,9,-22,27,-32c0,0,19,-11,67,-11V0ZM222,909c0,0,-32,0,-54,23c0,0,-22,22,-22,53c0,0,0,32,22,54c0,0,22,22,54,22c0,0,31,0,53,-22c0,0,22,-22,22,-54c0,0,0,-31,-22,-53c0,0,-22,-23,-53,-23Z" 
id="f2_25"
transform="scale(0.001,-0.001)" />

<path d="M342,-20c0,0,-116,0,-203,97c0,0,-86,98,-86,264c0,0,0,161,96,261c0,0,95,101,230,101c0,0,100,0,165,-53c0,0,65,-54,65,-111c0,0,0,-29,-18,-46c0,0,-18,-18,-51,-18c0,0,-44,0,-66,29c0,0,-13,15,-17,59c0,0,-4,45,-30,68c0,0,-26,22,-73,22c0,0,-74,0,-120,-55c0,0,-60,-73,-60,-193c0,0,0,-122,60,-216c0,0,60,-93,162,-93c0,0,73,0,131,49c0,0,41,35,80,126l22,-10C629,261,601,125,521,52c0,0,-81,-72,-179,-72Z" 
id="f2_1z"
transform="scale(0.001,-0.001)" />

<path d="M58,0V26c0,0,47,0,64,10c0,0,18,10,28,32c0,0,9,23,9,86V775c0,0,0,116,-5,142c0,0,-5,27,-17,37c0,0,-11,9,-29,9c0,0,-20,0,-49,-12L46,978l204,83h34V154c0,0,0,-64,9,-85c0,0,9,-21,29,-32c0,0,19,-11,72,-11V0Z" 
id="f2_28"
transform="scale(0.001,-0.001)" />

<path d="M312,-20c0,0,-62,0,-143,22c0,0,-25,8,-40,8c0,0,-18,0,-27,-19H77V234h25c0,0,21,-105,80,-158c0,0,59,-53,132,-53c0,0,51,0,84,31c0,0,32,30,32,72c0,0,0,52,-36,87c0,0,-36,35,-144,88c0,0,-109,54,-142,97c0,0,-34,43,-34,107c0,0,0,85,58,141c0,0,58,57,150,57c0,0,40,0,97,-17c0,0,38,-11,51,-11c0,0,12,0,19,5c0,0,7,5,15,23h25V470H464c0,0,-28,110,-72,149c0,0,-45,40,-113,40c0,0,-53,0,-85,-28c0,0,-32,-27,-32,-61c0,0,0,-41,24,-71c0,0,23,-31,94,-65L389,381c0,0,152,-74,152,-194c0,0,0,-94,-71,-151c0,0,-70,-56,-158,-56Z" 
id="f2_2f"
transform="scale(0.001,-0.001)" />

<path d="M63,0V26H93c0,0,30,0,54,15c0,0,25,15,34,41c0,0,10,25,10,99V630H58v53H191v45c0,0,0,102,33,173c0,0,32,71,100,114c0,0,68,44,152,44c0,0,79,0,145,-51c0,0,43,-33,43,-75c0,0,0,-22,-19,-42c0,0,-20,-20,-42,-20c0,0,-17,0,-36,12c0,0,-19,13,-47,53c0,0,-28,41,-51,55c0,0,-23,14,-51,14c0,0,-35,0,-58,-18c0,0,-24,-18,-35,-57c0,0,-10,-38,-10,-197V683H491V630H315V181c0,0,0,-96,21,-122c0,0,27,-33,73,-33h62V0Z" 
id="f2_22"
transform="scale(0.001,-0.001)" />

<path d="M125,-302V1034H453V975H237V-243H453v-59Z" 
id="f2_1r"
transform="scale(0.001,-0.001)" />

<path d="M548,-21c0,0,-251,0,-389,185C159,164,56,303,56,490c0,0,0,152,68,278c0,0,67,127,186,197c0,0,119,69,260,69c0,0,109,0,216,-53c0,0,31,-17,44,-17c0,0,20,0,35,14c0,0,20,21,28,56h26L943,690H919c0,0,-46,155,-131,224c0,0,-86,68,-206,68c0,0,-100,0,-181,-51c0,0,-81,-52,-128,-163c0,0,-46,-112,-46,-279c0,0,0,-137,44,-238c0,0,44,-101,132,-154c0,0,88,-54,201,-54c0,0,99,0,174,42c0,0,75,42,165,167l23,-14C966,238,890,103,789,40c0,0,-102,-61,-241,-61Z" 
id="f2_13"
transform="scale(0.001,-0.001)" />

<path d="M33,0V27c0,0,264,241,371,393c0,0,108,152,108,278c0,0,0,96,-59,158c0,0,-59,62,-141,62c0,0,-75,0,-134,-43c0,0,-59,-44,-88,-128H63c0,0,18,138,95,212c0,0,77,74,193,74c0,0,123,0,205,-80c0,0,83,-79,83,-186c0,0,0,-77,-36,-154c0,0,-55,-121,-179,-256C424,357,238,154,191,112H455c0,0,81,0,114,6c0,0,32,6,58,25c0,0,27,18,46,52h27L630,0Z" 
id="f2_m"
transform="scale(0.001,-0.001)" />

<path d="M474,-326c0,0,-112,57,-188,133c0,0,-107,108,-165,254c0,0,-58,147,-58,305c0,0,0,231,114,421c0,0,114,191,297,273v-31c0,0,-92,-51,-151,-139c0,0,-59,-88,-88,-223c0,0,-30,-135,-30,-281c0,0,0,-160,25,-290c0,0,20,-102,47,-164c0,0,28,-62,75,-120c0,0,47,-57,122,-109v-29Z" 
id="f2_c"
transform="scale(0.001,-0.001)" />

<path d="M911,-16L244,799V175c0,0,0,-93,21,-116c0,0,28,-32,86,-32h36V0H36V27H71c0,0,65,0,92,39c0,0,16,24,16,109V879c0,0,-44,52,-67,68c0,0,-23,17,-67,31c0,0,-21,7,-64,7v27H253L873,253V837c0,0,0,93,-21,116c0,0,-28,32,-87,32H730v27h351V985h-36c0,0,-64,0,-91,-39c0,0,-16,-24,-16,-109V-16Z" 
id="f2_1e"
transform="scale(0.001,-0.001)" />

<path d="M26,0V27H62c0,0,63,0,91,37c0,0,18,24,18,115V833c0,0,0,77,-10,102c0,0,-7,18,-30,32c0,0,-33,18,-69,18H26v27H459V985H422c0,0,-35,0,-67,-17c0,0,-23,-12,-32,-36c0,0,-9,-25,-9,-99V542H784V833c0,0,0,77,-10,102c0,0,-8,18,-31,32c0,0,-33,18,-68,18H639v27h432V985h-36c0,0,-36,0,-68,-17c0,0,-24,-12,-32,-36c0,0,-9,-25,-9,-99V179c0,0,0,-77,10,-102c0,0,7,-18,31,-32c0,0,32,-18,68,-18h36V0H639V27h36c0,0,62,0,90,37c0,0,19,24,19,115V487H314V179c0,0,0,-77,9,-102c0,0,8,-18,32,-32c0,0,32,-18,67,-18h37V0Z" 
id="f2_18"
transform="scale(0.001,-0.001)" />

<path d="M238,-17c0,0,-103,0,-139,25C99,8,62,33,62,62c0,0,0,22,17,38c0,0,18,16,42,16c0,0,19,0,38,-6c0,0,13,-3,58,-27c0,0,45,-23,62,-28c0,0,27,-8,59,-8c0,0,76,0,132,59c0,0,56,59,56,140c0,0,0,59,-26,115c0,0,-19,41,-42,63c0,0,-32,30,-88,54c0,0,-56,25,-114,25H232v22c0,0,59,8,118,42c0,0,59,35,86,85c0,0,27,49,27,108c0,0,0,76,-48,124c0,0,-48,47,-120,47c0,0,-116,0,-193,-124L77,819c0,0,44,102,110,158c0,0,66,56,164,56c0,0,122,0,187,-80c0,0,49,-58,49,-126c0,0,0,-110,-139,-228c0,0,93,-36,141,-104c0,0,48,-68,48,-160c0,0,0,-131,-84,-227C553,108,444,-17,238,-17Z" 
id="f2_n"
transform="scale(0.001,-0.001)" />

<path d="M35,-326v29c0,0,92,51,151,139c0,0,60,87,89,221c0,0,28,136,28,282c0,0,0,159,-24,290c0,0,-19,103,-47,165c0,0,-28,62,-75,119c0,0,-46,57,-122,110v31c0,0,113,-56,188,-132c0,0,107,-109,165,-255c0,0,58,-147,58,-306c0,0,0,-231,-114,-420c0,0,-113,-191,-297,-273Z" 
id="f2_d"
transform="scale(0.001,-0.001)" />

<path d="M452,373V875L97,373ZM452,0V267H23v95l470,671h82V373H711V267H575V0Z" 
id="f2_o"
transform="scale(0.001,-0.001)" />

<path d="M56,-302v60H272V975H56v59H383V-302Z" 
id="f2_1t"
transform="scale(0.001,-0.001)" />

<path d="M399,105V477H27v62H399V909h60V539H831V477H459V105Z" 
id="f2_f"
transform="scale(0.001,-0.001)" />

<path d="M78,-22V359h28c0,0,32,-161,126,-246c0,0,94,-85,202,-85c0,0,84,0,133,46c0,0,50,45,50,106c0,0,0,36,-19,69c0,0,-19,34,-58,64c0,0,-39,30,-138,79c0,0,-138,68,-198,115c0,0,-60,48,-92,107c0,0,-33,59,-33,130c0,0,0,120,89,205c0,0,89,85,224,85c0,0,49,0,96,-11c0,0,35,-9,85,-34c0,0,51,-24,71,-24c0,0,19,0,30,12c0,0,12,12,21,57h23l8,-337H695c0,0,-21,127,-106,204c0,0,-85,78,-184,78c0,0,-76,0,-121,-41c0,0,-44,-41,-44,-94c0,0,0,-33,15,-59c0,0,22,-35,70,-70c0,0,35,-24,162,-87c0,0,178,-87,240,-165c0,0,61,-77,61,-177c0,0,0,-127,-99,-218c0,0,-99,-90,-251,-90c0,0,-48,0,-90,9c0,0,-43,10,-107,36c0,0,-36,15,-59,15c0,0,-20,0,-41,-15c0,0,-22,-15,-35,-45Z" 
id="f1_1j"
transform="scale(0.001,-0.001)" />

<path d="M254,-20c0,0,-128,0,-187,41C67,21,24,51,24,98c0,0,0,34,25,59c0,0,25,24,57,24c0,0,25,0,46,-11c0,0,12,-6,85,-65c0,0,73,-59,136,-59c0,0,56,0,95,44c0,0,40,43,40,110c0,0,0,102,-72,189c0,0,-72,86,-210,118v27c0,0,85,24,118,46c0,0,33,21,57,64c0,0,24,44,24,89c0,0,0,61,-46,106c0,0,-45,44,-112,44c0,0,-105,0,-178,-110l-27,9c0,0,53,125,137,188c0,0,84,63,187,63c0,0,105,0,174,-65c0,0,68,-64,68,-150c0,0,0,-56,-32,-107c0,0,-32,-52,-100,-92c0,0,88,-42,134,-105c0,0,46,-62,46,-156c0,0,0,-158,-115,-269C561,89,447,-20,254,-20Z" 
id="f1_n"
transform="scale(0.001,-0.001)" />

<path d="M356,519c0,0,145,0,218,63c0,0,74,63,74,160c0,0,0,95,-60,154c0,0,-59,59,-157,59c0,0,-43,0,-117,-13V520c0,0,14,0,25,0c0,0,10,-1,17,-1ZM26,0V27H64c0,0,64,0,92,42c0,0,15,23,15,110V833c0,0,0,96,-21,119c0,0,-29,33,-86,33H26v27H395c0,0,161,0,238,-24c0,0,76,-23,129,-86c0,0,54,-63,54,-151c0,0,0,-93,-61,-162c0,0,-61,-68,-189,-97L775,202c0,0,72,-100,123,-133c0,0,52,-33,134,-42V0H762L419,473c0,0,-38,-1,-61,-1c0,0,-10,0,-21,0c0,0,-11,0,-23,1V179c0,0,0,-96,21,-119c0,0,28,-33,84,-33h40V0Z" 
id="f2_1i"
transform="scale(0.001,-0.001)" />

<path d="M398,24c0,0,74,0,120,58c0,0,61,76,61,214c0,0,0,156,-69,240c0,0,-47,59,-113,59c0,0,-36,0,-71,-18c0,0,-27,-14,-88,-81V242c0,0,0,-83,6,-109c0,0,11,-43,51,-76c0,0,41,-33,103,-33ZM-4,-326v27H15c5,0,42,0,69,16c0,0,14,8,22,26c0,0,7,19,7,94V481c0,0,0,67,-6,85c0,0,-5,18,-18,27c0,0,-13,9,-36,9c0,0,-18,0,-45,-10L0,615l209,85h29V540c0,0,53,91,106,127c0,0,53,36,112,36c0,0,103,0,172,-80c0,0,84,-99,84,-257c0,0,0,-176,-102,-292c0,0,-83,-94,-210,-94c0,0,-55,0,-95,16c0,0,-30,10,-67,44V-167c0,0,0,-71,8,-90c0,0,9,-20,30,-31c0,0,21,-11,77,-11v-27Z" 
id="f2_2c"
transform="scale(0.001,-0.001)" />

<path d="M145,-328c0,0,-44,0,-73,25c0,0,-28,25,-28,58c0,0,0,31,21,50c0,0,20,19,56,19c0,0,25,0,67,-16c0,0,30,-11,38,-11c0,0,22,0,49,23c0,0,26,23,53,89L376,28L131,542c0,0,-11,24,-36,58c0,0,-19,27,-30,36c0,0,-18,12,-56,21v26H328V657H312c0,0,-33,0,-50,-15c0,0,-17,-14,-17,-36c0,0,0,-30,25,-81L437,179L589,557c0,0,12,31,12,62c0,0,0,13,-5,20c0,0,-6,8,-19,13c0,0,-12,5,-44,5v26H754V657c0,0,-27,-3,-42,-12c0,0,-15,-9,-33,-34c0,0,-7,-10,-25,-58L376,-128c0,0,-40,-99,-105,-150c0,0,-66,-50,-126,-50Z" 
id="f2_2l"
transform="scale(0.001,-0.001)" />

<path d="M49,0V26c0,0,47,1,67,11c0,0,20,10,28,28c0,0,7,18,7,75l-1,484H49v73H150v87c0,0,0,107,79,179c0,0,78,71,212,71c0,0,92,0,136,-34c0,0,45,-34,45,-76c0,0,0,-34,-28,-58c0,0,-28,-25,-73,-25c0,0,-39,0,-62,20c0,0,-22,20,-22,45c0,0,0,6,4,27c0,0,3,13,3,24c0,0,0,16,-9,23c0,0,-12,11,-29,11c0,0,-21,0,-36,-17c0,0,-15,-18,-15,-58l1,-130V697H460V624H356l1,-484c0,0,0,-70,15,-88c0,0,22,-26,81,-26c2,0,5,0,7,0V0Z" 
id="f1_22"
transform="scale(0.001,-0.001)" />

<path d="M254,-18c0,0,-51,0,-88,36c0,0,-36,36,-36,87c0,0,0,52,36,88c0,0,37,37,88,37c0,0,53,0,89,-37c0,0,36,-36,36,-88c0,0,0,-51,-36,-87c0,0,-37,-36,-89,-36Zm2,488c0,0,-52,0,-88,36c0,0,-36,37,-36,88c0,0,0,51,36,88c0,0,36,36,88,36c0,0,51,0,87,-36c0,0,36,-37,36,-88c0,0,0,-51,-36,-88c0,0,-36,-36,-87,-36Z" 
id="f1_u"
transform="scale(0.001,-0.001)" />

<path d="M253,0V27h36c0,0,64,0,91,39c0,0,16,24,16,109V948H274c0,0,-71,0,-100,-10c0,0,-39,-14,-67,-54c0,0,-27,-41,-33,-109H46l12,237H883L894,775H865c0,0,-8,62,-22,89c0,0,-23,43,-61,64c0,0,-39,20,-101,20H539V175c0,0,0,-93,20,-116c0,0,28,-32,87,-32h36V0Z" 
id="f2_1k"
transform="scale(0.001,-0.001)" />

<path d="M197,0V27c0,0,71,2,92,13c0,0,21,10,29,29c0,0,9,18,9,109V725c0,0,0,110,-8,141c0,0,-5,24,-19,35c0,0,-14,11,-33,11c0,0,-28,0,-77,-23l-11,23l246,121h25V178c0,0,0,-85,7,-106c0,0,7,-21,29,-32c0,0,23,-11,91,-13V0Z" 
id="f2_l"
transform="scale(0.001,-0.001)" />

<path d="M247,-17c0,0,-91,0,-132,30c0,0,-42,31,-42,68c0,0,0,21,17,37c0,0,18,16,44,17c0,0,19,0,34,-6c0,0,14,-7,49,-31c0,0,56,-39,113,-39c0,0,88,0,154,66c0,0,66,66,66,161c0,0,0,92,-59,171c0,0,-59,80,-163,123c0,0,-81,34,-221,39l194,393H663L605,885H301L234,750c0,0,198,-29,313,-147c0,0,100,-102,100,-239c0,0,0,-80,-33,-148c0,0,-32,-68,-81,-116c0,0,-50,-47,-110,-77c0,0,-86,-40,-176,-40Z" 
id="f2_p"
transform="scale(0.001,-0.001)" />

<path d="M491,-305c0,0,-180,60,-305,247C186,-58,61,127,61,368c0,0,0,239,124,423c0,0,125,184,306,243v-34c0,0,-78,-50,-115,-99c0,0,-50,-67,-79,-172c0,0,-36,-131,-36,-365c0,0,0,-221,33,-343c0,0,32,-122,88,-197c0,0,39,-52,109,-92v-37Z" 
id="f1_c"
transform="scale(0.001,-0.001)" />

<path d="M610,343L459,690L304,343ZM12,0V27c0,0,54,9,89,46c0,0,35,37,87,153l361,807h14L928,203c0,0,52,-118,86,-149c0,0,25,-23,71,-27V0H596V27h20c0,0,59,0,83,17c0,0,16,12,16,34c0,0,0,14,-4,28c0,0,-1,7,-22,56L634,288H279L235,190c0,0,-20,-50,-20,-82c0,0,0,-42,34,-63c0,0,20,-12,99,-18V0Z" 
id="f1_11"
transform="scale(0.001,-0.001)" />

<path d="M488,56c0,0,60,0,110,26c0,0,51,27,78,77c0,0,27,50,27,112c0,0,0,71,-33,127c0,0,-32,56,-90,79L407,499V137c0,0,0,-40,20,-61c0,0,21,-20,61,-20ZM407,557c0,0,107,0,157,24c0,0,51,24,78,67c0,0,27,44,27,111c0,0,0,67,-27,110c0,0,-26,43,-76,66c0,0,-47,21,-153,21c-2,0,-3,0,-5,0L407,557ZM32,0V27c0,0,70,0,95,13c0,0,25,14,35,35c0,0,10,21,10,103V834c0,0,0,82,-10,104c0,0,-10,21,-35,34c0,0,-26,13,-95,13v27H517c0,0,174,0,246,-31c0,0,73,-31,115,-92c0,0,41,-62,41,-131c0,0,0,-73,-53,-130c0,0,-53,-57,-186,-91c0,0,144,-34,202,-81c0,0,83,-68,83,-177c0,0,0,-114,-91,-189C874,90,761,0,546,0Z" 
id="f1_12"
transform="scale(0.001,-0.001)" />

<path d="M19,-305v34c0,0,77,52,114,100c0,0,50,67,79,171c0,0,36,131,36,365c0,0,0,221,-33,343c0,0,-32,122,-88,198c0,0,-39,52,-108,91v37c0,0,179,-60,304,-246c0,0,125,-186,125,-428c0,0,0,-238,-125,-421c0,0,-125,-184,-304,-244Z" 
id="f1_d"
transform="scale(0.001,-0.001)" />

<path d="M292,-20c0,0,-124,0,-190,46c0,0,-46,33,-46,74c0,0,0,33,24,57c0,0,24,25,56,25c0,0,29,0,59,-12c0,0,30,-12,102,-63c0,0,46,-31,78,-43c0,0,23,-9,52,-9c0,0,62,0,104,45c0,0,43,44,43,107c0,0,0,131,-131,213c0,0,-131,82,-331,82c0,0,-20,0,-60,0l181,510H707L632,819H233L195,719c0,0,257,-10,396,-129c0,0,114,-97,114,-243c0,0,0,-93,-53,-182C652,165,599,76,503,28c0,0,-96,-48,-211,-48Z" 
id="f1_p"
transform="scale(0.001,-0.001)" />

<path d="M112,0V1093H330L590,319c0,0,35,-108,52,-162c0,0,19,60,58,175l264,761h194V0H1018V915L699,0H569L252,931V0Z" 
id="f3_1d"
transform="scale(0.001,-0.001)" />

<path d="M358,-321c0,0,-111,141,-188,328C170,7,93,195,93,396c0,0,0,178,57,341c0,0,68,188,208,376h96c0,0,-91,-156,-120,-222c0,0,-45,-103,-71,-215c0,0,-32,-139,-32,-281c0,0,0,-358,223,-716Z" 
id="f3_c"
transform="scale(0.001,-0.001)" />

<path d="M684,450L570,752c0,0,-52,138,-78,227c0,0,-21,-105,-59,-209L313,450ZM-1,0L417,1093H574L1021,0H857L729,331H271L152,0Z" 
id="f3_11"
transform="scale(0.001,-0.001)" />

<path d="M93,-321c0,0,223,358,223,716c0,0,0,141,-32,279c0,0,-25,112,-71,215c0,0,-29,67,-120,224h96c0,0,140,-188,208,-376c0,0,57,-163,57,-341c0,0,0,-201,-77,-389c0,0,-77,-187,-188,-328Z" 
id="f3_d"
transform="scale(0.001,-0.001)" />

<path d="M21,0V26H35c0,0,53,0,71,27c0,0,18,27,18,101V408c0,0,0,123,-5,150c0,0,-6,27,-17,37c0,0,-12,10,-31,10c0,0,-21,0,-50,-11L10,620l206,83h32V558c0,0,120,145,229,145c0,0,56,0,96,-28c0,0,40,-28,64,-92c0,0,16,-45,16,-137V154c0,0,0,-65,11,-88c0,0,8,-19,26,-29c0,0,18,-11,68,-11V0H419V26h14c0,0,47,0,66,15c0,0,20,15,27,43c0,0,3,11,3,70V434c0,0,0,93,-24,135c0,0,-24,42,-81,42c0,0,-88,0,-176,-97V154c0,0,0,-69,9,-86c0,0,10,-21,28,-31c0,0,19,-11,75,-11V0Z" 
id="f2_2a"
transform="scale(0.001,-0.001)" />

<path d="M610,-21c0,0,-162,0,-287,63c0,0,-126,65,-194,187c0,0,-68,121,-68,258c0,0,0,145,75,275c0,0,76,129,205,201c0,0,128,71,273,71c0,0,107,0,225,-46c0,0,69,-27,88,-27c0,0,24,0,41,18c0,0,18,17,23,55h29V683H991c0,0,-33,138,-122,211c0,0,-90,73,-203,73c0,0,-95,0,-174,-54c0,0,-79,-55,-116,-143c0,0,-47,-112,-47,-250c0,0,0,-135,34,-247c0,0,35,-111,108,-168c0,0,73,-57,189,-57c0,0,96,0,175,42c0,0,80,41,168,144V146c0,0,-85,-89,-178,-129c0,0,-92,-38,-215,-38Z" 
id="f1_13"
transform="scale(0.001,-0.001)" />

<path d="M37,274V428H473V274Z" 
id="f1_h"
transform="scale(0.001,-0.001)" />

<path d="M159,-278V1012H460V981H426c0,0,-50,0,-66,-10c0,0,-17,-11,-26,-30c0,0,-8,-20,-8,-96V-116c0,0,0,-72,3,-83c0,0,6,-27,25,-40c0,0,18,-12,72,-12h34v-27Z" 
id="f1_1r"
transform="scale(0.001,-0.001)" />

<path d="M49,-278v29H83c0,0,49,0,66,9c0,0,17,10,26,30c0,0,8,20,8,95V848c0,0,0,71,-3,82c0,0,-7,26,-25,39c0,0,-18,13,-72,13H49v30H349V-278Z" 
id="f1_1t"
transform="scale(0.001,-0.001)" />

<path d="M388,102V457H29v98H388V913h98V555H845V457H486V102Z" 
id="f1_f"
transform="scale(0.001,-0.001)" />

<path d="M29,0V27H63c0,0,44,0,71,16c0,0,19,11,30,36c0,0,8,18,8,94V839c0,0,0,69,-4,84c0,0,-7,27,-27,41c0,0,-29,21,-78,21H29v27H877V713H850c0,0,-22,109,-61,157c0,0,-39,48,-111,70c0,0,-42,13,-158,13H416V542h20c0,0,97,0,140,60c0,0,44,60,56,178h27V251H632c0,0,-9,87,-38,142c0,0,-29,55,-67,74c0,0,-39,19,-111,19V201c0,0,0,-84,7,-103c0,0,7,-18,26,-30c0,0,20,-12,63,-12h60c0,0,142,0,228,65c0,0,86,66,123,201h28L905,0Z" 
id="f1_15"
transform="scale(0.001,-0.001)" />

<path d="M415,27c0,0,35,0,62,40c0,0,27,40,27,163c0,0,0,206,-50,284c0,0,-33,51,-88,51c0,0,-30,0,-78,-24c0,0,-5,-104,-5,-151c0,0,0,-103,19,-200c0,0,20,-96,55,-135c0,0,25,-28,58,-28ZM397,-20c0,0,-93,0,-172,51c0,0,-79,51,-124,149c0,0,-44,99,-44,214c0,0,0,170,81,317c0,0,82,146,233,233c0,0,150,87,347,89v-21c0,0,-135,-34,-217,-88c0,0,-82,-54,-129,-132c0,0,-48,-77,-74,-191c0,0,33,23,55,29c0,0,48,15,98,15c0,0,113,0,189,-82c0,0,76,-83,76,-225c0,0,0,-100,-41,-184C675,154,634,71,558,25c0,0,-75,-45,-161,-45Z" 
id="f1_q"
transform="scale(0.001,-0.001)" />

<path d="M271,-20L546,815H337c0,0,-123,0,-185,-33c0,0,-43,-22,-71,-84H52l73,314H729L388,-20Z" 
id="f1_r"
transform="scale(0.001,-0.001)" />

<path d="M381,27c0,0,54,0,91,40c0,0,38,40,38,110c0,0,0,144,-194,276c0,0,-23,-21,-33,-38c0,0,-15,-26,-27,-76c0,0,-13,-50,-13,-105c0,0,0,-70,18,-117c0,0,18,-48,51,-69c0,0,34,-21,69,-21Zm83,582c0,0,27,37,40,83c0,0,14,47,14,102c0,0,0,97,-42,149c0,0,-31,40,-86,40c0,0,-50,0,-84,-37c0,0,-35,-36,-35,-90c0,0,0,-54,39,-113c0,0,39,-58,154,-134ZM368,-20c0,0,-150,0,-232,73c0,0,-82,74,-82,181c0,0,0,81,47,142c0,0,48,62,159,112c0,0,-121,92,-155,150c0,0,-34,58,-34,135c0,0,0,101,86,178c0,0,86,78,236,78c0,0,144,0,222,-69c0,0,78,-68,78,-163c0,0,0,-72,-43,-127c0,0,-42,-54,-130,-98c0,0,107,-79,149,-146c0,0,41,-68,41,-155c0,0,0,-122,-92,-207c0,0,-92,-84,-250,-84Z" 
id="f1_s"
transform="scale(0.001,-0.001)" />


</defs>
</svg>