<?xml version="1.0" encoding="UTF-8" standalone="no"?>
<!DOCTYPE svg PUBLIC "-//W3C//DTD SVG 1.1//EN"
"http://www.w3.org/Graphics/SVG/1.1/DTD/svg11.dtd">
<svg viewBox="0 0 909 1286" version="1.1" xmlns="http://www.w3.org/2000/svg" xmlns:xlink="http://www.w3.org/1999/xlink">
<defs>
<style type="text/css"><![CDATA[
.g0_14{
}
.g1_14{
fill: #FFFFFF;
}
.g2_14{
fill: #009900;
fill-opacity: 0.4;
}
]]></style>
</defs>
<g fill="#000000" >
<use xlink:href="#f0_1j" transform="matrix(12,0,0,12,396.6,141)" />
<use xlink:href="#f0_19" transform="matrix(12,0,0,12,408.8,141)" />
<use xlink:href="#f0_1c" transform="matrix(12,0,0,12,416.2,141)" />
<use xlink:href="#f0_1m" transform="matrix(12,0,0,12,427.9,141)" />
<use xlink:href="#f0_15" transform="matrix(12,0,0,12,441.3,141)" />
<use xlink:href="#f0_1i" transform="matrix(12,0,0,12,454.5,141)" />
<use xlink:href="#f0_c" transform="matrix(12,0,0,12,476.8,141)" />
<use xlink:href="#f0_11" transform="matrix(12,0,0,12,482.7,141)" />
<use xlink:href="#f0_23" transform="matrix(12,0,0,12,495.9,141)" />
<use xlink:href="#f0_d" transform="matrix(12,0,0,12,506.5,141)" />
<use xlink:href="#f1_1j" transform="matrix(10,0,0,10,99.4,192.9)" />
<use xlink:href="#f1_25" transform="matrix(10,0,0,10,109.4,192.9)" />
<use xlink:href="#f1_28" transform="matrix(10,0,0,10,114,192.9)" />
<use xlink:href="#f1_2i" transform="matrix(10,0,0,10,118.8,192.9)" />
<use xlink:href="#f1_21" transform="matrix(10,0,0,10,126.9,192.9)" />
<use xlink:href="#f1_2e" transform="matrix(10,0,0,10,134.6,192.9)" />
<use xlink:href="#f1_25" transform="matrix(10,0,0,10,146.9,192.9)" />
<use xlink:href="#f1_2f" transform="matrix(10,0,0,10,151.4,192.9)" />
<use xlink:href="#f1_1x" transform="matrix(10,0,0,10,164.8,192.9)" />
<use xlink:href="#f1_28" transform="matrix(10,0,0,10,173.6,192.9)" />
<use xlink:href="#f1_2f" transform="matrix(10,0,0,10,178.2,192.9)" />
<use xlink:href="#f1_2b" transform="matrix(10,0,0,10,186.1,192.9)" />
<use xlink:href="#f1_1x" transform="matrix(10,0,0,10,199.7,192.9)" />
<use xlink:href="#f1_2f" transform="matrix(10,0,0,10,208.6,192.9)" />
<use xlink:href="#f1_2f" transform="matrix(10,0,0,10,216.5,192.9)" />
<use xlink:href="#f1_2b" transform="matrix(10,0,0,10,224.2,192.9)" />
<use xlink:href="#f1_1z" transform="matrix(10,0,0,10,232.8,192.9)" />
<use xlink:href="#f1_25" transform="matrix(10,0,0,10,240.7,192.9)" />
<use xlink:href="#f1_1x" transform="matrix(10,0,0,10,245.3,192.9)" />
<use xlink:href="#f1_2g" transform="matrix(10,0,0,10,254.1,192.9)" />
<use xlink:href="#f1_21" transform="matrix(10,0,0,10,259.8,192.9)" />
<use xlink:href="#f1_20" transform="matrix(10,0,0,10,267.7,192.9)" />
<use xlink:href="#f1_25" transform="matrix(10,0,0,10,282.7,192.9)" />
<use xlink:href="#f1_2a" transform="matrix(10,0,0,10,287.3,192.9)" />
<use xlink:href="#f1_2g" transform="matrix(10,0,0,10,302.7,192.9)" />
<use xlink:href="#f1_24" transform="matrix(10,0,0,10,308.6,192.9)" />
<use xlink:href="#f1_21" transform="matrix(10,0,0,10,318.7,192.9)" />
<use xlink:href="#f1_22" transform="matrix(10,0,0,10,332,192.9)" />
<use xlink:href="#f1_2b" transform="matrix(10,0,0,10,336.8,192.9)" />
<use xlink:href="#f1_2e" transform="matrix(10,0,0,10,345.4,192.9)" />
<use xlink:href="#f1_29" transform="matrix(10,0,0,10,352,192.9)" />
<use xlink:href="#f1_2b" transform="matrix(10,0,0,10,371.6,192.9)" />
<use xlink:href="#f1_22" transform="matrix(10,0,0,10,380.3,192.9)" />
<use xlink:href="#f0_11" transform="matrix(10,0,0,10,390.5,192.9)" />
<use xlink:href="#f0_23" transform="matrix(10,0,0,10,401.5,192.9)" />
<use xlink:href="#f0_m" transform="matrix(5.8,0,0,5.8,410.3,198.2)" />
<use xlink:href="#f0_1j" transform="matrix(10,0,0,10,416.2,192.9)" />
<use xlink:href="#f1_25" transform="matrix(10,0,0,10,431.9,192.9)" />
<use xlink:href="#f1_2a" transform="matrix(10,0,0,10,436.5,192.9)" />
<use xlink:href="#f1_2g" transform="matrix(10,0,0,10,451.9,192.9)" />
<use xlink:href="#f1_24" transform="matrix(10,0,0,10,458,192.9)" />
<use xlink:href="#f1_21" transform="matrix(10,0,0,10,467.9,192.9)" />
<use xlink:href="#f1_28" transform="matrix(10,0,0,10,481.3,192.9)" />
<use xlink:href="#f1_21" transform="matrix(10,0,0,10,485.8,192.9)" />
<use xlink:href="#f1_1x" transform="matrix(10,0,0,10,493.7,192.9)" />
<use xlink:href="#f1_20" transform="matrix(10,0,0,10,502.7,192.9)" />
<use xlink:href="#f1_2b" transform="matrix(10,0,0,10,517.2,192.9)" />
<use xlink:href="#f1_2e" transform="matrix(10,0,0,10,525.8,192.9)" />
<use xlink:href="#f1_21" transform="matrix(10,0,0,10,532.4,192.9)" />
<use xlink:href="#f1_g" transform="matrix(10,0,0,10,540.3,192.9)" />
<use xlink:href="#f0_23" transform="matrix(10,0,0,10,550.7,192.9)" />
<use xlink:href="#f0_1x" transform="matrix(10,0,0,10,559.7,192.9)" />
<use xlink:href="#f0_28" transform="matrix(10,0,0,10,568.5,192.9)" />
<use xlink:href="#f0_21" transform="matrix(10,0,0,10,573.5,192.9)" />
<use xlink:href="#f0_2a" transform="matrix(10,0,0,10,582.3,192.9)" />
<use xlink:href="#f0_1x" transform="matrix(10,0,0,10,592.7,192.9)" />
<use xlink:href="#f0_c" transform="matrix(10,0,0,10,607,192.9)" />
<use xlink:href="#f0_1g" transform="matrix(10,0,0,10,611.8,192.9)" />
<use xlink:href="#f0_1y" transform="matrix(10,0,0,10,621.9,192.9)" />
<use xlink:href="#f0_1j" transform="matrix(10,0,0,10,631.2,192.9)" />
<use xlink:href="#f0_d" transform="matrix(10,0,0,10,641.3,192.9)" />
<use xlink:href="#f1_i" transform="matrix(10,0,0,10,646.3,192.9)" />
<use xlink:href="#f1_1k" transform="matrix(10,0,0,10,656.7,192.9)" />
<use xlink:href="#f1_24" transform="matrix(10,0,0,10,665.9,192.9)" />
<use xlink:href="#f1_21" transform="matrix(10,0,0,10,676,192.9)" />
<use xlink:href="#f1_28" transform="matrix(10,0,0,10,689.2,192.9)" />
<use xlink:href="#f1_21" transform="matrix(10,0,0,10,693.7,192.9)" />
<use xlink:href="#f1_1x" transform="matrix(10,0,0,10,701.6,192.9)" />
<use xlink:href="#f1_20" transform="matrix(10,0,0,10,710.6,192.9)" />
<use xlink:href="#f1_21" transform="matrix(10,0,0,10,725.3,192.9)" />
<use xlink:href="#f1_2k" transform="matrix(10,0,0,10,733.2,192.9)" />
<use xlink:href="#f1_2g" transform="matrix(10,0,0,10,741.8,192.9)" />
<use xlink:href="#f1_2e" transform="matrix(10,0,0,10,747.5,192.9)" />
<use xlink:href="#f1_1x" transform="matrix(10,0,0,10,754.4,192.9)" />
<use xlink:href="#f1_1z" transform="matrix(10,0,0,10,763.2,192.9)" />
<use xlink:href="#f1_2g" transform="matrix(10,0,0,10,770.9,192.9)" />
<use xlink:href="#f1_21" transform="matrix(10,0,0,10,777,192.9)" />
<use xlink:href="#f1_20" transform="matrix(10,0,0,10,784.9,192.9)" />
<use xlink:href="#f1_2h" transform="matrix(10,0,0,10,799.5,192.9)" />
<use xlink:href="#f1_2f" transform="matrix(10,0,0,10,810,192.9)" />
<use xlink:href="#f1_2h" transform="matrix(10,0,0,10,817.9,192.9)" />
<use xlink:href="#f1_1x" transform="matrix(10,0,0,10,827.9,192.9)" />
<use xlink:href="#f1_28" transform="matrix(10,0,0,10,836.9,192.9)" />
<use xlink:href="#f1_28" transform="matrix(10,0,0,10,841.3,192.9)" />
<use xlink:href="#f1_2l" transform="matrix(10,0,0,10,845.9,192.9)" />
<use xlink:href="#f1_1z" transform="matrix(10,0,0,10,99.4,212.7)" />
<use xlink:href="#f1_2b" transform="matrix(10,0,0,10,107.4,212.7)" />
<use xlink:href="#f1_2a" transform="matrix(10,0,0,10,115.7,212.7)" />
<use xlink:href="#f1_2g" transform="matrix(10,0,0,10,125.8,212.7)" />
<use xlink:href="#f1_1x" transform="matrix(10,0,0,10,131.6,212.7)" />
<use xlink:href="#f1_25" transform="matrix(10,0,0,10,140.6,212.7)" />
<use xlink:href="#f1_2a" transform="matrix(10,0,0,10,145.2,212.7)" />
<use xlink:href="#f1_2f" transform="matrix(10,0,0,10,155.1,212.7)" />
<use xlink:href="#f1_2f" transform="matrix(10,0,0,10,168.7,212.7)" />
<use xlink:href="#f1_25" transform="matrix(10,0,0,10,176.5,212.7)" />
<use xlink:href="#f1_28" transform="matrix(10,0,0,10,181.1,212.7)" />
<use xlink:href="#f1_2i" transform="matrix(10,0,0,10,185.7,212.7)" />
<use xlink:href="#f1_21" transform="matrix(10,0,0,10,193.8,212.7)" />
<use xlink:href="#f1_2e" transform="matrix(10,0,0,10,201.7,212.7)" />
<use xlink:href="#f1_1x" transform="matrix(10,0,0,10,214.3,212.7)" />
<use xlink:href="#f1_2a" transform="matrix(10,0,0,10,223.1,212.7)" />
<use xlink:href="#f1_20" transform="matrix(10,0,0,10,233.4,212.7)" />
<use xlink:href="#f1_1z" transform="matrix(10,0,0,10,248.2,212.7)" />
<use xlink:href="#f1_1x" transform="matrix(10,0,0,10,256.1,212.7)" />
<use xlink:href="#f1_28" transform="matrix(10,0,0,10,265.1,212.7)" />
<use xlink:href="#f1_28" transform="matrix(10,0,0,10,269.5,212.7)" />
<use xlink:href="#f1_21" transform="matrix(10,0,0,10,274.1,212.7)" />
<use xlink:href="#f1_20" transform="matrix(10,0,0,10,282.2,212.7)" />
<use xlink:href="#f1_1x" transform="matrix(10,0,0,10,297.4,212.7)" />
<use xlink:href="#f1_2e" transform="matrix(10,0,0,10,306.2,212.7)" />
<use xlink:href="#f1_23" transform="matrix(10,0,0,10,312.8,212.7)" />
<use xlink:href="#f1_21" transform="matrix(10,0,0,10,321.2,212.7)" />
<use xlink:href="#f1_2a" transform="matrix(10,0,0,10,328.9,212.7)" />
<use xlink:href="#f1_2g" transform="matrix(10,0,0,10,339.2,212.7)" />
<use xlink:href="#f1_25" transform="matrix(10,0,0,10,344.9,212.7)" />
<use xlink:href="#f1_22" transform="matrix(10,0,0,10,349.4,212.7)" />
<use xlink:href="#f1_21" transform="matrix(10,0,0,10,354.6,212.7)" />
<use xlink:href="#f1_2e" transform="matrix(10,0,0,10,362.5,212.7)" />
<use xlink:href="#f1_2b" transform="matrix(10,0,0,10,369.1,212.7)" />
<use xlink:href="#f1_2h" transform="matrix(10,0,0,10,377.7,212.7)" />
<use xlink:href="#f1_2f" transform="matrix(10,0,0,10,387.8,212.7)" />
<use xlink:href="#f1_28" transform="matrix(10,0,0,10,401.3,212.7)" />
<use xlink:href="#f1_21" transform="matrix(10,0,0,10,405.9,212.7)" />
<use xlink:href="#f1_1x" transform="matrix(10,0,0,10,413.8,212.7)" />
<use xlink:href="#f1_20" transform="matrix(10,0,0,10,422.6,212.7)" />
<use xlink:href="#f1_i" transform="matrix(10,0,0,10,432.1,212.7)" />
<use xlink:href="#f1_1j" transform="matrix(10,0,0,10,443,212.7)" />
<use xlink:href="#f1_25" transform="matrix(10,0,0,10,453,212.7)" />
<use xlink:href="#f1_28" transform="matrix(10,0,0,10,457.6,212.7)" />
<use xlink:href="#f1_2i" transform="matrix(10,0,0,10,462,212.7)" />
<use xlink:href="#f1_21" transform="matrix(10,0,0,10,470.1,212.7)" />
<use xlink:href="#f1_2e" transform="matrix(10,0,0,10,478.1,212.7)" />
<use xlink:href="#f1_25" transform="matrix(10,0,0,10,490.6,212.7)" />
<use xlink:href="#f1_2f" transform="matrix(10,0,0,10,495,212.7)" />
<use xlink:href="#f1_2e" transform="matrix(10,0,0,10,508.6,212.7)" />
<use xlink:href="#f1_21" transform="matrix(10,0,0,10,515.5,212.7)" />
<use xlink:href="#f1_1z" transform="matrix(10,0,0,10,523.4,212.7)" />
<use xlink:href="#f1_2b" transform="matrix(10,0,0,10,531.1,212.7)" />
<use xlink:href="#f1_2i" transform="matrix(10,0,0,10,539.7,212.7)" />
<use xlink:href="#f1_21" transform="matrix(10,0,0,10,547.8,212.7)" />
<use xlink:href="#f1_2e" transform="matrix(10,0,0,10,555.7,212.7)" />
<use xlink:href="#f1_21" transform="matrix(10,0,0,10,562.3,212.7)" />
<use xlink:href="#f1_20" transform="matrix(10,0,0,10,570.4,212.7)" />
<use xlink:href="#f1_1y" transform="matrix(10,0,0,10,585.6,212.7)" />
<use xlink:href="#f1_21" transform="matrix(10,0,0,10,594.7,212.7)" />
<use xlink:href="#f1_22" transform="matrix(10,0,0,10,602.6,212.7)" />
<use xlink:href="#f1_2b" transform="matrix(10,0,0,10,607.8,212.7)" />
<use xlink:href="#f1_2e" transform="matrix(10,0,0,10,616,212.7)" />
<use xlink:href="#f1_21" transform="matrix(10,0,0,10,623,212.7)" />
<use xlink:href="#f1_28" transform="matrix(10,0,0,10,636.5,212.7)" />
<use xlink:href="#f1_21" transform="matrix(10,0,0,10,640.9,212.7)" />
<use xlink:href="#f1_1x" transform="matrix(10,0,0,10,649,212.7)" />
<use xlink:href="#f1_20" transform="matrix(10,0,0,10,657.8,212.7)" />
<use xlink:href="#f1_25" transform="matrix(10,0,0,10,673,212.7)" />
<use xlink:href="#f1_2f" transform="matrix(10,0,0,10,677.6,212.7)" />
<use xlink:href="#f1_2c" transform="matrix(10,0,0,10,691.2,212.7)" />
<use xlink:href="#f1_2h" transform="matrix(10,0,0,10,700.4,212.7)" />
<use xlink:href="#f1_2g" transform="matrix(10,0,0,10,710.8,212.7)" />
<use xlink:href="#f1_25" transform="matrix(10,0,0,10,722.5,212.7)" />
<use xlink:href="#f1_2a" transform="matrix(10,0,0,10,726.9,212.7)" />
<use xlink:href="#f1_2g" transform="matrix(10,0,0,10,737,212.7)" />
<use xlink:href="#f1_2b" transform="matrix(10,0,0,10,743.1,212.7)" />
<use xlink:href="#f1_2h" transform="matrix(10,0,0,10,757.2,212.7)" />
<use xlink:href="#f1_2f" transform="matrix(10,0,0,10,767.3,212.7)" />
<use xlink:href="#f1_21" transform="matrix(10,0,0,10,775.3,212.7)" />
<use xlink:href="#f1_i" transform="matrix(10,0,0,10,783.2,212.7)" />
</g>
<path fill-rule="evenodd" d="M337.5,121H568.9v31.4H337.5V121l1.8,29.5H567.1V122.8H339.3v27.7L337.5,121Z" class="g0_14" />
<g fill="#000000" >
<use xlink:href="#f1_1j" transform="matrix(10,0,0,10,268.4,977.9)" />
<use xlink:href="#f1_1x" transform="matrix(10,0,0,10,278.3,977.9)" />
<use xlink:href="#f1_29" transform="matrix(10,0,0,10,287.1,977.9)" />
<use xlink:href="#f1_21" transform="matrix(10,0,0,10,301.4,977.9)" />
<use xlink:href="#f1_2c" transform="matrix(10,0,0,10,314.2,977.9)" />
<use xlink:href="#f1_2e" transform="matrix(10,0,0,10,323.8,977.9)" />
<use xlink:href="#f1_2b" transform="matrix(10,0,0,10,330.4,977.9)" />
<use xlink:href="#f1_1z" transform="matrix(10,0,0,10,339,977.9)" />
<use xlink:href="#f1_21" transform="matrix(10,0,0,10,346.9,977.9)" />
<use xlink:href="#f1_2f" transform="matrix(10,0,0,10,354.6,977.9)" />
<use xlink:href="#f1_2f" transform="matrix(10,0,0,10,362.4,977.9)" />
<use xlink:href="#f1_25" transform="matrix(10,0,0,10,375.7,977.9)" />
<use xlink:href="#f1_2f" transform="matrix(10,0,0,10,380.2,977.9)" />
<use xlink:href="#f1_21" transform="matrix(10,0,0,10,392.9,977.9)" />
<use xlink:href="#f1_29" transform="matrix(10,0,0,10,400.8,977.9)" />
<use xlink:href="#f1_2c" transform="matrix(10,0,0,10,415.1,977.9)" />
<use xlink:href="#f1_28" transform="matrix(10,0,0,10,424.6,977.9)" />
<use xlink:href="#f1_2b" transform="matrix(10,0,0,10,429.2,977.9)" />
<use xlink:href="#f1_2l" transform="matrix(10,0,0,10,437.5,977.9)" />
<use xlink:href="#f1_21" transform="matrix(10,0,0,10,445.7,977.9)" />
<use xlink:href="#f1_20" transform="matrix(10,0,0,10,453.6,977.9)" />
<use xlink:href="#f1_22" transform="matrix(10,0,0,10,467.9,977.9)" />
<use xlink:href="#f1_2b" transform="matrix(10,0,0,10,473,977.9)" />
<use xlink:href="#f1_2e" transform="matrix(10,0,0,10,481.4,977.9)" />
<use xlink:href="#f1_2g" transform="matrix(10,0,0,10,493.2,977.9)" />
<use xlink:href="#f1_24" transform="matrix(10,0,0,10,499.2,977.9)" />
<use xlink:href="#f1_21" transform="matrix(10,0,0,10,509.1,977.9)" />
<use xlink:href="#f1_21" transform="matrix(10,0,0,10,522,977.9)" />
<use xlink:href="#f1_2k" transform="matrix(10,0,0,10,529.9,977.9)" />
<use xlink:href="#f1_2g" transform="matrix(10,0,0,10,538.5,977.9)" />
<use xlink:href="#f1_2e" transform="matrix(10,0,0,10,544.2,977.9)" />
<use xlink:href="#f1_1x" transform="matrix(10,0,0,10,551.1,977.9)" />
<use xlink:href="#f1_1z" transform="matrix(10,0,0,10,559.9,977.9)" />
<use xlink:href="#f1_2g" transform="matrix(10,0,0,10,567.6,977.9)" />
<use xlink:href="#f1_25" transform="matrix(10,0,0,10,573.7,977.9)" />
<use xlink:href="#f1_2b" transform="matrix(10,0,0,10,578.1,977.9)" />
<use xlink:href="#f1_2a" transform="matrix(10,0,0,10,586.7,977.9)" />
<use xlink:href="#f1_2b" transform="matrix(10,0,0,10,601.5,977.9)" />
<use xlink:href="#f1_22" transform="matrix(10,0,0,10,610.2,977.9)" />
<use xlink:href="#f1_23" transform="matrix(10,0,0,10,620.1,977.9)" />
<use xlink:href="#f1_2b" transform="matrix(10,0,0,10,628.3,977.9)" />
<use xlink:href="#f1_28" transform="matrix(10,0,0,10,636.9,977.9)" />
<use xlink:href="#f1_20" transform="matrix(10,0,0,10,641.5,977.9)" />
<use xlink:href="#f1_c" transform="matrix(10,0,0,10,655.8,977.9)" />
<use xlink:href="#f1_11" transform="matrix(10,0,0,10,660.4,977.9)" />
<use xlink:href="#f1_2h" transform="matrix(10,0,0,10,670.5,977.9)" />
<use xlink:href="#f1_d" transform="matrix(10,0,0,10,680.9,977.9)" />
</g>
<image preserveAspectRatio="none" x="272" y="240" width="388" height="689" xlink:href="img/1.png" />
<path fill-rule="evenodd" d="M53.9,69.5H856.2V97.9H53.9V69.5l1.5,26.8H854.5V71H55.4V96.3L53.9,69.5Z" class="g1_14" />
<path fill-rule="evenodd" d="M55.2,94.6H854.7v3.1H55.2V94.6Z" class="g0_14" />
<path fill-rule="evenodd" d="M55.2,69.7H854.7v3.1H55.2V69.7Z" class="g0_14" />
<path fill-rule="evenodd" d="M55.1,1177.4H854.9v2.3H55.1v-2.3Z" class="g0_14" />
<g fill="#000000" >
<use xlink:href="#f2_1d" transform="matrix(10,0,0,10,731.4,87.7)" />
<use xlink:href="#f2_15" transform="matrix(10,0,0,10,745.7,87.7)" />
<use xlink:href="#f2_1k" transform="matrix(10,0,0,10,756.7,87.7)" />
<use xlink:href="#f2_11" transform="matrix(10,0,0,10,767.3,87.7)" />
<use xlink:href="#f2_1c" transform="matrix(10,0,0,10,778.3,87.7)" />
<use xlink:href="#f2_1c" transform="matrix(10,0,0,10,788,87.7)" />
<use xlink:href="#f2_1l" transform="matrix(10,0,0,10,797.8,87.7)" />
<use xlink:href="#f2_1i" transform="matrix(10,0,0,10,809,87.7)" />
<use xlink:href="#f2_17" transform="matrix(10,0,0,10,820.9,87.7)" />
<use xlink:href="#f2_1p" transform="matrix(10,0,0,10,832.7,87.7)" />
</g>
<path d="M54.6,94.9H853.5V72.6H54.6V94.9Z" class="g2_14" />
<defs>
<path d="M567,-17c0,0,-83,0,-152,21c0,0,-70,21,-145,71L237,0H126L52,404l140,33c0,0,49,-123,153,-205c0,0,104,-82,228,-82c0,0,56,0,93,14c0,0,37,14,56,39c0,0,18,25,18,52c0,0,0,45,-43,77c0,0,-44,32,-154,63L369,446c0,0,-40,11,-107,42c0,0,-68,31,-104,64c0,0,-36,34,-60,86c0,0,-24,53,-24,111c0,0,0,83,46,153c0,0,46,69,138,113c0,0,92,43,204,43c0,0,135,0,244,-70l29,52H842L932,692L792,652c0,0,-69,125,-157,183c0,0,-88,58,-187,58c0,0,-64,0,-101,-26c0,0,-37,-27,-37,-59c0,0,0,-36,34,-67c0,0,32,-32,121,-56L665,626c0,0,166,-47,237,-126c0,0,70,-80,70,-186c0,0,0,-135,-107,-229C865,85,745,-17,567,-17Z" 
id="f0_1j"
transform="scale(0.001,-0.001)" />

<path d="M52,0V144H93c0,0,44,0,58,6c0,0,13,6,20,20c0,0,6,14,6,55V803c0,0,0,49,-6,64c0,0,-7,15,-22,24c0,0,-10,6,-51,6H52v143H559V897H513c0,0,-40,0,-53,-7c0,0,-13,-8,-20,-23c0,0,-6,-15,-6,-58V233c0,0,0,-47,5,-61c0,0,6,-13,18,-19c0,0,16,-9,47,-9h55V0Z" 
id="f0_19"
transform="scale(0.001,-0.001)" />

<path d="M63,0V144h49c0,0,31,0,46,8c0,0,16,8,23,22c0,0,7,14,7,48V812c0,0,0,37,-7,53c0,0,-7,17,-20,24c0,0,-13,8,-44,8H63v143H570V897H526c0,0,-37,0,-47,-4c0,0,-18,-8,-26,-23c0,0,-8,-15,-8,-49V226c0,0,0,-36,3,-44c0,0,4,-8,14,-13c0,0,10,-5,40,-5c0,0,100,0,161,26c0,0,61,27,110,84c0,0,49,58,84,158L994,385L857,0Z" 
id="f0_1c"
transform="scale(0.001,-0.001)" />

<path d="M433,0L117,807c0,0,-20,49,-30,62c0,0,-11,14,-30,21c0,0,-16,7,-49,7c-2,0,-4,0,-6,0v143H497V897H481c0,0,-47,0,-60,-4c0,0,-13,-4,-22,-16c0,0,-9,-12,-9,-24c0,0,0,-16,17,-65L591,271L787,802c0,0,15,39,15,54c0,0,0,21,-14,31c0,0,-14,10,-60,10H696v143h403V897c0,0,-50,0,-67,-12c0,0,-26,-17,-52,-83L668,0Z" 
id="f0_1m"
transform="scale(0.001,-0.001)" />

<path d="M59,0V144H85c0,0,52,0,70,7c0,0,18,8,25,26c0,0,4,11,4,64V808c0,0,0,46,-7,60c0,0,-6,14,-19,22c0,0,-14,7,-53,7H59v143H928L1046,712L911,663c0,0,-34,81,-80,130c0,0,-46,49,-102,65c0,0,-55,16,-129,16H441V615h52c0,0,59,0,80,9c0,0,20,8,29,26c0,0,9,19,9,73v40H744V322H611v45c0,0,0,45,-11,66c0,0,-11,21,-29,29c0,0,-19,7,-83,7H441V230c0,0,0,-38,4,-47c0,0,3,-8,14,-12c0,0,11,-5,47,-5h87c0,0,98,0,165,28c0,0,67,28,120,91c0,0,53,63,81,149l136,-47L959,0Z" 
id="f0_15"
transform="scale(0.001,-0.001)" />

<path d="M593,600c0,0,92,0,137,17c0,0,45,17,68,48c0,0,22,31,22,76c0,0,0,41,-21,71c0,0,-21,29,-60,43c0,0,-40,14,-128,14H439V600ZM55,0V144h46c0,0,37,0,52,8c0,0,16,7,23,23c0,0,4,9,4,56V816c0,0,0,35,-6,49c0,0,-5,15,-18,19c0,0,-18,8,-41,8H55v148H697c0,0,62,0,135,-11c0,0,74,-11,133,-49c0,0,60,-38,92,-96c0,0,33,-59,33,-132c0,0,0,-118,-84,-192c0,0,-85,-73,-201,-96L1019,215l9,-11c0,0,21,-25,38,-38c0,0,17,-12,34,-17c0,0,18,-5,48,-5h45V0H859L526,448H439V241c0,0,0,-54,6,-69c0,0,6,-14,19,-21c0,0,13,-7,52,-7h48V0Z" 
id="f0_1i"
transform="scale(0.001,-0.001)" />

<path d="M313,-352c0,0,-44,38,-69,72c0,0,-58,77,-97,172c0,0,-38,95,-53,202C94,94,80,202,80,391c0,0,0,199,26,319c0,0,26,119,79,214c0,0,53,95,128,161L419,994c0,0,-53,-85,-74,-194c0,0,-31,-163,-31,-448c0,0,0,-266,30,-418c0,0,22,-109,75,-195L313,-352Z" 
id="f0_c"
transform="scale(0.001,-0.001)" />

<path d="M610,480L509,765L404,480ZM2,0V144c0,0,39,0,56,6c0,0,18,7,30,21c0,0,11,13,25,49l322,820H669L981,237c0,0,25,-64,45,-79c0,0,19,-14,68,-14c2,0,3,0,5,0V0H606V144h30c0,0,41,0,58,11c0,0,16,11,16,27c0,0,0,13,-14,55l-32,94H349L310,226c0,0,-12,-33,-12,-44c0,0,0,-11,8,-21c0,0,9,-10,28,-14c0,0,13,-3,71,-3V0Z" 
id="f0_11"
transform="scale(0.001,-0.001)" />

<path d="M463,-205c0,0,67,0,120,12c0,0,52,11,69,29c0,0,11,11,11,30c0,0,0,21,-22,36c0,0,-23,14,-109,25L311,-46c0,0,-39,-31,-50,-47c0,0,-11,-16,-11,-35c0,0,0,-36,60,-57c0,0,59,-20,153,-20ZM416,368c0,0,46,0,77,34c0,0,31,34,31,88c0,0,0,59,-29,94c0,0,-30,35,-76,35c0,0,-47,0,-78,-35c0,0,-31,-35,-31,-95c0,0,0,-56,30,-88c0,0,29,-33,76,-33Zm10,-707c0,0,-141,0,-232,27c0,0,-92,27,-130,68c0,0,-39,42,-39,79c0,0,0,42,29,76c0,0,29,34,118,78c0,0,-55,19,-83,48c0,0,-37,39,-37,80c0,0,0,45,35,88c0,0,34,43,104,86c0,0,-39,24,-61,51c0,0,-22,28,-36,69c0,0,-14,40,-14,82c0,0,0,112,92,190c0,0,91,79,240,79c0,0,67,0,121,-16c0,0,55,-15,98,-46c0,0,40,57,80,80c0,0,39,24,83,24c0,0,44,0,69,-26c0,0,26,-26,26,-66c0,0,0,-37,-25,-61c0,0,-24,-24,-60,-24l-24,1H754c0,0,-20,0,-40,-14c0,0,41,-68,41,-131c0,0,0,-65,-41,-127c0,0,-40,-62,-112,-97c0,0,-72,-34,-173,-34c0,0,-29,0,-58,3c0,0,-29,4,-59,10c0,0,-20,-12,-31,-24c0,0,-10,-12,-10,-22c0,0,0,-24,47,-30L626,118c0,0,138,-19,200,-74c0,0,61,-54,61,-130c0,0,0,-67,-46,-123c0,0,-47,-57,-151,-94c0,0,-105,-36,-264,-36Z" 
id="f0_23"
transform="scale(0.001,-0.001)" />

<path d="M177,-352L70,-260c0,0,54,84,75,193c0,0,31,162,31,447c0,0,0,267,-31,420c0,0,-21,109,-75,194l107,91c0,0,43,-38,69,-71c0,0,58,-78,96,-173c0,0,39,-95,53,-203c0,0,15,-108,15,-296c0,0,0,-200,-26,-319c0,0,-27,-119,-80,-214c0,0,-53,-95,-127,-161Z" 
id="f0_d"
transform="scale(0.001,-0.001)" />

<path d="M555,-17c0,0,-89,0,-159,25c0,0,-70,26,-151,91L211,0H158L89,374l69,14c0,0,38,-104,101,-176c0,0,63,-73,140,-110c0,0,76,-36,155,-36c0,0,108,0,188,64c0,0,68,55,68,129c0,0,0,67,-49,111c0,0,-49,43,-176,80L398,504c0,0,-156,45,-220,116c0,0,-65,71,-65,163c0,0,0,71,42,132c0,0,42,61,129,102c0,0,86,41,189,41c0,0,87,0,166,-30c0,0,56,-21,103,-60l31,72h54L906,720L837,699c0,0,-66,135,-174,212c0,0,-90,65,-199,65c0,0,-65,0,-117,-24c0,0,-52,-23,-78,-60c0,0,-27,-38,-27,-77c0,0,0,-35,21,-67c0,0,20,-33,61,-58c0,0,41,-25,134,-53L653,580c0,0,36,-10,104,-40c0,0,68,-30,106,-63c0,0,38,-33,60,-81c0,0,22,-48,22,-104c0,0,0,-124,-109,-217c0,0,-109,-92,-281,-92Z" 
id="f1_1j"
transform="scale(0.001,-0.001)" />

<path d="M49,0V63H79c0,0,50,0,68,9c0,0,17,9,24,25c0,0,7,16,7,77V613H49v62c0,0,62,7,104,20c0,0,42,14,96,42h54V140c0,0,0,-32,9,-47c0,0,9,-16,25,-23c0,0,16,-7,58,-7h35V0ZM238,903c0,0,-36,0,-61,25c0,0,-25,25,-25,61c0,0,0,36,25,61c0,0,25,25,61,25c0,0,36,0,61,-25c0,0,26,-25,26,-61c0,0,0,-36,-26,-61c0,0,-25,-25,-61,-25Z" 
id="f1_25"
transform="scale(0.001,-0.001)" />

<path d="M48,0V63H87c0,0,36,0,54,11c0,0,18,11,26,30c0,0,8,19,8,77V970H48v62c0,0,101,7,197,62h55V176c0,0,0,-58,8,-73c0,0,9,-21,28,-31c0,0,19,-9,71,-9h24V0Z" 
id="f1_28"
transform="scale(0.001,-0.001)" />

<path d="M350,0L112,569c0,0,-15,35,-33,58c0,0,-12,14,-31,22c0,0,-20,8,-46,8v63H342V657H322c0,0,-43,0,-53,-3c0,0,-15,-4,-23,-14c0,0,-7,-10,-7,-23c0,0,0,-19,16,-60L425,132L590,557c0,0,15,40,15,59c0,0,0,19,-15,30c0,0,-15,11,-53,11H501v63H795V657c0,0,-30,-1,-51,-10c0,0,-20,-9,-32,-23c0,0,-11,-14,-34,-67L441,0Z" 
id="f1_2i"
transform="scale(0.001,-0.001)" />

<path d="M598,494c0,0,-11,68,-31,101c0,0,-21,33,-58,52c0,0,-38,20,-85,20c0,0,-47,0,-88,-20c0,0,-41,-19,-68,-53c0,0,-27,-35,-47,-100ZM433,-17c0,0,-110,0,-187,44c0,0,-88,52,-135,134c0,0,-46,83,-46,195c0,0,0,118,45,202c0,0,45,83,127,131c0,0,82,48,189,48c0,0,80,0,139,-25c0,0,59,-25,100,-75c0,0,41,-50,59,-115c0,0,11,-37,12,-98H210c0,0,-3,-36,-3,-54c0,0,0,-94,33,-168c0,0,33,-73,87,-108c0,0,54,-34,122,-34c0,0,58,0,113,27c0,0,54,27,131,106l48,-39C741,154,687,89,636,51c0,0,-51,-38,-97,-52c0,0,-45,-16,-106,-16Z" 
id="f1_21"
transform="scale(0.001,-0.001)" />

<path d="M54,0V63H86c0,0,45,0,60,8c0,0,19,11,28,31c0,0,10,20,10,71V613H55v62c0,0,54,4,97,18c0,0,42,13,96,44h56V596c0,0,53,65,123,103c0,0,70,38,126,38c0,0,56,0,88,-26c0,0,32,-26,32,-63c0,0,0,-27,-22,-48c0,0,-21,-20,-51,-20c0,0,-13,0,-23,4c0,0,-10,3,-28,16c0,0,-41,27,-69,27c0,0,-37,0,-82,-32c0,0,-57,-40,-89,-79V173c0,0,0,-45,5,-61c0,0,5,-16,16,-27c0,0,11,-12,28,-17c0,0,16,-5,57,-5h25V0Z" 
id="f1_2e"
transform="scale(0.001,-0.001)" />

<path d="M450,-17c0,0,-126,0,-215,71L219,0H166L73,244l68,27c0,0,68,-107,128,-152c0,0,84,-63,182,-63c0,0,65,0,107,34c0,0,41,35,41,77c0,0,0,35,-26,64c0,0,-27,29,-103,56L298,349c0,0,-111,40,-154,88c0,0,-43,48,-43,110c0,0,0,75,70,133c0,0,71,57,180,57c0,0,56,0,101,-14c0,0,45,-15,88,-48l20,45h53L680,492L612,469c0,0,-40,92,-113,144c0,0,-73,53,-147,53c0,0,-58,0,-93,-28c0,0,-36,-28,-36,-65c0,0,0,-34,26,-58c0,0,25,-26,114,-58L509,406c0,0,123,-44,168,-94c0,0,44,-51,44,-115c0,0,0,-54,-33,-105c0,0,-33,-50,-95,-80c0,0,-63,-29,-143,-29Z" 
id="f1_2f"
transform="scale(0.001,-0.001)" />

<path d="M326,73c0,0,48,0,109,23c0,0,62,24,157,91l1,180c0,0,-173,-26,-215,-35c0,0,-81,-19,-116,-41c0,0,-36,-23,-51,-48c0,0,-14,-26,-14,-55c0,0,0,-29,16,-56c0,0,17,-27,48,-43c0,0,30,-16,65,-16ZM291,-12c0,0,-103,0,-167,55c0,0,-64,56,-64,131c0,0,0,46,23,87c0,0,24,41,72,72c0,0,48,31,151,55c0,0,104,24,287,43v82c0,0,0,83,-47,118c0,0,-46,36,-131,36c0,0,-42,0,-73,-10c0,0,-31,-10,-51,-28c0,0,-19,-18,-28,-40c0,0,-3,-8,-18,-64c0,0,-17,-67,-69,-67c0,0,-30,0,-48,19c0,0,-18,20,-18,54c0,0,0,49,36,97c0,0,37,47,112,78c0,0,75,31,177,31c0,0,95,0,163,-29c0,0,68,-30,100,-85c0,0,23,-38,23,-138V198c0,0,0,-61,3,-79c0,0,9,-32,29,-48c0,0,21,-16,54,-16c0,0,34,0,82,15V5c0,0,-62,-17,-111,-17c0,0,-53,0,-89,14c0,0,-37,15,-60,44c0,0,-23,29,-30,68c0,0,-89,-70,-162,-98c0,0,-72,-28,-146,-28Z" 
id="f1_1x"
transform="scale(0.001,-0.001)" />

<path d="M427,50c0,0,63,0,113,33c0,0,49,34,80,107c0,0,30,74,30,173c0,0,0,96,-32,173c0,0,-26,61,-77,95c0,0,-51,34,-115,34c0,0,-85,0,-143,-67c0,0,-75,-84,-75,-243c0,0,0,-153,64,-234c0,0,57,-71,155,-71Zm-4,-67c0,0,-180,0,-271,112c0,0,-90,112,-90,264c0,0,0,111,47,198c0,0,46,86,131,133c0,0,85,47,192,47c0,0,109,0,190,-45c0,0,80,-46,126,-133c0,0,46,-87,46,-199c0,0,0,-112,-47,-199C747,161,699,74,618,28c0,0,-82,-45,-195,-45Z" 
id="f1_2b"
transform="scale(0.001,-0.001)" />

<path d="M426,-17c0,0,-153,0,-258,108C168,91,63,200,63,362c0,0,0,108,48,194c0,0,49,86,136,134c0,0,87,47,200,47c0,0,128,0,214,-63c0,0,86,-63,86,-127c0,0,0,-34,-20,-53c0,0,-20,-19,-46,-19c0,0,-13,0,-26,7c0,0,-12,7,-26,22c0,0,-6,6,-22,41c0,0,-20,44,-31,59c0,0,-23,29,-57,47c0,0,-34,17,-76,17c0,0,-63,0,-117,-35c0,0,-54,-35,-86,-103c0,0,-32,-68,-32,-163c0,0,0,-147,79,-233c0,0,67,-74,161,-74c0,0,44,0,88,14c0,0,44,15,84,43c0,0,29,20,95,91l48,-38C763,170,622,-17,426,-17Z" 
id="f1_1z"
transform="scale(0.001,-0.001)" />

<path d="M362,-17c0,0,-57,0,-103,25c0,0,-45,25,-62,59c0,0,-17,35,-17,120V645H49v63c0,0,63,14,102,44c0,0,38,29,62,77c0,0,24,48,39,144h53V720H527V645H305V196c0,0,0,-58,10,-82c0,0,10,-25,34,-41c0,0,25,-15,55,-15c0,0,70,0,156,63V49c0,0,-98,-66,-198,-66Z" 
id="f1_2g"
transform="scale(0.001,-0.001)" />

<path d="M410,69c0,0,50,0,114,29c0,0,63,29,121,83V462c0,0,0,61,-22,99c0,0,-23,38,-75,67c0,0,-52,28,-106,28c0,0,-65,0,-120,-35c0,0,-55,-36,-86,-102c0,0,-31,-67,-31,-162c0,0,0,-89,29,-155c0,0,29,-65,77,-99c0,0,49,-34,99,-34ZM375,-17c0,0,-135,0,-224,108c0,0,-89,108,-89,261c0,0,0,109,47,199c0,0,47,91,125,139c0,0,77,47,170,47c0,0,71,0,131,-24c0,0,60,-25,110,-74V968H520v64c0,0,51,4,93,17c0,0,42,13,105,45h56V190c0,0,0,-63,3,-77c0,0,8,-28,26,-39c0,0,18,-11,69,-11h32V0L645,-11V107c0,0,-74,-68,-139,-96c0,0,-66,-28,-131,-28Z" 
id="f1_20"
transform="scale(0.001,-0.001)" />

<path d="M56,0V63H74c0,0,56,0,76,9c0,0,20,9,28,33c0,0,5,12,5,83V613H56v62c0,0,66,7,99,18c0,0,33,10,94,44h54V595c0,0,98,83,168,113c0,0,70,29,141,29c0,0,61,0,108,-20c0,0,47,-21,77,-56c0,0,29,-35,39,-80c0,0,6,-27,6,-83V170c0,0,0,-59,8,-76c0,0,9,-16,28,-24c0,0,18,-7,91,-7V0H586V63h21c0,0,54,0,73,9c0,0,19,10,28,29c0,0,9,18,9,76V451c0,0,0,85,-14,118c0,0,-14,32,-47,53c0,0,-33,20,-84,20c0,0,-61,0,-129,-31c0,0,-69,-30,-133,-91V177c0,0,0,-58,9,-78c0,0,8,-19,28,-29c0,0,13,-7,71,-7h22V0Z" 
id="f1_2a"
transform="scale(0.001,-0.001)" />

<path d="M56,0V63H79c0,0,54,0,79,13c0,0,13,7,19,26c0,0,6,19,6,107V967H56v65c0,0,72,9,112,22c0,0,40,13,84,40h58V601c0,0,84,71,160,103c0,0,75,33,144,33c0,0,100,0,166,-59c0,0,64,-60,64,-146V166c0,0,0,-54,8,-71c0,0,9,-17,29,-25c0,0,20,-7,90,-7V0H586V63h28c0,0,55,0,72,8c0,0,17,9,25,28c0,0,8,20,8,82V435c0,0,0,85,-6,110c0,0,-12,43,-47,69c0,0,-35,26,-89,26c0,0,-62,0,-128,-30c0,0,-67,-30,-139,-90V147c0,0,0,-42,7,-57c0,0,8,-14,25,-21c0,0,17,-6,68,-6h31V0Z" 
id="f1_24"
transform="scale(0.001,-0.001)" />

<path d="M51,0V63H74c0,0,59,0,75,7c0,0,16,8,23,24c0,0,7,17,6,77V643H51v77H178V832c0,0,0,115,76,189c0,0,77,73,200,73c0,0,82,0,128,-34c0,0,46,-34,46,-75c0,0,0,-26,-19,-45c0,0,-18,-18,-45,-18c0,0,-25,0,-43,9c0,0,-18,9,-55,45c0,0,-39,37,-75,37c0,0,-25,0,-45,-15c0,0,-19,-16,-30,-45c0,0,-11,-30,-11,-91V720H445V643H305V159c0,0,0,-50,8,-66c0,0,7,-17,22,-24c0,0,15,-6,69,-6h31V0Z" 
id="f1_22"
transform="scale(0.001,-0.001)" />

<path d="M55,0V63H75c0,0,51,0,67,8c0,0,24,11,34,36c0,0,6,13,6,69V611H53v64c0,0,56,5,98,18c0,0,42,13,96,44h55V612c0,0,85,67,133,90c0,0,73,35,139,35c0,0,46,0,90,-16c0,0,43,-17,70,-42c0,0,26,-24,45,-67c0,0,78,70,145,97c0,0,67,28,135,28c0,0,66,0,116,-27c0,0,51,-27,73,-68c0,0,23,-41,23,-120V176c0,0,0,-54,2,-63c0,0,4,-15,16,-27c0,0,12,-13,28,-18c0,0,15,-5,58,-5h23V0H1025V63c0,0,64,0,83,9c0,0,19,8,29,28c0,0,9,19,9,76V505c0,0,0,62,-11,86c0,0,-11,24,-40,40c0,0,-29,16,-72,16c0,0,-53,0,-111,-28c0,0,-78,-39,-123,-87V176c0,0,0,-52,5,-68c0,0,5,-16,16,-26c0,0,12,-11,27,-15c0,0,15,-4,74,-4V0H545V63h21c0,0,44,0,62,10c0,0,18,10,28,32c0,0,8,17,8,71V494c0,0,0,70,-11,94c0,0,-11,25,-41,42c0,0,-31,17,-72,17c0,0,-49,0,-98,-24c0,0,-74,-35,-135,-91V149c0,0,0,-35,9,-51c0,0,10,-16,30,-26c0,0,20,-9,55,-9h27V0Z" 
id="f1_29"
transform="scale(0.001,-0.001)" />

<path d="M767,-35L758,0H71V144c0,0,152,99,384,291c0,0,120,99,159,170c0,0,29,52,29,110c0,0,0,66,-54,112c0,0,-55,46,-147,46c0,0,-68,0,-117,-25c0,0,-50,-25,-79,-71c0,0,-28,-46,-28,-98c0,0,0,-18,5,-50L72,615c0,0,-8,39,-8,74c0,0,0,107,50,187c0,0,51,79,157,131c0,0,105,52,234,52c0,0,119,0,214,-45c0,0,96,-45,145,-117c0,0,48,-72,48,-151c0,0,0,-80,-34,-149c0,0,-38,-78,-124,-150c0,0,-86,-72,-347,-232H657c0,0,61,0,78,6c0,0,16,7,28,25c0,0,12,19,20,65l6,34H934L866,-35Z" 
id="f0_m"
transform="scale(0.001,-0.001)" />

<path d="M166,-269l-41,49c0,0,154,125,154,208c0,0,0,10,-2,23c0,0,-13,-5,-25,-8C252,3,240,0,230,0c0,0,-36,0,-58,23c0,0,-21,23,-21,59c0,0,0,35,26,61c0,0,26,26,62,26c0,0,51,0,88,-40c0,0,36,-41,36,-105c0,0,0,-41,-17,-87c0,0,-18,-46,-50,-85c0,0,-33,-39,-130,-121Z" 
id="f1_g"
transform="scale(0.001,-0.001)" />

<path d="M379,147c0,0,24,0,57,12c0,0,32,13,72,38V328c0,0,-97,-15,-137,-29c0,0,-40,-15,-58,-37c0,0,-17,-22,-17,-45c0,0,0,-30,23,-50c0,0,22,-20,60,-20ZM287,-11c0,0,-107,0,-172,59c0,0,-66,60,-66,148c0,0,0,50,23,92c0,0,22,42,68,73c0,0,45,32,139,56c0,0,94,24,229,35v55c0,0,0,48,-8,67c0,0,-8,19,-29,31c0,0,-22,12,-54,12c0,0,-25,0,-45,-8c0,0,-20,-8,-32,-21c0,0,-11,-13,-27,-49c0,0,-20,-46,-48,-66c0,0,-28,-20,-66,-20c0,0,-48,0,-78,29c0,0,-31,30,-31,74c0,0,0,50,31,89c0,0,42,51,125,84c0,0,82,33,186,33c0,0,104,0,176,-34c0,0,73,-33,102,-80c0,0,28,-47,28,-142V239c0,0,0,-49,5,-63c0,0,6,-13,23,-24c0,0,17,-10,38,-10c0,0,20,0,55,12V8c0,0,-63,-19,-121,-19c0,0,-69,0,-117,22c0,0,-49,22,-81,67C540,78,465,29,404,9c0,0,-61,-20,-117,-20Z" 
id="f0_1x"
transform="scale(0.001,-0.001)" />

<path d="M42,0V144H70c0,0,45,0,58,5c0,0,13,6,19,18c0,0,6,13,6,55V888H42v144c0,0,133,9,276,63h72V222c0,0,0,-44,4,-52c0,0,5,-15,23,-22c0,0,11,-4,60,-4h27V0Z" 
id="f0_28"
transform="scale(0.001,-0.001)" />

<path d="M583,491c0,0,-5,45,-22,71c0,0,-16,25,-43,41c0,0,-27,15,-57,15c0,0,-32,0,-61,-16c0,0,-29,-15,-47,-42c0,0,-17,-27,-23,-69ZM457,-17c0,0,-170,0,-286,115C171,98,55,213,55,376c0,0,0,107,52,196c0,0,52,89,145,139c0,0,92,51,209,51c0,0,75,0,136,-22c0,0,61,-22,107,-62c0,0,46,-40,73,-97c0,0,28,-57,39,-118c0,0,4,-31,4,-97H319c0,0,1,-95,55,-153c0,0,54,-58,133,-58c0,0,50,0,109,30c0,0,58,30,116,91L834,173C834,173,746,73,655,27c0,0,-92,-44,-198,-44Z" 
id="f0_21"
transform="scale(0.001,-0.001)" />

<path d="M67,0V144H89c0,0,52,0,64,4c0,0,12,5,19,16c0,0,6,11,6,44V554H67V698c0,0,134,17,251,64h69V663c0,0,85,57,145,78c0,0,60,21,122,21c0,0,73,0,128,-31c0,0,56,-30,81,-76c0,0,26,-46,26,-130V215c0,0,0,-40,5,-51c0,0,6,-11,18,-17c0,0,9,-3,54,-3h36V0H564V144c0,0,50,0,56,2c0,0,19,5,25,17c0,0,6,12,6,51V487c0,0,0,53,-11,69c0,0,-18,26,-57,26c0,0,-32,0,-69,-14c0,0,-36,-14,-98,-58V214c0,0,0,-48,10,-59c0,0,11,-11,51,-11h24V0Z" 
id="f0_2a"
transform="scale(0.001,-0.001)" />

<path d="M532,575c0,0,81,0,119,17c0,0,38,16,61,51c0,0,23,35,23,83c0,0,0,71,-55,113c0,0,-41,31,-121,31H443V575ZM61,0V144H96c0,0,46,0,61,6c0,0,15,7,22,22c0,0,7,14,7,60V804c0,0,0,48,-6,63c0,0,-6,15,-19,23c0,0,-13,7,-50,7H61v143H611c0,0,104,0,173,-21c0,0,69,-21,119,-64c0,0,49,-44,76,-103c0,0,27,-59,27,-126c0,0,0,-133,-102,-223c0,0,-103,-90,-284,-90H443V218c0,0,0,-37,5,-47c0,0,7,-14,21,-21c0,0,13,-6,46,-6h53V0Z" 
id="f0_1g"
transform="scale(0.001,-0.001)" />

<path d="M459,151c0,0,62,0,98,50c0,0,46,63,46,175c0,0,0,104,-39,162c0,0,-32,46,-84,46c0,0,-30,0,-63,-14c0,0,-33,-13,-71,-40V304c0,0,0,-68,11,-94c0,0,11,-25,38,-42c0,0,27,-17,64,-17ZM528,-17c0,0,-56,0,-108,18c0,0,-51,19,-107,62L273,0H109V888H0v144c0,0,147,10,273,63h73V692c0,0,62,39,110,54c0,0,48,16,97,16c0,0,126,0,209,-93c0,0,96,-107,96,-286c0,0,0,-181,-96,-291C762,92,665,-17,528,-17Z" 
id="f0_1y"
transform="scale(0.001,-0.001)" />

<path d="M244,-12c0,0,-38,0,-66,27c0,0,-27,27,-27,66c0,0,0,39,27,66c0,0,27,27,66,27c0,0,40,0,67,-27c0,0,27,-27,27,-66c0,0,0,-39,-27,-66c0,0,-28,-27,-67,-27Z" 
id="f1_i"
transform="scale(0.001,-0.001)" />

<path d="M274,0V63c0,0,66,0,81,4c0,0,26,8,38,29c0,0,11,21,11,77V910c0,0,0,34,-4,41c0,0,-3,8,-12,12c0,0,-9,4,-39,4c0,0,-81,0,-130,-21c0,0,-48,-21,-91,-70c0,0,-44,-50,-74,-130l-67,24L94,1076h52l7,-36H792l6,36h55L962,770L895,746c0,0,-49,122,-115,172c0,0,-66,49,-170,49c0,0,-43,0,-51,-3c0,0,-9,-4,-12,-12c0,0,-3,-8,-3,-52V178c0,0,0,-51,5,-69c0,0,6,-18,16,-28c0,0,11,-9,29,-14c0,0,18,-4,82,-4V0Z" 
id="f1_1k"
transform="scale(0.001,-0.001)" />

<path d="M0,0V62c0,0,36,0,56,8c0,0,21,7,41,22c0,0,33,27,48,43L365,360L178,573c0,0,-35,40,-56,56c0,0,-20,16,-40,23c0,0,-19,6,-54,6v62H403V658H377c0,0,-22,0,-41,-5c0,0,-11,-3,-18,-12c0,0,-7,-8,-7,-16c0,0,0,-17,28,-52L446,439L570,573c0,0,34,37,34,56c0,0,0,14,-12,21c0,0,-12,8,-51,8H513v62H831V658c0,0,-47,-2,-81,-20c0,0,-34,-17,-80,-66L499,396L711,153l9,-11c0,0,31,-40,70,-65c0,0,21,-15,67,-15V0H491V62h31c0,0,36,0,46,4c0,0,16,8,16,26c0,0,0,16,-36,61L413,318L262,153L247,135l-9,-9c0,0,-18,-21,-18,-37c0,0,0,-14,11,-21c0,0,12,-6,52,-6h29V0Z" 
id="f1_2k"
transform="scale(0.001,-0.001)" />

<path d="M414,-17c0,0,-58,0,-101,16c0,0,-43,15,-75,46c0,0,-33,31,-50,76c0,0,-17,44,-17,94V554c0,0,0,46,-8,64c0,0,-8,18,-27,29c0,0,-19,11,-52,11H16v63l282,10V251c0,0,0,-63,18,-100c0,0,17,-38,53,-58c0,0,37,-21,85,-21c0,0,60,0,135,32c0,0,76,32,151,96V548c0,0,0,55,-8,72c0,0,-8,17,-29,28c0,0,-21,10,-66,10H583v63l282,10V175c0,0,0,-54,9,-75c0,0,9,-20,27,-29c0,0,17,-8,70,-8h23V0L747,-12V126C747,126,645,44,569,13c0,0,-76,-30,-155,-30Z" 
id="f1_2h"
transform="scale(0.001,-0.001)" />

<path d="M137,-342c0,0,-77,0,-123,35c0,0,-38,30,-38,75c0,0,0,27,17,46c0,0,16,18,39,18c0,0,18,0,33,-8c0,0,10,-3,41,-31c0,0,37,-33,52,-41c0,0,15,-7,30,-7c0,0,31,0,61,21c0,0,29,21,50,59c0,0,30,54,49,102L379,0L133,551c0,0,-26,58,-44,78c0,0,-18,21,-36,25c0,0,-10,3,-60,3v63H354V657H324c0,0,-43,0,-51,-2c0,0,-10,-3,-16,-13c0,0,-7,-9,-7,-23c0,0,0,-20,20,-68L444,145L604,533c0,0,29,69,29,91c0,0,0,17,-13,25c0,0,-13,8,-58,8H527v63H832V657H815c0,0,-45,0,-59,-6c0,0,-13,-6,-26,-24c0,0,-12,-18,-40,-83L416,-92c0,0,-30,-69,-66,-128c0,0,-36,-58,-92,-90c0,0,-55,-32,-121,-32Z" 
id="f1_2l"
transform="scale(0.001,-0.001)" />

<path d="M413,-272c0,0,102,0,175,22c0,0,73,22,104,56c0,0,24,27,24,64c0,0,0,31,-20,53c0,0,-19,21,-71,37c0,0,-53,16,-99,24L285,21c0,0,-72,-60,-95,-98c0,0,-24,-38,-24,-73c0,0,0,-30,24,-58c0,0,23,-28,80,-46c0,0,57,-18,143,-18Zm-7,571c0,0,47,0,89,25c0,0,42,24,65,66c0,0,23,42,23,94c0,0,0,82,-50,133c0,0,-50,51,-128,51c0,0,-74,0,-124,-53c0,0,-51,-53,-51,-131c0,0,0,-52,23,-94c0,0,23,-42,65,-67c0,0,42,-24,88,-24ZM391,-342c0,0,-120,0,-194,25c0,0,-75,25,-116,72c0,0,-30,33,-30,69c0,0,0,46,30,90c0,0,30,44,140,124c0,0,-71,18,-101,42c0,0,-39,30,-39,69c0,0,0,20,7,36c0,0,7,17,23,34c0,0,17,17,59,47c0,0,27,18,38,27c0,0,-54,39,-82,87c0,0,-27,48,-27,105c0,0,0,95,73,166c0,0,89,86,240,86c0,0,67,0,117,-17c0,0,50,-16,103,-60c0,0,34,40,68,59c0,0,35,18,64,18c0,0,27,0,46,-16c0,0,18,-16,18,-39c0,0,0,-24,-16,-40c0,0,-17,-16,-42,-16c0,0,-11,0,-29,3c0,0,-21,6,-35,6c0,0,-19,0,-39,-18c0,0,47,-56,47,-131c0,0,0,-103,-87,-179c0,0,-87,-75,-219,-75c0,0,-74,0,-148,31c0,0,-49,-35,-56,-43c0,0,-10,-13,-10,-27c0,0,0,-22,22,-36c0,0,28,-18,112,-31L544,94c0,0,72,-11,144,-37c0,0,73,-26,106,-67c0,0,32,-42,32,-100c0,0,0,-98,-91,-157c0,0,-116,-75,-344,-75Z" 
id="f1_23"
transform="scale(0.001,-0.001)" />

<path d="M499,66c0,0,67,0,121,34c0,0,55,35,86,104c0,0,31,68,31,164c0,0,0,135,-66,216c0,0,-53,67,-148,67c0,0,-50,0,-100,-18c0,0,-51,-18,-128,-68V278c0,0,0,-67,10,-95c0,0,10,-27,40,-55c0,0,30,-29,71,-46c0,0,40,-16,83,-16Zm37,-83c0,0,-87,0,-156,36c0,0,-51,27,-98,83L241,0H171V970H42v62c0,0,49,3,96,17c0,0,46,15,103,45h54V639c0,0,66,49,135,74c0,0,69,24,142,24c0,0,83,0,154,-44c0,0,71,-45,111,-127c0,0,41,-81,41,-192c0,0,0,-175,-102,-287C776,87,681,-17,536,-17Z" 
id="f1_1y"
transform="scale(0.001,-0.001)" />

<path d="M504,63c0,0,97,0,168,73c0,0,71,73,71,221c0,0,0,138,-59,214c0,0,-59,75,-139,75c0,0,-52,0,-114,-27c0,0,-61,-28,-131,-83V280c0,0,0,-51,6,-75c0,0,9,-38,35,-69c0,0,26,-30,70,-52c0,0,44,-21,93,-21ZM48,-331v62H81c0,0,52,0,67,8c0,0,15,8,23,24c0,0,4,13,4,78V613H48v62c0,0,56,0,99,14c0,0,43,14,94,48h59V613c0,0,93,74,155,99c0,0,62,25,124,25c0,0,128,0,218,-100c0,0,90,-99,90,-260c0,0,0,-177,-102,-290C785,87,691,-17,544,-17c0,0,-73,0,-137,27c0,0,-46,20,-107,70V-165c0,0,0,-55,3,-65c0,0,4,-14,15,-24c0,0,11,-10,28,-13c0,0,13,-2,85,-2v-62Z" 
id="f1_2c"
transform="scale(0.001,-0.001)" />

<path d="M369,-352c0,0,-73,64,-127,162c0,0,-55,98,-81,225c0,0,-27,128,-27,343c0,0,0,214,30,342c0,0,29,129,96,241c0,0,50,84,109,126l46,-46c0,0,-41,-42,-68,-104c0,0,-39,-94,-57,-219c0,0,-17,-126,-17,-355c0,0,0,-236,16,-354c0,0,17,-117,56,-209c0,0,27,-64,70,-110l-46,-42Z" 
id="f1_c"
transform="scale(0.001,-0.001)" />

<path d="M649,459L489,906L328,459ZM2,0V63c0,0,43,0,62,8c0,0,19,9,34,28c0,0,14,19,37,80l324,861H583L905,170c0,0,24,-65,48,-86c0,0,24,-21,65,-21h17V0H665V63c0,0,18,1,35,1c0,0,36,0,47,8c0,0,21,14,21,35c0,0,0,16,-20,77L679,385H302L221,160c0,0,-13,-35,-13,-48c0,0,0,-15,8,-26c0,0,8,-12,21,-17c0,0,14,-6,43,-6c0,0,20,0,33,0V0Z" 
id="f1_11"
transform="scale(0.001,-0.001)" />

<path d="M89,-352l-46,47c0,0,41,42,67,104c0,0,40,93,57,218c0,0,18,125,18,355c0,0,0,235,-17,353c0,0,-16,118,-55,210c0,0,-27,64,-70,109l46,43c0,0,73,-63,127,-161c0,0,54,-98,81,-226c0,0,27,-128,27,-343c0,0,0,-214,-30,-343c0,0,-29,-127,-96,-239c0,0,-51,-85,-109,-127Z" 
id="f1_d"
transform="scale(0.001,-0.001)" />

<path d="M59,0V144h42c0,0,39,0,54,7c0,0,15,7,22,22c0,0,7,15,7,57V813c0,0,0,40,-5,52c0,0,-7,17,-21,24c0,0,-13,8,-42,8H59v143H530L711,408l185,632h481V897h-52c0,0,-41,0,-57,-18c0,0,-16,-17,-16,-66V222c0,0,0,-39,4,-48c0,0,7,-15,19,-21c0,0,16,-9,43,-9h59V0H876V144h39c0,0,42,0,57,6c0,0,15,7,22,21c0,0,7,14,7,51V862L748,0H604L359,835V202c0,0,0,-22,8,-34c0,0,8,-12,22,-18c0,0,15,-6,47,-6h50V0Z" 
id="f2_1d"
transform="scale(0.001,-0.001)" />

<path d="M59,0V144H85c0,0,52,0,70,7c0,0,18,8,25,26c0,0,4,11,4,64V808c0,0,0,46,-7,60c0,0,-6,14,-19,22c0,0,-14,7,-53,7H59v143H928L1046,712L911,663c0,0,-34,81,-80,130c0,0,-46,49,-102,65c0,0,-55,16,-129,16H441V615h52c0,0,59,0,80,9c0,0,20,8,29,26c0,0,9,19,9,73v40H744V322H611v45c0,0,0,45,-11,66c0,0,-11,21,-29,29c0,0,-19,7,-83,7H441V230c0,0,0,-38,4,-47c0,0,3,-8,14,-12c0,0,11,-5,47,-5h87c0,0,98,0,165,28c0,0,67,28,120,91c0,0,53,63,81,149l136,-47L959,0Z" 
id="f2_15"
transform="scale(0.001,-0.001)" />

<path d="M280,0V144h30c0,0,51,0,66,6c0,0,14,6,21,22c0,0,8,17,8,67V851c0,0,0,26,-6,33c0,0,-6,7,-26,7c0,0,-38,0,-86,-29c0,0,-48,-29,-85,-82c0,0,-15,-21,-63,-118L2,711l128,365h99l10,-36H826l13,36h99L1067,711L928,662c0,0,-46,91,-66,119c0,0,-40,55,-92,86c0,0,-38,24,-77,24c0,0,-18,0,-24,-9c0,0,-7,-8,-7,-39V244c0,0,0,-53,4,-66c0,0,3,-13,12,-21c0,0,9,-8,25,-11c0,0,16,-2,84,-2V0Z" 
id="f2_1k"
transform="scale(0.001,-0.001)" />

<path d="M610,480L509,765L404,480ZM2,0V144c0,0,39,0,56,6c0,0,18,7,30,21c0,0,11,13,25,49l322,820H669L981,237c0,0,25,-64,45,-79c0,0,19,-14,68,-14c2,0,3,0,5,0V0H606V144h30c0,0,41,0,58,11c0,0,16,11,16,27c0,0,0,13,-14,55l-32,94H349L310,226c0,0,-12,-33,-12,-44c0,0,0,-11,8,-21c0,0,9,-10,28,-14c0,0,13,-3,71,-3V0Z" 
id="f2_11"
transform="scale(0.001,-0.001)" />

<path d="M63,0V144h49c0,0,31,0,46,8c0,0,16,8,23,22c0,0,7,14,7,48V812c0,0,0,37,-7,53c0,0,-7,17,-20,24c0,0,-13,8,-44,8H63v143H570V897H526c0,0,-37,0,-47,-4c0,0,-18,-8,-26,-23c0,0,-8,-15,-8,-49V226c0,0,0,-36,3,-44c0,0,4,-8,14,-13c0,0,10,-5,40,-5c0,0,100,0,161,26c0,0,61,27,110,84c0,0,49,58,84,158L994,385L857,0Z" 
id="f2_1c"
transform="scale(0.001,-0.001)" />

<path d="M561,-17c0,0,-97,0,-173,29c0,0,-76,29,-133,84c0,0,-57,55,-80,116c0,0,-22,61,-22,181V794c0,0,0,56,-6,72c0,0,-6,16,-20,23c0,0,-13,8,-52,8H27v143H536V897H486c0,0,-35,0,-49,-9c0,0,-15,-8,-22,-23c0,0,-6,-15,-6,-62V424c0,0,0,-106,21,-158c0,0,21,-52,64,-79c0,0,43,-28,105,-28c0,0,61,0,109,30c0,0,48,30,68,76c0,0,21,46,21,152V834c0,0,0,26,-7,37c0,0,-9,15,-24,21c0,0,-10,5,-53,5H673v143h429V897h-34c0,0,-49,0,-61,-6c0,0,-18,-9,-26,-26c0,0,-6,-12,-6,-62V393c0,0,0,-114,-33,-191C942,202,896,98,797,40c0,0,-100,-57,-236,-57Z" 
id="f2_1l"
transform="scale(0.001,-0.001)" />

<path d="M593,600c0,0,92,0,137,17c0,0,45,17,68,48c0,0,22,31,22,76c0,0,0,41,-21,71c0,0,-21,29,-60,43c0,0,-40,14,-128,14H439V600ZM55,0V144h46c0,0,37,0,52,8c0,0,16,7,23,23c0,0,4,9,4,56V816c0,0,0,35,-6,49c0,0,-5,15,-18,19c0,0,-18,8,-41,8H55v148H697c0,0,62,0,135,-11c0,0,74,-11,133,-49c0,0,60,-38,92,-96c0,0,33,-59,33,-132c0,0,0,-118,-84,-192c0,0,-85,-73,-201,-96L1019,215l9,-11c0,0,21,-25,38,-38c0,0,17,-12,34,-17c0,0,18,-5,48,-5h45V0H859L526,448H439V241c0,0,0,-54,6,-69c0,0,6,-14,19,-21c0,0,13,-7,52,-7h48V0Z" 
id="f2_1i"
transform="scale(0.001,-0.001)" />

<path d="M568,-17c0,0,-143,0,-260,69c0,0,-117,69,-185,193c0,0,-68,125,-68,279c0,0,0,153,67,274c0,0,68,121,189,190c0,0,121,70,263,70c0,0,68,0,136,-17c0,0,69,-18,117,-47l28,46H959l94,-344L916,651c0,0,-71,113,-111,154c0,0,-41,41,-94,65c0,0,-52,23,-102,23c0,0,-71,0,-133,-41c0,0,-61,-41,-97,-120c0,0,-36,-79,-36,-191c0,0,0,-123,39,-213c0,0,40,-90,103,-134c0,0,64,-43,140,-43c0,0,53,0,102,21c0,0,48,22,66,49c0,0,18,26,18,72v38c0,0,0,39,-6,49c0,0,-8,15,-22,22c0,0,-13,7,-53,7H671V554h507V409h-38c0,0,-37,0,-51,-7c0,0,-14,-7,-20,-21c0,0,-7,-15,-7,-56V0H909L870,75C870,75,799,28,724,5c0,0,-75,-22,-156,-22Z" 
id="f2_17"
transform="scale(0.001,-0.001)" />

<path d="M280,0V144h27c0,0,54,0,69,7c0,0,15,7,23,24c0,0,8,16,8,67V405L129,827c0,0,-33,49,-57,61c0,0,-18,9,-71,9v143H518V897H479c0,0,-41,0,-51,-7c0,0,-11,-6,-11,-20c0,0,0,-20,24,-59L579,586L730,821c0,0,20,31,22,34c0,0,3,9,3,17c0,0,0,13,-8,19c0,0,-9,6,-40,6H653v143h416V897c0,0,-55,-1,-77,-13c0,0,-22,-12,-52,-57L663,422V236c0,0,0,-49,6,-64c0,0,7,-14,22,-21c0,0,15,-7,60,-7h37V0Z" 
id="f2_1p"
transform="scale(0.001,-0.001)" />


</defs>
</svg>